<?xml version="1.0" encoding="utf-8"?>
<!-- Generator: Adobe Illustrator 24.2.0, SVG Export Plug-In . SVG Version: 6.00 Build 0)  -->
<svg version="1.1" id="Layer_1" xmlns="http://www.w3.org/2000/svg" xmlns:xlink="http://www.w3.org/1999/xlink" x="0px" y="0px"
	 viewBox="0 0 1125 1125" style="enable-background:new 0 0 1125 1125;" xml:space="preserve">
<style type="text/css">
	.st0{fill:#DD4B4B;stroke:#DD4B4B;stroke-width:1.5;stroke-miterlimit:30;}
</style>
<path class="st0" d="M935,691.4c0,0-3.4,3.1-3.4,3.1c-4.9,4.4-9.9,9.1-16,6.7c-1.7-0.6-2.8-2.9-3.1-4.6
	c-0.3-12.6,5.3-24.2,10.8-35.5l1.4-3c15.7-26.3,33.9-57.4,60.7-78.9c4.5-3.3,9.4-6,14.6-3.9c1.2,1.1,2.6,3.1,2.6,5
	c0,0.6-0.5,2.2-0.9,2.8c-7.5,12.2-14.6,24.9-21.5,37.2C966.6,644.4,952.5,669.4,935,691.4L935,691.4z M789.8,629.3
	c-1,0.7-19.1-5.4-22.6-22.2c-3-14.5,7-25.8,16.6-31.5c4.1-3.3,10.3-4.4,14.9-2.8c4.2,2.9,5.4,8,5.4,13.5c0,3.4-0.4,6.8-0.8,10
	c0,0-0.1,0.6-0.1,0.7C800.1,608.3,795.5,619.4,789.8,629.3L789.8,629.3z M720.7,697.8c-1.8-2.8-2.5-5.8-2.5-9
	c-0.4-20,21.1-55.9,36.2-75.4h0c6.3,13.9,20.7,22.9,29.3,26.7C773,664.2,736.1,715.8,720.7,697.8L720.7,697.8z M981.8,701.4
	c-3.6,2.4-8.6,0.6-6.7-5c4.7-14.3,23.3-43.4,23.3-43.4l51.9-92.5h-35.5c-1.7,2.8-5.3,9.2-5.3,9.2c-1.6-2.8-6.6-8.9-8.6-10.2
	c-8.7-5.5-21.4-2.9-30.2,2.1c-38.2,22.5-66.1,66.8-88.1,101.4c0,0-23.1,38.5-36,41.3c-10,0.8-9-12.8-8.6-15.9
	c3.9-22.9,12.9-44.6,22-64.3c18.5-12.9,39.5-29.7,58.7-48.2c41.5-39.9,76.6-85.1,81.7-95.2c0,0-5.5,1.1-12.1,1.3
	c-31.9,44.8-97.3,109.9-117.2,119.6c8.8-21.2,65.5-122.6,113.8-171.1l7.6-7.4c11.8-11.5,23.9-23.4,33.4-25.3c1-0.1,2.3,0,3.4,2.4
	c0.4,9-2.9,15.6-6.7,23.2l-5.3,11c0,0,7.6-1.4,12.6-3.1c5.8-10.9,12.2-23.2,9.8-37.8c-0.8-4.7-4.2-8.3-8.6-9.1
	c-14.4-2.8-30.1,8-42.7,16.6l-0.5,0.3C922.8,452.5,868,526.2,820.1,626.9c-3.5,2.6-16.9,5.8-19.2,4.3c4.7-9.8,10.7-23,13.7-37.3
	c0.5-4.1,1-8.3,1-12.3c0-8.8-2.1-17-9.9-22.8c-9.2-4.6-20.5-2.4-28.2,1c-34.3,14.3-59.9,49.6-78.4,78.7
	c-9.9,18.5-19.9,38.3-22.6,60.9c-1.9,17.8,2,29.2,12,34.9c10.3,5.3,23.3-0.2,28.4-2.9c34.7-18.4,59-55.2,78.1-88.9
	c0.8-0.1,11.2-0.4,19.1-2.4c0.1,0,0.1,0,0.3,0.1C814,641.8,810,654,810,654c-12.1,35.7-17.7,60-6.3,74.4
	c16.4,20.3,43.4-0.7,65.5-28.5c-4.7,33.3,12.4,38.5,25.5,35.9c15-4.1,31.8-20.2,39.5-28.5c-2.5,9.7-1.8,27,11.8,28.8
	c9.4,1.7,16.4-3.4,24.5-7.8c29.1-15.9,63.9-69,73-84.3h-11.9C1018.8,663.6,1002.4,689.2,981.8,701.4L981.8,701.4z M533.6,503.2h33.3
	l18.8-30.7h-33.3L533.6,503.2z M1065.5,421.7c-25.4,14.5-51.7,23.9-83.6,20.6c-8.8,10-17.4,20.3-25.3,30.9
	c44.7,11.4,92.1-14,118.6-38.2c28-24.4,42.3-55.1,42.3-55.1S1096.5,404.1,1065.5,421.7L1065.5,421.7z M785.5,414
	c-5.3,61-52.5,96.9-64.2,99.7c-7.1,1.4-19.2-1.7-8.4-27.3c15.9-34.5,43-63.8,72.1-78.8C785.8,410.1,785.8,411.7,785.5,414L785.5,414
	z M693.6,567.8c-3.4-7.3-11.4-12-20-11.5c-27.8,2.6-55,25.5-69.2,58.5c-7.5,16.9-11.6,30.9-14.3,53.2c8.6-10,26.3-26.4,46.3-35.4
	c0,0,2.7-21.3,16.6-40.3c5.3-7.9,15.8-20.5,27.6-17.1c10.3,3.5,6.7,32.2-7,59.9c-10.1,20.4-25.6,40.8-41.3,54.9
	c-13.9,11.8-34.4,26.1-52.4,15.1c-11.3-6.7-17.1-20.8-15.9-39c5.4-51.5,28.7-95.4,62.1-145.4c34.4-46.4,72.4-94.1,123.6-119.5
	c10.4-5.3,20.1-6.5,28.4-3.3c0,0-48,26.5-70.9,75.6c-5.8,12.5-13.9,29.3-5.8,44.2c4.3,7.8,11.8,8.4,17.9,8
	c28.1-6.5,46.2-32.9,61-56.9c8.6-18.3,16.2-36.4,16.2-56.6c0-2.4-0.1-5.7-0.3-8.2c13.4-7.1,40.9,5.5,40.9,5.5
	c21.5,7.1,67.2,42.4,82.6,49.1c7.5-8.8,19.9-22,26.9-28.7l-10.1-6.2c-16.1-9.9-33.2-19.3-50-28.6c-38.1-20.9-69.2-13.6-85-7.9
	c-6.2,2.2-11.9,4.2-11.9,4.2c-11.7-12.9-30.9-11.6-45.1-8.2c-50.9,14.7-98.2,50.5-148.9,112.7c-37.3,48.7-60.4,90.7-72.7,132.3
	c-9.5,28-12.4,69.1,10.8,93.5c19.7,20.7,45.9,16.2,64.3,8.8c40-19.8,75.9-62.5,93.9-111.6C696.2,604.1,701,583.5,693.6,567.8
	L693.6,567.8z M250.2,520.4c-0.1,0.2-6.8,15.7-6.8,15.7c-1,0.8-2.5,0.4-4.3,0l-3-0.5c-9.5-3-16.6-9.3-18.8-16.8
	c-3-14.7,9.5-26.2,15-30.4c5.3-3.7,13.5-5.6,18.3-1.8c2.9,3.5,4.1,8,4.1,12.9C254.6,506,252.5,513.5,250.2,520.4L250.2,520.4z
	 M235.8,549.9c0,0-0.3,0.9-0.5,1.2c0,0-15.3,25-15.3,25c-9.2,12.4-20.7,27.9-35.1,35.3c-4.3,1.4-10.1,2.3-13.1-1.4
	c-6.4-7.7-3.1-18.3-0.4-26.8l0.9-3.1c7.6-20.8,19.7-39.2,31.5-56.2c0.1-0.1,0.5-0.2,0.6-0.2c0,0.1,0.1,0.1,0.1,0.3
	c7.4,14.3,21.3,20.9,31.6,24c0.1,0,0.1,0.1,0.1,0.3C236.3,548.6,236.2,549,235.8,549.9L235.8,549.9z M426.5,533.5
	c6.8-9.5,26.7-34.9,31.5-39.2c16.3-14.4,22.8-8.1,23.4-3.6c-15.2,27.4-33.1,58.7-50,86.9c0-0.1-5.3,8.1-5.3,8.1
	c-7.4,11.4-14.9,21.2-27.2,28.1c-1.7,0.5-4.6,0.7-6.5-0.7c-2.3-1.5-3.2-4.1-3-6.7C390.2,597.5,399.1,570.6,426.5,533.5L426.5,533.5z
	 M257.5,471.4c-21-13.9-63.4,12.7-97.2,58.2c-31,40.8-44.4,88.3-29.8,110.2c21.7,25.8,61.9-11.7,79-31.8l2.2-2.4
	c11.6-12.6,20.6-27.7,29.3-42.2c0,0,8-13.3,8.4-13.9c4.9-0.9,10.9-2.3,17.6-4.3c-0.1,0.3-25.7,43.5-23,64.9
	c0.8,6.5,0.2,30.4,23.4,37.7c30.9,5.2,55.6-18.9,77.4-40.3c0,0,3.7-3.6,5.8-5.6c-0.5,2.1-1.2,5-1.2,5c-9.1,31.6,3.1,38.3,10.8,40.7
	c23.1,6.7,50.6-26.9,50.7-26.9c-0.7,10.6-2.8,19.4,8.3,26.4c10.5,3.8,21.1-2,29.2-7.4c29.1-20.6,52.5-52.9,71.5-80.8h-12.1
	c-0.1,0-29.8,43.2-49.1,52.6c0,0-3.5,1.8-5.6,0.4c-2.5-2.1-1.5-6.6,0-9.8c0.1-0.2,74.4-129.7,74.4-129.7h-35.1c0,0-3.8,6.2-4.1,6.6
	c-0.2-0.2-0.8-1.3-1.2-1.8c-21.7-30.2-70.9,16.3-108,70.1c-14.3,20.7-32.4,44.1-51.2,60.9c0,0-27.9,25.7-39.8,7.2
	c-4.4-7.8-3-19.1-0.6-26.5c13.9-39.7,37.8-75.7,65-97.5c7.7-6,16-7.8,20.2-5.2c3.9,2.4,4.6,8.2,2.1,12.1c-6.3-0.2-11.4,1.7-15.5,6
	c-8.1,8.6-11,16.8-8.4,24.6c12.6,18,37.6-17.6,36.4-39.2c-0.4-7.8-4.6-15.1-10.7-18.7c-9.2-5.5-23.1-4.1-32.2,0.3
	c-12.1,4.6-31.3,20.6-42.5,33.1c-14.1,15.6-38.2,33-45.8,31C258.5,529.1,278.9,487.1,257.5,471.4L257.5,471.4z M433.7,698.5
	c-41.3-26.7-97.4-31.4-187.8-6.2c-96.4,22.8-128.5,37.4-170.7,8.1c-16.2-14.4-22-37.6-17.7-70.9c10.1-54.4,37.3-106.8,85.6-164.8
	c27-30.2,52-56.1,85-66.5c25.3-6.5,23,13.5,19.9,16.3c-3.2,0-8.7,0.5-12.9,3.3c-3.4,2.7-12.8,11.2-13.3,22.8
	c-0.7,17.7,17.5,14,25.3,4.3c8.5-10.9,20.9-31.8,11.1-51.3c-4.1-6.9-11.2-11.7-20.1-13.4c-30.3-1.7-58.4,12.8-84.4,28.8
	C97.1,448.5,51.6,503.5,25.8,563.7C11,600-2.4,652.1,17.7,694.4c15.6,29.4,47.9,45,86.4,41.7c27-2.9,59.7-11.6,81.7-16.9
	c22-5.3,134.5-44.2,171.5,23.5c0,0,12.3-24,43-24.5c25.3-2.3,61.7,7.4,88.3,26.9C479.7,731.8,454.7,712.1,433.7,698.5L433.7,698.5z"
	/>
</svg>
