<svg width="100%" height="100%" viewBox="0 0 587 344" fill="none" xmlns="http://www.w3.org/2000/svg">
<path fill-rule="evenodd" clip-rule="evenodd" d="M225.885 40.4504C258.544 69.2827 249.299 84.723 175.202 120.056C68.7833 170.796 -36.7523 205.422 12.4313 292.419C40.5197 342.109 221.726 339.113 284.669 325.037C339.398 312.807 368.564 294.702 402.42 303.568C505.871 330.675 633.215 304.867 570.201 192.844C520.604 104.672 388.358 28.6679 302.984 5.79613C245.353 -9.64411 192.246 10.7552 225.885 40.4504Z" fill="url(#paint0_linear)"/>
<path fill-rule="evenodd" clip-rule="evenodd" d="M105.641 340.627H230.006L225.918 309.102H101.551L105.641 340.627Z" fill="#34304E"/>
<path fill-rule="evenodd" clip-rule="evenodd" d="M505.475 341.894L490.222 282.917C490.12 282.589 490.093 282.242 490.142 281.902C490.191 281.562 490.315 281.237 490.504 280.951C490.683 280.684 490.928 280.467 491.215 280.321C491.501 280.175 491.821 280.106 492.142 280.119H515.416C516.777 280.119 518.118 281.305 518.4 282.753L530.313 343.504L505.475 341.894Z" fill="#8D8CD3"/>
<path fill-rule="evenodd" clip-rule="evenodd" d="M493.656 296.433L490.222 282.917C490.121 282.589 490.093 282.242 490.142 281.902C490.191 281.562 490.315 281.237 490.505 280.951C490.684 280.683 490.928 280.466 491.215 280.321C491.502 280.175 491.821 280.106 492.143 280.119H515.416C516.777 280.119 518.118 281.304 518.401 282.753L521.085 296.433H493.656Z" fill="#51509B"/>
<path fill-rule="evenodd" clip-rule="evenodd" d="M88.7641 341.894L104.018 282.917C104.119 282.589 104.146 282.242 104.097 281.902C104.048 281.562 103.925 281.237 103.735 280.951C103.556 280.684 103.312 280.467 103.026 280.322C102.74 280.176 102.421 280.106 102.1 280.119H78.8205C77.4598 280.119 76.1189 281.305 75.836 282.753L63.9234 343.504L88.7641 341.894Z" fill="#8D8CD3"/>
<path fill-rule="evenodd" clip-rule="evenodd" d="M100.583 296.434L104.018 282.917C104.119 282.589 104.146 282.242 104.097 281.902C104.048 281.562 103.925 281.237 103.735 280.951C103.556 280.684 103.312 280.467 103.026 280.322C102.74 280.176 102.421 280.106 102.1 280.119H78.8205C77.4598 280.119 76.1189 281.305 75.836 282.753L73.1514 296.434H100.583Z" fill="#51509B"/>
<path d="M38.3358 276.614H555.442V286.829H38.3358V276.614Z" fill="#34304E"/>
<path fill-rule="evenodd" clip-rule="evenodd" d="M208.625 64.4961L213.392 64.448L408.998 189.995H121.231L116.171 99.2126L208.625 64.4961Z" fill="#A4E8FE"/>
<path fill-rule="evenodd" clip-rule="evenodd" d="M138.641 61.0788V102.381C138.629 105.945 137.208 109.359 134.688 111.879C132.168 114.4 128.753 115.821 125.189 115.833H59.0352V115.708C72.515 113.875 70.6762 100.333 70.6762 90.8531V56.7534C70.6866 53.1893 72.1073 49.7742 74.6277 47.2543C77.1482 44.7343 80.5636 43.3144 84.1277 43.3047H150.288V43.4263C147.067 43.8721 144.115 45.4657 141.975 47.9143C139.835 50.3628 138.651 53.5016 138.641 56.7534V61.0788Z" fill="#C5F1FF"/>
<path fill-rule="evenodd" clip-rule="evenodd" d="M125.291 20.8459V79.7949C125.279 83.3585 123.858 86.7727 121.338 89.2923C118.818 91.812 115.403 93.2324 111.84 93.2436H45.6797V93.1219C59.1623 91.2888 57.3208 77.7467 57.3208 68.267V16.5233C57.3312 12.9589 58.7517 9.54356 61.2721 7.02318C63.7925 4.50279 67.2079 3.08223 70.7722 3.07178H136.943V3.19342C133.723 3.64103 130.773 5.23582 128.634 7.6847C126.495 10.1336 125.312 13.272 125.302 16.5233L125.291 20.8459Z" fill="#A4E8FE"/>
<path d="M91.3044 14.6731H115.899V48.159H91.3044V14.6731Z" fill="#69BDD8"/>
<path d="M63.434 14.6731H88.0286V27.7286H63.434V14.6731Z" fill="#69BDD8"/>
<path d="M63.434 30.7246H88.0286V65.4779H63.434V30.7246Z" fill="#69BDD8"/>
<path d="M91.3044 50.2188H115.899V65.4779H91.3044V50.2188Z" fill="#69BDD8"/>
<path d="M323.429 29.8562H415.838V106.718H323.429V29.8562Z" fill="#5996AA"/>
<path d="M321.098 27.5251H413.507V104.387H321.098V27.5251Z" fill="#9FDAED"/>
<path fill-rule="evenodd" clip-rule="evenodd" d="M413.507 94.4854V104.387H321.098V35.1743L413.507 94.4854Z" fill="#C3EEFC"/>
<path d="M326.911 32.3625H407.694V99.5522H326.911V32.3625Z" fill="#7FC7DE"/>
<path fill-rule="evenodd" clip-rule="evenodd" d="M407.694 93.3935V99.552H326.911V41.5422L407.694 93.3935Z" fill="#A4E8FE"/>
<path d="M322.077 49.5566H324.784V68.2869H322.077V49.5566Z" fill="#CBF3FF"/>
<path d="M322.077 42.8691H324.784V46.5156H322.077V42.8691Z" fill="#CBF3FF"/>
<path fill-rule="evenodd" clip-rule="evenodd" d="M529.43 120.118V191.464C529.416 195.777 527.697 199.909 524.647 202.959C521.598 206.009 517.466 207.729 513.153 207.744H433.077V207.594C449.395 205.376 447.168 188.983 447.168 177.511V114.885C447.181 110.572 448.9 106.439 451.95 103.389C455 100.339 459.133 98.62 463.446 98.6073H543.521V98.7544C539.625 99.2958 536.055 101.225 533.466 104.187C530.878 107.149 529.445 110.945 529.43 114.879V120.118Z" fill="#93D8EE"/>
<path fill-rule="evenodd" clip-rule="evenodd" d="M517.775 101.77V173.115C517.761 177.428 516.041 181.561 512.992 184.611C509.942 187.661 505.81 189.381 501.497 189.396H421.422V189.246C437.739 187.028 435.513 170.637 435.513 159.166V96.525C435.525 92.2094 437.245 88.0741 440.298 85.0232C443.35 81.9724 447.486 80.2543 451.802 80.2446H531.86V80.3945C527.964 80.936 524.394 82.8648 521.805 85.827C519.217 88.7891 517.784 92.5856 517.769 96.5194L517.775 101.77Z" fill="#ACE8FB"/>
<path d="M443.81 119.836H444.659V101.912C444.663 98.4851 446.025 95.2001 448.448 92.7771C450.87 90.354 454.155 88.9907 457.581 88.9862H507.766V88.1375H457.581C453.93 88.142 450.429 89.5947 447.848 92.177C445.266 94.7592 443.814 98.2601 443.81 101.912V119.836Z" fill="white"/>
<path fill-rule="evenodd" clip-rule="evenodd" d="M99.1971 191.746H118.717C120.695 191.752 122.591 192.541 123.99 193.941C125.389 195.34 126.177 197.236 126.182 199.215V256.877C126.177 258.855 125.389 260.751 123.99 262.15C122.591 263.549 120.695 264.337 118.717 264.342H99.1971C97.2187 264.337 95.3229 263.549 93.9239 262.15C92.525 260.751 91.7368 258.855 91.7316 256.877V199.215C91.7368 197.236 92.5249 195.34 93.9238 193.941C95.3226 192.541 97.2184 191.752 99.1971 191.746Z" fill="#1B4554"/>
<path d="M101.757 238.661H121.752C124.203 238.661 126.19 240.648 126.19 243.1V254.712C126.19 257.164 124.203 259.151 121.752 259.151H101.757C99.3057 259.151 97.3185 257.164 97.3185 254.712V243.1C97.3185 240.648 99.3057 238.661 101.757 238.661Z" fill="#5C493B"/>
<path fill-rule="evenodd" clip-rule="evenodd" d="M59.9969 254.721H170.574C171.849 254.721 173.072 255.228 173.974 256.13C174.876 257.032 175.383 258.255 175.383 259.53C175.378 260.805 174.87 262.025 173.969 262.926C173.068 263.827 171.848 264.335 170.574 264.34H59.9969C58.7228 264.335 57.5021 263.827 56.6012 262.926C55.7003 262.025 55.1922 260.805 55.1877 259.53C55.1922 258.256 55.7003 257.036 56.6012 256.135C57.5021 255.234 58.7228 254.726 59.9969 254.721Z" fill="#1B4554"/>
<path d="M44.4859 254.724H89.5733C92.2293 254.724 94.3824 256.877 94.3824 259.533V259.536C94.3824 262.192 92.2293 264.345 89.5733 264.345H44.4859C41.8299 264.345 39.6768 262.192 39.6768 259.536V259.533C39.6768 256.877 41.8299 254.724 44.4859 254.724Z" fill="#34304E"/>
<path d="M419.088 252.639H550.316V263.429H419.088V252.639Z" fill="#34304E"/>
<path d="M475.548 255.064H550.319V261.007H475.548V255.064Z" fill="white"/>
<path d="M410.879 241.853H542.106V252.642H410.879V241.853Z" fill="#34304E"/>
<path d="M467.335 244.274H542.106V250.218H467.335V244.274Z" fill="white"/>
<path d="M459.273 243.632H461.544V250.37H459.273V243.632Z" fill="#69BDD8"/>
<path d="M455.453 245.674H457.725V248.325H455.453V245.674Z" fill="#69BDD8"/>
<path d="M429.795 246.246H447.202V247.759H429.795V246.246Z" fill="#69BDD8"/>
<path d="M422.681 245.674H424.952V248.325H422.681V245.674Z" fill="#89D1E5"/>
<path d="M422.624 225.965H541.894V241.85H422.624V225.965Z" fill="#34304E"/>
<path d="M443.813 228.689H541.891V239.889H443.813V228.689Z" fill="white"/>
<path fill-rule="evenodd" clip-rule="evenodd" d="M527.486 182.53H492.951V225.968H525.068L527.486 182.53Z" fill="#34304E"/>
<path fill-rule="evenodd" clip-rule="evenodd" d="M496.074 191.781C492.69 191.777 489.41 192.946 486.792 195.09C484.174 197.234 482.381 200.219 481.717 203.537C481.054 206.855 481.562 210.3 483.155 213.286C484.747 216.271 487.326 218.612 490.451 219.909C493.576 221.206 497.054 221.379 500.292 220.399C503.531 219.419 506.329 217.346 508.211 214.534C510.092 211.721 510.94 208.343 510.609 204.976C510.279 201.608 508.791 198.46 506.399 196.067C505.044 194.707 503.433 193.629 501.66 192.893C499.886 192.158 497.985 191.78 496.065 191.781H496.074ZM487.355 197.671C489.373 195.648 492.03 194.389 494.872 194.106C497.715 193.824 500.568 194.536 502.945 196.121C505.321 197.707 507.074 200.067 507.905 202.8C508.736 205.534 508.593 208.471 507.501 211.11C506.409 213.75 504.435 215.93 501.916 217.277C499.397 218.624 496.489 219.057 493.687 218.5C490.885 217.943 488.363 216.431 486.55 214.223C484.738 212.015 483.748 209.246 483.748 206.389C483.746 204.77 484.064 203.167 484.683 201.671C485.302 200.175 486.21 198.815 487.355 197.671Z" fill="#34304E"/>
<path fill-rule="evenodd" clip-rule="evenodd" d="M503.395 182.53H491.134L492.951 225.968H503.395V182.53Z" fill="#565270"/>
<path d="M425.849 230.016H439.069V233.357H425.849V230.016Z" fill="#F08484"/>
<path fill-rule="evenodd" clip-rule="evenodd" d="M30.6411 112.692H177.917C179.543 112.697 181.101 113.345 182.251 114.494C183.401 115.644 184.049 117.202 184.053 118.828V227.92C184.049 229.546 183.401 231.104 182.251 232.255C181.102 233.405 179.544 234.053 177.917 234.059H30.6411C29.0146 234.053 27.4562 233.405 26.3061 232.255C25.156 231.105 24.5076 229.546 24.5023 227.92V118.828C24.5076 117.202 25.1561 115.644 26.3062 114.494C27.4564 113.345 29.0148 112.697 30.6411 112.692Z" fill="#6B6AAA"/>
<path fill-rule="evenodd" clip-rule="evenodd" d="M38.8222 112.692H186.099C187.725 112.697 189.283 113.345 190.433 114.494C191.584 115.644 192.232 117.202 192.237 118.828V227.92C192.232 229.546 191.584 231.105 190.434 232.255C189.283 233.405 187.725 234.053 186.099 234.059H38.8222C37.196 234.053 35.6379 233.405 34.4883 232.255C33.3386 231.104 32.6908 229.546 32.6863 227.92V118.828C32.6908 117.202 33.3387 115.644 34.4884 114.494C35.6382 113.345 37.1962 112.697 38.8222 112.692Z" fill="#8685C8"/>
<path fill-rule="evenodd" clip-rule="evenodd" d="M92.6679 112.692H186.099C187.725 112.697 189.283 113.345 190.433 114.494C191.584 115.644 192.232 117.202 192.237 118.828V227.92C192.232 229.546 191.584 231.105 190.434 232.255C189.283 233.405 187.725 234.053 186.099 234.059H139.931C120.787 214.001 105.418 188.134 97.6128 159.89C92.9564 143.072 91.4401 127.1 92.6679 112.692Z" fill="#7978BF"/>
<path d="M39.8295 119.836H185.092V216.347H39.8295V119.836Z" fill="#5F5E9F"/>
<path d="M179.332 123.937H45.5891C45.0729 123.937 44.5779 124.142 44.2128 124.507C43.8479 124.872 43.6428 125.367 43.6428 125.884V128.554C43.6428 129.071 43.8481 129.567 44.2137 129.932C44.5792 130.298 45.075 130.503 45.5919 130.503H179.332C179.849 130.503 180.345 130.298 180.71 129.932C181.076 129.567 181.281 129.071 181.281 128.554V125.884C181.28 125.367 181.075 124.872 180.709 124.507C180.344 124.142 179.848 123.937 179.332 123.937Z" fill="#807FBF"/>
<path d="M47.0346 134.916H95.3243C96.0726 134.916 96.6793 135.523 96.6793 136.271V166.368C96.6793 167.117 96.0726 167.723 95.3243 167.723H47.0346C46.2862 167.723 45.6795 167.117 45.6795 166.368V136.271C45.6795 135.523 46.2862 134.916 47.0346 134.916Z" fill="#34304E"/>
<path d="M100.764 134.916H180.246C180.816 134.916 181.278 135.379 181.278 135.949V201.849C181.278 202.419 180.816 202.881 180.246 202.881H100.764C100.194 202.881 99.7317 202.419 99.7317 201.849V135.949C99.7317 135.379 100.194 134.916 100.764 134.916Z" fill="#34304E"/>
<path d="M103.463 207.057H179.329C180.405 207.057 181.278 207.929 181.278 209.006V211.676C181.278 212.753 180.405 213.625 179.329 213.625H103.463C102.387 213.625 101.514 212.753 101.514 211.676V209.006C101.514 207.929 102.387 207.057 103.463 207.057Z" fill="#102B36"/>
<path fill-rule="evenodd" clip-rule="evenodd" d="M132.507 124.922H138.731C139.312 124.924 139.868 125.156 140.279 125.566C140.689 125.977 140.921 126.533 140.923 127.114C140.922 127.695 140.691 128.252 140.28 128.664C139.869 129.075 139.312 129.307 138.731 129.309H132.507C131.926 129.307 131.369 129.075 130.959 128.664C130.548 128.252 130.316 127.695 130.315 127.114C130.317 126.533 130.549 125.977 130.96 125.566C131.37 125.156 131.927 124.924 132.507 124.922Z" fill="#4F4974"/>
<path fill-rule="evenodd" clip-rule="evenodd" d="M119.97 124.922H126.193C126.774 124.923 127.331 125.155 127.742 125.565C128.153 125.976 128.384 126.533 128.386 127.114C128.385 127.696 128.154 128.253 127.743 128.665C127.332 129.076 126.775 129.308 126.193 129.309H119.97C119.388 129.308 118.831 129.076 118.42 128.665C118.009 128.253 117.778 127.696 117.777 127.114C117.779 126.533 118.01 125.976 118.421 125.565C118.832 125.155 119.389 124.923 119.97 124.922Z" fill="#4F4974"/>
<path fill-rule="evenodd" clip-rule="evenodd" d="M107.412 124.922H113.636C114.217 124.923 114.773 125.155 115.184 125.565C115.595 125.976 115.827 126.533 115.828 127.114C115.827 127.696 115.596 128.253 115.185 128.665C114.774 129.076 114.217 129.308 113.636 129.309H107.412C106.831 129.307 106.274 129.075 105.863 128.664C105.452 128.252 105.221 127.695 105.22 127.114C105.222 126.533 105.454 125.977 105.864 125.566C106.275 125.156 106.831 124.924 107.412 124.922Z" fill="#4F4974"/>
<path fill-rule="evenodd" clip-rule="evenodd" d="M94.866 124.922H101.09C101.67 124.924 102.227 125.156 102.637 125.566C103.048 125.977 103.28 126.533 103.282 127.114C103.28 127.695 103.049 128.252 102.638 128.664C102.228 129.075 101.671 129.307 101.09 129.309H94.866C94.2847 129.307 93.7279 129.075 93.3172 128.664C92.9064 128.252 92.675 127.695 92.6735 127.114C92.6758 126.533 92.9075 125.977 93.3182 125.566C93.7288 125.156 94.2852 124.924 94.866 124.922Z" fill="#4F4974"/>
<path fill-rule="evenodd" clip-rule="evenodd" d="M82.3198 124.922H88.5434C89.1244 124.923 89.6812 125.155 90.092 125.565C90.5029 125.976 90.7343 126.533 90.7358 127.114C90.7351 127.696 90.504 128.253 90.093 128.665C89.6821 129.076 89.1249 129.308 88.5434 129.309H82.3198C81.7383 129.308 81.1811 129.076 80.7702 128.665C80.3593 128.253 80.1281 127.696 80.1274 127.114C80.1289 126.533 80.3604 125.976 80.7712 125.565C81.182 125.155 81.7388 124.923 82.3198 124.922Z" fill="#4F4974"/>
<path fill-rule="evenodd" clip-rule="evenodd" d="M105.078 138.605H175.934C176.178 138.605 176.411 138.702 176.583 138.874C176.756 139.045 176.853 139.278 176.854 139.522V198.273C176.853 198.516 176.756 198.75 176.584 198.922C176.411 199.094 176.178 199.191 175.934 199.192H105.078C104.835 199.191 104.602 199.094 104.43 198.922C104.258 198.75 104.162 198.516 104.162 198.273V139.522C104.163 139.279 104.259 139.046 104.431 138.875C104.603 138.703 104.836 138.606 105.078 138.605Z" fill="white"/>
<path fill-rule="evenodd" clip-rule="evenodd" d="M142.437 185.953C142.407 185.966 142.376 185.976 142.344 185.984L142.25 185.95C139.139 184.567 137.523 186.96 134.4 188.182L135.56 188.703C138.196 189.891 139.962 191.41 141.984 191.427H142.225H142.465C144.488 191.498 146.315 190.058 149 188.983L150.183 188.513C147.116 187.155 145.588 184.694 142.437 185.942V185.953ZM142.315 187.299C143.994 187.294 145.658 187.622 147.209 188.264C143.998 189.272 140.544 189.198 137.379 188.052C138.959 187.477 140.638 187.221 142.318 187.299H142.315Z" fill="#FD9B9B"/>
<path fill-rule="evenodd" clip-rule="evenodd" d="M157.651 152.425C157.651 152.425 118.533 139.338 123.387 160.954C123.387 160.954 120.004 145.219 157.651 152.425Z" fill="#A7C9FB"/>
<path fill-rule="evenodd" clip-rule="evenodd" d="M161.603 150.874C161.603 150.874 173.81 167.197 160.576 173.223C147.343 179.248 127.339 174.544 126.457 185.427C126.457 185.427 119.384 181.047 133.662 175.525C147.939 170.003 169.105 176.453 161.603 150.874Z" fill="#FD9B9B"/>
<path fill-rule="evenodd" clip-rule="evenodd" d="M160.446 171.101C160.446 171.101 169.122 178.739 163.094 185.367C157.065 191.995 149.563 193.749 149.563 193.749C149.563 193.749 184.769 184.75 160.446 171.101Z" fill="#1B4554"/>
<path fill-rule="evenodd" clip-rule="evenodd" d="M155.739 155.955C155.739 155.955 159.34 165.234 141.475 169.336C141.47 169.336 163.094 169.189 155.739 155.955Z" fill="#A7C9FB"/>
<path d="M47.0346 170.303H95.3243C96.0726 170.303 96.6793 170.91 96.6793 171.658V201.755C96.6793 202.504 96.0726 203.11 95.3243 203.11H47.0346C46.2862 203.11 45.6795 202.504 45.6795 201.755V171.658C45.6795 170.91 46.2862 170.303 47.0346 170.303Z" fill="#34304E"/>
<path d="M56.1098 140.073H86.2491C86.7631 140.073 87.1798 140.49 87.1798 141.004V161.638C87.1798 162.152 86.7631 162.569 86.2491 162.569H56.1098C55.5958 162.569 55.1791 162.152 55.1791 161.638V141.004C55.1791 140.49 55.5958 140.073 56.1098 140.073Z" fill="white"/>
<path d="M81.7429 141.994H84.5831C84.9878 141.994 85.3158 142.322 85.3158 142.727V145.842C85.3158 146.246 84.9878 146.574 84.5831 146.574H81.7429C81.3382 146.574 81.0102 146.246 81.0102 145.842V142.727C81.0102 142.322 81.3382 141.994 81.7429 141.994Z" fill="#F08484"/>
<path d="M75.8332 141.994H78.6734C79.0781 141.994 79.4061 142.322 79.4061 142.727V145.842C79.4061 146.246 79.0781 146.574 78.6734 146.574H75.8332C75.4285 146.574 75.1005 146.246 75.1005 145.842V142.727C75.1005 142.322 75.4285 141.994 75.8332 141.994Z" fill="#E87070"/>
<path d="M69.9234 141.994H72.7637C73.1683 141.994 73.4963 142.322 73.4963 142.727V145.842C73.4963 146.246 73.1683 146.574 72.7637 146.574H69.9234C69.5188 146.574 69.1907 146.246 69.1907 145.842V142.727C69.1907 142.322 69.5188 141.994 69.9234 141.994Z" fill="#F29090"/>
<path d="M64.0137 141.994H66.854C67.2586 141.994 67.5867 142.322 67.5867 142.727V145.842C67.5867 146.246 67.2586 146.574 66.854 146.574H64.0137C63.6091 146.574 63.2811 146.246 63.2811 145.842V142.727C63.2811 142.322 63.6091 141.994 64.0137 141.994Z" fill="#FA6969"/>
<path d="M58.1041 141.994H60.9443C61.349 141.994 61.677 142.322 61.677 142.727V145.842C61.677 146.246 61.349 146.574 60.9443 146.574H58.1041C57.6995 146.574 57.3714 146.246 57.3714 145.842V142.727C57.3714 142.322 57.6995 141.994 58.1041 141.994Z" fill="#D04545"/>
<path d="M81.7429 148.13H84.5831C84.9878 148.13 85.3158 148.458 85.3158 148.863V151.978C85.3158 152.382 84.9878 152.71 84.5831 152.71H81.7429C81.3382 152.71 81.0102 152.382 81.0102 151.978V148.863C81.0102 148.458 81.3382 148.13 81.7429 148.13Z" fill="#FFD18C"/>
<path d="M75.8332 148.13H78.6734C79.0781 148.13 79.4061 148.458 79.4061 148.863V151.978C79.4061 152.382 79.0781 152.71 78.6734 152.71H75.8332C75.4285 152.71 75.1005 152.382 75.1005 151.978V148.863C75.1005 148.458 75.4285 148.13 75.8332 148.13Z" fill="#FFC670"/>
<path d="M69.9234 148.13H72.7637C73.1683 148.13 73.4963 148.458 73.4963 148.863V151.978C73.4963 152.382 73.1683 152.71 72.7637 152.71H69.9234C69.5188 152.71 69.1907 152.382 69.1907 151.978V148.863C69.1907 148.458 69.5188 148.13 69.9234 148.13Z" fill="#F4BB66"/>
<path d="M64.0137 148.13H66.854C67.2586 148.13 67.5867 148.458 67.5867 148.863V151.978C67.5867 152.382 67.2586 152.71 66.854 152.71H64.0137C63.6091 152.71 63.2811 152.382 63.2811 151.978V148.863C63.2811 148.458 63.6091 148.13 64.0137 148.13Z" fill="#FFE0B0"/>
<path d="M58.1041 148.13H60.9443C61.349 148.13 61.677 148.458 61.677 148.863V151.978C61.677 152.382 61.349 152.71 60.9443 152.71H58.1041C57.6995 152.71 57.3714 152.382 57.3714 151.978V148.863C57.3714 148.458 57.6995 148.13 58.1041 148.13Z" fill="#BE8735"/>
<path d="M81.7429 154.269H84.5831C84.9878 154.269 85.3158 154.597 85.3158 155.002V158.116C85.3158 158.521 84.9878 158.849 84.5831 158.849H81.7429C81.3382 158.849 81.0102 158.521 81.0102 158.116V155.002C81.0102 154.597 81.3382 154.269 81.7429 154.269Z" fill="#A7C9FB"/>
<path d="M75.8332 154.269H78.6734C79.0781 154.269 79.4061 154.597 79.4061 155.002V158.116C79.4061 158.521 79.0781 158.849 78.6734 158.849H75.8332C75.4285 158.849 75.1005 158.521 75.1005 158.116V155.002C75.1005 154.597 75.4285 154.269 75.8332 154.269Z" fill="#7EB2FF"/>
<path d="M69.9234 154.269H72.7637C73.1683 154.269 73.4963 154.597 73.4963 155.002V158.116C73.4963 158.521 73.1683 158.849 72.7637 158.849H69.9234C69.5188 158.849 69.1907 158.521 69.1907 158.116V155.002C69.1907 154.597 69.5188 154.269 69.9234 154.269Z" fill="#8DABD8"/>
<path d="M64.0137 154.269H66.854C67.2586 154.269 67.5867 154.597 67.5867 155.002V158.116C67.5867 158.521 67.2586 158.849 66.854 158.849H64.0137C63.6091 158.849 63.2811 158.521 63.2811 158.116V155.002C63.2811 154.597 63.6091 154.269 64.0137 154.269Z" fill="#6CA7FF"/>
<path d="M58.1041 154.269H60.9443C61.349 154.269 61.677 154.597 61.677 155.002V158.116C61.677 158.521 61.349 158.849 60.9443 158.849H58.1041C57.6995 158.849 57.3714 158.521 57.3714 158.116V155.002C57.3714 154.597 57.6995 154.269 58.1041 154.269Z" fill="#5180C8"/>
<path d="M56.1098 173.141H86.2491C86.7631 173.141 87.1798 173.557 87.1798 174.072V194.706C87.1798 195.22 86.7631 195.636 86.2491 195.636H56.1098C55.5958 195.636 55.1791 195.22 55.1791 194.706V174.072C55.1791 173.557 55.5958 173.141 56.1098 173.141Z" fill="white"/>
<path d="M81.7419 175.062H84.5821C84.9868 175.062 85.3148 175.39 85.3148 175.794V178.909C85.3148 179.314 84.9868 179.642 84.5821 179.642H81.7419C81.3372 179.642 81.0092 179.314 81.0092 178.909V175.794C81.0092 175.39 81.3372 175.062 81.7419 175.062Z" fill="#34304E"/>
<path d="M75.8332 175.062H78.6734C79.0781 175.062 79.4061 175.39 79.4061 175.794V178.909C79.4061 179.314 79.0781 179.642 78.6734 179.642H75.8332C75.4285 179.642 75.1005 179.314 75.1005 178.909V175.794C75.1005 175.39 75.4285 175.062 75.8332 175.062Z" fill="#26233E"/>
<path d="M69.9237 175.062H72.7639C73.1686 175.062 73.4966 175.39 73.4966 175.794V178.909C73.4966 179.314 73.1686 179.642 72.7639 179.642H69.9237C69.519 179.642 69.191 179.314 69.191 178.909V175.794C69.191 175.39 69.519 175.062 69.9237 175.062Z" fill="#443E71"/>
<path d="M64.0142 175.062H66.8545C67.2591 175.062 67.5872 175.39 67.5872 175.794V178.909C67.5872 179.314 67.2591 179.642 66.8545 179.642H64.0142C63.6096 179.642 63.2816 179.314 63.2816 178.909V175.794C63.2816 175.39 63.6096 175.062 64.0142 175.062Z" fill="#251E5C"/>
<path d="M58.1046 175.062H60.9448C61.3495 175.062 61.6775 175.39 61.6775 175.794V178.909C61.6775 179.314 61.3495 179.642 60.9448 179.642H58.1046C57.6999 179.642 57.3719 179.314 57.3719 178.909V175.794C57.3719 175.39 57.6999 175.062 58.1046 175.062Z" fill="#0D0A28"/>
<path d="M81.7429 181.2H84.5831C84.9878 181.2 85.3158 181.528 85.3158 181.933V185.048C85.3158 185.452 84.9878 185.78 84.5831 185.78H81.7429C81.3382 185.78 81.0102 185.452 81.0102 185.048V181.933C81.0102 181.528 81.3382 181.2 81.7429 181.2Z" fill="#D8699E"/>
<path d="M75.8332 181.2H78.6734C79.0781 181.2 79.4061 181.528 79.4061 181.933V185.048C79.4061 185.452 79.0781 185.78 78.6734 185.78H75.8332C75.4285 185.78 75.1005 185.452 75.1005 185.048V181.933C75.1005 181.528 75.4285 181.2 75.8332 181.2Z" fill="#9D5175"/>
<path d="M69.9237 181.2H72.7639C73.1686 181.2 73.4966 181.528 73.4966 181.933V185.048C73.4966 185.452 73.1686 185.78 72.7639 185.78H69.9237C69.519 185.78 69.191 185.452 69.191 185.048V181.933C69.191 181.528 69.519 181.2 69.9237 181.2Z" fill="#B47894"/>
<path d="M64.0142 181.2H66.8545C67.2591 181.2 67.5872 181.528 67.5872 181.933V185.048C67.5872 185.452 67.2591 185.78 66.8545 185.78H64.0142C63.6096 185.78 63.2816 185.452 63.2816 185.048V181.933C63.2816 181.528 63.6096 181.2 64.0142 181.2Z" fill="#BB427B"/>
<path d="M58.1046 181.2H60.9448C61.3495 181.2 61.6775 181.528 61.6775 181.933V185.048C61.6775 185.452 61.3495 185.78 60.9448 185.78H58.1046C57.6999 185.78 57.3719 185.452 57.3719 185.048V181.933C57.3719 181.528 57.6999 181.2 58.1046 181.2Z" fill="#882352"/>
<path d="M81.7429 187.339H84.5831C84.9878 187.339 85.3158 187.667 85.3158 188.072V191.186C85.3158 191.591 84.9878 191.919 84.5831 191.919H81.7429C81.3382 191.919 81.0102 191.591 81.0102 191.186V188.072C81.0102 187.667 81.3382 187.339 81.7429 187.339Z" fill="#817FED"/>
<path d="M75.8332 187.339H78.6734C79.0781 187.339 79.4061 187.667 79.4061 188.072V191.186C79.4061 191.591 79.0781 191.919 78.6734 191.919H75.8332C75.4285 191.919 75.1005 191.591 75.1005 191.186V188.072C75.1005 187.667 75.4285 187.339 75.8332 187.339Z" fill="#6463C2"/>
<path d="M69.9237 187.339H72.7639C73.1686 187.339 73.4966 187.667 73.4966 188.072V191.186C73.4966 191.591 73.1686 191.919 72.7639 191.919H69.9237C69.519 191.919 69.191 191.591 69.191 191.186V188.072C69.191 187.667 69.519 187.339 69.9237 187.339Z" fill="#807FC2"/>
<path d="M64.0142 187.339H66.8545C67.2591 187.339 67.5872 187.667 67.5872 188.072V191.186C67.5872 191.591 67.2591 191.919 66.8545 191.919H64.0142C63.6096 191.919 63.2816 191.591 63.2816 191.186V188.072C63.2816 187.667 63.6096 187.339 64.0142 187.339Z" fill="#5553C9"/>
<path d="M58.1046 187.339H60.9448C61.3495 187.339 61.6775 187.667 61.6775 188.072V191.186C61.6775 191.591 61.3495 191.919 60.9448 191.919H58.1046C57.6999 191.919 57.3719 191.591 57.3719 191.186V188.072C57.3719 187.667 57.6999 187.339 58.1046 187.339Z" fill="#413F8E"/>
<path fill-rule="evenodd" clip-rule="evenodd" d="M314.404 138.444H386.969C391.902 138.444 397.354 142.481 399.082 147.412L436.707 254.628C438.438 259.559 435.818 263.595 430.888 263.595H314.41L314.404 138.444Z" fill="#5F5A80"/>
<path fill-rule="evenodd" clip-rule="evenodd" d="M314.404 138.444H377.362C382.295 138.444 387.744 142.481 389.475 147.412L427.1 254.628C428.831 259.559 426.212 263.595 421.278 263.595H314.41L314.404 138.444Z" fill="#34304E"/>
<path fill-rule="evenodd" clip-rule="evenodd" d="M197.909 173.922V189.978C197.893 195.648 195.633 201.082 191.624 205.091C187.615 209.1 182.181 211.36 176.511 211.376C170.841 211.36 165.408 209.1 161.399 205.091C157.39 201.082 155.13 195.648 155.113 189.978V106.5C155.113 85.3368 172.426 68.0266 193.587 68.0266C214.75 68.0266 232.06 85.3396 232.06 106.5V149.717C232.041 156.131 229.485 162.276 224.95 166.812C220.415 171.347 214.269 173.903 207.856 173.922H197.909Z" fill="#FFD3AB"/>
<path fill-rule="evenodd" clip-rule="evenodd" d="M155.113 187.053V106.5C155.112 103.313 155.509 100.139 156.296 97.0512H176.446V167.282C176.431 172.521 174.344 177.541 170.639 181.246C166.934 184.951 161.914 187.038 156.675 187.053H155.113Z" fill="#EAB98B"/>
<path fill-rule="evenodd" clip-rule="evenodd" d="M197.909 173.922V183.096C190.723 181.003 184.299 176.871 179.414 171.2C183.923 173.001 188.734 173.925 193.59 173.922H197.909Z" fill="#EAB98B"/>
<path fill-rule="evenodd" clip-rule="evenodd" d="M422.237 138.444H264.915C259.984 138.444 254.533 142.481 252.805 147.412L215.392 254.036L214.597 252.563L212.011 258.362L216.628 262.138L216.784 262.263L216.809 262.286C218.021 263.181 219.499 263.643 221.005 263.598H383.271C388.202 263.598 393.654 259.561 395.385 254.63L433.009 147.414C434.107 144.283 433.454 141.513 431.564 139.906L431.516 139.864L431.465 139.824L426.837 136.039L422.237 138.444Z" fill="#34304E"/>
<path fill-rule="evenodd" clip-rule="evenodd" d="M319.125 263.598H127.098C121.013 263.598 116.037 267.437 116.037 272.13C116.037 276.823 121.013 280.662 127.098 280.662H319.125C313.04 280.662 308.064 276.823 308.064 272.13C308.056 267.437 313.032 263.598 319.125 263.598Z" fill="#5C493B"/>
<path fill-rule="evenodd" clip-rule="evenodd" d="M422.486 134.602H260.219C255.288 134.602 249.837 138.636 248.106 143.567L210.481 250.783C208.75 255.717 211.369 259.751 216.3 259.751H378.573C383.506 259.751 388.958 255.717 390.686 250.783L428.311 143.567C430.036 138.636 427.417 134.602 422.486 134.602Z" fill="#474269"/>
<path fill-rule="evenodd" clip-rule="evenodd" d="M422.486 134.602H314.223C316.336 149.183 321.202 165.599 328.982 182.977C342.252 212.596 361.514 239.459 382.066 259.145C385.851 257.83 389.362 254.58 390.686 250.8L428.311 143.584C430.036 138.636 427.417 134.602 422.486 134.602Z" fill="#5F5A80"/>
<path fill-rule="evenodd" clip-rule="evenodd" d="M405.521 143.994H258.629L221.174 250.749H368.063L405.521 143.994Z" fill="white"/>
<path d="M413.416 176.453L427.046 137.618C427.951 135.038 427.736 132.526 426.455 130.715C425.253 129.018 423.252 128.087 420.825 128.087H289.176V128.936H420.825C422.97 128.936 424.723 129.742 425.762 131.199C426.893 132.781 427.057 135.015 426.245 137.332L412.616 176.179L413.416 176.453Z" fill="white"/>
<path fill-rule="evenodd" clip-rule="evenodd" d="M257.356 147.621L256.567 149.876H396.644L361.248 250.749H363.998L400.183 147.621H257.356Z" fill="#DEDBF4"/>
<path fill-rule="evenodd" clip-rule="evenodd" d="M12.502 263.428H379.353V280.289H19.6817L12.502 263.428Z" fill="#3F3F63"/>
<path fill-rule="evenodd" clip-rule="evenodd" d="M359.404 263.429H568.602L561.422 280.289H359.404V263.429Z" fill="white"/>
<path fill-rule="evenodd" clip-rule="evenodd" d="M401.331 188.185C397.088 188.185 392.437 191.628 390.946 195.874C389.456 200.12 391.693 203.56 395.937 203.56C400.18 203.56 404.842 200.117 406.322 195.874C407.801 191.631 405.575 188.185 401.331 188.185Z" fill="#5C493B"/>
<path fill-rule="evenodd" clip-rule="evenodd" d="M409.006 177.726H400.678C399.357 177.726 397.897 178.807 397.433 180.125C396.969 181.446 397.671 182.527 398.992 182.527H407.32C408.641 182.527 410.101 181.446 410.565 180.125C411.029 178.807 410.327 177.726 409.006 177.726Z" fill="#443E6A"/>
<path fill-rule="evenodd" clip-rule="evenodd" d="M411.572 170.414H403.243C401.922 170.414 400.463 171.494 399.999 172.816C399.535 174.137 400.236 175.217 401.557 175.217H409.886C411.207 175.217 412.667 174.137 413.131 172.816C413.594 171.494 412.893 170.414 411.572 170.414Z" fill="#443E6A"/>
<path fill-rule="evenodd" clip-rule="evenodd" d="M414.135 163.101H405.809C404.488 163.101 403.029 164.182 402.565 165.503C402.101 166.824 402.802 167.904 404.123 167.904H412.452C413.773 167.904 415.233 166.824 415.697 165.503C416.158 164.182 415.456 163.101 414.135 163.101Z" fill="#443E6A"/>
<path fill-rule="evenodd" clip-rule="evenodd" d="M273.69 158.436C271.231 154.204 267.196 151.118 262.468 149.851C257.74 148.584 252.703 149.24 248.456 151.675L202.266 178.343C198.034 180.802 194.947 184.837 193.679 189.565C192.412 194.293 193.067 199.331 195.502 203.577C197.962 207.809 201.996 210.895 206.724 212.162C211.452 213.429 216.49 212.773 220.736 210.338L266.926 183.67C271.159 181.211 274.246 177.176 275.513 172.448C276.781 167.72 276.125 162.683 273.69 158.436Z" fill="#EAB98B"/>
<path fill-rule="evenodd" clip-rule="evenodd" d="M416.704 155.802H416.489C415.168 155.802 413.705 156.883 413.244 158.204C412.783 159.525 413.484 160.603 414.805 160.603H415.026C416.344 160.603 417.807 159.525 418.268 158.204C418.723 156.869 418.025 155.802 416.704 155.802Z" fill="#443E6A"/>
<path fill-rule="evenodd" clip-rule="evenodd" d="M409.388 155.802H409.176C407.855 155.802 406.392 156.883 405.931 158.204C405.47 159.525 406.172 160.603 407.49 160.603H407.708C409.026 160.603 410.488 159.525 410.95 158.204C411.411 156.869 410.709 155.802 409.388 155.802Z" fill="#FFD18C"/>
<path fill-rule="evenodd" clip-rule="evenodd" d="M389 234.729H380.672C379.35 234.729 377.891 235.81 377.427 237.131C376.963 238.452 377.664 239.533 378.986 239.533H387.32C388.641 239.533 390.1 238.452 390.564 237.131C391.028 235.81 390.327 234.729 389 234.729Z" fill="#5C493B"/>
<path fill-rule="evenodd" clip-rule="evenodd" d="M391.572 227.416H391.357C390.035 227.416 388.576 228.497 388.112 229.818C387.648 231.139 388.349 232.22 389.67 232.22H389.885C391.207 232.22 392.666 231.139 393.127 229.818C393.591 228.506 392.893 227.416 391.572 227.416Z" fill="#5C493B"/>
<path fill-rule="evenodd" clip-rule="evenodd" d="M384.259 227.416H384.044C382.723 227.416 381.263 228.497 380.799 229.818C380.335 231.139 381.037 232.22 382.358 232.22H382.573C383.894 232.22 385.354 231.139 385.815 229.818C386.279 228.506 385.58 227.416 384.259 227.416Z" fill="#5C493B"/>
<path fill-rule="evenodd" clip-rule="evenodd" d="M342.911 160.462C342.911 160.462 286.118 141.457 293.164 172.844C293.164 172.844 288.253 149.997 342.911 160.462Z" fill="#817FED"/>
<path fill-rule="evenodd" clip-rule="evenodd" d="M238.219 135.785C236.921 136.908 236.122 138.5 235.995 140.211C235.869 141.923 236.425 143.614 237.542 144.917L253.837 163.82C254.963 165.114 256.554 165.912 258.265 166.039C259.975 166.166 261.667 165.612 262.972 164.498C264.266 163.372 265.063 161.781 265.189 160.07C265.316 158.36 264.762 156.668 263.648 155.364L247.353 136.461C246.227 135.167 244.636 134.37 242.925 134.243C241.214 134.117 239.523 134.671 238.219 135.785Z" fill="#3F3A5A"/>
<path fill-rule="evenodd" clip-rule="evenodd" d="M238.688 162.049C233.938 175.695 241.438 189.09 255.438 191.97C269.438 194.85 284.641 186.123 289.385 172.479C294.129 158.835 286.635 145.437 272.632 142.557C258.629 139.677 243.438 148.405 238.688 162.049Z" fill="#FFD3AB"/>
<path fill-rule="evenodd" clip-rule="evenodd" d="M181.357 183.526H162.995C146.791 183.526 135.71 196.782 138.383 212.989L151.84 294.912H247.495L237.053 231.351C232.733 205.045 207.666 183.526 181.357 183.526Z" fill="#FFF7EA"/>
<path fill-rule="evenodd" clip-rule="evenodd" d="M222.908 192.578C217.938 189.267 211.855 188.065 205.998 189.238C200.141 190.412 194.99 193.863 191.679 198.834C188.367 203.805 187.166 209.888 188.339 215.745C189.512 221.602 192.964 226.753 197.935 230.064L284.364 287.664C287.633 289.844 291.416 291.131 295.337 291.395C299.258 291.66 303.18 290.893 306.712 289.172L401.13 247.134C406.572 244.695 410.824 240.197 412.954 234.627C415.084 229.057 414.918 222.869 412.492 217.422C410.066 211.974 405.578 207.711 400.014 205.567C394.449 203.424 388.261 203.575 382.807 205.987L299.012 243.284L222.908 192.578Z" fill="#EAB98B"/>
<path fill-rule="evenodd" clip-rule="evenodd" d="M222.908 192.578C219.639 190.398 215.856 189.112 211.935 188.848C208.014 188.583 204.093 189.35 200.56 191.071C199.444 195.573 199.745 200.309 201.422 204.634C203.099 208.958 206.07 212.659 209.929 215.232L296.367 272.835C299.636 275.015 303.419 276.302 307.34 276.566C311.261 276.831 315.183 276.064 318.715 274.343L413.133 232.319C413.365 232.214 413.597 232.107 413.826 231.996C414.844 227.902 414.691 223.604 413.385 219.592C412.079 215.58 409.672 212.016 406.439 209.305C403.206 206.594 399.277 204.846 395.099 204.259C390.921 203.673 386.662 204.272 382.807 205.987L299.012 243.284L222.908 192.578Z" fill="#FFD3AB"/>
<path fill-rule="evenodd" clip-rule="evenodd" d="M222.908 192.578C219.393 190.236 215.29 188.93 211.068 188.808C206.846 188.686 202.674 189.753 199.029 191.888C197.912 196.393 198.212 201.133 199.89 205.461C201.568 209.789 204.542 213.493 208.404 216.067L294.834 273.666C298.348 276.009 302.451 277.316 306.673 277.438C310.894 277.56 315.066 276.492 318.71 274.357C319.829 269.852 319.529 265.111 317.852 260.783C316.174 256.455 313.2 252.751 309.337 250.178L222.908 192.578Z" fill="#FFD3AB"/>
<path fill-rule="evenodd" clip-rule="evenodd" d="M184.967 175.022H153.161C152.365 175.024 151.602 175.342 151.039 175.905C150.476 176.469 150.159 177.232 150.157 178.029V183.121C150.165 184.694 150.793 186.201 151.905 187.314C153.018 188.426 154.525 189.054 156.098 189.062H191.997V182.055C191.992 180.191 191.25 178.406 189.933 177.088C188.616 175.77 186.83 175.027 184.967 175.022Z" fill="#FFF7EA"/>
<path fill-rule="evenodd" clip-rule="evenodd" d="M227.913 187.534C221.672 183.648 214.163 182.344 206.977 183.899C199.791 185.454 193.492 189.746 189.416 195.864C185.34 201.983 183.806 209.449 185.14 216.679C186.473 223.91 190.569 230.337 196.56 234.599L245.217 267.228C251.459 271.126 258.974 272.439 266.168 270.887C273.362 269.336 279.667 265.042 283.747 258.917C287.827 252.792 289.36 245.319 288.02 238.083C286.68 230.847 282.573 224.418 276.57 220.16L227.913 187.534Z" fill="#FFF7EA"/>
<path fill-rule="evenodd" clip-rule="evenodd" d="M227.913 187.534C224.817 185.466 221.341 184.032 217.687 183.315C214.034 182.598 210.274 182.612 206.626 183.356C204.43 189.321 204.307 195.851 206.277 201.894C208.247 207.938 212.194 213.141 217.483 216.667L266.14 249.293C269.237 251.36 272.713 252.794 276.368 253.512C280.022 254.229 283.782 254.215 287.431 253.471C289.626 247.506 289.748 240.975 287.778 234.932C285.808 228.889 281.86 223.685 276.571 220.16L227.913 187.534Z" fill="white"/>
<path fill-rule="evenodd" clip-rule="evenodd" d="M227.913 187.534C226.568 186.638 225.148 185.859 223.669 185.206C223.397 190.12 224.412 195.02 226.615 199.421C228.817 203.822 232.13 207.571 236.227 210.299L284.896 242.933C286.243 243.826 287.662 244.605 289.139 245.261C289.413 240.347 288.398 235.446 286.196 231.045C283.993 226.643 280.679 222.893 276.582 220.166L227.913 187.534Z" fill="#A5E8FD"/>
<path d="M89.5899 294.914H159.798C164.577 294.914 168.452 298.789 168.452 303.568V303.571C168.452 308.35 164.577 312.225 159.798 312.225H89.5899C84.8106 312.225 80.9362 308.35 80.9362 303.571V303.568C80.9362 298.789 84.8106 294.914 89.5899 294.914Z" fill="#34304E"/>
<path fill-rule="evenodd" clip-rule="evenodd" d="M151.527 194.969C116.106 194.969 90.6086 223.948 94.8605 259.366L101.211 312.222H230.015L223.667 259.366C219.409 223.948 186.947 194.969 151.527 194.969Z" fill="#4F4973"/>
<path fill-rule="evenodd" clip-rule="evenodd" d="M139.684 195.899C110.026 201.11 89.9832 227.657 93.7937 259.366L100.145 312.222H207.171L200.82 259.366C197.013 227.657 170.593 201.11 139.684 195.899Z" fill="#34304E"/>
<path fill-rule="evenodd" clip-rule="evenodd" d="M182.379 279.486C177.425 279.486 174.381 283.5 175.589 288.453C176.797 293.407 181.773 297.421 186.727 297.421C191.68 297.421 194.724 293.407 193.516 288.453C192.308 283.5 187.332 279.486 182.379 279.486Z" fill="#4F4973"/>
<path fill-rule="evenodd" clip-rule="evenodd" d="M152.751 194.969C151.535 194.969 150.33 195.003 149.136 195.073C183.111 196.971 213.522 225.167 217.63 259.366L223.981 312.222H231.24L224.889 259.366C220.634 223.948 188.169 194.969 152.751 194.969Z" fill="white"/>
<path fill-rule="evenodd" clip-rule="evenodd" d="M260.98 294.912H221.053C218.759 294.918 216.562 295.833 214.94 297.455C213.319 299.077 212.405 301.275 212.399 303.568C212.405 305.861 213.319 308.059 214.94 309.681C216.562 311.302 218.759 312.216 221.053 312.222H260.98C258.687 312.216 256.489 311.302 254.867 309.681C253.245 308.059 252.33 305.862 252.324 303.568C252.33 301.274 253.245 299.076 254.866 297.455C256.488 295.833 258.686 294.918 260.98 294.912Z" fill="#34304E"/>
<path d="M291.261 294.914H252.456C250.161 294.914 247.959 295.826 246.335 297.45C244.712 299.073 243.8 301.275 243.8 303.571C243.8 305.867 244.712 308.069 246.335 309.692C247.959 311.315 250.161 312.227 252.456 312.227H291.261C293.556 312.227 295.757 311.316 297.38 309.693C299.003 308.07 299.914 305.869 299.914 303.574C299.914 301.279 299.003 299.078 297.38 297.455C295.757 295.832 293.556 294.92 291.261 294.92V294.914Z" fill="#4F4973"/>
<path d="M291.261 294.914H278.078C275.783 294.914 273.582 295.826 271.959 297.449C270.336 299.072 269.424 301.273 269.424 303.568C269.424 305.864 270.336 308.066 271.96 309.689C273.583 311.313 275.785 312.225 278.081 312.225H291.264C293.559 312.225 295.76 311.313 297.383 309.69C299.006 308.067 299.917 305.866 299.917 303.571C299.917 301.276 299.006 299.075 297.383 297.452C295.76 295.829 293.559 294.917 291.264 294.917L291.261 294.914Z" fill="#837CAA"/>
<path fill-rule="evenodd" clip-rule="evenodd" d="M168.554 270.091C165.959 270.091 164.364 272.195 164.992 274.789C165.62 277.384 168.231 279.488 170.825 279.488C173.419 279.488 175.015 277.384 174.387 274.789C173.759 272.195 171.148 270.091 168.554 270.091Z" fill="#4F4973"/>
<path fill-rule="evenodd" clip-rule="evenodd" d="M261.184 243.038C260.243 244.679 259.99 246.626 260.479 248.454C260.969 250.281 262.162 251.841 263.798 252.792L281.993 263.301C283.172 263.976 284.569 264.158 285.881 263.807C287.192 263.455 288.312 262.599 288.995 261.426L291.009 257.932C291.685 256.754 291.868 255.357 291.516 254.045C291.165 252.734 290.308 251.615 289.133 250.933L270.938 240.427C269.297 239.485 267.35 239.232 265.522 239.721C263.695 240.21 262.135 241.403 261.184 243.038Z" fill="#F2E7D7"/>
<path fill-rule="evenodd" clip-rule="evenodd" d="M268.567 250.571C267.933 250.571 267.313 250.384 266.786 250.032C266.258 249.68 265.847 249.179 265.604 248.594C265.361 248.008 265.297 247.363 265.421 246.741C265.544 246.119 265.85 245.548 266.298 245.099C266.747 244.651 267.318 244.346 267.94 244.222C268.562 244.098 269.207 244.162 269.793 244.405C270.378 244.648 270.879 245.059 271.231 245.587C271.583 246.114 271.77 246.734 271.77 247.369C271.768 248.217 271.43 249.031 270.83 249.631C270.23 250.232 269.416 250.569 268.567 250.571Z" fill="white"/>
<path fill-rule="evenodd" clip-rule="evenodd" d="M348.651 158.21C348.651 158.21 366.371 181.907 347.157 190.663C327.943 199.419 298.904 192.578 297.626 208.383C297.626 208.383 287.368 202.027 308.093 193.995C328.817 185.964 359.539 195.359 348.651 158.21Z" fill="#F08484"/>
<path fill-rule="evenodd" clip-rule="evenodd" d="M346.968 187.577C346.968 187.577 359.565 198.677 350.813 208.287C342.06 217.897 331.169 220.452 331.169 220.452C331.169 220.452 382.281 207.39 346.968 187.577Z" fill="#817FED"/>
<path fill-rule="evenodd" clip-rule="evenodd" d="M340.136 165.585C340.136 165.585 345.361 179.059 319.425 185.014C319.425 185.014 350.809 184.799 340.136 165.585Z" fill="#817FED"/>
<path fill-rule="evenodd" clip-rule="evenodd" d="M462.198 164.957L466.623 161.341C467.339 160.752 467.793 159.904 467.886 158.981C467.979 158.058 467.703 157.136 467.118 156.416C466.529 155.7 465.68 155.246 464.757 155.153C463.834 155.06 462.912 155.336 462.193 155.921L457.768 159.536C457.052 160.125 456.598 160.974 456.505 161.897C456.412 162.82 456.688 163.742 457.273 164.462C457.862 165.178 458.711 165.632 459.634 165.725C460.556 165.818 461.478 165.541 462.198 164.957Z" fill="#FFD18C"/>
<path fill-rule="evenodd" clip-rule="evenodd" d="M462.198 164.957L466.623 161.341C467.027 161.01 467.352 160.591 467.573 160.117C467.795 159.643 467.907 159.126 467.901 158.603C467.289 157.98 466.467 157.607 465.595 157.558C464.723 157.509 463.864 157.787 463.186 158.337L458.761 161.952C458.357 162.284 458.032 162.702 457.811 163.176C457.589 163.65 457.477 164.168 457.483 164.691C458.094 165.314 458.917 165.687 459.789 165.736C460.661 165.786 461.52 165.507 462.198 164.957Z" fill="#FC9164"/>
<path fill-rule="evenodd" clip-rule="evenodd" d="M462.133 165.845L463.548 164.696C464.396 163.999 464.935 162.994 465.045 161.901C465.155 160.808 464.829 159.716 464.136 158.863C463.439 158.014 462.434 157.476 461.341 157.366C460.247 157.257 459.155 157.584 458.303 158.278L456.889 159.409C456.04 160.107 455.503 161.112 455.393 162.205C455.283 163.298 455.61 164.39 456.303 165.242C456.998 166.093 458.001 166.634 459.094 166.747C460.186 166.86 461.279 166.535 462.133 165.845Z" fill="#EEEFF6"/>
<path fill-rule="evenodd" clip-rule="evenodd" d="M456.586 159.695C455.859 160.423 455.428 161.394 455.376 162.421C455.324 163.448 455.654 164.458 456.303 165.256C456.594 165.692 456.973 166.062 457.416 166.342C457.859 166.622 458.355 166.807 458.873 166.885C459.391 166.962 459.92 166.93 460.425 166.791C460.93 166.652 461.401 166.409 461.807 166.078C462.213 165.746 462.545 165.334 462.781 164.866C463.018 164.399 463.155 163.887 463.183 163.364C463.21 162.841 463.128 162.317 462.941 161.828C462.755 161.338 462.468 160.893 462.099 160.521C461.446 159.725 460.52 159.199 459.502 159.047C458.483 158.894 457.444 159.125 456.586 159.695Z" fill="#CACCDD"/>
<path fill-rule="evenodd" clip-rule="evenodd" d="M406.67 211.17L460.439 167.228C461.288 166.531 461.826 165.526 461.936 164.433C462.045 163.34 461.718 162.247 461.024 161.395C460.327 160.548 459.323 160.011 458.232 159.901C457.14 159.791 456.049 160.116 455.197 160.807L401.422 204.743C400.574 205.441 400.036 206.446 399.926 207.539C399.817 208.631 400.144 209.723 400.836 210.576C401.533 211.425 402.537 211.965 403.63 212.076C404.723 212.187 405.816 211.862 406.67 211.17Z" fill="#FC9164"/>
<path fill-rule="evenodd" clip-rule="evenodd" d="M406.669 211.17L460.439 167.228C461.287 166.53 461.825 165.525 461.934 164.432C462.044 163.339 461.717 162.248 461.024 161.395L402.44 209.269C402.132 209.522 401.903 209.859 401.781 210.238C401.659 210.618 401.648 211.025 401.75 211.41C402.489 211.899 403.364 212.139 404.249 212.095C405.134 212.052 405.982 211.728 406.669 211.17Z" fill="#FFD18C"/>
<path fill-rule="evenodd" clip-rule="evenodd" d="M448.091 177.319L452.77 173.494C452.628 172.12 451.355 170.32 452.487 168.363L447.737 172.244C448.39 174.643 448.365 176.25 448.091 177.319Z" fill="#FC9164"/>
<path fill-rule="evenodd" clip-rule="evenodd" d="M406.67 211.17L408.084 210.021C408.934 209.322 409.473 208.314 409.581 207.218C409.689 206.123 409.358 205.029 408.661 204.177C407.96 203.332 406.954 202.798 405.861 202.692C404.768 202.586 403.678 202.916 402.828 203.611L401.413 204.76C400.565 205.458 400.028 206.463 399.918 207.556C399.808 208.648 400.135 209.74 400.828 210.593C401.527 211.442 402.535 211.98 403.63 212.088C404.724 212.196 405.818 211.866 406.67 211.17Z" fill="#FFBD78"/>
<path fill-rule="evenodd" clip-rule="evenodd" d="M408.52 209.597C409.185 208.861 409.565 207.911 409.591 206.919C409.617 205.927 409.287 204.958 408.661 204.188C408.399 203.745 408.044 203.364 407.621 203.071C407.199 202.778 406.717 202.579 406.211 202.489C405.704 202.399 405.184 202.42 404.686 202.55C404.188 202.679 403.724 202.915 403.325 203.24C402.927 203.566 402.603 203.974 402.377 204.436C402.151 204.898 402.027 205.403 402.014 205.918C402.001 206.432 402.1 206.943 402.303 207.416C402.505 207.889 402.808 208.313 403.19 208.658C403.82 209.424 404.704 209.941 405.681 210.113C406.658 210.285 407.665 210.102 408.52 209.597Z" fill="#FFA74F"/>
<path fill-rule="evenodd" clip-rule="evenodd" d="M399.394 213.891L404.486 209.719C404.823 209.441 405.037 209.041 405.081 208.607C405.124 208.172 404.994 207.738 404.718 207.399C404.441 207.062 404.042 206.848 403.608 206.804C403.173 206.76 402.74 206.889 402.401 207.164L397.309 211.34C396.971 211.616 396.756 212.015 396.712 212.449C396.668 212.884 396.798 213.318 397.074 213.656C397.351 213.994 397.75 214.209 398.185 214.253C398.62 214.297 399.054 214.167 399.394 213.891Z" fill="#8F7C6E"/>
<path fill-rule="evenodd" clip-rule="evenodd" d="M399.394 213.891L401.066 212.525C401.403 212.248 401.617 211.848 401.661 211.413C401.705 210.979 401.575 210.545 401.3 210.205C401.023 209.868 400.624 209.654 400.19 209.61C399.756 209.566 399.322 209.696 398.983 209.97L397.312 211.34C396.974 211.616 396.759 212.015 396.715 212.45C396.671 212.884 396.801 213.318 397.077 213.657C397.354 213.994 397.753 214.208 398.187 214.252C398.621 214.296 399.055 214.166 399.394 213.891Z" fill="#A89587"/>
<path fill-rule="evenodd" clip-rule="evenodd" d="M419.7 196.338L422.645 193.933C422.83 193.78 422.947 193.56 422.971 193.321C422.995 193.082 422.923 192.844 422.772 192.657C422.619 192.472 422.4 192.354 422.161 192.33C421.922 192.305 421.683 192.376 421.496 192.527L418.554 194.935C418.462 195.01 418.385 195.102 418.329 195.207C418.273 195.312 418.238 195.426 418.226 195.545C418.214 195.663 418.226 195.782 418.26 195.896C418.295 196.01 418.351 196.116 418.427 196.208C418.578 196.394 418.798 196.512 419.036 196.536C419.275 196.561 419.514 196.489 419.7 196.338Z" fill="#F2B340"/>
<path fill-rule="evenodd" clip-rule="evenodd" d="M417.108 198.457L417.878 197.826C418.064 197.674 418.182 197.454 418.207 197.215C418.231 196.976 418.16 196.737 418.008 196.55C417.855 196.365 417.635 196.248 417.396 196.224C417.157 196.2 416.919 196.272 416.732 196.423L415.963 197.051C415.777 197.203 415.659 197.423 415.635 197.662C415.611 197.901 415.682 198.14 415.833 198.327C415.985 198.512 416.205 198.63 416.444 198.654C416.683 198.679 416.921 198.608 417.108 198.457Z" fill="#F2B340"/>
<path fill-rule="evenodd" clip-rule="evenodd" d="M398.619 213.246L399.28 212.706C399.414 212.597 399.499 212.439 399.516 212.267C399.534 212.095 399.482 211.924 399.374 211.79C399.264 211.656 399.107 211.571 398.935 211.554C398.763 211.536 398.591 211.588 398.457 211.696L397.795 212.237C397.662 212.346 397.577 212.504 397.56 212.676C397.542 212.847 397.593 213.019 397.702 213.153C397.756 213.22 397.823 213.275 397.898 213.315C397.973 213.356 398.056 213.381 398.141 213.39C398.226 213.399 398.312 213.39 398.394 213.366C398.476 213.341 398.552 213.301 398.619 213.246Z" fill="#C2AFA1"/>
<path fill-rule="evenodd" clip-rule="evenodd" d="M463.242 162.261C463.644 162.037 463.941 161.655 463.91 161.412C463.879 161.169 463.528 161.152 463.129 161.378C462.73 161.604 462.43 161.981 462.461 162.227C462.492 162.473 462.835 162.484 463.242 162.261Z" fill="white"/>
<path fill-rule="evenodd" clip-rule="evenodd" d="M455.265 170.436L458.209 168.029C458.395 167.877 458.513 167.657 458.537 167.419C458.56 167.18 458.489 166.942 458.337 166.756C458.184 166.57 457.964 166.452 457.725 166.429C457.486 166.405 457.247 166.477 457.061 166.629L454.119 169.033C453.933 169.186 453.816 169.405 453.791 169.644C453.767 169.883 453.838 170.122 453.989 170.309C454.064 170.401 454.157 170.478 454.262 170.534C454.367 170.59 454.482 170.626 454.6 170.637C454.719 170.649 454.838 170.638 454.952 170.603C455.066 170.569 455.173 170.512 455.265 170.436Z" fill="#FFEBCE"/>
<path fill-rule="evenodd" clip-rule="evenodd" d="M412.41 205.274L415.352 202.87C415.444 202.795 415.52 202.702 415.577 202.597C415.633 202.493 415.668 202.378 415.68 202.26C415.692 202.141 415.68 202.022 415.646 201.908C415.611 201.794 415.554 201.689 415.479 201.597C415.326 201.411 415.106 201.293 414.867 201.269C414.628 201.246 414.389 201.317 414.203 201.469L411.261 203.874C411.075 204.026 410.958 204.246 410.934 204.486C410.91 204.725 410.982 204.964 411.134 205.15C411.209 205.242 411.302 205.318 411.407 205.374C411.512 205.43 411.627 205.465 411.746 205.477C411.864 205.488 411.984 205.476 412.098 205.442C412.212 205.407 412.318 205.35 412.41 205.274Z" fill="#FFD670"/>
<path fill-rule="evenodd" clip-rule="evenodd" d="M431.824 232.967C442.812 220.768 440.752 202.675 427.224 192.55C413.696 182.425 393.809 184.091 382.833 196.298C371.857 208.505 373.905 226.59 387.436 236.715C400.966 246.84 420.839 245.162 431.824 232.967Z" fill="#FFD3AB"/>
<path fill-rule="evenodd" clip-rule="evenodd" d="M418.39 187.608C405.866 182.85 390.977 185.797 382.01 195.752C378.776 199.295 376.537 203.631 375.52 208.318L298.192 242.735L301.586 244.998L380.643 209.812C381.661 205.125 383.9 200.791 387.133 197.249C394.904 188.618 407.105 185.26 418.39 187.608Z" fill="#A5E8FD"/>
<path fill-rule="evenodd" clip-rule="evenodd" d="M301.835 209.965C301.553 215.815 290.217 215.651 276.531 209.594C269.21 206.352 262.697 202.083 258.27 197.917C262.46 201.289 267.857 204.587 273.787 207.212C287.47 213.269 298.8 213.436 299.091 207.583C299.227 204.861 296.953 201.32 293.103 197.699C298.585 202.112 302.002 206.647 301.835 209.965Z" fill="#F08484"/>
<path fill-rule="evenodd" clip-rule="evenodd" d="M314.492 212.327C314.452 212.342 314.412 212.356 314.37 212.366C314.33 212.354 314.29 212.339 314.252 212.321C310.187 210.505 308.028 213.648 303.943 215.249L305.468 215.936C308.928 217.495 311.245 219.49 313.901 219.512H314.215H314.532C317.185 219.603 319.584 217.713 323.112 216.304L324.665 215.685C320.637 213.905 318.631 210.675 314.481 212.313L314.492 212.327ZM314.334 214.095C317.383 214.157 319.488 214.796 320.761 215.359C316.544 216.68 312.01 216.581 307.856 215.076C309.154 214.573 311.281 214.024 314.334 214.095Z" fill="#F08484"/>
<path fill-rule="evenodd" clip-rule="evenodd" d="M293.521 179.209L302.692 170.558L303.745 175.738L316.922 162.04L314.404 171.825L336.206 158.43L308.752 179.081L310.879 171.825L300.064 181.039L300.647 174.864L293.521 179.209Z" fill="#817FED"/>
<path fill-rule="evenodd" clip-rule="evenodd" d="M268.33 170.697C267.036 171.823 266.239 173.414 266.112 175.125C265.985 176.835 266.539 178.527 267.654 179.831L283.948 198.734C285.074 200.028 286.666 200.825 288.376 200.952C290.087 201.078 291.778 200.524 293.083 199.41C294.377 198.284 295.174 196.693 295.3 194.982C295.427 193.271 294.873 191.58 293.759 190.276L277.464 171.373C276.338 170.079 274.747 169.282 273.036 169.155C271.325 169.028 269.634 169.582 268.33 170.697Z" fill="#34304E"/>
<path fill-rule="evenodd" clip-rule="evenodd" d="M286.845 191.868C286.196 192.431 285.797 193.228 285.734 194.085C285.671 194.941 285.949 195.788 286.508 196.44L290.214 200.74C290.776 201.39 291.573 201.79 292.43 201.854C293.287 201.917 294.134 201.639 294.786 201.079C295.435 200.516 295.834 199.719 295.897 198.861C295.96 198.004 295.682 197.157 295.122 196.505L291.416 192.205C290.853 191.557 290.056 191.158 289.2 191.095C288.344 191.032 287.497 191.31 286.845 191.868Z" fill="#52727D"/>
<path fill-rule="evenodd" clip-rule="evenodd" d="M292.817 198.519C292.515 198.781 292.329 199.152 292.299 199.55C292.27 199.949 292.399 200.343 292.659 200.646L294.381 202.646C294.643 202.949 295.014 203.135 295.413 203.164C295.812 203.193 296.206 203.063 296.509 202.802C296.811 202.54 296.997 202.17 297.026 201.771C297.056 201.372 296.927 200.978 296.667 200.675L294.944 198.677C294.683 198.375 294.312 198.188 293.913 198.159C293.515 198.129 293.12 198.259 292.817 198.519Z" fill="#1B4554"/>
<path fill-rule="evenodd" clip-rule="evenodd" d="M120.193 110.557H107.064C106.498 110.558 105.956 110.784 105.556 111.184C105.155 111.584 104.93 112.126 104.928 112.692C104.931 113.258 105.156 113.8 105.556 114.2C105.956 114.6 106.498 114.826 107.064 114.828H120.193C120.759 114.827 121.302 114.601 121.702 114.201C122.102 113.801 122.327 113.258 122.329 112.692C122.328 112.126 122.103 111.583 121.703 111.183C121.302 110.783 120.759 110.557 120.193 110.557Z" fill="white"/>
<path fill-rule="evenodd" clip-rule="evenodd" d="M131.993 110.557H127.243C126.677 110.558 126.134 110.784 125.734 111.184C125.334 111.584 125.108 112.126 125.107 112.692C125.109 113.258 125.335 113.8 125.735 114.2C126.135 114.6 126.677 114.826 127.243 114.828H131.993C132.558 114.826 133.1 114.6 133.5 114.2C133.9 113.8 134.126 113.258 134.128 112.692C134.127 112.126 133.901 111.584 133.501 111.184C133.101 110.784 132.559 110.558 131.993 110.557Z" fill="white"/>
<path fill-rule="evenodd" clip-rule="evenodd" d="M170.152 124.922H176.376C176.957 124.923 177.513 125.155 177.924 125.565C178.335 125.976 178.567 126.533 178.568 127.114C178.567 127.696 178.336 128.253 177.925 128.665C177.514 129.076 176.957 129.308 176.376 129.309H170.152C169.571 129.308 169.013 129.076 168.602 128.665C168.192 128.253 167.96 127.696 167.96 127.114C167.961 126.533 168.193 125.976 168.603 125.565C169.014 125.155 169.571 124.923 170.152 124.922Z" fill="#8F7C6E"/>
<path fill-rule="evenodd" clip-rule="evenodd" d="M157.594 124.922H163.818C164.399 124.923 164.956 125.155 165.367 125.565C165.777 125.976 166.009 126.533 166.01 127.114C166.01 127.696 165.778 128.253 165.368 128.665C164.957 129.076 164.399 129.308 163.818 129.309H157.594C157.013 129.307 156.456 129.075 156.046 128.664C155.635 128.252 155.403 127.695 155.402 127.114C155.404 126.533 155.636 125.977 156.047 125.566C156.457 125.156 157.014 124.924 157.594 124.922Z" fill="#8F7C6E"/>
<path fill-rule="evenodd" clip-rule="evenodd" d="M145.057 124.922H151.28C151.861 124.923 152.418 125.155 152.829 125.565C153.24 125.976 153.471 126.533 153.473 127.114C153.472 127.696 153.241 128.253 152.83 128.665C152.419 129.076 151.862 129.308 151.28 129.309H145.057C144.475 129.308 143.918 129.076 143.507 128.665C143.096 128.253 142.865 127.696 142.864 127.114C142.866 126.533 143.097 125.976 143.508 125.565C143.919 125.155 144.476 124.923 145.057 124.922Z" fill="#4F4974"/>
<path fill-rule="evenodd" clip-rule="evenodd" d="M193.827 93.7584C198.348 97.5656 204.067 99.6536 209.977 99.6539H211.788V161.324C211.788 165.772 213.339 170.081 216.173 173.508C227.412 171.432 235.992 161.525 235.992 149.706V106.5C235.994 104.204 235.788 101.913 235.378 99.6539H235.927C242.606 99.6367 249.006 96.9764 253.729 92.2543C258.452 87.5323 261.114 81.1326 261.133 74.4539C261.133 62.397 252.553 52.2497 241.195 49.8112C244.024 52.1706 246.301 55.1223 247.865 58.4579C249.429 61.7934 250.243 65.4316 250.247 69.1157C250.232 74.3153 248.614 79.3838 245.615 83.6313C242.616 87.8788 238.381 91.0988 233.486 92.8532C231.23 86.9788 227.578 81.7417 222.846 77.594C219.652 79.1038 216.934 81.4616 214.989 84.4104C213.043 87.3591 211.945 90.7854 211.813 94.3157H199.103C197.33 94.3174 195.561 94.1306 193.827 93.7584Z" fill="#FFF6EE"/>
<path fill-rule="evenodd" clip-rule="evenodd" d="M218.914 77.5941C223.041 81.1955 226.351 85.638 228.62 90.6235C230.889 95.609 232.066 101.022 232.071 106.5V149.717C232.071 161.537 223.488 171.443 212.252 173.52C209.418 170.092 207.867 165.783 207.867 161.336V94.9806C207.876 91.3345 208.918 87.7657 210.874 84.6883C212.829 81.6108 215.617 79.151 218.914 77.5941Z" fill="#FFE3C9"/>
<path fill-rule="evenodd" clip-rule="evenodd" d="M180.064 78.0919C180.082 83.8057 182.359 89.2805 186.4 93.3206C190.44 97.3606 195.915 99.6375 201.629 99.6539H223.833C229.547 99.6375 235.022 97.3606 239.063 93.3206C243.103 89.2805 245.381 83.8057 245.398 78.0919C245.382 72.3776 243.104 66.902 239.064 62.8614C235.023 58.8207 229.548 56.5435 223.833 56.527H201.629C195.915 56.5442 190.44 58.8217 186.399 62.8622C182.359 66.9027 180.081 72.3778 180.064 78.0919Z" fill="#34304E"/>
<path fill-rule="evenodd" clip-rule="evenodd" d="M144.751 102.005C144.768 107.719 147.045 113.194 151.085 117.234C155.125 121.275 160.599 123.552 166.313 123.57H199.165C204.879 123.552 210.354 121.275 214.394 117.234C218.434 113.194 220.711 107.719 220.728 102.005C220.711 96.291 218.434 90.8158 214.394 86.7752C210.354 82.7347 204.879 80.4571 199.165 80.4399H166.313C160.599 80.4571 155.125 82.7347 151.085 86.7752C147.045 90.8158 144.768 96.291 144.751 102.005Z" fill="#34304E"/>
<path d="M166.915 61.2627H193.974C204.329 61.2627 212.724 69.6568 212.724 80.0114C212.724 90.366 204.329 98.76 193.974 98.76H166.915C156.56 98.76 148.165 90.366 148.165 80.0114C148.165 69.6568 156.56 61.2627 166.915 61.2627Z" fill="#34304E"/>
<path d="M169.515 84.5616H169.518C183.009 84.5616 193.946 95.4982 193.946 108.989V124.172C193.946 137.663 183.009 148.6 169.518 148.6H169.515C156.024 148.6 145.088 137.663 145.088 124.172V108.989C145.088 95.4982 156.024 84.5616 169.515 84.5616Z" fill="#34304E"/>
<path fill-rule="evenodd" clip-rule="evenodd" d="M189.906 93.7584C194.426 97.566 200.147 99.6541 206.057 99.6539H231.995C238.672 99.6345 245.071 96.9732 249.793 92.2515C254.514 87.5298 257.176 81.1314 257.195 74.4539C257.195 62.397 248.612 52.2497 237.257 49.8112C240.086 52.1706 242.363 55.1223 243.927 58.4579C245.492 61.7934 246.305 65.4316 246.309 69.1157C246.309 82.9774 234.968 94.3157 221.106 94.3157H195.16C193.394 94.316 191.633 94.1291 189.906 93.7584Z" fill="#34304E"/>
<path d="M227.904 123.247H227.907C229.579 123.247 230.934 124.602 230.934 126.274V128.681C230.934 130.353 229.579 131.708 227.907 131.708H227.904C226.233 131.708 224.877 130.353 224.877 128.681V126.274C224.877 124.602 226.233 123.247 227.904 123.247Z" fill="#42A3C2"/>
<path fill-rule="evenodd" clip-rule="evenodd" d="M232.405 118.508H220.806V121.98C220.809 122.898 221.176 123.779 221.826 124.429C222.475 125.078 223.356 125.445 224.275 125.448H235.873V121.98C235.871 121.06 235.505 120.179 234.855 119.529C234.205 118.878 233.324 118.511 232.405 118.508Z" fill="#34304E"/>
<path d="M215.107 69.1893H232.312C238.946 69.1893 244.324 74.5671 244.324 81.2009C244.324 87.8347 238.946 93.2125 232.312 93.2125H215.107C208.473 93.2125 203.095 87.8347 203.095 81.2009C203.095 74.5671 208.473 69.1893 215.107 69.1893Z" fill="#4A456B"/>
<path d="M186.854 81.2007H220.758C224.075 81.2007 226.764 83.8896 226.764 87.2065C226.764 90.5234 224.075 93.2123 220.758 93.2123H186.854C183.537 93.2123 180.848 90.5234 180.848 87.2065C180.848 83.8896 183.537 81.2007 186.854 81.2007Z" fill="#4A456B"/>
<path fill-rule="evenodd" clip-rule="evenodd" d="M190.976 114.246H199.96C202.453 114.236 204.841 113.241 206.603 111.477C208.364 109.713 209.357 107.324 209.364 104.831C209.356 102.336 208.362 99.9461 206.598 98.1821C204.834 96.4182 202.443 95.4238 199.949 95.4164H190.976C193.47 95.4238 195.861 96.4182 197.624 98.1821C199.388 99.9461 200.383 102.336 200.39 104.831C200.383 107.326 199.389 109.717 197.625 111.481C195.861 113.245 193.47 114.239 190.976 114.246Z" fill="#4A456B"/>
<path fill-rule="evenodd" clip-rule="evenodd" d="M173.892 114.246H182.88C185.374 114.238 187.764 113.244 189.527 111.48C191.291 109.716 192.285 107.325 192.291 104.831C192.285 102.337 191.291 99.9463 189.527 98.1823C187.764 96.4182 185.374 95.4238 182.88 95.4164H173.892C176.387 95.4238 178.777 96.4182 180.541 98.1821C182.305 99.9461 183.299 102.336 183.307 104.831C183.3 107.326 182.306 109.717 180.542 111.481C178.778 113.245 176.387 114.239 173.892 114.246Z" fill="#4A456B"/>
<path fill-rule="evenodd" clip-rule="evenodd" d="M192.203 112.752C186.757 112.752 182.896 117.168 183.575 122.611C184.254 128.053 189.233 132.469 194.667 132.469C200.102 132.469 203.974 128.056 203.293 122.611C202.611 117.165 197.646 112.752 192.203 112.752Z" fill="#FFE3C9"/>
<path fill-rule="evenodd" clip-rule="evenodd" d="M192.017 117.827C192.483 117.739 192.96 117.724 193.431 117.782C193.71 117.825 193.974 117.933 194.203 118.097C194.432 118.261 194.619 118.477 194.75 118.726C195.016 119.23 194.939 119.711 194.557 119.934C193.646 120.469 193.205 121.668 193.652 122.913C193.821 123.417 194.126 123.864 194.534 124.206C194.941 124.547 195.435 124.77 195.96 124.848C196.239 124.892 196.504 125 196.733 125.164C196.962 125.328 197.15 125.543 197.282 125.793C197.545 126.297 197.468 126.777 197.086 127.001C196.712 127.22 196.302 127.372 195.876 127.451C193.33 127.94 190.351 126.076 189.369 123.304C188.413 120.69 189.624 118.285 192.017 117.827Z" fill="#FFD18C"/>
<path fill-rule="evenodd" clip-rule="evenodd" d="M121.984 166.694L128.652 160.408L129.416 164.17L138.994 154.215L137.161 161.327L153.009 151.59L133.054 166.6L134.601 161.327L126.74 168.023L127.164 163.534L121.984 166.694Z" fill="#A7C9FB"/>
<path fill-rule="evenodd" clip-rule="evenodd" d="M381.079 156.343C377.919 156.773 375.571 159.016 375.834 161.353C376.097 163.689 378.867 165.231 382.027 164.801C385.187 164.371 387.535 162.128 387.272 159.794C387.008 157.46 384.25 155.913 381.079 156.343Z" fill="#443E6A"/>
<path fill-rule="evenodd" clip-rule="evenodd" d="M378.621 167.723C376.499 168.006 374.92 169.517 375.096 171.087C375.271 172.657 377.135 173.695 379.257 173.407C381.379 173.118 382.96 171.61 382.782 170.04C382.604 168.47 380.742 167.432 378.621 167.723Z" fill="#443E6A"/>
<path fill-rule="evenodd" clip-rule="evenodd" d="M376.338 176.36C374.805 176.567 373.664 177.656 373.792 178.79C373.919 179.925 375.266 180.671 376.799 180.465C378.332 180.258 379.469 179.166 379.345 178.032C379.22 176.898 377.871 176.151 376.338 176.36Z" fill="#443E6A"/>
<path fill-rule="evenodd" clip-rule="evenodd" d="M317.343 132.084H304.211C303.646 132.087 303.104 132.312 302.704 132.713C302.304 133.113 302.078 133.655 302.076 134.22C302.078 134.786 302.304 135.328 302.704 135.728C303.104 136.128 303.646 136.354 304.211 136.356H317.343C317.909 136.354 318.451 136.128 318.851 135.728C319.251 135.328 319.477 134.786 319.479 134.22C319.477 133.655 319.251 133.113 318.851 132.713C318.451 132.312 317.909 132.087 317.343 132.084Z" fill="white"/>
<path fill-rule="evenodd" clip-rule="evenodd" d="M329.14 132.084H324.39C323.824 132.087 323.282 132.312 322.882 132.713C322.482 133.113 322.256 133.655 322.254 134.22C322.256 134.786 322.482 135.328 322.882 135.728C323.282 136.128 323.824 136.354 324.39 136.356H329.14C329.706 136.354 330.248 136.128 330.648 135.728C331.048 135.328 331.273 134.786 331.276 134.22C331.273 133.655 331.048 133.113 330.648 132.713C330.248 132.312 329.706 132.087 329.14 132.084Z" fill="white"/>
<path d="M317.312 109.221H340.173V108.373H318.161V35.9213H317.312V109.221Z" fill="white"/>
<path d="M443.81 131.782H444.659V145.112H443.81V131.782Z" fill="white"/>
<defs>
<linearGradient id="paint0_linear" x1="293.493" y1="0.503906" x2="293.493" y2="334.004" gradientUnits="userSpaceOnUse">
<stop stop-color="#69BDD8"/>
<stop offset="1" stop-color="#92D5EB"/>
</linearGradient>
</defs>
</svg>
