<svg width="100%" height="100%" viewBox="0 0 729 431" fill="none" xmlns="http://www.w3.org/2000/svg">
<path fill-rule="evenodd" clip-rule="evenodd" d="M203.914 250.321C204.26 251.097 204.407 251.946 204.341 252.793L191.211 406.438C191.136 407.969 190.484 409.415 189.388 410.486C188.291 411.556 186.83 412.173 185.298 412.212L144.753 411.912H144.603L133.055 411.831H126.773H126.612C125.108 411.728 123.698 411.066 122.658 409.977C121.617 408.887 121.022 407.448 120.988 405.942L109.29 252.169V252.1V251.961V251.834V251.441C109.304 251.24 109.331 251.039 109.37 250.841H108.019H107.684H107.58H107.361H107.257H107.153H107.049L106.853 250.76H106.749H106.657L106.564 250.702H106.472H106.379L106.287 250.645L106.195 250.587L106.01 250.471L105.848 250.344L105.594 250.137L105.444 249.986L105.363 249.906L105.225 249.755L105.155 249.675L105.086 249.582L105.017 249.501L104.901 249.328L104.786 249.143L104.728 249.063L104.67 248.97V248.878L104.578 248.681V248.589V248.485V248.381V248.277V248.173V248.069V247.965V247.862V247.746V247.642V247.307V246.73V246.626V246.51V246.395V241.51V241.268V241.037V240.794V240.563V240.321V240.09V239.859C104.578 239.709 104.636 239.559 104.67 239.408L104.728 239.189V238.97L104.797 238.75L104.948 238.323L105.028 238.115L105.109 237.907L105.202 237.699L105.306 237.491L105.398 237.284L105.502 237.087L105.617 236.891L105.733 236.695L105.848 236.498L105.975 236.314L106.102 236.129L106.241 235.944L106.368 235.771L106.518 235.586L106.657 235.424L106.807 235.251L106.957 235.09L107.119 234.928L107.28 234.766L107.442 234.616L107.615 234.466L107.777 234.316L107.962 234.177L108.135 234.039L108.32 233.9L108.504 233.773L108.689 233.646L108.885 233.531L109.07 233.415L109.266 233.3L109.463 233.196L109.659 233.092L109.867 232.999L110.075 232.907L110.283 232.815L110.491 232.734L110.71 232.653L110.918 232.584L111.149 232.514L111.368 232.457L111.588 232.399H111.819H112.05H112.28H112.511H112.742H112.973H113.216H113.701L140.85 232.26L162.791 232.145H162.895L199.063 231.96C200.285 231.946 201.498 232.175 202.631 232.633C203.764 233.091 204.794 233.77 205.663 234.629C206.532 235.488 207.222 236.511 207.693 237.639C208.163 238.767 208.406 239.976 208.406 241.198V246.083C208.341 247.23 207.839 248.308 207.003 249.097C206.168 249.885 205.062 250.323 203.914 250.321Z" fill="#B3815D"/>
<path fill-rule="evenodd" clip-rule="evenodd" d="M410.334 2.98668C405.322 2.74417 400.287 2.60559 395.206 2.60559C226.144 2.60559 89.0923 139.668 89.0692 308.731C89.0599 335.481 92.554 362.118 99.4624 387.961L117.858 387.961H671.906C678.363 363.754 681.628 338.807 681.618 313.754C681.618 155.385 553.24 27.0065 394.882 27.0065C314.509 27.0065 241.855 60.0772 189.789 113.349C242.941 49.3201 321.691 7.30159 410.334 2.98668Z" fill="url(#paint0_radial)"/>
<path fill-rule="evenodd" clip-rule="evenodd" d="M70.5465 155.177C68.3794 156.01 66.6294 157.666 65.6777 159.784C64.7259 161.901 64.6496 164.309 65.4654 166.483L85.7782 219.938C86.6063 222.109 88.2614 223.863 90.3807 224.816C92.5 225.768 94.9105 225.841 97.0837 225.019C99.2507 224.186 101.001 222.531 101.953 220.413C102.904 218.295 102.981 215.888 102.165 213.714L81.8519 160.258C81.0189 158.091 79.3632 156.341 77.2456 155.39C75.128 154.438 72.7201 154.362 70.5465 155.177Z" fill="#FFE5BD"/>
<path fill-rule="evenodd" clip-rule="evenodd" d="M73.1332 154.196C70.9622 155.024 69.2082 156.679 68.2557 158.798C67.3032 160.917 67.23 163.328 68.0521 165.501L88.3534 219.014C89.1838 221.186 90.8411 222.94 92.9623 223.893C95.0834 224.845 97.4956 224.918 99.6704 224.096C101.837 223.262 103.587 221.607 104.539 219.489C105.491 217.372 105.567 214.964 104.752 212.79L84.4386 159.335C83.6169 157.157 81.9659 155.394 79.8471 154.431C77.7282 153.467 75.3141 153.383 73.1332 154.196Z" fill="#FFD18C"/>
<path fill-rule="evenodd" clip-rule="evenodd" d="M97.6032 224.546C98.3111 224.466 99.0058 224.295 99.6702 224.038C101.837 223.205 103.587 221.549 104.539 219.432C105.491 217.314 105.567 214.906 104.751 212.733L86.5517 164.843C85.849 164.925 85.1588 165.092 84.4962 165.34C82.3244 166.17 80.5703 167.828 79.6179 169.949C78.6655 172.07 78.5926 174.482 79.4151 176.657L97.6032 224.546Z" fill="#DEB981"/>
<path fill-rule="evenodd" clip-rule="evenodd" d="M107.858 221.324L160.078 221.705C160.849 221.694 161.615 221.839 162.328 222.133C163.041 222.426 163.687 222.861 164.227 223.412C164.767 223.963 165.19 224.618 165.469 225.337C165.748 226.056 165.879 226.824 165.852 227.595L152.722 381.24C152.649 382.772 151.999 384.219 150.902 385.291C149.805 386.362 148.342 386.978 146.809 387.014L94.5894 386.633C96.0955 386.555 97.5192 385.922 98.5856 384.856C99.652 383.789 100.285 382.365 100.363 380.859L113.482 227.271C113.518 226.508 113.399 225.745 113.133 225.029C112.867 224.313 112.46 223.657 111.935 223.102C111.41 222.547 110.778 222.103 110.077 221.798C109.377 221.492 108.622 221.331 107.858 221.324Z" fill="#DEB981"/>
<path fill-rule="evenodd" clip-rule="evenodd" d="M76.7476 221.093L119.394 221.416H119.544C120.302 221.424 121.05 221.583 121.745 221.884C122.441 222.185 123.068 222.623 123.591 223.171C124.115 223.718 124.523 224.366 124.791 225.074C125.06 225.782 125.184 226.537 125.157 227.294L112.027 380.94C111.951 382.447 111.319 383.872 110.252 384.939C109.185 386.006 107.76 386.638 106.253 386.714H106.103L88.284 386.587H88.1339C86.6317 386.481 85.2231 385.819 84.1831 384.73C83.1431 383.641 82.5466 382.203 82.51 380.697L70.812 226.879C70.581 223.714 73.4333 221.105 76.5859 221.105L76.7476 221.093Z" fill="#FFD18C"/>
<path fill-rule="evenodd" clip-rule="evenodd" d="M80.3159 221.116L121.715 221.393H121.877C125.18 221.497 128.032 224.119 127.755 227.271L127.281 232.606L71.3085 232.895L70.8235 226.89C70.604 223.922 73.2139 221.474 76.251 221.116H80.3159Z" fill="#DEB981"/>
<path fill-rule="evenodd" clip-rule="evenodd" d="M118.598 259.248C122.733 259.22 126.834 260.011 130.662 261.576C134.491 263.14 137.972 265.446 140.906 268.361C143.84 271.276 146.167 274.743 147.755 278.562C149.343 282.381 150.16 286.476 150.158 290.612C150.152 298.994 146.83 307.034 140.917 312.975C135.004 318.917 126.98 322.277 118.598 322.323C114.461 322.349 110.36 321.556 106.531 319.989C102.702 318.423 99.2212 316.115 96.2886 313.197C93.3559 310.28 91.0297 306.81 89.4438 302.99C87.858 299.169 87.044 295.072 87.0486 290.935C87.0667 282.561 90.392 274.532 96.3008 268.598C102.209 262.663 110.223 259.303 118.598 259.248Z" fill="#FC9164"/>
<path fill-rule="evenodd" clip-rule="evenodd" d="M75.0039 206.924L160.378 206.473C161.601 206.47 162.813 206.708 163.944 207.174C165.075 207.64 166.104 208.324 166.97 209.187C167.837 210.051 168.525 211.076 168.995 212.206C169.465 213.335 169.707 214.546 169.709 215.77V220.654C169.703 221.835 169.234 222.966 168.402 223.804C167.571 224.642 166.443 225.12 165.263 225.135L70.1191 225.631C69.5353 225.633 68.9569 225.519 68.4169 225.297C67.8769 225.075 67.3859 224.749 66.972 224.337C66.5581 223.926 66.2293 223.436 66.0045 222.898C65.7796 222.359 65.6631 221.781 65.6616 221.197V216.312C65.6676 213.832 66.6524 211.455 68.4018 209.697C70.1512 207.938 72.5238 206.942 75.0039 206.924Z" fill="#FC9164"/>
<path fill-rule="evenodd" clip-rule="evenodd" d="M75.0038 206.924L124.106 206.67C126.569 206.658 128.937 207.624 130.689 209.356C132.44 211.088 133.433 213.445 133.448 215.908V220.793C133.442 221.975 132.971 223.108 132.137 223.946C131.303 224.785 130.173 225.261 128.991 225.274L70.0959 225.585C69.5121 225.587 68.9337 225.473 68.3937 225.251C67.8537 225.029 67.3627 224.703 66.9488 224.291C66.5349 223.88 66.2061 223.39 65.9813 222.851C65.7564 222.313 65.6399 221.735 65.6384 221.151V216.266C65.6566 213.79 66.6499 211.421 68.403 209.672C70.1561 207.923 72.5277 206.936 75.0038 206.924Z" fill="#FFAE8B"/>
<path fill-rule="evenodd" clip-rule="evenodd" d="M118.597 271.304C121.159 271.281 123.7 271.766 126.073 272.731C128.446 273.696 130.605 275.121 132.424 276.925C134.243 278.729 135.686 280.876 136.671 283.241C137.655 285.606 138.161 288.142 138.16 290.704C138.16 295.889 136.109 300.863 132.455 304.541C128.8 308.219 123.84 310.302 118.655 310.336C116.099 310.353 113.565 309.863 111.2 308.896C108.834 307.929 106.683 306.503 104.871 304.701C103.059 302.898 101.621 300.755 100.642 298.394C99.6619 296.034 99.159 293.503 99.1621 290.947C99.1588 285.772 101.199 280.805 104.838 277.127C108.478 273.448 113.423 271.355 118.597 271.304Z" fill="#FFAE8B"/>
<path d="M123.886 212.028H95.8595C93.7038 212.028 91.9563 213.775 91.9563 215.931V215.943C91.9563 218.098 93.7038 219.846 95.8595 219.846H123.886C126.042 219.846 127.79 218.098 127.79 215.943V215.931C127.79 213.775 126.042 212.028 123.886 212.028Z" fill="#FFC6AD"/>
<path d="M81.7712 212.028H77.1866C75.031 212.028 73.2834 213.775 73.2834 215.931V215.943C73.2834 218.098 75.031 219.846 77.1866 219.846H81.7712C83.9269 219.846 85.6744 218.098 85.6744 215.943V215.931C85.6744 213.775 83.9269 212.028 81.7712 212.028Z" fill="#FFC6AD"/>
<path fill-rule="evenodd" clip-rule="evenodd" d="M119.683 217.86H121.993C122.511 217.86 123.009 218.065 123.377 218.431C123.745 218.796 123.953 219.293 123.956 219.811C123.953 220.33 123.745 220.826 123.377 221.192C123.009 221.558 122.511 221.763 121.993 221.763H119.683C119.165 221.763 118.669 221.557 118.303 221.191C117.937 220.825 117.731 220.329 117.731 219.811C117.731 219.294 117.937 218.797 118.303 218.431C118.669 218.065 119.165 217.86 119.683 217.86Z" fill="#FFE2D6"/>
<path fill-rule="evenodd" clip-rule="evenodd" d="M112.419 208.552H116.796C117.787 208.555 118.737 208.95 119.438 209.651C120.139 210.352 120.534 211.302 120.537 212.294C120.534 213.285 120.139 214.235 119.438 214.936C118.737 215.637 117.787 216.032 116.796 216.035H112.419C111.428 216.032 110.478 215.637 109.777 214.936C109.076 214.235 108.681 213.285 108.678 212.294C108.681 211.302 109.076 210.352 109.777 209.651C110.478 208.95 111.428 208.555 112.419 208.552Z" fill="#FFE2D6"/>
<path d="M569.58 348.04H561.624C557.07 348.04 553.378 351.732 553.378 356.285V362.694C553.378 367.248 557.07 370.94 561.624 370.94H569.58C574.134 370.94 577.825 367.248 577.825 362.694V356.285C577.825 351.732 574.134 348.04 569.58 348.04Z" fill="#373449"/>
<path d="M284.738 348.04H276.781C272.228 348.04 268.536 351.732 268.536 356.285V362.694C268.536 367.248 272.228 370.94 276.781 370.94H284.738C289.292 370.94 292.983 367.248 292.983 362.694V356.285C292.983 351.732 289.292 348.04 284.738 348.04Z" fill="#3C3C4C"/>
<path fill-rule="evenodd" clip-rule="evenodd" d="M242.38 354.911H623.786C627.745 354.812 631.538 353.302 634.481 350.653C637.424 348.004 639.324 344.391 639.838 340.464L669.47 71.9628C669.798 69.5372 669.598 67.0692 668.883 64.7283C668.168 62.3874 666.955 60.229 665.327 58.4012C663.699 56.5735 661.694 55.1197 659.451 54.1397C657.208 53.1597 654.78 52.6767 652.333 52.7239H280.557C275.276 52.8584 270.216 54.8755 266.29 58.4116C262.365 61.9477 259.831 66.77 259.148 72.0089L229.515 340.464C229.262 342.287 229.408 344.142 229.943 345.902C230.477 347.662 231.388 349.285 232.611 350.659C233.834 352.033 235.341 353.125 237.028 353.859C238.715 354.593 240.541 354.952 242.38 354.911Z" fill="#373449"/>
<path fill-rule="evenodd" clip-rule="evenodd" d="M232.541 354.911H613.935C617.893 354.81 621.685 353.299 624.628 350.651C627.571 348.002 629.471 344.39 629.987 340.464L659.619 71.9628C659.946 69.5386 659.744 67.0724 659.029 64.7332C658.314 62.3939 657.102 60.2369 655.475 58.4098C653.849 56.5827 651.847 55.1287 649.606 54.1473C647.365 53.1659 644.939 52.6804 642.493 52.7239H270.718C265.437 52.8564 260.378 54.8732 256.453 58.4099C252.529 61.9466 249.999 66.77 249.32 72.009L219.676 340.464C219.423 342.287 219.569 344.142 220.104 345.902C220.638 347.662 221.548 349.285 222.772 350.659C223.995 352.033 225.502 353.125 227.189 353.859C228.876 354.593 230.702 354.952 232.541 354.911Z" fill="url(#paint1_radial)"/>
<path fill-rule="evenodd" clip-rule="evenodd" d="M232.541 342.797H613.936C614.91 342.698 615.826 342.287 616.548 341.625C617.27 340.963 617.759 340.087 617.943 339.125L647.598 70.6231C647.743 69.8888 647.717 69.1311 647.522 68.4084C647.328 67.6856 646.971 67.017 646.478 66.4538C645.985 65.8906 645.37 65.448 644.679 65.1598C643.988 64.8716 643.241 64.7456 642.494 64.7914H270.719C268.422 64.9269 266.241 65.8438 264.538 67.3898C262.834 68.9359 261.71 71.0181 261.353 73.2907L231.698 341.792C231.698 342.578 231.802 342.797 232.541 342.797Z" fill="url(#paint2_radial)"/>
<path fill-rule="evenodd" clip-rule="evenodd" d="M264.656 237.237H368.946C369.333 237.233 369.715 237.317 370.064 237.484C370.413 237.65 370.719 237.894 370.959 238.198C371.199 238.501 371.366 238.855 371.447 239.233C371.529 239.611 371.522 240.003 371.429 240.378C371.235 241.242 370.763 242.019 370.085 242.588C369.407 243.158 368.56 243.489 367.676 243.531H263.432C263.04 243.543 262.651 243.464 262.295 243.3C261.939 243.136 261.626 242.891 261.381 242.586C261.136 242.28 260.965 241.921 260.882 241.538C260.799 241.155 260.806 240.758 260.903 240.378C261.099 239.516 261.572 238.742 262.25 238.175C262.928 237.608 263.773 237.278 264.656 237.237ZM260.037 264.952H364.315C364.706 264.938 365.095 265.016 365.452 265.178C365.808 265.341 366.121 265.584 366.366 265.889C366.612 266.194 366.783 266.552 366.866 266.935C366.949 267.317 366.941 267.714 366.844 268.093C366.65 268.956 366.177 269.731 365.499 270.299C364.821 270.866 363.975 271.195 363.091 271.234H258.836C258.444 271.251 258.054 271.175 257.696 271.013C257.339 270.851 257.025 270.608 256.779 270.302C256.533 269.997 256.362 269.638 256.28 269.254C256.198 268.87 256.207 268.473 256.307 268.093C256.498 267.229 256.969 266.452 257.648 265.883C258.327 265.315 259.175 264.988 260.06 264.952H260.037ZM262.347 251.095H366.625C367.016 251.081 367.405 251.158 367.761 251.321C368.117 251.483 368.431 251.727 368.676 252.032C368.922 252.337 369.093 252.695 369.175 253.077C369.258 253.46 369.251 253.857 369.154 254.236C368.963 255.1 368.491 255.878 367.812 256.446C367.133 257.014 366.285 257.342 365.401 257.377H261.123C260.731 257.391 260.342 257.314 259.986 257.151C259.63 256.988 259.317 256.745 259.071 256.44C258.826 256.135 258.655 255.777 258.572 255.394C258.489 255.012 258.496 254.615 258.594 254.236C258.789 253.374 259.264 252.6 259.945 252.036C260.626 251.472 261.475 251.149 262.358 251.118L262.347 251.095Z" fill="#7371D1"/>
<path fill-rule="evenodd" clip-rule="evenodd" d="M639.849 140.869L646.524 80.3927H260.568L253.905 140.869H639.849Z" fill="url(#paint3_linear)"/>
<path d="M278.537 348.04H270.58C266.027 348.04 262.335 351.732 262.335 356.285V362.694C262.335 367.248 266.027 370.94 270.58 370.94H278.537C283.09 370.94 286.782 367.248 286.782 362.694V356.285C286.782 351.732 283.09 348.04 278.537 348.04Z" fill="#4B4C5E"/>
<path d="M563.391 348.04H555.434C550.881 348.04 547.189 351.732 547.189 356.285V362.694C547.189 367.248 550.881 370.94 555.434 370.94H563.391C567.944 370.94 571.636 367.248 571.636 362.694V356.285C571.636 351.732 567.944 348.04 563.391 348.04Z" fill="#464263"/>
<path d="M595.089 359.565H56.7465C54.0551 359.565 51.8733 361.744 51.8733 364.432C51.8733 367.12 54.0551 369.3 56.7465 369.3H595.089C597.781 369.3 599.963 367.12 599.963 364.432C599.963 361.744 597.781 359.565 595.089 359.565Z" fill="#605C7C"/>
<path fill-rule="evenodd" clip-rule="evenodd" d="M28.6849 364.438H443.026C446.141 364.447 449.126 365.688 451.328 367.891C453.531 370.094 454.772 373.079 454.782 376.194C454.776 379.311 453.535 382.298 451.332 384.504C449.129 386.709 446.143 387.952 443.026 387.961H28.6849C25.5639 387.958 22.5714 386.718 20.3634 384.512C18.1554 382.306 16.9121 379.315 16.906 376.194C16.9152 373.075 18.1598 370.086 20.3675 367.883C22.5751 365.68 25.5659 364.441 28.6849 364.438Z" fill="#484462"/>
<path fill-rule="evenodd" clip-rule="evenodd" d="M111.068 364.438H235.682C235.673 367.555 234.43 370.541 232.225 372.744C230.02 374.947 227.032 376.187 223.915 376.194H122.835C119.718 376.187 116.731 374.947 114.526 372.744C112.32 370.541 111.077 367.555 111.068 364.438Z" fill="#3B3853"/>
<path fill-rule="evenodd" clip-rule="evenodd" d="M355.7 364.438H624.768C627.885 364.444 630.873 365.684 633.078 367.887C635.283 370.09 636.526 373.077 636.535 376.194C636.529 379.313 635.287 382.302 633.082 384.508C630.876 386.713 627.887 387.955 624.768 387.961H355.7C352.582 387.952 349.594 386.709 347.39 384.504C345.185 382.299 343.942 379.312 343.933 376.194C343.945 373.077 345.189 370.093 347.394 367.89C349.598 365.688 352.584 364.447 355.7 364.438Z" fill="#373449"/>
<path fill-rule="evenodd" clip-rule="evenodd" d="M525.906 370.939H546.958C548.28 370.943 549.547 371.469 550.482 372.404C551.417 373.339 551.944 374.606 551.947 375.928C551.944 377.25 551.417 378.517 550.482 379.452C549.547 380.387 548.28 380.914 546.958 380.917H525.906C524.584 380.914 523.317 380.387 522.382 379.452C521.447 378.517 520.92 377.25 520.917 375.928C520.92 374.606 521.447 373.339 522.382 372.404C523.317 371.469 524.584 370.943 525.906 370.939Z" fill="#252333"/>
<path fill-rule="evenodd" clip-rule="evenodd" d="M531.691 372.603H545.929C546.826 372.606 547.685 372.963 548.319 373.597C548.953 374.231 549.31 375.09 549.313 375.986C549.31 376.883 548.953 377.741 548.319 378.375C547.685 379.009 546.826 379.367 545.929 379.37H531.691C530.796 379.367 529.938 379.009 529.306 378.375C528.674 377.74 528.319 376.881 528.319 375.986C528.319 375.091 528.674 374.232 529.306 373.598C529.938 372.963 530.796 372.606 531.691 372.603Z" fill="#524E6E"/>
<path fill-rule="evenodd" clip-rule="evenodd" d="M534.451 372.603H548.69C549.587 372.606 550.445 372.963 551.079 373.597C551.713 374.231 552.071 375.09 552.074 375.986C552.071 376.883 551.713 377.741 551.079 378.375C550.445 379.009 549.587 379.367 548.69 379.37H534.451C533.555 379.367 532.696 379.009 532.062 378.375C531.428 377.741 531.071 376.883 531.068 375.986C531.071 375.09 531.428 374.231 532.062 373.597C532.696 372.963 533.555 372.606 534.451 372.603Z" fill="#857EAC"/>
<path fill-rule="evenodd" clip-rule="evenodd" d="M366.463 370.939H495.719C497.042 370.942 498.311 371.469 499.247 372.403C500.184 373.338 500.713 374.605 500.719 375.928C500.713 377.251 500.184 378.519 499.247 379.453C498.311 380.388 497.042 380.914 495.719 380.917H366.463C365.14 380.914 363.873 380.387 362.938 379.452C362.004 378.517 361.477 377.25 361.474 375.928C361.477 374.606 362.004 373.339 362.938 372.404C363.873 371.469 365.14 370.943 366.463 370.939Z" fill="#252333"/>
<path fill-rule="evenodd" clip-rule="evenodd" d="M370.274 370.939H499.507C500.829 370.943 502.096 371.469 503.031 372.404C503.966 373.339 504.493 374.606 504.496 375.928C504.493 377.25 503.966 378.517 503.031 379.452C502.096 380.387 500.829 380.914 499.507 380.917H370.274C368.952 380.914 367.685 380.387 366.75 379.452C365.815 378.517 365.288 377.25 365.285 375.928C365.288 374.606 365.815 373.339 366.75 372.404C367.685 371.469 368.952 370.943 370.274 370.939Z" fill="#524E6F"/>
<path fill-rule="evenodd" clip-rule="evenodd" d="M577.306 370.939H578.68C580.003 370.942 581.271 371.469 582.208 372.403C583.145 373.338 583.674 374.605 583.68 375.928C583.674 377.251 583.145 378.519 582.208 379.453C581.271 380.388 580.003 380.914 578.68 380.917H577.306C575.983 380.914 574.716 380.387 573.781 379.452C572.846 378.517 572.32 377.25 572.317 375.928C572.32 374.606 572.846 373.339 573.781 372.404C574.716 371.469 575.983 370.943 577.306 370.939Z" fill="#252333"/>
<path fill-rule="evenodd" clip-rule="evenodd" d="M579.893 370.939H581.267C582.589 370.943 583.856 371.469 584.791 372.404C585.726 373.339 586.252 374.606 586.255 375.928C586.252 377.25 585.726 378.517 584.791 379.452C583.856 380.387 582.589 380.914 581.267 380.917H579.893C578.57 380.914 577.303 380.387 576.368 379.452C575.433 378.517 574.907 377.25 574.904 375.928C574.907 374.606 575.433 373.339 576.368 372.404C577.303 371.469 578.57 370.943 579.893 370.939Z" fill="#524E6E"/>
<path d="M580.932 373.434H580.239C578.861 373.434 577.745 374.551 577.745 375.928C577.745 377.306 578.861 378.423 580.239 378.423H580.932C582.309 378.423 583.426 377.306 583.426 375.928C583.426 374.551 582.309 373.434 580.932 373.434Z" fill="#252333"/>
<path fill-rule="evenodd" clip-rule="evenodd" d="M596.614 370.939H597.988C599.311 370.943 600.578 371.469 601.513 372.404C602.447 373.339 602.974 374.606 602.977 375.928C602.974 377.25 602.447 378.517 601.513 379.452C600.578 380.387 599.311 380.914 597.988 380.917H596.614C595.292 380.914 594.025 380.387 593.09 379.452C592.155 378.517 591.629 377.25 591.625 375.928C591.629 374.606 592.155 373.339 593.09 372.404C594.025 371.469 595.292 370.943 596.614 370.939Z" fill="#252333"/>
<path fill-rule="evenodd" clip-rule="evenodd" d="M599.166 370.939H600.54C601.864 370.942 603.132 371.469 604.069 372.403C605.005 373.338 605.535 374.605 605.541 375.928C605.535 377.251 605.005 378.519 604.069 379.453C603.132 380.388 601.864 380.914 600.54 380.917H599.166C597.844 380.914 596.577 380.387 595.642 379.452C594.707 378.517 594.181 377.25 594.177 375.928C594.181 374.606 594.707 373.339 595.642 372.404C596.577 371.469 597.844 370.943 599.166 370.939Z" fill="#524E6E"/>
<path fill-rule="evenodd" clip-rule="evenodd" d="M226.386 287.679C217.766 287.686 209.273 289.761 201.621 293.73C193.969 297.699 187.381 303.446 182.41 310.489C177.439 317.531 174.23 325.664 173.053 334.203C171.875 342.743 172.764 351.44 175.644 359.565H277.128C280.008 351.44 280.897 342.743 279.72 334.203C278.543 325.664 275.334 317.531 270.363 310.489C265.392 303.446 258.803 297.699 251.151 293.73C243.499 289.761 235.006 287.686 226.386 287.679Z" fill="#E7E7F8"/>
<path fill-rule="evenodd" clip-rule="evenodd" d="M266.065 305.128C259.886 298.386 252.093 293.327 243.419 290.427C239.912 289.507 236.33 288.904 232.715 288.626C213.222 287.148 197.366 295.231 197.366 306.698C197.366 318.165 213.222 328.72 232.715 330.245C252.207 331.769 268.051 323.662 268.051 312.172C268.021 309.69 267.336 307.26 266.065 305.128Z" fill="#FEFFFF"/>
<path fill-rule="evenodd" clip-rule="evenodd" d="M265.522 305.231C259.013 305.238 252.601 306.806 246.822 309.802C241.044 312.798 236.068 317.136 232.312 322.452C228.556 327.768 226.129 333.907 225.234 340.354C224.34 346.802 225.004 353.369 227.171 359.507H303.873C306.04 353.369 306.704 346.802 305.81 340.354C304.916 333.907 302.489 327.768 298.732 322.452C294.976 317.136 290 312.798 284.222 309.802C278.444 306.806 272.031 305.238 265.522 305.231Z" fill="#D9D9F1"/>
<path fill-rule="evenodd" clip-rule="evenodd" d="M295.512 318.419C290.844 313.322 284.954 309.499 278.398 307.31C275.75 306.617 273.044 306.161 270.315 305.947C255.556 304.793 243.593 310.924 243.593 319.609C243.593 328.293 255.556 336.261 270.315 337.404C285.073 338.547 297.025 332.427 297.025 323.743C296.995 321.867 296.473 320.031 295.512 318.419Z" fill="#FEFFFF"/>
<path fill-rule="evenodd" clip-rule="evenodd" d="M296.909 317.323C291.843 317.324 286.851 318.543 282.353 320.874C277.856 323.206 273.983 326.583 271.062 330.722C268.14 334.861 266.255 339.641 265.564 344.66C264.873 349.679 265.398 354.791 267.092 359.565H326.726C328.416 354.791 328.936 349.681 328.242 344.664C327.549 339.647 325.664 334.87 322.743 330.732C319.823 326.594 315.953 323.218 311.458 320.884C306.963 318.551 301.974 317.33 296.909 317.323Z" fill="#E3E3F7"/>
<path fill-rule="evenodd" clip-rule="evenodd" d="M320.225 327.565C316.594 323.605 312.017 320.632 306.922 318.927C304.86 318.387 302.753 318.035 300.628 317.877C289.149 316.987 279.842 321.734 279.842 328.489C279.842 335.245 289.138 341.434 300.628 342.347C312.118 343.259 321.414 338.478 321.414 331.734C321.389 330.264 320.979 328.827 320.225 327.565Z" fill="#FEFFFF"/>
<path fill-rule="evenodd" clip-rule="evenodd" d="M320.479 359.565C314.655 344.808 311.654 329.088 311.633 313.223C311.633 268.706 335.191 228.45 373.172 199.487C352.525 224.35 340.549 253.936 340.549 285.681C340.549 312.334 349.002 337.474 363.946 359.588L320.479 359.565Z" fill="#EDEDFF"/>
<path fill-rule="evenodd" clip-rule="evenodd" d="M350.919 337.162C353.606 337.162 356.254 337.807 358.64 339.043C361.026 340.28 363.08 342.071 364.629 344.267C366.178 346.462 367.178 348.998 367.543 351.66C367.908 354.322 367.629 357.033 366.728 359.565H335.098C334.206 357.032 333.933 354.323 334.302 351.663C334.671 349.003 335.672 346.47 337.222 344.277C338.771 342.083 340.823 340.292 343.206 339.055C345.589 337.817 348.234 337.168 350.919 337.162Z" fill="#FEFFFF"/>
<path fill-rule="evenodd" clip-rule="evenodd" d="M373.022 199.672C352.467 224.5 340.549 254.005 340.549 285.681C340.603 305.901 345.443 325.822 354.672 343.813H338.621C332.795 329.056 329.795 313.336 329.775 297.471C329.775 260.587 345.919 226.694 373.022 199.672Z" fill="#FEFFFF"/>
<path fill-rule="evenodd" clip-rule="evenodd" d="M621.764 170.064C621.808 169.835 621.8 169.599 621.739 169.374C621.678 169.149 621.566 168.941 621.413 168.766C621.259 168.591 621.067 168.453 620.851 168.364C620.636 168.275 620.403 168.236 620.17 168.251H504.125C503.409 168.292 502.729 168.577 502.198 169.058C501.666 169.539 501.315 170.188 501.203 170.896C497.538 204.084 493.874 237.269 490.209 270.451C490.165 270.681 490.174 270.919 490.235 271.145C490.297 271.371 490.409 271.581 490.564 271.757C490.719 271.933 490.912 272.071 491.129 272.161C491.346 272.251 491.58 272.29 491.815 272.275H607.848C608.566 272.23 609.246 271.942 609.779 271.46C610.312 270.977 610.665 270.329 610.782 269.619L621.764 170.064Z" fill="url(#paint4_linear)"/>
<path fill-rule="evenodd" clip-rule="evenodd" d="M613.786 164.081C613.83 163.852 613.822 163.616 613.761 163.391C613.7 163.166 613.588 162.958 613.434 162.783C613.281 162.607 613.089 162.47 612.873 162.381C612.658 162.292 612.425 162.253 612.192 162.268H496.147C495.431 162.309 494.751 162.594 494.22 163.075C493.688 163.556 493.337 164.204 493.225 164.912C489.56 198.101 485.896 231.286 482.231 264.467C482.187 264.698 482.196 264.935 482.257 265.162C482.319 265.388 482.431 265.597 482.586 265.773C482.741 265.95 482.934 266.088 483.151 266.178C483.368 266.268 483.602 266.307 483.836 266.292H599.87C600.588 266.246 601.268 265.959 601.801 265.476C602.334 264.994 602.687 264.345 602.804 263.636L613.786 164.081Z" fill="url(#paint5_linear)"/>
<path fill-rule="evenodd" clip-rule="evenodd" d="M617.012 339.346H502.763C502.529 339.359 502.296 339.319 502.081 339.228C501.866 339.137 501.674 338.999 501.52 338.823C501.367 338.647 501.255 338.438 501.194 338.213C501.133 337.987 501.125 337.751 501.169 337.521L512.151 237.966C512.263 237.258 512.614 236.61 513.146 236.129C513.677 235.648 514.357 235.363 515.073 235.322H628.775L617.012 339.346Z" fill="url(#paint6_linear)"/>
<path fill-rule="evenodd" clip-rule="evenodd" d="M621.8 231.151C621.844 230.922 621.836 230.686 621.775 230.461C621.714 230.236 621.602 230.028 621.448 229.853C621.294 229.678 621.102 229.54 620.887 229.451C620.672 229.362 620.439 229.323 620.206 229.338H504.103C503.387 229.379 502.707 229.664 502.176 230.145C501.644 230.626 501.293 231.275 501.181 231.983L490.199 331.538C490.155 331.767 490.163 332.003 490.224 332.229C490.285 332.454 490.397 332.663 490.55 332.839C490.704 333.015 490.896 333.153 491.111 333.244C491.326 333.335 491.559 333.375 491.793 333.362H607.884C608.602 333.319 609.284 333.032 609.817 332.549C610.35 332.066 610.703 331.416 610.817 330.706L621.8 231.151Z" fill="url(#paint7_linear)"/>
<path fill-rule="evenodd" clip-rule="evenodd" d="M614.271 237.491C614.306 237.306 614.299 237.115 614.25 236.932C614.2 236.75 614.109 236.582 613.984 236.44C613.859 236.299 613.704 236.188 613.529 236.116C613.355 236.043 613.166 236.012 612.977 236.025H509.369C508.799 236.067 508.261 236.302 507.842 236.69C507.422 237.078 507.147 237.596 507.059 238.161C504.103 264.891 501.151 291.624 498.202 318.362C498.167 318.547 498.174 318.738 498.223 318.92C498.273 319.102 498.364 319.271 498.489 319.412C498.614 319.554 498.769 319.665 498.944 319.737C499.118 319.809 499.307 319.84 499.496 319.828H603.104C603.674 319.785 604.212 319.551 604.631 319.163C605.051 318.775 605.326 318.256 605.413 317.692C608.37 290.939 611.322 264.205 614.271 237.491Z" fill="url(#paint8_linear)"/>
<path fill-rule="evenodd" clip-rule="evenodd" d="M286.551 104.031H323.631C324.023 104.019 324.412 104.098 324.768 104.262C325.124 104.427 325.437 104.671 325.683 104.977C325.928 105.283 326.099 105.641 326.182 106.024C326.265 106.407 326.257 106.804 326.16 107.184C325.97 108.049 325.498 108.826 324.819 109.394C324.14 109.962 323.292 110.29 322.407 110.325H285.327C284.936 110.339 284.547 110.262 284.19 110.099C283.834 109.936 283.521 109.693 283.276 109.388C283.03 109.083 282.859 108.725 282.776 108.343C282.693 107.96 282.701 107.563 282.798 107.184C282.988 106.318 283.459 105.54 284.138 104.969C284.817 104.399 285.665 104.069 286.551 104.031Z" fill="#FDFAFF"/>
<path fill-rule="evenodd" clip-rule="evenodd" d="M284.195 116.157H344.245C344.636 116.143 345.025 116.22 345.381 116.383C345.737 116.545 346.05 116.789 346.296 117.094C346.541 117.399 346.712 117.757 346.795 118.139C346.878 118.522 346.871 118.918 346.774 119.298C346.583 120.162 346.111 120.939 345.432 121.508C344.753 122.076 343.905 122.403 343.02 122.439H282.971C282.579 122.455 282.189 122.38 281.831 122.218C281.474 122.056 281.16 121.812 280.914 121.507C280.668 121.201 280.497 120.842 280.415 120.458C280.333 120.075 280.342 119.677 280.442 119.298C280.633 118.433 281.104 117.656 281.783 117.088C282.462 116.519 283.31 116.192 284.195 116.157Z" fill="#FDFAFF"/>
<path fill-rule="evenodd" clip-rule="evenodd" d="M354.534 116.157H361.105C361.496 116.143 361.885 116.22 362.241 116.383C362.597 116.545 362.911 116.789 363.156 117.094C363.402 117.399 363.573 117.757 363.656 118.139C363.739 118.522 363.731 118.918 363.634 119.298C363.443 120.162 362.972 120.939 362.293 121.508C361.614 122.076 360.766 122.403 359.881 122.439H353.31C352.919 122.453 352.53 122.375 352.174 122.213C351.818 122.05 351.504 121.807 351.259 121.502C351.013 121.197 350.842 120.839 350.759 120.456C350.676 120.074 350.684 119.677 350.781 119.298C350.972 118.433 351.443 117.656 352.122 117.088C352.801 116.519 353.649 116.192 354.534 116.157Z" fill="#FDFAFF"/>
<path d="M600.206 373.434H599.513C598.135 373.434 597.018 374.551 597.018 375.928C597.018 377.306 598.135 378.423 599.513 378.423H600.206C601.583 378.423 602.7 377.306 602.7 375.928C602.7 374.551 601.583 373.434 600.206 373.434Z" fill="#252333"/>
<path fill-rule="evenodd" clip-rule="evenodd" d="M308.128 156.183C327.286 156.183 341.062 171.715 338.903 190.827C336.743 209.939 319.468 225.471 300.356 225.471C281.244 225.471 267.421 209.95 269.58 190.827C271.74 171.703 288.969 156.183 308.128 156.183Z" fill="url(#paint9_radial)"/>
<path fill-rule="evenodd" clip-rule="evenodd" d="M304.138 153.191C323.296 153.191 337.073 168.723 334.914 187.835C332.754 206.947 315.478 222.479 296.366 222.479C277.255 222.479 263.432 206.958 265.591 187.835C267.751 168.711 284.98 153.191 304.138 153.191Z" fill="url(#paint10_radial)"/>
<mask id="mask0" mask-type="alpha" maskUnits="userSpaceOnUse" x="265" y="153" width="71" height="70">
<path fill-rule="evenodd" clip-rule="evenodd" d="M304.138 153.191C323.296 153.191 337.073 168.723 334.914 187.835C332.754 206.947 315.478 222.479 296.366 222.479C277.255 222.479 263.432 206.958 265.591 187.835C267.751 168.711 284.98 153.191 304.138 153.191Z" fill="#FEFFFF"/>
</mask>
<g mask="url(#mask0)">
<path d="M295.353 184.865L347.209 204.232L298.563 240.126L295.353 184.865Z" fill="url(#paint11_radial)"/>
<path d="M295.452 185.061L342.048 168.417L341.594 202.925L295.452 185.061Z" fill="url(#paint12_radial)"/>
</g>
<path fill-rule="evenodd" clip-rule="evenodd" d="M352.513 157.88H389.605C389.998 157.869 390.389 157.948 390.747 158.111C391.105 158.273 391.422 158.514 391.673 158.817C391.924 159.119 392.103 159.475 392.197 159.856C392.291 160.238 392.297 160.636 392.215 161.021C392.053 161.883 391.602 162.663 390.936 163.234C390.271 163.805 389.431 164.132 388.554 164.162H351.474C351.08 164.174 350.688 164.097 350.329 163.935C349.969 163.774 349.651 163.532 349.398 163.23C349.146 162.927 348.965 162.571 348.871 162.188C348.776 161.806 348.77 161.406 348.853 161.021C349.017 160.16 349.468 159.381 350.133 158.81C350.798 158.239 351.637 157.911 352.513 157.88Z" fill="#7371D1"/>
<path fill-rule="evenodd" clip-rule="evenodd" d="M351.058 170.513H388.15C388.543 170.503 388.933 170.582 389.291 170.744C389.65 170.906 389.966 171.148 390.217 171.45C390.469 171.752 390.648 172.108 390.742 172.49C390.836 172.872 390.842 173.27 390.76 173.654C390.598 174.516 390.146 175.297 389.481 175.868C388.816 176.439 387.975 176.766 387.099 176.795H350.019C349.625 176.807 349.233 176.73 348.873 176.568C348.514 176.407 348.196 176.166 347.943 175.863C347.69 175.56 347.51 175.204 347.415 174.822C347.321 174.439 347.315 174.04 347.397 173.654C347.561 172.793 348.013 172.014 348.678 171.443C349.343 170.873 350.182 170.545 351.058 170.513Z" fill="#7371D1"/>
<path d="M715.177 387.961H16.1093C8.47511 387.961 2.28638 394.15 2.28638 401.784V401.796C2.28638 409.43 8.47511 415.619 16.1093 415.619H715.177C722.811 415.619 729 409.43 729 401.796V401.784C729 394.15 722.811 387.961 715.177 387.961Z" fill="#F08484"/>
<path d="M495.2 387.961H16.1093C8.47511 387.961 2.28638 394.15 2.28638 401.784V401.796C2.28638 409.43 8.47511 415.619 16.1093 415.619H495.2C502.834 415.619 509.023 409.43 509.023 401.796V401.784C509.023 394.15 502.834 387.961 495.2 387.961Z" fill="#F89898"/>
<path d="M388.45 387.961H276.146C268.512 387.961 262.323 394.15 262.323 401.784V401.796C262.323 409.43 268.512 415.619 276.146 415.619H388.45C396.085 415.619 402.273 409.43 402.273 401.796V401.784C402.273 394.15 396.085 387.961 388.45 387.961Z" fill="#FFAFAF"/>
<path d="M202.343 387.961H159.72C152.085 387.961 145.897 394.15 145.897 401.784V401.796C145.897 409.43 152.085 415.619 159.72 415.619H202.343C209.977 415.619 216.166 409.43 216.166 401.796V401.784C216.166 394.15 209.977 387.961 202.343 387.961Z" fill="#C8A28D"/>
<path fill-rule="evenodd" clip-rule="evenodd" d="M466.26 11.1511L456.306 13.8187C455.894 13.9264 455.517 14.1415 455.215 14.442C454.912 14.7425 454.695 15.1178 454.584 15.5296C454.474 15.9415 454.475 16.3752 454.587 16.7866C454.698 17.1981 454.917 17.5726 455.221 17.8721L462.496 25.1588C462.793 25.4555 463.162 25.6692 463.567 25.7786C463.973 25.888 464.4 25.8893 464.805 25.7824C465.217 25.6762 465.593 25.4617 465.893 25.1611C466.194 24.8605 466.408 24.4849 466.515 24.0733L469.182 14.119C469.292 13.7082 469.291 13.2758 469.181 12.8652C469.071 12.4546 468.854 12.0802 468.554 11.7796C468.253 11.479 467.879 11.2627 467.468 11.1524C467.057 11.0421 466.625 11.0416 466.214 11.1511H466.26Z" fill="#FEFFFF"/>
<path fill-rule="evenodd" clip-rule="evenodd" d="M477.289 1.16208L469.09 3.36775C468.752 3.4598 468.445 3.63874 468.199 3.88668C467.952 4.13463 467.775 4.4429 467.685 4.7807C467.595 5.1185 467.595 5.47401 467.686 5.81171C467.776 6.1494 467.954 6.45746 468.2 6.70511L474.194 12.71C474.439 12.9613 474.748 13.1421 475.087 13.2335C475.426 13.3249 475.784 13.3236 476.122 13.2297C476.464 13.1406 476.776 12.962 477.025 12.7123C477.275 12.4626 477.454 12.1509 477.543 11.8093L479.737 3.61026C479.828 3.27129 479.828 2.91428 479.738 2.57518C479.647 2.23607 479.469 1.92685 479.22 1.67865C478.972 1.43044 478.663 1.25201 478.324 1.16133C477.985 1.07064 477.628 1.0709 477.289 1.16208Z" fill="#FEFFFF"/>
<path fill-rule="evenodd" clip-rule="evenodd" d="M435.104 173.977C436.136 169.674 437.535 165.467 439.284 161.402L438.603 160.72C438.453 160.58 438.318 160.426 438.199 160.258C437.705 160.593 437.12 160.766 436.524 160.755H415.565C415.168 160.762 414.773 160.688 414.406 160.537C414.038 160.386 413.706 160.162 413.428 159.877L402.954 149.392C402.708 149.154 402.508 148.872 402.366 148.56C399.352 150.87 397.273 151.886 396.742 151.343C395.483 150.096 402.966 140.581 413.452 130.107C423.937 119.633 433.441 112.138 434.688 113.397C435.323 114.02 433.73 116.769 430.646 120.672H449.631C450.026 120.668 450.418 120.744 450.783 120.895C451.148 121.046 451.479 121.268 451.756 121.55L452.022 121.815C468.049 95.7485 493.32 76.6878 522.788 68.4406L523.4 68.2674C524.17 68.0518 524.978 67.8439 525.825 67.6438H525.975L527.13 67.3666L527.753 67.2165L528.908 66.9509H528.977L529.612 66.8123L530.236 66.6853L530.871 66.5582L533.4 66.0617L534.035 65.9462L534.659 65.8423L535.294 65.7268L535.929 65.6229L536.564 65.4265L537.211 65.3226L537.8 65.2302L538.435 65.1378L539.082 65.057L539.694 64.9762L540.341 64.8953L540.941 64.826H541.172H574.777L570.827 69.4452V69.5145V69.5954V69.6646V70.0457V70.1266V70.1959V70.2882V70.3691V70.5538V70.7155V71.2005V71.2929V71.4777V71.5585V71.6509V71.8472V71.9281C570.896 73.0251 570.966 74.1222 571.012 75.2192C571.012 76.3047 571.093 77.3902 571.116 78.4873V81.7438C571.116 82.7716 571.116 83.7994 571.035 84.8156V85.0927V86.2475V86.594V86.8942L570.966 88.1876V88.2915L570.885 89.4463V89.7928V90.093V90.7397L570.827 91.3864V91.9984L570.769 92.6451V92.7375L570.689 93.4419L570.596 94.3542V94.5852L570.527 95.1857L570.446 95.8323L570.365 96.4444L570.284 97.0911L570.192 97.7262L570.1 98.3151L569.996 98.9618L569.903 99.597L569.799 100.232L569.684 100.867L569.58 101.479L569.465 102.114C569.303 102.957 569.141 103.8 568.968 104.643L568.841 105.267L568.702 105.902L568.575 106.537V106.607L568.31 107.761L568.16 108.385L567.882 109.54V109.69C567.686 110.498 567.478 111.307 567.247 112.115L567.086 112.727C558.838 142.194 539.778 167.466 513.711 183.493L513.977 183.759V183.816V183.886V183.943V184.047V184.151V184.22V185.525V185.629V185.745V185.895V205.03C517.88 201.947 520.628 200.353 521.252 200.988C522.511 202.235 515.027 211.751 504.542 222.225C494.056 232.699 485.811 240.413 484.599 239.154C484.056 238.623 485.13 236.544 487.382 233.53C487.07 233.388 486.788 233.188 486.55 232.941L476.03 222.479C475.746 222.202 475.521 221.869 475.37 221.501C475.219 221.134 475.145 220.74 475.152 220.342V199.383C475.141 198.787 475.314 198.202 475.649 197.708C475.487 197.583 475.333 197.448 475.187 197.304L474.506 196.623C470.44 198.371 466.233 199.769 461.93 200.803C461.484 200.916 461.017 200.909 460.575 200.784C460.133 200.658 459.732 200.418 459.412 200.087L456.883 197.581C451.147 207.615 443.15 216.173 433.528 222.575C423.906 228.978 412.924 233.049 401.453 234.466C402.861 222.985 406.928 211.991 413.331 202.358C419.734 192.726 428.297 184.72 438.337 178.978L435.843 176.483C435.511 176.167 435.267 175.769 435.137 175.329C435.008 174.89 434.996 174.423 435.104 173.977Z" fill="#7A78D3"/>
<path fill-rule="evenodd" clip-rule="evenodd" d="M489.715 148.018L419.445 199.891C419.445 199.891 457.196 179.752 489.715 148.018Z" fill="#FEFFFF"/>
<path fill-rule="evenodd" clip-rule="evenodd" d="M444.03 109.574C433.964 119.64 427.561 132.789 425.843 146.921C439.97 145.193 453.114 138.786 463.178 128.722C473.242 118.657 479.649 105.514 481.377 91.3864C467.245 93.1046 454.097 99.5081 444.03 109.574ZM408.313 164.439C409.501 154.641 412.957 145.254 418.406 137.024C416.233 143.623 415.187 150.541 415.311 157.487C422.252 157.595 429.162 156.533 435.751 154.346C427.516 159.802 418.12 163.259 408.313 164.439ZM399.317 173.55C399.996 167.924 401.973 162.532 405.091 157.799C403.836 161.589 403.227 165.563 403.289 169.555C407.281 169.623 411.256 169.014 415.045 167.753C410.326 170.885 404.94 172.871 399.317 173.55Z" fill="url(#paint13_radial)"/>
<path fill-rule="evenodd" clip-rule="evenodd" d="M444.816 127.947C445.724 120.469 449.113 113.512 454.441 108.186C459.768 102.861 466.727 99.4749 474.205 98.5692C473.287 106.042 469.897 112.992 464.574 118.316C459.25 123.639 452.3 127.029 444.827 127.947H444.816Z" fill="#FEFFFF"/>
<path fill-rule="evenodd" clip-rule="evenodd" d="M469.032 49.9869L478.039 58.9828C478.522 59.4695 478.794 60.1274 478.794 60.8131C478.794 61.4989 478.522 62.1568 478.039 62.6435L457.796 82.8871C457.556 83.1289 457.269 83.32 456.954 83.449C456.639 83.5779 456.3 83.6421 455.96 83.6377H437.968C437.629 83.6432 437.292 83.5795 436.978 83.4504C436.665 83.3214 436.38 83.1297 436.143 82.8871L427.136 73.8797C426.654 73.3949 426.383 72.7389 426.383 72.0551C426.383 71.3713 426.654 70.7152 427.136 70.2305L447.38 49.9869C447.616 49.7422 447.899 49.5484 448.213 49.4173C448.527 49.2863 448.864 49.2207 449.204 49.2248H467.207C467.548 49.2187 467.886 49.2832 468.2 49.4144C468.514 49.5456 468.797 49.7406 469.032 49.9869Z" fill="#D8699E"/>
<path fill-rule="evenodd" clip-rule="evenodd" d="M522.776 103.72L513.769 94.7238C513.284 94.2415 512.628 93.9707 511.944 93.9707C511.26 93.9707 510.604 94.2415 510.12 94.7238L489.876 114.967C489.63 115.202 489.435 115.486 489.304 115.8C489.172 116.114 489.108 116.452 489.114 116.792V134.795C489.11 135.135 489.175 135.473 489.306 135.786C489.438 136.1 489.631 136.384 489.876 136.62L498.872 145.616C499.359 146.099 500.017 146.37 500.702 146.37C501.388 146.37 502.046 146.099 502.533 145.616L522.776 125.372C523.019 125.135 523.211 124.851 523.34 124.537C523.469 124.223 523.532 123.887 523.527 123.548V105.544C523.53 105.205 523.466 104.869 523.337 104.556C523.208 104.242 523.017 103.958 522.776 103.72Z" fill="#B44F7F"/>
<path fill-rule="evenodd" clip-rule="evenodd" d="M522.776 103.72L513.769 94.7238C513.284 94.2415 512.628 93.9707 511.944 93.9707C511.26 93.9707 510.604 94.2415 510.12 94.7238L489.876 114.967C489.63 115.202 489.435 115.486 489.304 115.8C489.172 116.114 489.108 116.452 489.114 116.792V122.012C490.701 122.416 492.365 122.416 493.952 122.012C504.337 119.53 514.301 115.538 523.527 110.163V105.544C523.53 105.205 523.466 104.869 523.337 104.556C523.208 104.242 523.017 103.958 522.776 103.72Z" fill="#933562"/>
<path fill-rule="evenodd" clip-rule="evenodd" d="M454.747 94.9893C458.464 79.5512 467.536 65.9316 480.35 56.5521C493.163 47.1725 508.888 42.6408 524.727 43.7626C525.83 43.8452 526.867 44.3207 527.649 45.1026C528.431 45.8845 528.906 46.921 528.989 48.0238C530.111 63.8634 525.582 79.5882 516.205 92.4032C506.827 105.218 493.21 114.294 477.773 118.016C477.391 118.106 476.992 118.097 476.614 117.99C476.236 117.883 475.892 117.681 475.614 117.404L455.359 97.1488C455.074 96.8759 454.867 96.5319 454.759 96.1522C454.652 95.7726 454.647 95.3712 454.747 94.9893Z" fill="#34304E"/>
<path fill-rule="evenodd" clip-rule="evenodd" d="M456.803 80.2658C462.565 56.331 476.63 35.2156 496.495 20.6744C516.36 6.13329 540.739 -0.891076 565.296 0.850452C566.291 0.921586 567.26 1.19972 568.14 1.66704C569.021 2.13436 569.795 2.78056 570.412 3.56422L474.056 99.9204L457.75 83.6147C457.311 83.1896 456.992 82.656 456.825 82.0678C456.659 81.4796 456.651 80.8579 456.803 80.2658Z" fill="#F0F2F7"/>
<path fill-rule="evenodd" clip-rule="evenodd" d="M569.834 2.91748C571.047 4.13187 571.781 5.74344 571.901 7.45583C573.65 32.0193 566.631 56.4072 552.092 76.283C537.554 96.1587 516.437 110.234 492.497 116.007C491.905 116.158 491.283 116.151 490.695 115.984C490.107 115.818 489.573 115.499 489.148 115.06L473.443 99.3545L569.834 2.91748Z" fill="#B2BACF"/>
<path fill-rule="evenodd" clip-rule="evenodd" d="M481.227 91.5366L569.557 3.1947C568.194 25.4188 559.739 46.6199 545.434 63.6828C531.129 80.7458 511.729 92.7711 490.084 97.9919C489.492 98.1435 488.87 98.1358 488.282 97.9695C487.694 97.8032 487.16 97.4842 486.735 97.045L481.227 91.5366Z" fill="#CACFDD"/>
<path fill-rule="evenodd" clip-rule="evenodd" d="M485.43 111.295L473.443 99.3084L495.384 77.3673L496.539 78.5221C496.785 78.757 496.98 79.0404 497.112 79.3544C497.243 79.6685 497.307 80.0064 497.301 80.3467V98.3384C497.306 98.6792 497.241 99.0173 497.113 99.3328C496.984 99.6482 496.792 99.9345 496.551 100.175L485.43 111.295Z" fill="#8D96AF"/>
<path fill-rule="evenodd" clip-rule="evenodd" d="M530.005 4.39574C541.48 1.20966 553.416 0.0106187 565.296 0.850513C567.008 0.96905 568.621 1.70303 569.835 2.91704C571.049 4.13106 571.783 5.74318 571.901 7.45595C572.751 19.335 571.556 31.2718 568.367 42.7465L530.005 4.39574Z" fill="#D8699E"/>
<path fill-rule="evenodd" clip-rule="evenodd" d="M569.835 2.91748C571.048 4.13187 571.782 5.74344 571.902 7.45583C572.752 19.3349 571.556 31.2717 568.368 42.7464L549.187 23.5768L569.835 2.91748Z" fill="#B44F7F"/>
<path d="M521.644 70.4501C532.321 70.4501 540.976 61.7952 540.976 51.1188C540.976 40.4424 532.321 31.7875 521.644 31.7875C510.968 31.7875 502.313 40.4424 502.313 51.1188C502.313 61.7952 510.968 70.4501 521.644 70.4501Z" fill="#B2BACF"/>
<path fill-rule="evenodd" clip-rule="evenodd" d="M461.849 108.593L464.159 110.903C464.631 111.374 465.27 111.638 465.937 111.638C466.604 111.638 467.243 111.374 467.715 110.903L496.585 82.0903C497.05 81.6174 497.31 80.9808 497.31 80.3177C497.31 79.6546 497.05 79.0181 496.585 78.5451L494.276 76.2355C493.804 75.7644 493.164 75.4999 492.497 75.4999C491.83 75.4999 491.191 75.7644 490.719 76.2355L461.849 105.048C461.384 105.521 461.124 106.157 461.124 106.82C461.124 107.483 461.384 108.12 461.849 108.593Z" fill="#D8699E"/>
<path fill-rule="evenodd" clip-rule="evenodd" d="M532.384 43.7857C534.508 45.9096 535.953 48.6155 536.539 51.561C537.124 54.5066 536.823 57.5597 535.674 60.3342C534.524 63.1087 532.578 65.4801 530.081 67.1484C527.584 68.8168 524.648 69.7073 521.645 69.7073C518.642 69.7073 515.706 68.8168 513.209 67.1484C510.712 65.4801 508.765 63.1087 507.616 60.3342C506.466 57.5597 506.165 54.5066 506.751 51.561C507.336 48.6155 508.782 45.9096 510.905 43.7857C513.755 40.9396 517.617 39.3409 521.645 39.3409C525.672 39.3409 529.535 40.9396 532.384 43.7857Z" fill="#8D96AF"/>
<path fill-rule="evenodd" clip-rule="evenodd" d="M532.384 40.3791C534.508 42.503 535.953 45.2089 536.539 48.1544C537.124 51.1 536.823 54.1531 535.674 56.9276C534.524 59.7021 532.578 62.0734 530.081 63.7418C527.584 65.4102 524.648 66.3007 521.645 66.3007C518.642 66.3007 515.706 65.4102 513.209 63.7418C510.712 62.0734 508.765 59.7021 507.616 56.9276C506.466 54.1531 506.165 51.1 506.751 48.1544C507.336 45.2089 508.782 42.503 510.905 40.3791C512.315 38.9685 513.99 37.8494 515.832 37.086C517.675 36.3225 519.65 35.9296 521.645 35.9296C523.639 35.9296 525.614 36.3225 527.457 37.086C529.3 37.8494 530.974 38.9685 532.384 40.3791Z" fill="#D8699E"/>
<path fill-rule="evenodd" clip-rule="evenodd" d="M516.274 41.8227C518.113 40.7581 520.227 40.263 522.348 40.4002C524.468 40.5374 526.501 41.3007 528.187 42.5934C529.874 43.8861 531.139 45.6501 531.823 47.6623C532.507 49.6744 532.578 51.8441 532.028 53.8968C531.478 55.9495 530.332 57.7929 528.734 59.1937C527.135 60.5945 525.158 61.4896 523.051 61.7659C520.944 62.0422 518.802 61.6871 516.897 60.7456C514.992 59.8042 513.408 58.3186 512.348 56.4771C510.925 54.0131 510.54 51.085 511.276 48.3368C512.012 45.5886 513.81 43.2454 516.274 41.8227Z" fill="#69BDD8"/>
<path fill-rule="evenodd" clip-rule="evenodd" d="M517.348 43.6818C518.324 43.1184 519.402 42.7527 520.519 42.6056C521.636 42.4585 522.771 42.533 523.86 42.8247C524.948 43.1163 525.968 43.6195 526.862 44.3056C527.756 44.9916 528.506 45.847 529.07 46.8229C531.449 50.934 524.681 46.8922 520.57 49.2595C516.459 51.6268 516.586 59.5141 514.207 55.403C513.073 53.4315 512.766 51.0904 513.355 48.8931C513.944 46.6958 515.38 44.8217 517.348 43.6818Z" fill="#FEFFFF"/>
<path fill-rule="evenodd" clip-rule="evenodd" d="M462.554 70.704C468.409 54.9283 477.998 40.8056 490.5 29.5436C503.003 18.2816 518.048 10.2156 534.347 6.0354C516.889 13.853 501.016 24.8132 487.52 38.3697C477.843 48.0301 469.452 58.8978 462.554 70.704Z" fill="#FEFFFF"/>
<path fill-rule="evenodd" clip-rule="evenodd" d="M454.389 42.9775C455.463 44.0515 449.042 52.2159 440.046 61.2118C431.051 70.2076 422.886 76.6283 421.812 75.5543C420.738 74.4804 427.159 66.316 436.155 57.3201C445.151 48.3242 453.315 41.9036 454.389 42.9775Z" fill="#F284B9"/>
<path fill-rule="evenodd" clip-rule="evenodd" d="M529.774 118.374C530.848 119.448 524.428 127.612 515.432 136.608C506.436 145.604 498.272 152.036 497.198 150.951C496.124 149.865 502.544 141.713 511.54 132.717C520.536 123.721 528.7 117.289 529.774 118.374Z" fill="#B44F7F"/>
<path fill-rule="evenodd" clip-rule="evenodd" d="M492.082 80.67C493.156 81.7555 486.735 89.9084 477.739 98.9158C468.743 107.923 460.579 114.332 459.505 113.258C458.431 112.184 464.852 104.02 473.848 95.0241C482.843 86.0282 491.008 79.596 492.082 80.67Z" fill="#F284B9"/>
<path fill-rule="evenodd" clip-rule="evenodd" d="M421.997 84.5271L371.325 155.663C371.325 155.663 390.771 117.577 421.997 84.5271Z" fill="#FEFFFF"/>
<path fill-rule="evenodd" clip-rule="evenodd" d="M540.225 162.268H496.146C495.431 162.309 494.751 162.594 494.219 163.075C493.688 163.556 493.337 164.204 493.225 164.912L485.753 232.179L486.527 232.941C486.765 233.188 487.047 233.388 487.358 233.53C486.6 234.525 485.898 235.562 485.257 236.637L484.968 239.293C487.197 239.293 496.089 232.179 505.812 222.444C516.298 211.97 523.781 202.455 522.522 201.208C521.898 200.572 519.15 202.166 515.247 205.249V186.114V185.964V185.849V185.525V185.456V185.387V185.283V185.179V185.121V185.052V184.994L514.981 184.729C523.084 179.751 530.572 173.836 537.292 167.106C538.008 165.236 538.986 163.623 540.225 162.268Z" fill="#9C9AE3"/>
<path fill-rule="evenodd" clip-rule="evenodd" d="M516.933 192.558H576.982C577.376 192.546 577.768 192.624 578.128 192.785C578.487 192.947 578.805 193.188 579.058 193.491C579.31 193.793 579.491 194.149 579.585 194.532C579.68 194.915 579.686 195.314 579.604 195.699C579.437 196.561 578.983 197.341 578.316 197.911C577.649 198.482 576.809 198.809 575.932 198.84H515.882C515.488 198.853 515.096 198.775 514.737 198.614C514.377 198.452 514.059 198.211 513.807 197.908C513.554 197.606 513.374 197.249 513.279 196.867C513.184 196.484 513.178 196.085 513.261 195.699C513.427 194.838 513.881 194.058 514.548 193.487C515.215 192.917 516.056 192.589 516.933 192.558Z" fill="#FEFFFF"/>
<path fill-rule="evenodd" clip-rule="evenodd" d="M587.237 192.558H593.808C594.202 192.546 594.594 192.624 594.953 192.785C595.313 192.947 595.631 193.188 595.884 193.491C596.136 193.793 596.317 194.149 596.411 194.532C596.506 194.915 596.512 195.314 596.429 195.699C596.263 196.561 595.809 197.341 595.142 197.911C594.475 198.482 593.634 198.809 592.757 198.84H586.221C585.828 198.851 585.438 198.772 585.08 198.61C584.721 198.447 584.405 198.206 584.154 197.904C583.902 197.601 583.723 197.246 583.629 196.864C583.535 196.482 583.529 196.084 583.611 195.699C583.772 194.843 584.218 194.067 584.877 193.497C585.535 192.926 586.367 192.596 587.237 192.558Z" fill="#FEFFFF"/>
<path fill-rule="evenodd" clip-rule="evenodd" d="M518.908 180.433H556C556.393 180.422 556.783 180.501 557.141 180.664C557.499 180.826 557.816 181.067 558.067 181.37C558.319 181.672 558.498 182.028 558.592 182.409C558.686 182.791 558.692 183.189 558.61 183.574C558.444 184.434 557.991 185.212 557.327 185.782C556.662 186.353 555.824 186.681 554.949 186.715H517.868C517.474 186.727 517.083 186.65 516.723 186.488C516.364 186.327 516.045 186.085 515.793 185.783C515.54 185.48 515.36 185.124 515.265 184.741C515.171 184.359 515.164 183.959 515.247 183.574C515.413 182.714 515.865 181.936 516.53 181.365C517.195 180.795 518.033 180.466 518.908 180.433Z" fill="#FEFFFF"/>
<path fill-rule="evenodd" clip-rule="evenodd" d="M514.831 259.698H551.912C552.306 259.686 552.698 259.763 553.057 259.925C553.417 260.086 553.735 260.328 553.987 260.63C554.24 260.933 554.42 261.289 554.515 261.672C554.61 262.054 554.616 262.454 554.533 262.839C554.369 263.7 553.917 264.479 553.252 265.05C552.587 265.621 551.748 265.949 550.873 265.98H513.781C513.392 265.99 513.007 265.914 512.653 265.755C512.298 265.597 511.983 265.361 511.732 265.066C511.481 264.77 511.299 264.422 511.199 264.046C511.1 263.671 511.087 263.278 511.159 262.897C511.31 262.023 511.758 261.227 512.427 260.645C513.095 260.062 513.945 259.728 514.831 259.698Z" fill="#FDFAFF"/>
<path fill-rule="evenodd" clip-rule="evenodd" d="M513.18 272.308H534.821C535.22 272.302 535.617 272.381 535.983 272.542C536.349 272.702 536.676 272.939 536.942 273.237C537.209 273.535 537.408 273.887 537.526 274.269C537.644 274.65 537.678 275.053 537.627 275.45C537.517 276.3 537.108 277.083 536.473 277.658C535.839 278.234 535.019 278.565 534.162 278.591H512.499C512.099 278.597 511.703 278.518 511.337 278.358C510.97 278.197 510.643 277.96 510.377 277.662C510.111 277.364 509.912 277.012 509.794 276.63C509.675 276.249 509.641 275.846 509.692 275.45C509.802 274.596 510.215 273.809 510.854 273.233C511.494 272.657 512.319 272.329 513.18 272.308Z" fill="#FDFAFF"/>
<path fill-rule="evenodd" clip-rule="evenodd" d="M594.016 112.981H631.096C631.49 112.969 631.882 113.046 632.241 113.208C632.601 113.369 632.919 113.611 633.172 113.913C633.424 114.216 633.605 114.572 633.699 114.955C633.794 115.337 633.8 115.737 633.717 116.122C633.553 116.983 633.102 117.762 632.437 118.333C631.772 118.904 630.933 119.232 630.057 119.263H592.965C592.572 119.274 592.181 119.195 591.823 119.032C591.465 118.87 591.148 118.629 590.897 118.326C590.646 118.024 590.467 117.668 590.373 117.286C590.279 116.905 590.273 116.507 590.355 116.122C590.517 115.26 590.968 114.48 591.634 113.909C592.299 113.338 593.139 113.01 594.016 112.981Z" fill="#817FED"/>
<path fill-rule="evenodd" clip-rule="evenodd" d="M592.641 125.118H612.331C612.731 125.112 613.128 125.191 613.495 125.351C613.862 125.511 614.191 125.748 614.459 126.046C614.727 126.343 614.928 126.695 615.049 127.077C615.17 127.458 615.208 127.861 615.16 128.259C615.057 129.112 614.65 129.899 614.014 130.476C613.378 131.053 612.554 131.381 611.696 131.4H591.995C591.594 131.408 591.196 131.33 590.828 131.17C590.46 131.011 590.13 130.774 589.862 130.476C589.594 130.178 589.392 129.826 589.272 129.444C589.152 129.061 589.116 128.657 589.165 128.259C589.266 127.403 589.674 126.613 590.313 126.035C590.952 125.458 591.78 125.132 592.641 125.118Z" fill="#817FED"/>
<path fill-rule="evenodd" clip-rule="evenodd" d="M457.496 407.628H470.545C472.662 407.634 474.691 408.478 476.189 409.975C477.686 411.472 478.53 413.501 478.536 415.619C478.512 417.731 477.662 419.75 476.169 421.243C474.675 422.736 472.657 423.586 470.545 423.61H457.496C455.378 423.604 453.349 422.76 451.852 421.263C450.354 419.765 449.51 417.736 449.504 415.619C449.51 413.501 450.354 411.472 451.852 409.975C453.349 408.478 455.378 407.634 457.496 407.628Z" fill="#E35454"/>
<path fill-rule="evenodd" clip-rule="evenodd" d="M457.496 407.628H470.545C471.738 407.628 472.917 407.897 473.992 408.415C475.067 408.933 476.013 409.686 476.758 410.619C476.576 412.606 475.661 414.454 474.189 415.801C472.718 417.149 470.796 417.899 468.801 417.905H455.729C454.533 417.903 453.353 417.631 452.275 417.112C451.198 416.592 450.251 415.837 449.504 414.903C449.704 412.918 450.63 411.077 452.106 409.734C453.581 408.391 455.501 407.64 457.496 407.628Z" fill="#F08484"/>
<path d="M460.244 406.149H456.098C450.868 406.149 446.629 410.389 446.629 415.619C446.629 420.849 450.868 425.088 456.098 425.088H460.244C465.474 425.088 469.713 420.849 469.713 415.619C469.713 410.389 465.474 406.149 460.244 406.149Z" fill="#EEEFF6"/>
<path fill-rule="evenodd" clip-rule="evenodd" d="M455.175 425.042C452.838 424.805 450.671 423.711 449.093 421.971C447.515 420.231 446.637 417.968 446.629 415.619C446.505 414.422 446.633 413.212 447.005 412.068C447.378 410.924 447.987 409.871 448.793 408.977C449.598 408.083 450.583 407.369 451.682 406.879C452.781 406.39 453.971 406.137 455.175 406.137C456.378 406.137 457.568 406.39 458.667 406.879C459.767 407.369 460.751 408.083 461.557 408.977C462.362 409.871 462.971 410.924 463.344 412.068C463.717 413.212 463.845 414.422 463.72 415.619C463.712 417.968 462.834 420.231 461.256 421.971C459.678 423.711 457.512 424.805 455.175 425.042Z" fill="#CED0DE"/>
<path d="M451.098 406.149H292.51C287.28 406.149 283.041 410.389 283.041 415.619C283.041 420.849 287.28 425.088 292.51 425.088H451.098C456.328 425.088 460.568 420.849 460.568 415.619C460.568 410.389 456.328 406.149 451.098 406.149Z" fill="#DEB981"/>
<path fill-rule="evenodd" clip-rule="evenodd" d="M292.51 406.149H451.11C453.619 406.156 456.024 407.155 457.799 408.93C459.573 410.704 460.573 413.109 460.579 415.619H287.775C286.864 415.614 285.972 415.349 285.207 414.854C284.441 414.358 283.834 413.654 283.456 412.824C284.06 410.894 285.263 409.206 286.891 408.006C288.519 406.806 290.487 406.155 292.51 406.149Z" fill="#FFD18C"/>
<path d="M296.656 406.149H292.51C287.28 406.149 283.041 410.389 283.041 415.619C283.041 420.849 287.28 425.088 292.51 425.088H296.656C301.886 425.088 306.125 420.849 306.125 415.619C306.125 410.389 301.886 406.149 296.656 406.149Z" fill="#FFCE85"/>
<path fill-rule="evenodd" clip-rule="evenodd" d="M298.053 406.253C300.298 406.59 302.347 407.72 303.83 409.438C305.313 411.156 306.131 413.349 306.137 415.619C306.288 416.769 306.191 417.938 305.854 419.048C305.517 420.159 304.947 421.184 304.182 422.056C303.416 422.928 302.474 423.627 301.417 424.106C300.36 424.584 299.213 424.832 298.053 424.832C296.893 424.832 295.746 424.584 294.689 424.106C293.632 423.627 292.69 422.928 291.925 422.056C291.159 421.184 290.589 420.159 290.252 419.048C289.915 417.938 289.819 416.769 289.97 415.619C289.977 413.35 290.796 411.158 292.279 409.44C293.761 407.723 295.81 406.592 298.053 406.253Z" fill="#FC9164"/>
<path d="M290.766 411.854H275.708C273.629 411.854 271.943 413.54 271.943 415.619C271.943 417.698 273.629 419.383 275.708 419.383H290.766C292.845 419.383 294.531 417.698 294.531 415.619C294.531 413.54 292.845 411.854 290.766 411.854Z" fill="#6B8087"/>
<path d="M280.639 411.854H275.708C273.629 411.854 271.943 413.54 271.943 415.619C271.943 417.698 273.629 419.383 275.708 419.383H280.639C282.718 419.383 284.403 417.698 284.403 415.619C284.403 413.54 282.718 411.854 280.639 411.854Z" fill="#8C989B"/>
<path d="M345.665 413.54H336.981C335.84 413.54 334.914 414.466 334.914 415.607V415.619C334.914 416.761 335.84 417.686 336.981 417.686H345.665C346.807 417.686 347.732 416.761 347.732 415.619V415.607C347.732 414.466 346.807 413.54 345.665 413.54Z" fill="#F4B555"/>
<path d="M331.611 413.54H329.336C328.195 413.54 327.269 414.466 327.269 415.607V415.619C327.269 416.761 328.195 417.686 329.336 417.686H331.611C332.753 417.686 333.678 416.761 333.678 415.619V415.607C333.678 414.466 332.753 413.54 331.611 413.54Z" fill="#F4B555"/>
<path fill-rule="evenodd" clip-rule="evenodd" d="M275.246 414.175H277.198C277.593 414.175 277.972 414.332 278.251 414.612C278.53 414.891 278.687 415.27 278.687 415.665C278.684 416.058 278.526 416.434 278.247 416.711C277.968 416.988 277.591 417.143 277.198 417.143H275.246C274.853 417.143 274.476 416.988 274.197 416.711C273.918 416.434 273.759 416.058 273.756 415.665C273.756 415.27 273.913 414.891 274.193 414.612C274.472 414.332 274.851 414.175 275.246 414.175Z" fill="#B0BEC1"/>
<path fill-rule="evenodd" clip-rule="evenodd" d="M462.97 410.457C464.505 410.18 466.122 410.538 466.561 411.254C467 411.97 466.122 412.767 464.575 413.032C463.027 413.298 461.422 412.94 460.983 412.235C460.544 411.531 461.422 410.711 462.97 410.457Z" fill="white"/>
<path d="M446.802 407.928H434.943C433.38 407.928 432.113 409.194 432.113 410.757C432.113 412.32 433.38 413.586 434.943 413.586H446.802C448.365 413.586 449.632 412.32 449.632 410.757C449.632 409.194 448.365 407.928 446.802 407.928Z" fill="#FFDA82"/>
<path d="M319.855 408.274H311.171C310.03 408.274 309.104 409.2 309.104 410.341V410.353C309.104 411.494 310.03 412.42 311.171 412.42H319.855C320.997 412.42 321.922 411.494 321.922 410.353V410.341C321.922 409.2 320.997 408.274 319.855 408.274Z" fill="#FFE2B6"/>
<path fill-rule="evenodd" clip-rule="evenodd" d="M142.49 387.961H262.081C250.372 387.961 237.623 397.534 233.742 409.233L226.675 430.504H107.096L114.152 409.233C118.032 397.534 130.792 387.961 142.49 387.961Z" fill="#FFE2D6"/>
<path fill-rule="evenodd" clip-rule="evenodd" d="M129.741 407.246H175.575C175.872 407.235 176.167 407.296 176.434 407.423C176.702 407.551 176.935 407.741 177.114 407.978C177.292 408.216 177.41 408.493 177.458 408.785C177.506 409.078 177.482 409.378 177.388 409.66C177.201 410.327 176.81 410.918 176.269 411.351C175.728 411.784 175.066 412.037 174.374 412.074H128.54C128.243 412.088 127.947 412.029 127.677 411.902C127.408 411.776 127.173 411.585 126.995 411.347C126.816 411.109 126.698 410.831 126.651 410.537C126.605 410.243 126.631 409.942 126.727 409.66C126.913 408.992 127.304 408.4 127.845 407.967C128.386 407.534 129.049 407.282 129.741 407.246Z" fill="#F08484"/>
<path fill-rule="evenodd" clip-rule="evenodd" d="M139.765 397.385H208.025C208.317 397.368 208.607 397.428 208.868 397.561C209.128 397.693 209.349 397.892 209.508 398.137C209.666 398.383 209.757 398.666 209.77 398.957C209.783 399.249 209.719 399.539 209.584 399.798C209.321 400.469 208.874 401.052 208.293 401.48C207.713 401.907 207.023 402.161 206.304 402.212H138.033C137.741 402.23 137.449 402.17 137.188 402.038C136.928 401.906 136.707 401.706 136.549 401.46C136.391 401.214 136.302 400.93 136.291 400.638C136.28 400.346 136.347 400.056 136.485 399.798C136.747 399.126 137.194 398.542 137.774 398.115C138.355 397.688 139.046 397.434 139.765 397.385Z" fill="#F08484"/>
<path d="M83.1107 387.961H13.8229C6.18873 387.961 0 394.15 0 401.784V401.796C0 409.43 6.18873 415.619 13.8229 415.619H83.1107C90.7449 415.619 96.9336 409.43 96.9336 401.796V401.784C96.9336 394.15 90.7449 387.961 83.1107 387.961Z" fill="#FFAFAF"/>
<path fill-rule="evenodd" clip-rule="evenodd" d="M364.996 240.886C351.297 260.498 345.601 284.599 349.072 308.269C351.518 324.547 357.489 340.094 366.567 353.825H354.003C347.887 342.518 343.802 330.226 341.935 317.507C337.859 288.637 346.751 262.054 364.996 240.886Z" fill="#FEFFFF"/>
<path fill-rule="evenodd" clip-rule="evenodd" d="M384.224 318.985C389.091 318.985 393.888 320.154 398.21 322.393C402.531 324.633 406.252 327.877 409.059 331.854C411.865 335.831 413.676 340.424 414.338 345.246C415 350.068 414.494 354.979 412.863 359.565H355.585C353.954 354.979 353.448 350.068 354.11 345.246C354.772 340.424 356.583 335.831 359.389 331.854C362.196 327.877 365.917 324.633 370.238 322.393C374.56 320.154 379.356 318.985 384.224 318.985Z" fill="#EEEEFF"/>
<path fill-rule="evenodd" clip-rule="evenodd" d="M361.821 328.836C365.311 325.034 369.71 322.181 374.605 320.544C376.589 320.005 378.618 319.649 380.667 319.482C391.684 318.627 400.611 323.189 400.611 329.679C400.611 336.169 391.684 342.116 380.667 342.97C369.651 343.825 360.712 339.252 360.712 332.774C360.738 331.388 361.12 330.032 361.821 328.836Z" fill="#FEFFFF"/>
<path fill-rule="evenodd" clip-rule="evenodd" d="M423.972 304.585C430.565 304.59 437.06 306.178 442.913 309.213C448.766 312.249 453.805 316.644 457.607 322.03C461.409 327.416 463.864 333.636 464.765 340.167C465.666 346.698 464.987 353.35 462.785 359.565H385.159C382.957 353.35 382.278 346.698 383.179 340.167C384.08 333.636 386.535 327.416 390.337 322.03C394.14 316.644 399.179 312.249 405.031 309.213C410.884 306.178 417.379 304.59 423.972 304.585Z" fill="#D9D9F1"/>
<path fill-rule="evenodd" clip-rule="evenodd" d="M393.623 317.935C398.352 312.779 404.312 308.908 410.945 306.687C413.627 305.982 416.368 305.522 419.133 305.313C434.064 304.158 446.167 310.336 446.167 319.17C446.167 328.004 434.064 336.019 419.133 337.173C404.201 338.328 392.099 332.139 392.099 323.316C392.127 321.42 392.653 319.564 393.623 317.935Z" fill="#FEFFFF"/>
<path fill-rule="evenodd" clip-rule="evenodd" d="M477.485 286.547C486.242 286.551 494.871 288.656 502.645 292.687C510.419 296.718 517.113 302.555 522.163 309.71C527.213 316.864 530.471 325.126 531.665 333.802C532.859 342.477 531.953 351.312 529.024 359.565H425.958C423.029 351.313 422.123 342.479 423.316 333.805C424.51 325.13 427.768 316.869 432.816 309.715C437.865 302.56 444.556 296.722 452.329 292.691C460.102 288.66 468.729 286.553 477.485 286.547Z" fill="#E7E7F8"/>
<path fill-rule="evenodd" clip-rule="evenodd" d="M437.183 304.273C443.464 297.433 451.379 292.299 460.186 289.353C463.75 288.415 467.391 287.801 471.064 287.517C490.892 285.981 506.967 294.192 506.967 305.867C506.967 317.542 490.892 328.247 471.064 329.783C451.237 331.318 435.173 323.108 435.173 311.398C435.211 308.889 435.904 306.433 437.183 304.273Z" fill="#FEFFFF"/>
<path fill-rule="evenodd" clip-rule="evenodd" d="M258.259 346.515C250.937 344.356 180.148 322.773 180.148 322.773C180.148 322.773 211.27 345.222 206.397 343.929C201.524 342.635 92.8918 321.041 92.8918 321.041L225.613 354.945L215.531 338.963L258.259 346.515Z" fill="#FEFFFF"/>
<path fill-rule="evenodd" clip-rule="evenodd" d="M368.819 349.507C377.699 347.347 463.512 325.752 463.512 325.752C463.512 325.752 425.808 348.213 431.721 346.908C437.633 345.603 569.246 324.02 569.246 324.02L408.382 357.914L420.577 341.931L368.819 349.507Z" fill="#FEFFFF"/>
<defs>
<radialGradient id="paint0_radial" cx="0" cy="0" r="1" gradientUnits="userSpaceOnUse" gradientTransform="translate(384.944 2.58417) rotate(89.9405) scale(385.377 592.582)">
<stop stop-color="#FFDAA4" stop-opacity="0.55"/>
<stop offset="1" stop-color="#FFC8B0"/>
</radialGradient>
<radialGradient id="paint1_radial" cx="0" cy="0" r="1" gradientUnits="userSpaceOnUse" gradientTransform="translate(256.795 52.4474) rotate(38.8264) scale(481.959 702.088)">
<stop stop-color="#666282"/>
<stop offset="1" stop-color="#4F4A6A"/>
</radialGradient>
<radialGradient id="paint2_radial" cx="0" cy="0" r="1" gradientUnits="userSpaceOnUse" gradientTransform="translate(261.782 64.4146) rotate(40.2621) scale(456.749 205.942)">
<stop stop-color="#979DFF"/>
<stop offset="1" stop-color="#8288E8"/>
</radialGradient>
<linearGradient id="paint3_linear" x1="254.302" y1="110.289" x2="646.227" y2="123.752" gradientUnits="userSpaceOnUse">
<stop stop-color="#B4D2FF"/>
<stop offset="1" stop-color="#94B9F1"/>
</linearGradient>
<linearGradient id="paint4_linear" x1="556.473" y1="126.245" x2="555.976" y2="272.278" gradientUnits="userSpaceOnUse">
<stop stop-color="#7AA0D9"/>
<stop offset="1" stop-color="#4A6B9D"/>
</linearGradient>
<linearGradient id="paint5_linear" x1="548.495" y1="120.261" x2="547.998" y2="266.295" gradientUnits="userSpaceOnUse">
<stop stop-color="#D8E7FF"/>
<stop offset="1" stop-color="#97C0FE"/>
</linearGradient>
<linearGradient id="paint6_linear" x1="577.914" y1="234.947" x2="566.969" y2="339.348" gradientUnits="userSpaceOnUse">
<stop stop-color="#7D9CCB"/>
<stop offset="1" stop-color="#5179B5"/>
</linearGradient>
<linearGradient id="paint7_linear" x1="566.944" y1="228.963" x2="555.999" y2="333.364" gradientUnits="userSpaceOnUse">
<stop stop-color="#CEE2FF"/>
<stop offset="1" stop-color="#A7C9FB"/>
</linearGradient>
<linearGradient id="paint8_linear" x1="556.236" y1="236.022" x2="556.236" y2="319.831" gradientUnits="userSpaceOnUse">
<stop stop-color="#9695ED"/>
<stop offset="1" stop-color="#7F7EC9"/>
</linearGradient>
<radialGradient id="paint9_radial" cx="0" cy="0" r="1" gradientUnits="userSpaceOnUse" gradientTransform="translate(304.165 191.067) rotate(-133.586) scale(57.1363 65.6001)">
<stop stop-color="#3F3D9B"/>
<stop offset="1" stop-color="#658BC4"/>
</radialGradient>
<radialGradient id="paint10_radial" cx="0" cy="0" r="1" gradientUnits="userSpaceOnUse" gradientTransform="translate(300.176 188.075) rotate(-133.586) scale(57.1363 65.6001)">
<stop stop-color="#8583E8"/>
<stop offset="1" stop-color="#BFD9FF"/>
</radialGradient>
<radialGradient id="paint11_radial" cx="0" cy="0" r="1" gradientUnits="userSpaceOnUse" gradientTransform="translate(294.691 185.083) rotate(53.8418) scale(48.1716 54.3872)">
<stop stop-color="#FFD18C"/>
<stop offset="1" stop-color="#FFE8DC"/>
</radialGradient>
<radialGradient id="paint12_radial" cx="0" cy="0" r="1" gradientUnits="userSpaceOnUse" gradientTransform="translate(294.845 186.1) rotate(-1.0469) scale(48.8659 31.4938)">
<stop stop-color="#D8699E"/>
<stop offset="1" stop-color="#F7B0D2"/>
</radialGradient>
<radialGradient id="paint13_radial" cx="0" cy="0" r="1" gradientUnits="userSpaceOnUse" gradientTransform="translate(463.229 109.79) rotate(138.59) scale(95.7387 11.5374)">
<stop stop-color="#FFD28E"/>
<stop offset="1" stop-color="#FF996D"/>
</radialGradient>
</defs>
</svg>
