<svg width="100%" height="100%" viewBox="0 0 275 43" fill="none" xmlns="http://www.w3.org/2000/svg">
<mask id="mask0" mask-type="alpha" maskUnits="userSpaceOnUse" x="0" y="0" width="100%" height="100%">
<path d="M35.4915 39.3404C40.4274 38.883 45.3632 37.2819 45.3632 32.25V16.0106L43.0128 13.7234L40.4274 16.0106V28.133L42.5427 29.9628L37.8419 34.0798H37.6068L32.906 30.1915L34.0812 29.0479V4.34574C34.0812 2.51596 32.4359 1.60106 31.4957 1.37234V0.914894C31.9658 0.68617 32.6709 0.457447 33.6111 0.457447C35.2564 0.457447 36.6667 1.37234 37.1368 2.51596H37.3718C38.312 1.14362 39.9573 0.457447 41.3675 0.457447C41.8376 0.457447 42.3077 0.457447 42.7778 0.68617V1.14362C42.0727 1.37234 40.6624 2.28723 40.6624 4.80319V15.0957L47.0085 9.37766H47.4786C47.9487 9.83511 50.5342 12.1223 51.2393 12.5798C51.4744 12.8085 51.7094 12.8085 52.1795 12.8085C52.6496 12.8085 53.1197 12.5798 53.5897 12.3511V13.0372C53.1197 13.4947 52.4145 14.1809 52.4145 15.3245V29.2766C52.4145 35.4521 45.3633 39.3404 35.9615 40.0266V39.3404H35.4915ZM33.141 1.14362C34.0812 1.82979 35.0214 2.51596 35.0214 4.11702V29.5053L34.0812 30.4202L38.0769 33.6223L39.2521 32.7074L36.1966 30.1915L36.6667 29.734V4.34574C36.4316 2.28723 34.5513 1.37234 33.141 1.14362ZM44.188 37.7394C46.0684 36.5957 47.9487 35.2234 47.9487 32.4787V15.0957L45.1282 12.1223L43.7179 13.266L46.0684 15.7819V32.25C46.3034 34.5372 45.3632 36.367 44.188 37.7394ZM55.9402 15.0957C58.7607 13.7234 62.7564 11.4362 65.5769 9.37766H66.047C67.9274 11.2074 70.5128 14.1809 72.8633 16.2394V16.6968L62.5214 23.1011V27.2181C63.4615 27.9043 66.5171 29.2766 68.3974 29.9628L72.6282 26.0745L73.0983 26.5319L64.8718 34.3085H64.4017C61.5812 33.1649 58.0556 31.5638 55.7051 30.4202C55.9402 29.5053 56.1752 27.4468 56.1752 24.9309V15.0957H55.9402ZM65.5769 32.7074C62.7564 31.5638 60.406 30.4202 58.0556 29.2766C58.2906 28.5904 58.2906 27.4468 58.2906 24.9309V14.6383L56.6453 15.5532V24.9309C56.6453 27.4468 56.6453 29.2766 56.4103 29.9628C58.5256 31.1064 61.5812 32.4787 64.4017 33.6223L65.5769 32.7074ZM62.5214 22.4149L67.2222 19.4415C65.5769 17.6117 63.9316 15.7819 62.5214 14.4096V22.4149ZM63.9316 12.3511L62.7564 13.266C64.1667 14.867 66.047 16.9255 67.9274 18.984L69.3376 18.0692C67.2222 16.0106 65.3419 13.9521 63.9316 12.3511ZM257.372 39.3404C262.308 38.883 267.244 37.2819 267.244 32.25V16.0106L264.893 13.7234L262.308 16.0106V28.133L264.423 29.9628L259.722 34.0798H259.252L254.551 30.1915L255.727 29.0479V4.34574C255.727 2.51596 254.081 1.60106 253.141 1.37234V0.914894C253.611 0.68617 254.316 0.457447 255.256 0.457447C256.902 0.457447 258.312 1.37234 258.782 2.51596H259.017C259.957 1.14362 261.603 0.457447 263.013 0.457447C263.483 0.457447 263.953 0.457447 264.423 0.68617V1.14362C263.718 1.37234 262.308 2.28723 262.308 4.80319V15.0957L268.419 9.37766H268.889C269.359 9.83511 271.944 12.1223 272.65 12.5798C272.885 12.8085 273.12 12.8085 273.59 12.8085C274.06 12.8085 274.53 12.5798 275 12.3511V13.266C274.53 13.7234 273.825 14.4096 273.825 15.5532V29.2766C273.825 35.4521 266.773 39.3404 257.372 40.0266V39.3404ZM255.021 1.14362C255.727 1.60106 256.902 2.51596 256.902 4.11702V29.2766L255.962 30.1915L259.957 33.3936L261.132 32.4787L258.077 29.9628L258.547 29.5053V4.34574C258.312 2.28723 256.432 1.37234 255.021 1.14362ZM265.833 37.5106C267.714 36.367 269.594 34.9947 269.594 32.25V15.0957L266.773 12.1223L265.598 13.266L267.949 15.7819V32.25C268.184 34.5372 267.244 36.367 265.833 37.5106ZM116.816 15.0957C119.637 13.7234 123.632 11.4362 126.453 9.37766H126.923C128.803 11.2074 131.389 14.1809 133.504 16.0106V16.4681L123.397 22.8723V26.9894C124.573 27.6755 127.393 29.0479 129.274 29.734L133.504 25.8457L133.974 26.3032L125.748 34.0798H125.278C122.457 32.9362 118.932 31.3351 116.581 30.1915C116.816 29.2766 117.051 27.2181 117.051 24.7021V15.0957H116.816ZM126.218 32.7074C123.397 31.5638 121.047 30.4202 118.697 29.2766C118.932 28.5904 118.932 27.4468 118.932 24.9309V14.6383L117.521 15.3245V24.7021C117.521 27.2181 117.521 29.0479 117.286 29.734C119.402 30.8777 122.457 32.25 125.278 33.3936L126.218 32.7074ZM123.397 22.1862L128.098 19.2128C126.453 17.383 124.808 15.5532 123.397 14.1809V22.1862ZM124.808 12.3511L123.397 13.266C124.808 14.867 126.688 16.9255 128.568 18.984L129.979 18.0692C128.098 16.0106 126.218 13.9521 124.808 12.3511ZM142.906 3.65957V27.6755C142.906 28.5904 143.846 29.734 144.786 29.9628L146.197 28.5904L146.667 29.0479L141.496 34.3085H141.026C139.145 33.8511 136.325 32.0213 136.325 29.0479V6.63298L134.915 5.26064L133.269 6.8617L132.799 6.40426L138.675 0.457447H139.145L142.906 3.65957ZM142.201 32.4787C140.321 32.0213 138.44 30.8777 138.44 28.3617V5.71809L136.325 3.65957L135.15 4.80319L137.03 6.40426V29.0479C137.03 31.5638 139.145 33.1649 141.026 33.6223L142.201 32.4787ZM149.017 15.0957C151.838 13.7234 155.833 11.4362 158.654 9.37766H159.124C161.004 11.2074 163.59 14.1809 165.705 16.0106V16.4681L155.598 22.8723V26.9894C156.538 27.6755 159.594 29.0479 161.474 29.734L165.705 25.8457L166.175 26.3032L157.949 34.0798H157.479C154.658 32.9362 151.132 31.3351 148.782 30.1915C149.017 29.2766 149.252 27.2181 149.252 24.7021V15.0957H149.017ZM158.419 32.7074C155.598 31.5638 153.248 30.4202 150.897 29.2766C151.132 28.5904 151.132 27.4468 151.132 24.9309V14.6383L149.722 15.3245V24.7021C149.722 27.2181 149.722 29.0479 149.487 29.734C151.603 30.8777 154.658 32.25 157.479 33.3936L158.419 32.7074ZM155.598 22.1862L160.299 19.2128C158.654 17.383 157.009 15.5532 155.598 14.1809V22.1862ZM157.009 12.3511L155.833 13.266C157.244 14.867 159.124 16.9255 161.004 18.984L162.179 18.0692C160.299 16.0106 158.419 13.9521 157.009 12.3511ZM198.846 16.0106V27.6755C198.846 28.5904 199.786 29.734 200.727 29.734L202.137 28.3617L202.607 28.8192L197.436 34.0798H197.201C195.321 33.6223 192.5 32.0213 192.5 28.8192V15.5532L191.09 14.1809L189.444 15.5532L188.974 15.0957L194.85 9.37766H195.321L199.081 13.0372V15.0957L203.782 9.60638H204.252C205.192 10.5213 206.603 11.8936 208.013 12.8085L204.017 17.383C202.842 16.4681 201.432 15.0957 200.491 14.4096L198.846 16.0106ZM198.376 32.4787C196.496 32.0213 194.615 30.8777 194.615 28.3617V14.6383L192.735 12.5798L191.56 13.7234L193.205 15.3245V28.8192C193.205 31.3351 195.321 32.9362 197.201 33.3936L198.376 32.4787ZM200.962 13.9521C201.667 14.6383 202.842 15.7819 203.782 16.4681L204.722 15.3245C203.782 14.6383 202.372 13.266 201.667 12.8085L200.962 13.9521ZM214.124 34.3085L208.483 30.6489V23.3298C209.893 22.4149 212.949 20.3564 214.359 19.4415C212.009 18.2979 210.128 16.9255 208.953 15.3245V14.867C212.244 13.0372 214.829 11.2074 216.709 9.37766H217.179C217.179 9.37766 224.231 12.5798 224.466 12.8085C224.936 13.0372 225.171 13.0372 225.406 13.0372C225.876 13.0372 226.346 12.8085 226.816 12.5798V13.266C226.346 13.7234 225.641 14.4096 225.641 15.3245V27.4468C225.641 28.8191 226.816 29.5053 227.756 29.734L229.167 28.3617L229.637 28.8192L224.466 34.0798H224.231C222.115 33.6223 219.765 31.5638 219.53 29.2766L214.594 34.0798H214.124V34.3085ZM215.299 32.4787L210.598 29.5053V22.6436L209.188 23.5585V30.1915L214.359 33.3936L215.299 32.4787ZM219.295 20.5851V16.9255L212.479 13.4947C212.009 13.9521 210.128 14.867 209.658 15.3245C211.303 17.1543 215.534 19.6702 219.295 20.5851ZM225.406 32.4787C223.526 31.7926 221.645 30.6489 221.645 28.133V15.5532L214.594 12.1223C214.359 12.3511 213.654 12.8085 213.419 13.0372L220.235 16.4681V28.8192C220.235 31.1064 222.585 32.9362 224.231 33.6223L225.406 32.4787ZM219.295 28.5904V21.2713C217.885 20.8138 216.239 20.3564 214.829 19.6702V28.8192L217.415 30.4202L219.295 28.5904ZM168.291 30.4202V15.0957L176.752 9.37766H177.222C178.868 10.0638 184.273 12.3511 184.744 12.5798C184.979 12.5798 185.214 12.8085 185.684 12.8085C186.154 12.8085 186.624 12.5798 187.329 12.3511V13.266C186.859 13.7234 186.154 14.6383 186.154 15.3245V28.3617C186.154 31.3351 186.859 33.1649 188.034 34.3085V34.766C186.154 36.5957 181.923 40.9415 180.043 43H179.808C177.927 42.0851 174.872 41.1702 172.521 41.1702C170.641 41.1702 168.526 41.6277 167.115 42.7713L166.645 42.5425C168.056 39.3404 171.111 35.9096 175.107 35.9096C177.457 35.9096 180.748 36.8245 183.568 38.4255C181.688 36.367 180.043 32.4787 180.043 29.5053L175.107 34.0798H174.637L168.291 30.4202ZM172.286 39.3404C170.406 39.3404 168.761 40.2553 167.821 41.3989V41.6277C168.996 40.9415 170.171 40.7128 172.286 40.7128C174.637 40.7128 177.927 41.3989 179.573 42.3138L180.513 41.1702C178.397 40.2553 175.342 39.3404 172.286 39.3404ZM174.167 33.6223L175.342 32.7074L170.406 29.2766V14.6383L168.996 15.5532V30.1915L174.167 33.6223ZM181.688 14.6383L174.637 11.8936V13.266L180.043 15.5532V29.2766C180.043 32.25 181.453 35.4521 183.568 37.9681L184.744 36.8245C182.863 34.5372 181.688 32.0213 181.688 29.0479V14.6383ZM179.573 28.5904V16.0106L174.872 13.9521V28.3617L177.927 30.1915L179.573 28.5904ZM239.744 15.0957L245.855 9.37766H246.325C246.795 9.83511 249.615 12.3511 250.085 12.5798C250.321 12.8085 250.556 12.8085 250.791 12.8085C251.261 12.8085 251.731 12.5798 252.201 12.3511V13.266C251.731 13.7234 251.026 14.6383 251.026 15.5532V30.1915C248.44 30.8777 246.325 32.25 243.974 34.766H243.739L239.744 33.8511V37.0532L241.859 38.883L236.923 43H236.688L231.987 39.1117L233.162 37.7394V32.25C232.692 32.25 231.752 32.0213 231.282 31.7926V31.1064C231.752 30.8777 233.397 29.5053 233.397 28.3617V15.7819L231.987 14.4096L230.342 16.0106L229.872 15.5532L235.748 9.83511H236.218L239.979 13.4947V15.0957H239.744ZM233.868 38.1968L232.927 39.1117L236.688 42.3138L237.863 41.3989L234.808 38.883L235.278 38.4255V14.6383L233.162 12.5798L232.222 13.4947L233.868 15.0957V38.1968ZM244.444 29.2766V16.0106L242.094 13.7234L239.509 16.0106V28.133C240.684 28.5904 243.974 29.0479 244.444 29.2766ZM243.739 34.0798C243.974 33.6223 244.444 33.1649 244.679 32.9362L239.509 32.0213V33.3936L243.739 34.0798ZM242.564 13.4947L245.15 16.0106V29.2766L246.56 28.5904V15.0957L243.739 12.3511L242.564 13.4947ZM1.88034 20.8138C1.88034 14.867 6.34615 10.9787 10.5769 9.14894L10.812 9.60638C9.40171 11.2074 8.46154 12.8085 8.46154 16.4681C8.46154 20.5851 9.63675 23.3298 11.2821 25.1596C11.7521 24.4734 12.2222 23.5585 12.2222 22.6436V16.6968L19.7436 11.4362L19.9786 11.8936C19.5085 12.5798 19.0385 13.4947 19.0385 14.867V18.7553C19.0385 21.5 14.5726 24.4734 11.7521 25.3883C13.6325 27.2181 16.2179 27.9043 19.0385 27.9043C19.9786 27.9043 20.9188 27.9043 21.859 27.6755V10.9787C19.2735 10.75 16.9231 10.2926 14.8077 9.60638C12.4573 8.92021 10.1068 8.23404 8.2265 8.23404C5.17094 8.23404 1.41026 9.14894 1.41026 13.4947V14.867L0.705128 15.0957C0.235043 13.7234 0 12.3511 0 11.2074C0 5.94681 3.99573 1.37234 10.3419 1.37234C12.9274 1.37234 15.5128 2.05851 17.8632 2.74468C20.2137 3.43085 22.5641 4.11702 24.9145 4.11702C26.0897 4.11702 26.7949 3.43085 26.7949 2.28723C26.7949 1.14362 26.3248 0.68617 25.3846 0.457447V0C28.2051 0.457447 31.0256 2.05851 31.0256 5.48936C31.2607 8.92021 28.2051 10.9787 23.0342 10.9787H22.5641V27.9043C25.8547 27.2181 28.2051 25.8457 29.8504 23.1011L30.3205 23.3298C28.4402 29.0479 23.9744 34.5372 16.2179 34.5372C8.46154 34.5372 1.88034 29.9628 1.88034 20.8138ZM23.0342 8.92021C17.3932 8.92021 12.2222 6.17553 8.2265 6.17553C5.40598 6.17553 2.35043 7.31915 1.41026 10.2926H1.6453C2.82051 8.23404 5.64103 7.54787 8.2265 7.54787C12.4573 7.54787 17.3932 10.2926 23.0342 10.2926C27.5 10.2926 30.3205 8.69149 30.5556 5.26064H30.3205C29.8504 8.00532 27.5 8.92021 23.0342 8.92021ZM6.81624 12.3511C4.70086 14.4096 2.82051 17.1543 2.82051 20.8138C2.82051 29.5053 8.69658 33.8511 16.453 33.8511C21.1538 33.8511 24.4444 31.3351 26.3248 29.5053L26.0897 29.2766C23.9744 31.1064 20.9188 32.4787 16.2179 32.4787C10.1068 32.4787 4.23077 28.8192 4.23077 20.8138C4.23077 17.6117 5.40598 14.4096 6.81624 12.3511ZM14.3376 22.1862V15.7819L12.9274 16.9255V22.8723C12.9274 23.5585 12.6923 24.016 12.6923 24.4734H12.9274C13.6325 23.7872 14.3376 23.1011 14.3376 22.1862ZM85.5556 20.8138C85.5556 14.867 90.0214 10.9787 94.2521 9.14894L94.4872 9.60638C92.8419 11.4362 91.9017 13.0372 91.9017 16.4681C91.9017 20.5851 93.0769 23.3298 94.7222 25.1596C95.1923 24.4734 95.6624 23.5585 95.6624 22.6436V16.6968L103.419 11.2074L103.654 11.6649C102.949 12.5798 102.714 13.4947 102.714 14.867V18.7553C102.714 21.5 98.2479 24.4734 95.4273 25.3883C97.3077 27.2181 99.8932 27.9043 102.714 27.9043C103.654 27.9043 104.594 27.9043 105.534 27.6755V10.9787C102.949 10.75 100.598 10.2926 98.4829 9.60638C96.1325 8.92021 93.7821 8.23404 91.9017 8.23404C88.8462 8.23404 85.0855 9.14894 85.0855 13.4947V14.867L84.6154 15.0957C84.1453 13.7234 83.9103 12.3511 83.9103 11.2074C83.9103 5.94681 87.906 1.37234 94.2521 1.37234C96.8376 1.37234 99.4231 2.05851 101.774 2.74468C104.124 3.43085 106.474 4.11702 108.825 4.11702C110 4.11702 110.705 3.43085 110.705 2.28723C110.705 1.14362 110.235 0.68617 109.295 0.457447V0C112.115 0.457447 114.936 2.05851 114.936 5.48936C114.936 9.60638 111.88 11.4362 106.709 11.4362H106.239V28.3617C109.53 27.6755 111.88 26.3032 113.526 23.5585L113.996 23.7872C112.115 29.5053 107.65 34.9947 99.8932 34.9947C92.1368 34.5372 85.5556 29.9628 85.5556 20.8138ZM106.709 8.92021C101.068 8.92021 95.8974 6.17553 91.9017 6.17553C89.3162 6.17553 86.2607 7.31915 85.0855 10.2926H85.3205C86.4957 8.23404 89.3162 7.54787 91.9017 7.54787C96.1325 7.54787 101.068 10.2926 106.709 10.2926C111.175 10.2926 113.996 8.69149 114.231 5.26064H113.996C113.291 8.00532 111.175 8.92021 106.709 8.92021ZM90.4915 12.3511C88.3761 14.4096 86.4957 17.1543 86.4957 20.8138C86.4957 29.5053 92.3718 33.8511 100.128 33.8511C104.829 33.8511 108.12 31.3351 110 29.5053L109.765 29.2766C107.65 31.1064 104.594 32.4787 99.8932 32.4787C93.7821 32.4787 87.906 28.8192 87.906 20.8138C87.906 17.6117 89.0812 14.4096 90.4915 12.3511ZM98.0128 22.1862V15.7819L96.6026 16.6968V22.6436C96.6026 23.3298 96.3675 23.7872 96.3675 24.2447H96.6026C97.3077 23.7872 98.0128 23.1011 98.0128 22.1862Z" fill="#34304E"/>
</mask>
<g mask="url(#mask0)">
<path d="M35.4915 39.3404C40.4274 38.883 45.3632 37.2819 45.3632 32.25V16.0106L43.0128 13.7234L40.4274 16.0106V28.133L42.5427 29.9628L37.8419 34.0798H37.6068L32.906 30.1915L34.0812 29.0479V4.34574C34.0812 2.51596 32.4359 1.60106 31.4957 1.37234V0.914894C31.9658 0.68617 32.6709 0.457447 33.6111 0.457447C35.2564 0.457447 36.6667 1.37234 37.1368 2.51596H37.3718C38.312 1.14362 39.9573 0.457447 41.3675 0.457447C41.8376 0.457447 42.3077 0.457447 42.7778 0.68617V1.14362C42.0727 1.37234 40.6624 2.28723 40.6624 4.80319V15.0957L47.0085 9.37766H47.4786C47.9487 9.83511 50.5342 12.1223 51.2393 12.5798C51.4744 12.8085 51.7094 12.8085 52.1795 12.8085C52.6496 12.8085 53.1197 12.5798 53.5897 12.3511V13.0372C53.1197 13.4947 52.4145 14.1809 52.4145 15.3245V29.2766C52.4145 35.4521 45.3633 39.3404 35.9615 40.0266V39.3404H35.4915ZM33.141 1.14362C34.0812 1.82979 35.0214 2.51596 35.0214 4.11702V29.5053L34.0812 30.4202L38.0769 33.6223L39.2521 32.7074L36.1966 30.1915L36.6667 29.734V4.34574C36.4316 2.28723 34.5513 1.37234 33.141 1.14362ZM44.188 37.7394C46.0684 36.5957 47.9487 35.2234 47.9487 32.4787V15.0957L45.1282 12.1223L43.7179 13.266L46.0684 15.7819V32.25C46.3034 34.5372 45.3632 36.367 44.188 37.7394ZM55.9402 15.0957C58.7607 13.7234 62.7564 11.4362 65.5769 9.37766H66.047C67.9274 11.2074 70.5128 14.1809 72.8633 16.2394V16.6968L62.5214 23.1011V27.2181C63.4615 27.9043 66.5171 29.2766 68.3974 29.9628L72.6282 26.0745L73.0983 26.5319L64.8718 34.3085H64.4017C61.5812 33.1649 58.0556 31.5638 55.7051 30.4202C55.9402 29.5053 56.1752 27.4468 56.1752 24.9309V15.0957H55.9402ZM65.5769 32.7074C62.7564 31.5638 60.406 30.4202 58.0556 29.2766C58.2906 28.5904 58.2906 27.4468 58.2906 24.9309V14.6383L56.6453 15.5532V24.9309C56.6453 27.4468 56.6453 29.2766 56.4103 29.9628C58.5256 31.1064 61.5812 32.4787 64.4017 33.6223L65.5769 32.7074ZM62.5214 22.4149L67.2222 19.4415C65.5769 17.6117 63.9316 15.7819 62.5214 14.4096V22.4149ZM63.9316 12.3511L62.7564 13.266C64.1667 14.867 66.047 16.9255 67.9274 18.984L69.3376 18.0692C67.2222 16.0106 65.3419 13.9521 63.9316 12.3511ZM257.372 39.3404C262.308 38.883 267.244 37.2819 267.244 32.25V16.0106L264.893 13.7234L262.308 16.0106V28.133L264.423 29.9628L259.722 34.0798H259.252L254.551 30.1915L255.727 29.0479V4.34574C255.727 2.51596 254.081 1.60106 253.141 1.37234V0.914894C253.611 0.68617 254.316 0.457447 255.256 0.457447C256.902 0.457447 258.312 1.37234 258.782 2.51596H259.017C259.957 1.14362 261.603 0.457447 263.013 0.457447C263.483 0.457447 263.953 0.457447 264.423 0.68617V1.14362C263.718 1.37234 262.308 2.28723 262.308 4.80319V15.0957L268.419 9.37766H268.889C269.359 9.83511 271.944 12.1223 272.65 12.5798C272.885 12.8085 273.12 12.8085 273.59 12.8085C274.06 12.8085 274.53 12.5798 275 12.3511V13.266C274.53 13.7234 273.825 14.4096 273.825 15.5532V29.2766C273.825 35.4521 266.773 39.3404 257.372 40.0266V39.3404ZM255.021 1.14362C255.727 1.60106 256.902 2.51596 256.902 4.11702V29.2766L255.962 30.1915L259.957 33.3936L261.132 32.4787L258.077 29.9628L258.547 29.5053V4.34574C258.312 2.28723 256.432 1.37234 255.021 1.14362ZM265.833 37.5106C267.714 36.367 269.594 34.9947 269.594 32.25V15.0957L266.773 12.1223L265.598 13.266L267.949 15.7819V32.25C268.184 34.5372 267.244 36.367 265.833 37.5106ZM116.816 15.0957C119.637 13.7234 123.632 11.4362 126.453 9.37766H126.923C128.803 11.2074 131.389 14.1809 133.504 16.0106V16.4681L123.397 22.8723V26.9894C124.573 27.6755 127.393 29.0479 129.274 29.734L133.504 25.8457L133.974 26.3032L125.748 34.0798H125.278C122.457 32.9362 118.932 31.3351 116.581 30.1915C116.816 29.2766 117.051 27.2181 117.051 24.7021V15.0957H116.816ZM126.218 32.7074C123.397 31.5638 121.047 30.4202 118.697 29.2766C118.932 28.5904 118.932 27.4468 118.932 24.9309V14.6383L117.521 15.3245V24.7021C117.521 27.2181 117.521 29.0479 117.286 29.734C119.402 30.8777 122.457 32.25 125.278 33.3936L126.218 32.7074ZM123.397 22.1862L128.098 19.2128C126.453 17.383 124.808 15.5532 123.397 14.1809V22.1862ZM124.808 12.3511L123.397 13.266C124.808 14.867 126.688 16.9255 128.568 18.984L129.979 18.0692C128.098 16.0106 126.218 13.9521 124.808 12.3511ZM142.906 3.65957V27.6755C142.906 28.5904 143.846 29.734 144.786 29.9628L146.197 28.5904L146.667 29.0479L141.496 34.3085H141.026C139.145 33.8511 136.325 32.0213 136.325 29.0479V6.63298L134.915 5.26064L133.269 6.8617L132.799 6.40426L138.675 0.457447H139.145L142.906 3.65957ZM142.201 32.4787C140.321 32.0213 138.44 30.8777 138.44 28.3617V5.71809L136.325 3.65957L135.15 4.80319L137.03 6.40426V29.0479C137.03 31.5638 139.145 33.1649 141.026 33.6223L142.201 32.4787ZM149.017 15.0957C151.838 13.7234 155.833 11.4362 158.654 9.37766H159.124C161.004 11.2074 163.59 14.1809 165.705 16.0106V16.4681L155.598 22.8723V26.9894C156.538 27.6755 159.594 29.0479 161.474 29.734L165.705 25.8457L166.175 26.3032L157.949 34.0798H157.479C154.658 32.9362 151.132 31.3351 148.782 30.1915C149.017 29.2766 149.252 27.2181 149.252 24.7021V15.0957H149.017ZM158.419 32.7074C155.598 31.5638 153.248 30.4202 150.897 29.2766C151.132 28.5904 151.132 27.4468 151.132 24.9309V14.6383L149.722 15.3245V24.7021C149.722 27.2181 149.722 29.0479 149.487 29.734C151.603 30.8777 154.658 32.25 157.479 33.3936L158.419 32.7074ZM155.598 22.1862L160.299 19.2128C158.654 17.383 157.009 15.5532 155.598 14.1809V22.1862ZM157.009 12.3511L155.833 13.266C157.244 14.867 159.124 16.9255 161.004 18.984L162.179 18.0692C160.299 16.0106 158.419 13.9521 157.009 12.3511ZM198.846 16.0106V27.6755C198.846 28.5904 199.786 29.734 200.727 29.734L202.137 28.3617L202.607 28.8192L197.436 34.0798H197.201C195.321 33.6223 192.5 32.0213 192.5 28.8192V15.5532L191.09 14.1809L189.444 15.5532L188.974 15.0957L194.85 9.37766H195.321L199.081 13.0372V15.0957L203.782 9.60638H204.252C205.192 10.5213 206.603 11.8936 208.013 12.8085L204.017 17.383C202.842 16.4681 201.432 15.0957 200.491 14.4096L198.846 16.0106ZM198.376 32.4787C196.496 32.0213 194.615 30.8777 194.615 28.3617V14.6383L192.735 12.5798L191.56 13.7234L193.205 15.3245V28.8192C193.205 31.3351 195.321 32.9362 197.201 33.3936L198.376 32.4787ZM200.962 13.9521C201.667 14.6383 202.842 15.7819 203.782 16.4681L204.722 15.3245C203.782 14.6383 202.372 13.266 201.667 12.8085L200.962 13.9521ZM214.124 34.3085L208.483 30.6489V23.3298C209.893 22.4149 212.949 20.3564 214.359 19.4415C212.009 18.2979 210.128 16.9255 208.953 15.3245V14.867C212.244 13.0372 214.829 11.2074 216.709 9.37766H217.179C217.179 9.37766 224.231 12.5798 224.466 12.8085C224.936 13.0372 225.171 13.0372 225.406 13.0372C225.876 13.0372 226.346 12.8085 226.816 12.5798V13.266C226.346 13.7234 225.641 14.4096 225.641 15.3245V27.4468C225.641 28.8191 226.816 29.5053 227.756 29.734L229.167 28.3617L229.637 28.8192L224.466 34.0798H224.231C222.115 33.6223 219.765 31.5638 219.53 29.2766L214.594 34.0798H214.124V34.3085ZM215.299 32.4787L210.598 29.5053V22.6436L209.188 23.5585V30.1915L214.359 33.3936L215.299 32.4787ZM219.295 20.5851V16.9255L212.479 13.4947C212.009 13.9521 210.128 14.867 209.658 15.3245C211.303 17.1543 215.534 19.6702 219.295 20.5851ZM225.406 32.4787C223.526 31.7926 221.645 30.6489 221.645 28.133V15.5532L214.594 12.1223C214.359 12.3511 213.654 12.8085 213.419 13.0372L220.235 16.4681V28.8192C220.235 31.1064 222.585 32.9362 224.231 33.6223L225.406 32.4787ZM219.295 28.5904V21.2713C217.885 20.8138 216.239 20.3564 214.829 19.6702V28.8192L217.415 30.4202L219.295 28.5904ZM168.291 30.4202V15.0957L176.752 9.37766H177.222C178.868 10.0638 184.273 12.3511 184.744 12.5798C184.979 12.5798 185.214 12.8085 185.684 12.8085C186.154 12.8085 186.624 12.5798 187.329 12.3511V13.266C186.859 13.7234 186.154 14.6383 186.154 15.3245V28.3617C186.154 31.3351 186.859 33.1649 188.034 34.3085V34.766C186.154 36.5957 181.923 40.9415 180.043 43H179.808C177.927 42.0851 174.872 41.1702 172.521 41.1702C170.641 41.1702 168.526 41.6277 167.115 42.7713L166.645 42.5425C168.056 39.3404 171.111 35.9096 175.107 35.9096C177.457 35.9096 180.748 36.8245 183.568 38.4255C181.688 36.367 180.043 32.4787 180.043 29.5053L175.107 34.0798H174.637L168.291 30.4202ZM172.286 39.3404C170.406 39.3404 168.761 40.2553 167.821 41.3989V41.6277C168.996 40.9415 170.171 40.7128 172.286 40.7128C174.637 40.7128 177.927 41.3989 179.573 42.3138L180.513 41.1702C178.397 40.2553 175.342 39.3404 172.286 39.3404ZM174.167 33.6223L175.342 32.7074L170.406 29.2766V14.6383L168.996 15.5532V30.1915L174.167 33.6223ZM181.688 14.6383L174.637 11.8936V13.266L180.043 15.5532V29.2766C180.043 32.25 181.453 35.4521 183.568 37.9681L184.744 36.8245C182.863 34.5372 181.688 32.0213 181.688 29.0479V14.6383ZM179.573 28.5904V16.0106L174.872 13.9521V28.3617L177.927 30.1915L179.573 28.5904ZM239.744 15.0957L245.855 9.37766H246.325C246.795 9.83511 249.615 12.3511 250.085 12.5798C250.321 12.8085 250.556 12.8085 250.791 12.8085C251.261 12.8085 251.731 12.5798 252.201 12.3511V13.266C251.731 13.7234 251.026 14.6383 251.026 15.5532V30.1915C248.44 30.8777 246.325 32.25 243.974 34.766H243.739L239.744 33.8511V37.0532L241.859 38.883L236.923 43H236.688L231.987 39.1117L233.162 37.7394V32.25C232.692 32.25 231.752 32.0213 231.282 31.7926V31.1064C231.752 30.8777 233.397 29.5053 233.397 28.3617V15.7819L231.987 14.4096L230.342 16.0106L229.872 15.5532L235.748 9.83511H236.218L239.979 13.4947V15.0957H239.744ZM233.868 38.1968L232.927 39.1117L236.688 42.3138L237.863 41.3989L234.808 38.883L235.278 38.4255V14.6383L233.162 12.5798L232.222 13.4947L233.868 15.0957V38.1968ZM244.444 29.2766V16.0106L242.094 13.7234L239.509 16.0106V28.133C240.684 28.5904 243.974 29.0479 244.444 29.2766ZM243.739 34.0798C243.974 33.6223 244.444 33.1649 244.679 32.9362L239.509 32.0213V33.3936L243.739 34.0798ZM242.564 13.4947L245.15 16.0106V29.2766L246.56 28.5904V15.0957L243.739 12.3511L242.564 13.4947ZM1.88034 20.8138C1.88034 14.867 6.34615 10.9787 10.5769 9.14894L10.812 9.60638C9.40171 11.2074 8.46154 12.8085 8.46154 16.4681C8.46154 20.5851 9.63675 23.3298 11.2821 25.1596C11.7521 24.4734 12.2222 23.5585 12.2222 22.6436V16.6968L19.7436 11.4362L19.9786 11.8936C19.5085 12.5798 19.0385 13.4947 19.0385 14.867V18.7553C19.0385 21.5 14.5726 24.4734 11.7521 25.3883C13.6325 27.2181 16.2179 27.9043 19.0385 27.9043C19.9786 27.9043 20.9188 27.9043 21.859 27.6755V10.9787C19.2735 10.75 16.9231 10.2926 14.8077 9.60638C12.4573 8.92021 10.1068 8.23404 8.2265 8.23404C5.17094 8.23404 1.41026 9.14894 1.41026 13.4947V14.867L0.705128 15.0957C0.235043 13.7234 0 12.3511 0 11.2074C0 5.94681 3.99573 1.37234 10.3419 1.37234C12.9274 1.37234 15.5128 2.05851 17.8632 2.74468C20.2137 3.43085 22.5641 4.11702 24.9145 4.11702C26.0897 4.11702 26.7949 3.43085 26.7949 2.28723C26.7949 1.14362 26.3248 0.68617 25.3846 0.457447V0C28.2051 0.457447 31.0256 2.05851 31.0256 5.48936C31.2607 8.92021 28.2051 10.9787 23.0342 10.9787H22.5641V27.9043C25.8547 27.2181 28.2051 25.8457 29.8504 23.1011L30.3205 23.3298C28.4402 29.0479 23.9744 34.5372 16.2179 34.5372C8.46154 34.5372 1.88034 29.9628 1.88034 20.8138ZM23.0342 8.92021C17.3932 8.92021 12.2222 6.17553 8.2265 6.17553C5.40598 6.17553 2.35043 7.31915 1.41026 10.2926H1.6453C2.82051 8.23404 5.64103 7.54787 8.2265 7.54787C12.4573 7.54787 17.3932 10.2926 23.0342 10.2926C27.5 10.2926 30.3205 8.69149 30.5556 5.26064H30.3205C29.8504 8.00532 27.5 8.92021 23.0342 8.92021ZM6.81624 12.3511C4.70086 14.4096 2.82051 17.1543 2.82051 20.8138C2.82051 29.5053 8.69658 33.8511 16.453 33.8511C21.1538 33.8511 24.4444 31.3351 26.3248 29.5053L26.0897 29.2766C23.9744 31.1064 20.9188 32.4787 16.2179 32.4787C10.1068 32.4787 4.23077 28.8192 4.23077 20.8138C4.23077 17.6117 5.40598 14.4096 6.81624 12.3511ZM14.3376 22.1862V15.7819L12.9274 16.9255V22.8723C12.9274 23.5585 12.6923 24.016 12.6923 24.4734H12.9274C13.6325 23.7872 14.3376 23.1011 14.3376 22.1862ZM85.5556 20.8138C85.5556 14.867 90.0214 10.9787 94.2521 9.14894L94.4872 9.60638C92.8419 11.4362 91.9017 13.0372 91.9017 16.4681C91.9017 20.5851 93.0769 23.3298 94.7222 25.1596C95.1923 24.4734 95.6624 23.5585 95.6624 22.6436V16.6968L103.419 11.2074L103.654 11.6649C102.949 12.5798 102.714 13.4947 102.714 14.867V18.7553C102.714 21.5 98.2479 24.4734 95.4273 25.3883C97.3077 27.2181 99.8932 27.9043 102.714 27.9043C103.654 27.9043 104.594 27.9043 105.534 27.6755V10.9787C102.949 10.75 100.598 10.2926 98.4829 9.60638C96.1325 8.92021 93.7821 8.23404 91.9017 8.23404C88.8462 8.23404 85.0855 9.14894 85.0855 13.4947V14.867L84.6154 15.0957C84.1453 13.7234 83.9103 12.3511 83.9103 11.2074C83.9103 5.94681 87.906 1.37234 94.2521 1.37234C96.8376 1.37234 99.4231 2.05851 101.774 2.74468C104.124 3.43085 106.474 4.11702 108.825 4.11702C110 4.11702 110.705 3.43085 110.705 2.28723C110.705 1.14362 110.235 0.68617 109.295 0.457447V0C112.115 0.457447 114.936 2.05851 114.936 5.48936C114.936 9.60638 111.88 11.4362 106.709 11.4362H106.239V28.3617C109.53 27.6755 111.88 26.3032 113.526 23.5585L113.996 23.7872C112.115 29.5053 107.65 34.9947 99.8932 34.9947C92.1368 34.5372 85.5556 29.9628 85.5556 20.8138ZM106.709 8.92021C101.068 8.92021 95.8974 6.17553 91.9017 6.17553C89.3162 6.17553 86.2607 7.31915 85.0855 10.2926H85.3205C86.4957 8.23404 89.3162 7.54787 91.9017 7.54787C96.1325 7.54787 101.068 10.2926 106.709 10.2926C111.175 10.2926 113.996 8.69149 114.231 5.26064H113.996C113.291 8.00532 111.175 8.92021 106.709 8.92021ZM90.4915 12.3511C88.3761 14.4096 86.4957 17.1543 86.4957 20.8138C86.4957 29.5053 92.3718 33.8511 100.128 33.8511C104.829 33.8511 108.12 31.3351 110 29.5053L109.765 29.2766C107.65 31.1064 104.594 32.4787 99.8932 32.4787C93.7821 32.4787 87.906 28.8192 87.906 20.8138C87.906 17.6117 89.0812 14.4096 90.4915 12.3511ZM98.0128 22.1862V15.7819L96.6026 16.6968V22.6436C96.6026 23.3298 96.3675 23.7872 96.3675 24.2447H96.6026C97.3077 23.7872 98.0128 23.1011 98.0128 22.1862Z" fill="#34304E"/>
</g>
</svg>
