<svg width="100%" height="100%" viewBox="0 0 148 201" fill="none" xmlns="http://www.w3.org/2000/svg">
<mask id="mask0" mask-type="alpha" maskUnits="userSpaceOnUse" x="0" y="-1" width="100%" height="100%">
<path d="M146.705 145.883H0.416458V-0.000259399H146.705V145.883Z" fill="#FCD0AF"/>
<path d="M37.8322 76.1319C37.8322 83.0213 39.6749 83.7876 47.546 84.0812V86.6005H16.2601V84.0812C22.7685 83.7876 24.6144 83.0213 24.6144 76.1319V31.1757C24.6144 24.2863 22.7685 23.5118 16.4547 23.2264V20.7071H71.641L72.0338 35.2359H69.3123C66.9815 27.8737 64.4521 25.5501 51.5294 25.5501H41.5164C38.512 25.5501 37.8318 26.2267 37.8318 28.9417V49.7811H42.7623C53.0639 49.7811 55.2999 47.9303 56.5613 41.0491H59.0875V64.3099H56.5613C55.2042 56.5563 51.3144 54.624 42.7623 54.624H37.8318V76.1319H37.8322ZM134.137 20.7071H76.2232L74.8788 35.2441H78.2008C80.3207 28.1264 83.4379 25.5501 90.4089 25.5501H98.5719V76.1319C98.5719 83.0213 96.726 83.7876 89.2464 84.0812V86.6005H121.118V84.0812C113.635 83.7876 111.79 83.0213 111.79 76.1319V25.5501H119.949C126.923 25.5501 130.043 28.1264 132.16 35.2441H135.478L134.137 20.7071Z" fill="#3E474F"/>
<path d="M5.68035 170.357C5.68035 172.118 6.15615 172.314 8.16808 172.396V173.023H0.158782V172.396C1.82245 172.314 2.29825 172.118 2.29825 170.357V158.845C2.29825 157.076 1.82245 156.88 0.20293 156.807V156.163H14.3437L14.4393 159.88H13.7436C13.146 157.997 12.501 157.402 9.18999 157.402H6.62541C5.8553 157.402 5.68035 157.573 5.68035 158.274V163.606H8.57031C11.2076 163.606 11.7791 163.134 12.102 161.373H12.7503V167.332H12.102C11.7538 165.343 10.7572 164.846 8.57031 164.846H5.68035V170.357ZM22.3562 170.357C22.3562 172.118 22.8255 172.314 24.844 172.396V173.023H16.4799V172.396C18.5016 172.314 18.9676 172.118 18.9676 170.357V158.845C18.9676 157.076 18.5016 156.88 16.4799 156.807V156.163H24.844V156.807C22.8255 156.88 22.3562 157.076 22.3562 158.845V170.357ZM42.29 159.318C42.29 157.679 41.8395 157.011 39.9968 156.807V156.163H45.9689V156.807C44.1294 157.011 43.6822 157.679 43.6822 159.318V173.439H42.8361L31.2918 160.133V169.884C31.2918 171.523 31.7357 172.192 33.5784 172.396V173.023H27.6031V172.396C29.4458 172.192 29.893 171.523 29.893 169.884V158.527C29.3216 157.524 28.6471 157.051 27.6031 156.807V156.163H32.2083L42.29 167.781V159.318ZM51.3212 166.982L53.8596 160.304L56.376 166.982H51.3212ZM63.4402 173.023V172.396C62.1722 172.42 61.8501 171.874 61.2022 170.284L55.2523 155.763H54.4347L48.2363 170.806C47.812 171.849 47.2397 172.167 46.1704 172.396V173.023H51.5448V172.396C50.3757 172.396 49.8043 172.143 49.8043 171.327C49.8043 170.634 50.5777 168.767 50.7722 168.221H56.8971C57.095 168.767 57.9158 170.634 57.9158 171.327C57.9158 172.143 57.2961 172.396 56.1246 172.396V173.023H63.4402ZM79.8414 159.318C79.8414 157.679 79.3951 157.011 77.5552 156.807V156.163H83.5268V156.807C81.6841 157.011 81.2345 157.679 81.2345 159.318V173.439H80.3908L68.8424 160.133L68.8428 169.884C68.8428 171.523 69.29 172.192 71.1327 172.396V173.023H65.1574V172.396C67.0001 172.192 67.4506 171.523 67.4506 169.884V158.527C66.8759 157.524 66.2022 157.051 65.1574 156.807V156.163H69.7625L79.841 167.781L79.8418 159.318H79.8414ZM101.209 169.061C99.44 172.069 97.1247 173.439 93.6151 173.439C88.1156 173.439 84.8553 169.835 84.8553 164.446C84.8553 160.606 87.8924 155.763 93.7909 155.763C95.5567 155.763 98.0665 156.758 98.4434 156.758C98.9388 156.758 99.0884 156.489 99.4915 155.763H100.334L100.685 161.397H99.9378C98.9388 158.788 97.1762 156.905 94.2127 156.905C90.2297 156.905 88.49 161.201 88.49 164.446C88.49 168.996 90.4537 172.045 94.6623 172.045C97.9455 172.045 99.7629 169.615 100.535 168.547L101.209 169.061ZM109.404 170.357C109.404 172.118 109.88 172.314 111.894 172.396V173.023H103.531V172.396C105.549 172.314 106.022 172.118 106.022 170.357V158.845C106.022 157.076 105.549 156.88 103.531 156.807V156.163H111.894V156.807C109.88 156.88 109.404 157.076 109.404 158.845V170.357ZM118.824 166.982L121.363 160.304L123.877 166.982H118.824ZM130.947 173.023V172.396C129.675 172.42 129.353 171.874 128.708 170.284L122.758 155.763H121.938L115.74 170.806C115.315 171.849 114.743 172.167 113.673 172.396V173.023H119.048V172.396C117.879 172.396 117.308 172.143 117.308 171.327C117.308 170.634 118.08 168.767 118.278 168.221H124.4C124.598 168.767 125.418 170.634 125.418 171.327C125.418 172.143 124.796 172.396 123.627 172.396V173.023H130.947ZM132.426 173.023V172.396C134.044 172.322 134.517 172.118 134.517 170.357V158.845C134.517 157.076 134.044 156.88 132.426 156.807V156.163H140.239V156.807C138.375 156.88 137.899 157.076 137.899 158.845V170.683C137.899 171.702 138.199 172.045 140.09 172.045C143.127 172.045 144.918 171.499 146.362 168.523H147.01L145.866 173.023H132.426ZM3.86953 199.619C5.79154 199.537 6.26079 199.342 6.26079 197.58V184.625H4.17283C2.20586 184.625 1.43249 185.416 0.88638 187.699H0.13916L0.538112 183.386H15.3689L15.7678 187.699H15.0173C14.4745 185.416 13.7019 184.625 11.7382 184.625H9.64617V197.58C9.64617 199.342 10.1187 199.537 12.0317 199.619V200.247H3.86953V199.619ZM23.3814 197.58C23.3814 199.342 23.8572 199.537 25.8724 199.611V200.247H17.5083V199.611C19.5301 199.537 19.9993 199.342 19.9993 197.58V186.06C19.9993 184.299 19.5301 184.103 17.5083 184.03V183.378H25.8724V184.03C23.8572 184.103 23.3814 184.299 23.3814 186.06V197.58ZM43.6373 183.386H49.4621V184.03C47.8434 184.103 47.3742 184.299 47.3742 186.06V197.58C47.3742 199.342 47.8434 199.537 49.4621 199.619V200.247H41.8461V199.619C43.513 199.537 43.9888 199.342 43.9888 197.58V185.718H43.9373L38.2882 200.458H37.5156L31.9941 185.718H31.9434V197.108C31.9434 198.746 32.3897 199.415 34.2324 199.619V200.247H28.2612V199.619C30.1007 199.415 30.5479 198.746 30.5479 197.108V185.644C30.5479 184.478 30.0524 184.03 28.2612 184.03V183.386H34.4082L38.9112 195.094L43.6373 183.386ZM51.864 200.247V199.619C53.4795 199.537 53.952 199.342 53.952 197.58V186.06C53.952 184.299 53.4795 184.103 51.864 184.03V183.386H65.9974L66.0968 187.104H65.4035C64.8034 185.22 64.1551 184.625 60.847 184.625H58.2857C57.5099 184.625 57.3406 184.796 57.3406 185.489V190.83H60.2241C62.8618 190.83 63.4333 190.357 63.7595 188.596H64.4069V194.547H63.7595C63.4079 192.566 62.4146 192.069 60.2241 192.069H57.3406V197.907C57.3406 198.918 57.6374 199.268 60.6238 199.268C63.6573 199.268 65.4517 198.722 66.8947 195.738H67.5405L66.3968 200.247H51.8644H51.864ZM69.7409 194.947H70.3924C71.111 197.181 73.2538 199.513 75.7448 199.513C77.881 199.513 78.654 198.029 78.654 196.708C78.654 192.835 69.8942 192.118 69.8942 187.308C69.8938 184.976 72.1583 182.986 74.745 182.986C77.2834 182.986 78.1782 183.875 79.3023 183.875C79.7748 183.875 80.0724 183.508 80.1966 182.986H80.8449V188.343H80.1966C79.5001 185.913 77.76 184.128 75.4668 184.128C73.5792 184.128 72.8769 185.343 72.8769 186.492C72.8769 189.933 81.6408 190.039 81.6408 195.966C81.64 198.616 79.4523 200.654 76.4115 200.654C73.4259 200.654 72.6558 199.619 71.4843 199.619C71.0403 199.619 70.737 199.912 70.6406 200.458H69.7405L69.7405 194.947H69.7409Z" fill="#3E474F"/>
</mask>
<g mask="url(#mask0)">
<path d="M5.41646 4.99962V140.883H141.705V4.99962H5.41646Z" stroke="#34304E" stroke-width="10"/>
<path d="M34.8323 76.1319C34.8323 83.0213 36.675 83.7876 44.5462 84.0812V86.6005H13.2603V84.0812C19.7686 83.7876 21.6146 83.0213 21.6146 76.1319V31.1757C21.6146 24.2863 19.7686 23.5118 13.4548 23.2264V20.7071H68.6411L69.0339 35.2359H66.3124C63.9816 27.8737 61.4522 25.5501 48.5296 25.5501H38.5165C35.5121 25.5501 34.8319 26.2267 34.8319 28.9417V49.7811H39.7624C50.0641 49.7811 52.3 47.9303 53.5614 41.0491H56.0876V64.3099H53.5614C52.2043 56.5563 48.3145 54.624 39.7624 54.624H34.8319V76.1319H34.8323ZM131.137 20.7071H73.2233L71.8789 35.2441H75.2009C77.3208 28.1264 80.438 25.5501 87.4091 25.5501H95.5721V76.1319C95.5721 83.0213 93.7261 83.7876 86.2465 84.0812V86.6005H118.118V84.0812C110.635 83.7876 108.79 83.0213 108.79 76.1319V25.5501H116.949C123.923 25.5501 127.044 28.1264 129.16 35.2441H132.478L131.137 20.7071Z" fill="#34304E"/>
<path d="M5.68035 170.357C5.68035 172.118 6.15615 172.314 8.16808 172.395V173.023H0.158782V172.395C1.82245 172.314 2.29825 172.118 2.29825 170.357V158.845C2.29825 157.076 1.82245 156.88 0.20293 156.807V156.163H14.3437L14.4393 159.88H13.7436C13.146 157.997 12.501 157.402 9.18999 157.402H6.62541C5.8553 157.402 5.68035 157.573 5.68035 158.274V163.606H8.57031C11.2076 163.606 11.7791 163.133 12.102 161.372H12.7503V167.332H12.102C11.7538 165.343 10.7572 164.846 8.57031 164.846H5.68035V170.357ZM22.3562 170.357C22.3562 172.118 22.8255 172.314 24.844 172.395V173.023H16.4799V172.395C18.5016 172.314 18.9676 172.118 18.9676 170.357V158.845C18.9676 157.076 18.5016 156.88 16.4799 156.807V156.163H24.844V156.807C22.8255 156.88 22.3562 157.076 22.3562 158.845V170.357ZM42.29 159.318C42.29 157.679 41.8395 157.01 39.9968 156.807V156.163H45.9689V156.807C44.1294 157.01 43.6822 157.679 43.6822 159.318V173.439H42.8361L31.2918 160.133V169.884C31.2918 171.523 31.7357 172.192 33.5784 172.395V173.023H27.6031V172.395C29.4458 172.192 29.893 171.523 29.893 169.884V158.527C29.3216 157.524 28.6471 157.051 27.6031 156.807V156.163H32.2083L42.29 167.781V159.318ZM51.3212 166.982L53.8596 160.304L56.376 166.982H51.3212ZM63.4402 173.023V172.395C62.1722 172.42 61.8501 171.874 61.2022 170.284L55.2523 155.763H54.4347L48.2363 170.806C47.812 171.849 47.2397 172.167 46.1704 172.395V173.023H51.5448V172.395C50.3757 172.395 49.8043 172.143 49.8043 171.327C49.8043 170.634 50.5777 168.767 50.7722 168.221H56.8971C57.095 168.767 57.9158 170.634 57.9158 171.327C57.9158 172.143 57.2961 172.395 56.1246 172.395V173.023H63.4402ZM79.8414 159.318C79.8414 157.679 79.3951 157.01 77.5552 156.807V156.163H83.5268V156.807C81.6841 157.01 81.2345 157.679 81.2345 159.318V173.439H80.3908L68.8424 160.133L68.8428 169.884C68.8428 171.523 69.29 172.192 71.1327 172.395V173.023H65.1574V172.395C67.0001 172.192 67.4506 171.523 67.4506 169.884V158.527C66.8759 157.524 66.2022 157.051 65.1574 156.807V156.163H69.7625L79.841 167.781L79.8418 159.318H79.8414ZM101.209 169.061C99.44 172.069 97.1247 173.439 93.6151 173.439C88.1156 173.439 84.8553 169.835 84.8553 164.446C84.8553 160.606 87.8924 155.763 93.7909 155.763C95.5567 155.763 98.0665 156.758 98.4434 156.758C98.9388 156.758 99.0884 156.489 99.4915 155.763H100.334L100.685 161.397H99.9378C98.9388 158.788 97.1762 156.904 94.2127 156.904C90.2297 156.904 88.49 161.201 88.49 164.446C88.49 168.996 90.4537 172.045 94.6623 172.045C97.9455 172.045 99.7629 169.615 100.535 168.547L101.209 169.061ZM109.404 170.357C109.404 172.118 109.88 172.314 111.894 172.395V173.023H103.531V172.395C105.549 172.314 106.022 172.118 106.022 170.357V158.845C106.022 157.076 105.549 156.88 103.531 156.807V156.163H111.894V156.807C109.88 156.88 109.404 157.076 109.404 158.845V170.357ZM118.824 166.982L121.363 160.304L123.877 166.982H118.824ZM130.947 173.023V172.395C129.675 172.42 129.353 171.874 128.708 170.284L122.758 155.763H121.938L115.74 170.806C115.315 171.849 114.743 172.167 113.673 172.395V173.023H119.048V172.395C117.879 172.395 117.308 172.143 117.308 171.327C117.308 170.634 118.08 168.767 118.278 168.221H124.4C124.598 168.767 125.418 170.634 125.418 171.327C125.418 172.143 124.796 172.395 123.627 172.395V173.023H130.947ZM132.426 173.023V172.395C134.044 172.322 134.517 172.118 134.517 170.357V158.845C134.517 157.076 134.044 156.88 132.426 156.807V156.163H140.239V156.807C138.375 156.88 137.899 157.076 137.899 158.845V170.683C137.899 171.702 138.199 172.045 140.09 172.045C143.127 172.045 144.918 171.499 146.362 168.523H147.01L145.866 173.023H132.426ZM3.86953 199.619C5.79154 199.537 6.26079 199.341 6.26079 197.58V184.625H4.17283C2.20586 184.625 1.43249 185.416 0.88638 187.699H0.13916L0.538112 183.386H15.3689L15.7678 187.699H15.0173C14.4745 185.416 13.7019 184.625 11.7382 184.625H9.64617V197.58C9.64617 199.341 10.1187 199.537 12.0317 199.619V200.246H3.86953V199.619ZM23.3814 197.58C23.3814 199.341 23.8572 199.537 25.8724 199.61V200.246H17.5083V199.61C19.5301 199.537 19.9993 199.341 19.9993 197.58V186.06C19.9993 184.299 19.5301 184.103 17.5083 184.03V183.378H25.8724V184.03C23.8572 184.103 23.3814 184.299 23.3814 186.06V197.58ZM43.6373 183.386H49.4621V184.03C47.8434 184.103 47.3742 184.299 47.3742 186.06V197.58C47.3742 199.341 47.8434 199.537 49.4621 199.619V200.246H41.8461V199.619C43.513 199.537 43.9888 199.341 43.9888 197.58V185.718H43.9373L38.2882 200.458H37.5156L31.9941 185.718H31.9434V197.107C31.9434 198.746 32.3897 199.415 34.2324 199.619V200.246H28.2612V199.619C30.1007 199.415 30.5479 198.746 30.5479 197.107V185.644C30.5479 184.478 30.0524 184.03 28.2612 184.03V183.386H34.4082L38.9112 195.094L43.6373 183.386ZM51.864 200.246V199.619C53.4795 199.537 53.952 199.341 53.952 197.58V186.06C53.952 184.299 53.4795 184.103 51.864 184.03V183.386H65.9974L66.0968 187.104H65.4035C64.8034 185.22 64.1551 184.625 60.847 184.625H58.2857C57.5099 184.625 57.3406 184.796 57.3406 185.489V190.83H60.2241C62.8618 190.83 63.4333 190.357 63.7595 188.596H64.4069V194.547H63.7595C63.4079 192.566 62.4146 192.069 60.2241 192.069H57.3406V197.906C57.3406 198.917 57.6374 199.268 60.6238 199.268C63.6573 199.268 65.4517 198.722 66.8947 195.738H67.5405L66.3968 200.246H51.8644H51.864ZM69.7409 194.947H70.3924C71.111 197.181 73.2538 199.513 75.7448 199.513C77.881 199.513 78.654 198.029 78.654 196.708C78.654 192.835 69.8942 192.118 69.8942 187.307C69.8938 184.976 72.1583 182.986 74.745 182.986C77.2834 182.986 78.1782 183.875 79.3023 183.875C79.7748 183.875 80.0724 183.508 80.1966 182.986H80.8449V188.343H80.1966C79.5001 185.913 77.76 184.128 75.4668 184.128C73.5792 184.128 72.8769 185.343 72.8769 186.492C72.8769 189.933 81.6408 190.039 81.6408 195.966C81.64 198.616 79.4523 200.654 76.4115 200.654C73.4259 200.654 72.6558 199.619 71.4843 199.619C71.0403 199.619 70.737 199.912 70.6406 200.458H69.7405L69.7405 194.947H69.7409Z" fill="#34304E"/>
</g>
</svg>
