<svg width="100%" height="100%" viewBox="0 0 227 76" fill="none" xmlns="http://www.w3.org/2000/svg">
<mask id="mask0" mask-type="alpha" maskUnits="userSpaceOnUse" x="0" y="0" width="100%" height="100%">
<path d="M51.5603 40.0568C52.3299 39.6693 53.1764 39.2044 53.9459 38.8169C54.2538 38.6619 55.3311 38.2744 55.485 37.9644C55.562 37.8094 55.485 37.3445 55.485 37.112V35.2521V22.0003V9.05842V7.35351C55.485 7.27601 55.562 6.73354 55.485 6.65605C55.4081 6.57855 54.7924 6.65605 54.7155 6.65605H53.0225C52.4068 6.65605 52.4838 6.73354 52.099 7.19852C50.6368 9.13592 49.1747 11.0733 47.7125 13.0882C47.0199 14.0182 46.3273 14.8706 45.7117 15.8006C45.2499 16.4205 45.2499 16.498 44.4034 16.498L44.6343 11.3833C44.7113 10.1434 44.7113 8.90343 44.7882 7.66349C44.7882 7.19852 44.8652 6.73354 44.8652 6.26857C44.8652 6.11357 44.7882 5.6486 44.8652 5.5711C45.0191 5.33861 46.4043 5.49361 46.7891 5.49361H75.5705C75.7244 5.49361 76.417 5.41611 76.5709 5.49361C76.7248 5.5711 76.6479 6.03608 76.6479 6.26857C76.7248 7.27601 76.7248 8.36096 76.8018 9.36841C76.8787 11.6158 76.9557 13.7857 77.1096 16.0331V16.498C76.7248 16.498 76.417 16.5755 76.1092 16.3431C75.8013 16.1106 75.5705 15.6456 75.3396 15.3356C74.4161 14.0957 73.4927 12.7782 72.4922 11.5383L69.7218 7.81849C69.5679 7.586 69.3371 7.04353 69.0292 6.88853C68.7984 6.73354 68.3366 6.81104 68.0288 6.81104H66.7975C66.6436 6.81104 66.028 6.73354 65.8741 6.81104C65.7971 6.88854 65.8741 6.88854 65.7971 7.04353C65.6432 7.6635 65.7971 8.43845 65.7971 9.05842V36.027C65.7971 36.5695 65.6432 37.3445 65.7971 37.8869C65.951 38.4294 67.1823 38.8169 67.721 39.0494C68.2597 39.3594 69.1832 39.5919 69.6449 40.0568C69.7988 40.2118 69.9527 40.9868 69.7988 41.2193C69.7218 41.2968 69.3371 41.2193 69.2601 41.2193H52.3299C52.176 41.2193 51.6373 41.2968 51.5603 41.2193C51.4834 40.9093 51.5603 40.2893 51.5603 40.0568ZM80.1109 38.6619V27.3475V8.82593V5.80359C80.1109 5.33861 80.2648 4.64115 80.1109 4.17617C79.957 3.6337 79.0335 3.55621 78.4948 3.32372C78.187 3.24622 77.1865 3.01373 77.0326 2.70375V2.08378H77.2635C77.5713 1.92879 78.187 1.92879 78.5717 1.85129C79.2644 1.6963 79.957 1.61881 80.5726 1.46381C82.1117 1.15383 83.7278 0.843845 85.2669 0.611357C86.1904 0.456365 87.1138 0.223877 88.0373 0.0688853C88.2682 0.0688853 89.1916 -0.0861067 89.2686 0.0688853C89.3456 0.146381 89.2686 0.456365 89.2686 0.533861V16.5755C92.1929 13.6307 97.272 12.0033 101.351 13.0107C104.891 13.8632 106.045 17.1955 106.045 20.6053C106.122 24.9451 106.045 29.2074 106.045 33.5472V37.0345C106.045 37.422 105.891 38.3519 106.045 38.7394C106.122 38.8944 106.43 38.9719 106.584 39.1269C107.122 39.4369 107.738 39.7468 108.277 40.0568C108.354 40.1343 108.584 40.2118 108.584 40.2893C108.661 40.3668 108.661 41.0643 108.584 41.1418C108.508 41.2968 108.508 41.2193 108.277 41.2193C107.43 41.3743 106.507 41.2193 105.737 41.2193H94.6555C94.5785 41.2193 94.1937 41.2968 94.1168 41.2193C94.0398 41.1418 94.0398 40.2893 94.1168 40.2118C94.3477 39.9018 95.2711 39.5919 95.579 39.3594C95.8098 39.2044 96.5024 38.9719 96.6563 38.7394C96.8102 38.5069 96.6563 37.6545 96.6563 37.422V34.2446C96.6563 29.7499 96.7333 25.1776 96.6563 20.6828C96.6563 19.3654 96.4255 17.8155 95.1172 17.118C94.4246 16.7305 93.5012 16.653 92.7316 16.653C92.116 16.653 91.5003 16.808 90.9616 16.963C90.4999 17.118 89.6534 17.428 89.3455 17.8155C89.1147 18.1255 89.2686 18.5904 89.2686 18.9779V37.267C89.2686 37.6544 89.1147 38.4294 89.2686 38.7394C89.3456 38.8944 89.6534 39.0494 89.8842 39.1269C90.4229 39.4369 91.1155 39.7468 91.6542 40.0568C91.7312 40.1343 91.8851 40.1343 91.8851 40.2118C91.962 40.2893 91.962 40.9868 91.8851 41.0643C91.8081 41.1418 91.7312 41.1418 91.5773 41.1418C90.7308 41.2193 89.8073 41.1418 88.9608 41.1418H77.8792C77.8022 41.1418 77.4174 41.2193 77.3405 41.1418C77.2635 41.0643 77.3405 40.2893 77.4174 40.1343C77.6483 39.8243 78.4948 39.5144 78.8026 39.3594C79.3413 39.1269 79.7261 38.8944 80.1109 38.6619ZM116.665 27.9674C116.819 31.3773 117.896 35.1746 120.974 37.0345C122.59 37.9644 124.591 38.2744 126.438 38.1194C128.67 37.8869 130.517 36.802 132.441 35.7945C132.441 36.1045 132.518 36.647 132.441 36.957C132.287 37.267 131.902 37.6545 131.671 37.8869C131.363 38.1969 130.979 38.5844 130.594 38.8944C129.286 39.9793 127.823 40.7543 126.284 41.2968C123.36 42.3042 119.974 42.2267 116.973 41.4518C114.587 40.8318 112.432 39.6693 110.816 37.8094C109.2 35.9495 108.277 33.5472 107.892 31.0673C107.045 25.7201 108.046 19.5979 112.432 16.0331C116.28 12.9332 122.436 12.3133 126.977 14.1732C132.518 16.4205 133.441 22.7752 133.441 28.0449H118.743C118.05 27.9675 117.357 27.9674 116.665 27.9674ZM116.511 26.65C118.05 26.5725 119.589 26.495 121.205 26.34C122.129 26.2625 123.129 26.2625 124.053 26.185C124.206 26.185 124.591 26.185 124.745 26.1075C124.976 25.9526 124.822 24.4026 124.822 24.0927C124.745 21.3028 124.668 17.893 123.052 15.4906C121.898 13.7857 120.128 14.0957 119.05 15.6456C116.819 18.6679 116.511 23.1627 116.511 26.65ZM0 54.9361C0 50.5963 0.846512 46.1015 3.23214 42.4592C5.54081 38.8944 9.23468 36.5695 13.2364 35.4071C18.0846 34.0121 23.4715 34.1671 28.4736 35.0971C29.551 35.3296 30.6284 35.5621 31.6288 35.872C31.7827 35.9495 32.4753 36.1045 32.5523 36.2595V36.492C32.7831 37.422 32.6292 38.5844 32.6292 39.5144C32.7062 41.9167 32.7062 44.3966 32.7831 46.799C32.4753 46.799 31.9366 46.8765 31.7057 46.799C31.5518 46.7215 31.3979 46.334 31.321 46.179C30.7053 45.2491 30.0897 44.3191 29.551 43.3117C28.2427 41.2193 26.8575 39.1269 25.5493 37.0345C24.8567 35.872 22.9328 35.872 21.7015 35.872C20.3163 35.872 18.9311 36.1045 17.7768 36.802C15.1603 38.4294 13.929 41.6068 13.2364 44.4741C12.159 49.0464 12.236 53.8511 12.4668 58.5009C12.6977 62.0657 13.0055 65.863 14.3907 69.1178C15.2372 71.1327 16.6994 72.9151 18.9311 73.3801C19.6237 73.5351 20.3163 73.5351 21.0859 73.4576C21.5476 73.3801 23.1637 73.3026 23.3945 72.8376C23.4715 72.6827 23.3945 72.2952 23.3945 72.1402V70.8228V62.6082V59.4308C23.3945 58.8884 23.5484 58.6559 23.0867 58.3459C22.548 58.0359 21.9324 57.7259 21.3937 57.3384C21.0089 57.106 20.2393 56.8735 20.0085 56.5635C19.8546 56.4085 19.7776 55.556 19.9315 55.401C20.0085 55.2461 20.0085 55.3235 20.2393 55.3235C20.9319 55.1686 21.8554 55.3235 22.548 55.3235H34.4761C35.2457 55.3235 36.0922 55.2461 36.8618 55.3235H37.1696C37.2465 55.401 37.2465 56.486 37.1696 56.641C37.0157 56.8735 36.2461 57.1835 35.9383 57.3384C35.3996 57.6484 34.784 57.9584 34.2453 58.3459C33.6296 58.6559 33.7066 58.6559 33.7066 59.3533V71.9852C33.7066 72.1402 33.7835 72.5277 33.7066 72.6827C33.5527 73.0701 31.9366 73.3026 31.4749 73.4576C30.1666 73.8451 28.7814 74.1551 27.3962 74.3876C24.7028 74.8525 22.0093 75.0075 19.3159 74.93C15.0064 74.775 10.466 73.8451 6.92601 71.2102C3.84778 68.9628 1.84694 65.553 0.923468 61.8332C0.230867 59.6633 0 57.2609 0 54.9361ZM35.4766 47.8839C35.4766 47.7289 35.3996 47.109 35.4766 47.0315C35.5535 46.954 35.6305 47.0315 35.7074 46.954C36.1692 46.7215 36.7848 46.7215 37.3235 46.644C39.0935 46.334 40.8635 46.024 42.7104 45.714C44.0956 45.4815 45.4808 45.1716 46.7891 45.0166C47.1738 44.9391 47.6356 44.9391 48.0203 45.0941C48.4051 45.1716 48.2512 45.0941 48.3282 45.4041C48.4821 46.334 48.3282 47.419 48.3282 48.3489V64.5456C48.3282 66.483 47.7895 70.0478 49.6364 71.2102C50.5599 71.8302 51.8681 71.8302 52.9455 71.5977C53.792 71.4427 55.4081 70.8227 55.7159 69.8928C55.7929 69.6603 55.7159 69.3503 55.7159 69.1178V67.4904V56.7185V51.7587V50.1313C55.7159 49.9763 55.7929 49.5113 55.7159 49.3563C55.485 49.1239 54.7155 48.8914 54.4846 48.8139C54.0229 48.6589 53.6381 48.4264 53.1764 48.2714C53.0225 48.1939 52.4838 48.1164 52.4068 47.9614C52.3299 47.8839 52.3299 47.1865 52.4068 47.109C52.4838 47.0315 52.4838 47.109 52.5607 47.0315C52.9455 46.799 53.6381 46.8765 54.0229 46.799C57.1781 46.2565 60.4102 45.559 63.6423 45.0941C64.0271 45.0166 64.4119 45.0166 64.7967 45.0941C65.1815 45.1716 65.0275 45.0166 65.1045 45.4041C65.2584 46.179 65.1045 47.264 65.1045 48.1164V70.4353C65.1045 70.6678 65.0275 71.0552 65.1045 71.3652C65.1815 71.5977 65.1045 71.5202 65.4893 71.6752C66.2588 71.9852 67.1054 72.3727 67.8749 72.6827C68.1058 72.7602 68.1827 72.7601 68.2597 72.9151C68.3366 73.0701 68.3366 73.6126 68.2597 73.6126C68.1058 73.7676 67.3362 73.6901 67.1823 73.7676C65.4893 74.0001 63.7963 74.1551 62.0263 74.3876C60.4872 74.5426 58.9481 74.775 57.4859 74.93C57.1781 75.0075 56.8703 75.0075 56.5624 74.93C56.4085 74.93 55.9468 74.93 55.8698 74.8525C55.7929 74.6975 55.8698 74.0776 55.8698 73.9226V72.6052C55.8698 72.3727 56.0237 71.7527 55.8698 71.5202C55.7159 71.2877 55.4081 71.5977 55.1772 71.7527C54.5616 72.2952 53.869 72.8376 53.1764 73.2251C50.6368 74.775 47.4817 75.4725 44.5573 74.8525C42.4026 74.3876 40.5556 73.1476 39.6322 71.0552C38.9396 69.5828 38.7857 67.9554 38.7857 66.4055V57.1835V51.9137V50.1313C38.7857 49.9763 38.8626 49.5113 38.7857 49.3563C38.6318 49.1239 37.7083 48.8914 37.4774 48.7364C36.7079 48.4264 36.0922 48.1939 35.4766 47.8839ZM108.046 44.9391C108.2 44.9391 108.892 44.9391 108.969 45.0941C109.046 45.1716 108.969 45.714 108.969 45.7915V52.6112C108.969 52.8437 108.892 53.2312 108.969 53.4636V53.6186C109.277 53.9286 109.354 52.9212 109.431 52.8437C110.124 49.9763 111.432 46.644 114.356 45.4816C114.895 45.2491 115.434 45.1716 115.972 45.0941C116.434 45.0941 117.742 44.9391 117.973 45.3266C118.05 45.4815 117.973 45.869 117.973 46.024V53.9286C116.126 53.5411 114.048 53.6186 112.278 54.0061C111.432 54.1611 110.662 54.3936 109.893 54.7811C109.508 54.9361 109.431 54.8586 109.354 55.1686C109.277 55.4785 109.354 56.021 109.354 56.331V71.2877C109.354 71.4427 109.277 71.6752 109.354 71.8302C109.508 72.0627 110.047 72.2177 110.277 72.2952C110.662 72.5277 111.124 72.7601 111.509 72.9926C111.663 73.0701 111.894 73.1476 111.971 73.3026C112.047 73.3801 112.047 74.3101 111.971 74.3876C111.894 74.4651 111.432 74.3876 111.278 74.3876H98.5033C98.1185 74.3876 97.4259 74.5426 97.1181 74.3876H96.8872C96.8102 74.3101 96.8872 73.4576 96.8872 73.3801C97.0411 72.9151 98.0415 72.6052 98.5033 72.3727C98.8111 72.2177 99.4268 71.9852 99.5807 71.6752C99.6576 71.5202 99.5807 71.0552 99.5807 70.9002V69.2728V49.3563C99.5807 49.2789 99.6576 48.8914 99.5807 48.8139C99.5037 48.7364 99.1189 48.6589 98.965 48.6589C98.5033 48.5039 98.0415 48.3489 97.5798 48.2714C97.1181 48.1164 95.9637 48.0389 96.3485 47.264C96.4255 47.0315 96.7333 47.109 97.0411 47.0315C100.427 46.4115 103.736 45.7915 107.122 45.1716C107.43 45.0166 107.738 45.0166 108.046 44.9391ZM137.058 45.6365V39.4369V37.6544C137.058 37.422 137.135 36.957 137.058 36.7245C136.981 36.5695 136.673 36.492 136.442 36.4145C135.827 36.182 135.211 35.9495 134.519 35.7171C134.057 35.5621 133.826 35.6396 133.826 35.0971C133.826 34.6321 133.749 34.7871 134.134 34.7096C134.98 34.3996 135.981 34.3996 136.827 34.2446C139.367 33.7797 141.829 33.3147 144.369 32.8497C144.908 32.7722 145.446 32.6172 145.985 32.6947C146.601 32.7722 146.678 32.6172 146.678 33.1597C146.754 34.3996 146.678 35.7171 146.678 36.957V70.9002C146.678 71.2102 146.601 71.2102 146.831 71.3652C147.293 71.6752 148.063 71.8302 148.524 71.9852C148.832 72.0627 149.679 72.2177 149.833 72.4502C149.91 72.5277 149.91 73.3801 149.833 73.4576C149.756 73.5351 149.294 73.5351 149.217 73.5351C148.14 73.6901 147.139 73.8451 146.062 73.9226C143.676 74.2326 141.291 74.5426 138.828 74.8525C138.443 74.93 137.52 75.085 137.366 74.775C137.212 74.4651 137.366 73.4576 137.366 73.1476C137.366 72.9151 137.52 71.9077 137.366 71.7527C137.212 71.5977 135.519 73.1476 135.288 73.3026C134.365 73.9226 133.364 74.3876 132.287 74.6976C130.594 75.1625 128.67 75.1625 126.977 74.775C119.589 73.0701 118.05 64.2356 118.666 57.8034C118.973 54.3936 120.051 50.9838 122.36 48.5039C124.514 46.2565 127.439 45.0941 130.44 44.8616C132.749 44.6291 134.98 44.7841 137.058 45.6365ZM137.058 70.3578V51.2938V47.7289C137.058 47.264 136.981 47.1865 136.442 46.8765C135.365 46.2565 133.98 46.024 132.826 46.489C131.056 47.1865 130.209 49.2789 129.747 50.9838C128.824 54.0836 128.747 57.4159 128.824 60.6708C128.901 63.4606 128.978 66.8705 130.517 69.3503C131.902 71.5202 135.057 72.0627 137.058 70.3578ZM162.53 44.9391C162.915 45.0166 163.377 44.8616 163.531 45.2491C163.608 45.4816 163.531 46.024 163.531 46.2565V70.5128C163.531 70.8227 163.454 71.2877 163.531 71.5977C163.608 71.9077 163.916 71.9852 164.223 72.1402C164.685 72.3727 165.07 72.6052 165.532 72.8376C165.686 72.9151 166.147 73.0701 166.224 73.3026C166.224 73.3801 166.301 74.3101 166.224 74.3876H165.993C165.532 74.4651 164.916 74.3876 164.377 74.3876H152.68C152.372 74.3876 151.526 74.5426 151.295 74.3876C151.141 74.3101 151.064 73.3801 151.218 73.2251C151.372 72.9926 151.911 72.8376 152.141 72.7602C152.603 72.5277 153.065 72.2177 153.527 71.9852C153.911 71.7527 153.834 71.8302 153.834 71.5202C153.988 70.3578 153.834 69.0403 153.834 67.8779V61.7557V50.5963C153.834 50.2863 153.911 49.7438 153.834 49.4338C153.757 49.1239 153.373 49.1239 153.065 48.9689C152.526 48.7364 152.064 48.5814 151.526 48.3489C151.372 48.2714 150.756 48.1939 150.602 47.9614C150.525 47.8839 150.525 47.109 150.602 47.0315C150.679 46.954 150.833 47.0315 150.91 46.954C151.526 46.7215 152.218 46.7215 152.911 46.5665C153.911 46.4115 154.835 46.179 155.835 46.024C157.759 45.714 159.606 45.3266 161.53 45.0166C161.915 45.0941 162.223 45.0166 162.53 44.9391ZM163.608 37.7319C163.454 42.3817 157.22 44.3966 154.373 40.7543C153.065 39.0494 152.988 36.7245 154.142 34.9421C155.297 33.1597 157.528 32.3847 159.606 32.8497C161.915 33.3147 163.608 35.3296 163.608 37.7319ZM197.314 71.7527V53.0762V49.5113C197.314 49.4338 197.391 49.0464 197.314 48.9689C197.237 48.8139 196.776 48.7364 196.622 48.7364L195.237 48.2714C195.006 48.1939 194.39 48.1164 194.236 47.8839C194.082 47.7289 194.159 47.3415 194.159 47.109C194.159 46.644 194.313 46.7215 194.775 46.644L199.854 45.714L204.933 44.7841C205.241 44.7066 205.472 44.6291 205.779 44.6291C205.933 44.6291 206.703 44.6291 206.857 44.7066C206.934 44.7841 206.857 45.2491 206.857 45.4041V46.8765C206.857 47.109 206.703 47.8064 206.857 48.0389C207.011 48.3489 207.319 48.0389 207.549 47.8064C208.242 47.264 208.935 46.799 209.704 46.4115C212.475 44.8616 215.784 44.1641 218.939 44.6291C221.094 44.9391 222.864 46.1015 223.633 48.1939C224.172 49.6663 224.249 51.2163 224.249 52.7662V70.4353C224.249 70.7453 224.172 71.2877 224.249 71.5977C224.326 71.9077 224.557 71.9852 224.941 72.1402C225.326 72.3727 225.788 72.6052 226.173 72.8376C226.327 72.9151 226.865 73.0701 226.942 73.3026C227.019 73.4576 227.019 74.2326 226.942 74.3101C226.865 74.4651 227.019 74.3101 226.788 74.3876C226.481 74.5426 225.788 74.3876 225.403 74.3876H214.399C213.937 74.3876 212.167 74.6201 211.936 74.3101C211.859 74.2326 211.859 73.3801 211.936 73.2251C212.013 73.0701 212.475 72.9151 212.629 72.8376C213.09 72.6052 213.475 72.3727 213.937 72.1402C214.091 72.0627 214.552 71.9077 214.629 71.7527C214.706 71.5977 214.629 71.2877 214.629 71.1327V69.4278V64.0031V53.5411C214.629 52.3012 214.706 50.9063 213.937 49.8213C213.321 48.8914 212.244 48.6589 211.166 48.5814C210.32 48.5814 209.55 48.6589 208.781 48.8914C208.396 49.0464 207.242 49.3564 207.011 49.8213C206.934 49.9763 207.011 50.2863 207.011 50.4413V70.5128C207.011 70.7453 206.934 71.2877 207.011 71.5202C207.088 71.8302 207.549 71.9077 207.78 72.0627C208.165 72.2952 208.627 72.5277 209.012 72.7602C209.166 72.8376 209.473 72.9926 209.55 73.0701C209.627 73.1476 209.627 74.0776 209.55 74.1551C209.55 74.2326 209.473 74.1551 209.396 74.1551C209.089 74.3101 208.319 74.1551 208.011 74.1551H195.083C194.698 74.1551 194.621 74.2326 194.544 74.0001C194.467 73.8451 194.467 73.1476 194.544 72.9926C194.621 72.8376 195.083 72.6827 195.237 72.6052C196.006 72.5277 196.622 72.1402 197.314 71.7527ZM181 57.4934C181 55.4785 181.077 53.3861 180.923 51.2938C180.692 49.0464 180.076 46.5665 177.537 46.1015C176.767 45.9465 175.382 45.714 174.843 46.334C174.305 46.8765 173.92 47.6514 173.458 48.2714L169.533 53.6186C169.303 53.9286 169.072 54.5486 168.764 54.7036C168.687 54.7811 167.917 54.7811 167.917 54.7036C167.84 54.6261 167.917 54.0836 167.917 53.9286V47.6514C167.917 47.4189 167.84 47.0315 167.917 46.799C168.071 46.4115 169.764 46.179 170.149 46.024C172.304 45.4816 174.535 45.0941 176.767 44.9391C179.922 44.7066 183.462 44.7841 186.387 46.179C188.695 47.264 190.158 49.2014 190.542 51.6812C190.773 52.9212 190.696 54.3161 190.696 55.556V71.0552C190.696 71.2877 190.542 71.9077 190.696 72.0627C190.773 72.1402 191.158 72.2177 191.235 72.2177C191.851 72.3727 192.389 72.5277 193.005 72.6827C193.39 72.7602 193.467 72.7602 193.467 73.1476C193.467 73.5351 193.544 73.5351 193.082 73.6901C192.543 73.9226 192.004 74.1551 191.466 74.3101C188.618 75.1625 184.155 75.395 182.077 72.7602C181.923 72.5277 181.462 71.5202 181.231 71.4427C180.923 71.3652 179.999 72.6052 179.692 72.8376C178.46 73.9226 176.844 74.5426 175.228 74.775C172.227 75.1625 168.995 74.5426 167.148 71.9077C165.609 69.6603 165.301 66.173 166.455 63.6931C168.533 58.9659 174.689 58.5009 179.153 57.7259C179.692 57.7259 180.307 57.5709 181 57.4934ZM181 70.3578V58.8884C178.691 59.0434 176.305 59.1983 175.459 61.7557C174.843 63.4606 174.843 65.4755 175.074 67.2579C175.228 68.4979 175.536 70.0478 176.69 70.8228C177.922 71.6752 179.999 71.5202 181 70.3578ZM83.5739 57.4934C83.5739 55.4785 83.6508 53.3861 83.4969 51.2938C83.266 49.0464 82.6504 46.5665 80.1109 46.1015C79.3413 45.9465 77.9561 45.714 77.4174 46.334C76.8787 46.8765 76.4939 47.6514 76.0322 48.2714L72.1075 53.6186C71.8766 53.9286 71.6457 54.5486 71.3379 54.7036C71.261 54.7811 70.4914 54.7811 70.4914 54.7036C70.4145 54.6261 70.4914 54.0836 70.4914 53.9286V47.7289C70.4914 47.4964 70.4145 47.109 70.4914 46.8765C70.6453 46.489 72.2614 46.2565 72.7231 46.1015C74.8779 45.559 77.1096 45.1716 79.2644 45.0166C82.4195 44.7841 85.9595 44.8616 88.8838 46.2565C91.1925 47.3415 92.6546 49.2789 93.0394 51.7587C93.2703 52.9987 93.1933 54.3936 93.1933 55.6335V71.1327C93.1933 71.3652 93.0394 71.9852 93.1933 72.1402C93.2703 72.2177 93.6551 72.2952 93.732 72.2952C94.3477 72.4502 94.8864 72.6052 95.502 72.7602C95.8868 72.8376 95.9637 72.8376 95.9637 73.2251C95.9637 73.6126 96.0407 73.6126 95.579 73.7676C95.0403 74.0001 94.5016 74.2326 93.9629 74.3876C91.1155 75.24 86.6521 75.4725 84.5743 72.8376C84.4204 72.6052 83.9586 71.5977 83.7278 71.5202C83.42 71.4427 82.4965 72.6827 82.2656 72.9151C81.0343 74.0001 79.4183 74.6201 77.8022 74.8525C74.8009 75.24 71.5688 74.6201 69.7218 71.9852C68.1827 69.7378 67.8749 66.2505 69.0292 63.7706C71.107 59.0434 77.2635 58.5784 81.65 57.8034C82.2656 57.7259 82.8813 57.5709 83.5739 57.4934ZM83.5739 70.3578V58.8884C81.2652 59.0434 78.8796 59.1983 78.0331 61.7557C77.4174 63.4606 77.4174 65.4755 77.6483 67.2579C77.8022 68.4979 78.11 70.0478 79.2644 70.8228C80.4956 71.6752 82.5734 71.5202 83.5739 70.3578Z" fill="#817FED"/>
</mask>
<g mask="url(#mask0)">
<path d="M51.5603 40.0568C52.3299 39.6693 53.1764 39.2044 53.9459 38.8169C54.2538 38.6619 55.3311 38.2744 55.485 37.9644C55.562 37.8094 55.485 37.3445 55.485 37.112V35.2521V22.0003V9.05842V7.35351C55.485 7.27601 55.562 6.73354 55.485 6.65605C55.4081 6.57855 54.7924 6.65605 54.7155 6.65605H53.0225C52.4068 6.65605 52.4838 6.73354 52.099 7.19852C50.6368 9.13592 49.1747 11.0733 47.7125 13.0882C47.0199 14.0182 46.3273 14.8706 45.7117 15.8006C45.2499 16.4205 45.2499 16.498 44.4034 16.498L44.6343 11.3833C44.7113 10.1434 44.7113 8.90343 44.7882 7.66349C44.7882 7.19852 44.8652 6.73354 44.8652 6.26857C44.8652 6.11357 44.7882 5.6486 44.8652 5.5711C45.0191 5.33861 46.4043 5.49361 46.7891 5.49361H75.5705C75.7244 5.49361 76.417 5.41611 76.5709 5.49361C76.7248 5.5711 76.6479 6.03608 76.6479 6.26857C76.7248 7.27601 76.7248 8.36096 76.8018 9.36841C76.8787 11.6158 76.9557 13.7857 77.1096 16.0331V16.498C76.7248 16.498 76.417 16.5755 76.1092 16.3431C75.8013 16.1106 75.5705 15.6456 75.3396 15.3356C74.4161 14.0957 73.4927 12.7782 72.4922 11.5383L69.7218 7.81849C69.5679 7.586 69.3371 7.04353 69.0292 6.88853C68.7984 6.73354 68.3366 6.81104 68.0288 6.81104H66.7975C66.6436 6.81104 66.028 6.73354 65.8741 6.81104C65.7971 6.88854 65.8741 6.88854 65.7971 7.04353C65.6432 7.6635 65.7971 8.43845 65.7971 9.05842V36.027C65.7971 36.5695 65.6432 37.3445 65.7971 37.8869C65.951 38.4294 67.1823 38.8169 67.721 39.0494C68.2597 39.3594 69.1832 39.5919 69.6449 40.0568C69.7988 40.2118 69.9527 40.9868 69.7988 41.2193C69.7218 41.2968 69.3371 41.2193 69.2601 41.2193H52.3299C52.176 41.2193 51.6373 41.2968 51.5603 41.2193C51.4834 40.9093 51.5603 40.2893 51.5603 40.0568ZM80.1109 38.6619V27.3475V8.82593V5.80359C80.1109 5.33861 80.2648 4.64115 80.1109 4.17617C79.957 3.6337 79.0335 3.55621 78.4948 3.32372C78.187 3.24622 77.1865 3.01373 77.0326 2.70375V2.08378H77.2635C77.5713 1.92879 78.187 1.92879 78.5717 1.85129C79.2644 1.6963 79.957 1.61881 80.5726 1.46381C82.1117 1.15383 83.7278 0.843845 85.2669 0.611357C86.1904 0.456365 87.1138 0.223877 88.0373 0.0688853C88.2682 0.0688853 89.1916 -0.0861067 89.2686 0.0688853C89.3456 0.146381 89.2686 0.456365 89.2686 0.533861V16.5755C92.1929 13.6307 97.272 12.0033 101.351 13.0107C104.891 13.8632 106.045 17.1955 106.045 20.6053C106.122 24.9451 106.045 29.2074 106.045 33.5472V37.0345C106.045 37.422 105.891 38.3519 106.045 38.7394C106.122 38.8944 106.43 38.9719 106.584 39.1269C107.122 39.4369 107.738 39.7468 108.277 40.0568C108.354 40.1343 108.584 40.2118 108.584 40.2893C108.661 40.3668 108.661 41.0643 108.584 41.1418C108.508 41.2968 108.508 41.2193 108.277 41.2193C107.43 41.3743 106.507 41.2193 105.737 41.2193H94.6555C94.5785 41.2193 94.1937 41.2968 94.1168 41.2193C94.0398 41.1418 94.0398 40.2893 94.1168 40.2118C94.3477 39.9018 95.2711 39.5919 95.579 39.3594C95.8098 39.2044 96.5024 38.9719 96.6563 38.7394C96.8102 38.5069 96.6563 37.6545 96.6563 37.422V34.2446C96.6563 29.7499 96.7333 25.1776 96.6563 20.6828C96.6563 19.3654 96.4255 17.8155 95.1172 17.118C94.4246 16.7305 93.5012 16.653 92.7316 16.653C92.116 16.653 91.5003 16.808 90.9616 16.963C90.4999 17.118 89.6534 17.428 89.3455 17.8155C89.1147 18.1255 89.2686 18.5904 89.2686 18.9779V37.267C89.2686 37.6544 89.1147 38.4294 89.2686 38.7394C89.3456 38.8944 89.6534 39.0494 89.8842 39.1269C90.4229 39.4369 91.1155 39.7468 91.6542 40.0568C91.7312 40.1343 91.8851 40.1343 91.8851 40.2118C91.962 40.2893 91.962 40.9868 91.8851 41.0643C91.8081 41.1418 91.7312 41.1418 91.5773 41.1418C90.7308 41.2193 89.8073 41.1418 88.9608 41.1418H77.8792C77.8022 41.1418 77.4174 41.2193 77.3405 41.1418C77.2635 41.0643 77.3405 40.2893 77.4174 40.1343C77.6483 39.8243 78.4948 39.5144 78.8026 39.3594C79.3413 39.1269 79.7261 38.8944 80.1109 38.6619ZM116.665 27.9674C116.819 31.3773 117.896 35.1746 120.974 37.0345C122.59 37.9644 124.591 38.2744 126.438 38.1194C128.67 37.8869 130.517 36.802 132.441 35.7945C132.441 36.1045 132.518 36.647 132.441 36.957C132.287 37.267 131.902 37.6545 131.671 37.8869C131.363 38.1969 130.979 38.5844 130.594 38.8944C129.286 39.9793 127.823 40.7543 126.284 41.2968C123.36 42.3042 119.974 42.2267 116.973 41.4518C114.587 40.8318 112.432 39.6693 110.816 37.8094C109.2 35.9495 108.277 33.5472 107.892 31.0673C107.045 25.7201 108.046 19.5979 112.432 16.0331C116.28 12.9332 122.436 12.3133 126.977 14.1732C132.518 16.4205 133.441 22.7752 133.441 28.0449H118.743C118.05 27.9675 117.357 27.9674 116.665 27.9674ZM116.511 26.65C118.05 26.5725 119.589 26.495 121.205 26.34C122.129 26.2625 123.129 26.2625 124.053 26.185C124.206 26.185 124.591 26.185 124.745 26.1075C124.976 25.9526 124.822 24.4026 124.822 24.0927C124.745 21.3028 124.668 17.893 123.052 15.4906C121.898 13.7857 120.128 14.0957 119.05 15.6456C116.819 18.6679 116.511 23.1627 116.511 26.65ZM0 54.9361C0 50.5963 0.846512 46.1015 3.23214 42.4592C5.54081 38.8944 9.23468 36.5695 13.2364 35.4071C18.0846 34.0121 23.4715 34.1671 28.4736 35.0971C29.551 35.3296 30.6284 35.5621 31.6288 35.872C31.7827 35.9495 32.4753 36.1045 32.5523 36.2595V36.492C32.7831 37.422 32.6292 38.5844 32.6292 39.5144C32.7062 41.9167 32.7062 44.3966 32.7831 46.799C32.4753 46.799 31.9366 46.8765 31.7057 46.799C31.5518 46.7215 31.3979 46.334 31.321 46.179C30.7053 45.2491 30.0897 44.3191 29.551 43.3117C28.2427 41.2193 26.8575 39.1269 25.5493 37.0345C24.8567 35.872 22.9328 35.872 21.7015 35.872C20.3163 35.872 18.9311 36.1045 17.7768 36.802C15.1603 38.4294 13.929 41.6068 13.2364 44.4741C12.159 49.0464 12.236 53.8511 12.4668 58.5009C12.6977 62.0657 13.0055 65.863 14.3907 69.1178C15.2372 71.1327 16.6994 72.9151 18.9311 73.3801C19.6237 73.5351 20.3163 73.5351 21.0859 73.4576C21.5476 73.3801 23.1637 73.3026 23.3945 72.8376C23.4715 72.6827 23.3945 72.2952 23.3945 72.1402V70.8228V62.6082V59.4308C23.3945 58.8884 23.5484 58.6559 23.0867 58.3459C22.548 58.0359 21.9324 57.7259 21.3937 57.3384C21.0089 57.106 20.2393 56.8735 20.0085 56.5635C19.8546 56.4085 19.7776 55.556 19.9315 55.401C20.0085 55.2461 20.0085 55.3235 20.2393 55.3235C20.9319 55.1686 21.8554 55.3235 22.548 55.3235H34.4761C35.2457 55.3235 36.0922 55.2461 36.8618 55.3235H37.1696C37.2465 55.401 37.2465 56.486 37.1696 56.641C37.0157 56.8735 36.2461 57.1835 35.9383 57.3384C35.3996 57.6484 34.784 57.9584 34.2453 58.3459C33.6296 58.6559 33.7066 58.6559 33.7066 59.3533V71.9852C33.7066 72.1402 33.7835 72.5277 33.7066 72.6827C33.5527 73.0701 31.9366 73.3026 31.4749 73.4576C30.1666 73.8451 28.7814 74.1551 27.3962 74.3876C24.7028 74.8525 22.0093 75.0075 19.3159 74.93C15.0064 74.775 10.466 73.8451 6.92601 71.2102C3.84778 68.9628 1.84694 65.553 0.923468 61.8332C0.230867 59.6633 0 57.2609 0 54.9361ZM35.4766 47.8839C35.4766 47.7289 35.3996 47.109 35.4766 47.0315C35.5535 46.954 35.6305 47.0315 35.7074 46.954C36.1692 46.7215 36.7848 46.7215 37.3235 46.644C39.0935 46.334 40.8635 46.024 42.7104 45.714C44.0956 45.4815 45.4808 45.1716 46.7891 45.0166C47.1738 44.9391 47.6356 44.9391 48.0203 45.0941C48.4051 45.1716 48.2512 45.0941 48.3282 45.4041C48.4821 46.334 48.3282 47.419 48.3282 48.3489V64.5456C48.3282 66.483 47.7895 70.0478 49.6364 71.2102C50.5599 71.8302 51.8681 71.8302 52.9455 71.5977C53.792 71.4427 55.4081 70.8227 55.7159 69.8928C55.7929 69.6603 55.7159 69.3503 55.7159 69.1178V67.4904V56.7185V51.7587V50.1313C55.7159 49.9763 55.7929 49.5113 55.7159 49.3563C55.485 49.1239 54.7155 48.8914 54.4846 48.8139C54.0229 48.6589 53.6381 48.4264 53.1764 48.2714C53.0225 48.1939 52.4838 48.1164 52.4068 47.9614C52.3299 47.8839 52.3299 47.1865 52.4068 47.109C52.4838 47.0315 52.4838 47.109 52.5607 47.0315C52.9455 46.799 53.6381 46.8765 54.0229 46.799C57.1781 46.2565 60.4102 45.559 63.6423 45.0941C64.0271 45.0166 64.4119 45.0166 64.7967 45.0941C65.1815 45.1716 65.0275 45.0166 65.1045 45.4041C65.2584 46.179 65.1045 47.264 65.1045 48.1164V70.4353C65.1045 70.6678 65.0275 71.0552 65.1045 71.3652C65.1815 71.5977 65.1045 71.5202 65.4893 71.6752C66.2588 71.9852 67.1054 72.3727 67.8749 72.6827C68.1058 72.7602 68.1827 72.7601 68.2597 72.9151C68.3366 73.0701 68.3366 73.6126 68.2597 73.6126C68.1058 73.7676 67.3362 73.6901 67.1823 73.7676C65.4893 74.0001 63.7963 74.1551 62.0263 74.3876C60.4872 74.5426 58.9481 74.775 57.4859 74.93C57.1781 75.0075 56.8703 75.0075 56.5624 74.93C56.4085 74.93 55.9468 74.93 55.8698 74.8525C55.7929 74.6975 55.8698 74.0776 55.8698 73.9226V72.6052C55.8698 72.3727 56.0237 71.7527 55.8698 71.5202C55.7159 71.2877 55.4081 71.5977 55.1772 71.7527C54.5616 72.2952 53.869 72.8376 53.1764 73.2251C50.6368 74.775 47.4817 75.4725 44.5573 74.8525C42.4026 74.3876 40.5556 73.1476 39.6322 71.0552C38.9396 69.5828 38.7857 67.9554 38.7857 66.4055V57.1835V51.9137V50.1313C38.7857 49.9763 38.8626 49.5113 38.7857 49.3563C38.6318 49.1239 37.7083 48.8914 37.4774 48.7364C36.7079 48.4264 36.0922 48.1939 35.4766 47.8839ZM108.046 44.9391C108.2 44.9391 108.892 44.9391 108.969 45.0941C109.046 45.1716 108.969 45.714 108.969 45.7915V52.6112C108.969 52.8437 108.892 53.2312 108.969 53.4636V53.6186C109.277 53.9286 109.354 52.9212 109.431 52.8437C110.124 49.9763 111.432 46.644 114.356 45.4816C114.895 45.2491 115.434 45.1716 115.972 45.0941C116.434 45.0941 117.742 44.9391 117.973 45.3266C118.05 45.4815 117.973 45.869 117.973 46.024V53.9286C116.126 53.5411 114.048 53.6186 112.278 54.0061C111.432 54.1611 110.662 54.3936 109.893 54.7811C109.508 54.9361 109.431 54.8586 109.354 55.1686C109.277 55.4785 109.354 56.021 109.354 56.331V71.2877C109.354 71.4427 109.277 71.6752 109.354 71.8302C109.508 72.0627 110.047 72.2177 110.277 72.2952C110.662 72.5277 111.124 72.7601 111.509 72.9926C111.663 73.0701 111.894 73.1476 111.971 73.3026C112.047 73.3801 112.047 74.3101 111.971 74.3876C111.894 74.4651 111.432 74.3876 111.278 74.3876H98.5033C98.1185 74.3876 97.4259 74.5426 97.1181 74.3876H96.8872C96.8102 74.3101 96.8872 73.4576 96.8872 73.3801C97.0411 72.9151 98.0415 72.6052 98.5033 72.3727C98.8111 72.2177 99.4268 71.9852 99.5807 71.6752C99.6576 71.5202 99.5807 71.0552 99.5807 70.9002V69.2728V49.3563C99.5807 49.2789 99.6576 48.8914 99.5807 48.8139C99.5037 48.7364 99.1189 48.6589 98.965 48.6589C98.5033 48.5039 98.0415 48.3489 97.5798 48.2714C97.1181 48.1164 95.9637 48.0389 96.3485 47.264C96.4255 47.0315 96.7333 47.109 97.0411 47.0315C100.427 46.4115 103.736 45.7915 107.122 45.1716C107.43 45.0166 107.738 45.0166 108.046 44.9391ZM137.058 45.6365V39.4369V37.6544C137.058 37.422 137.135 36.957 137.058 36.7245C136.981 36.5695 136.673 36.492 136.442 36.4145C135.827 36.182 135.211 35.9495 134.519 35.7171C134.057 35.5621 133.826 35.6396 133.826 35.0971C133.826 34.6321 133.749 34.7871 134.134 34.7096C134.98 34.3996 135.981 34.3996 136.827 34.2446C139.367 33.7797 141.829 33.3147 144.369 32.8497C144.908 32.7722 145.446 32.6172 145.985 32.6947C146.601 32.7722 146.678 32.6172 146.678 33.1597C146.754 34.3996 146.678 35.7171 146.678 36.957V70.9002C146.678 71.2102 146.601 71.2102 146.831 71.3652C147.293 71.6752 148.063 71.8302 148.524 71.9852C148.832 72.0627 149.679 72.2177 149.833 72.4502C149.91 72.5277 149.91 73.3801 149.833 73.4576C149.756 73.5351 149.294 73.5351 149.217 73.5351C148.14 73.6901 147.139 73.8451 146.062 73.9226C143.676 74.2326 141.291 74.5426 138.828 74.8525C138.443 74.93 137.52 75.085 137.366 74.775C137.212 74.4651 137.366 73.4576 137.366 73.1476C137.366 72.9151 137.52 71.9077 137.366 71.7527C137.212 71.5977 135.519 73.1476 135.288 73.3026C134.365 73.9226 133.364 74.3876 132.287 74.6976C130.594 75.1625 128.67 75.1625 126.977 74.775C119.589 73.0701 118.05 64.2356 118.666 57.8034C118.973 54.3936 120.051 50.9838 122.36 48.5039C124.514 46.2565 127.439 45.0941 130.44 44.8616C132.749 44.6291 134.98 44.7841 137.058 45.6365ZM137.058 70.3578V51.2938V47.7289C137.058 47.264 136.981 47.1865 136.442 46.8765C135.365 46.2565 133.98 46.024 132.826 46.489C131.056 47.1865 130.209 49.2789 129.747 50.9838C128.824 54.0836 128.747 57.4159 128.824 60.6708C128.901 63.4606 128.978 66.8705 130.517 69.3503C131.902 71.5202 135.057 72.0627 137.058 70.3578ZM162.53 44.9391C162.915 45.0166 163.377 44.8616 163.531 45.2491C163.608 45.4816 163.531 46.024 163.531 46.2565V70.5128C163.531 70.8227 163.454 71.2877 163.531 71.5977C163.608 71.9077 163.916 71.9852 164.223 72.1402C164.685 72.3727 165.07 72.6052 165.532 72.8376C165.686 72.9151 166.147 73.0701 166.224 73.3026C166.224 73.3801 166.301 74.3101 166.224 74.3876H165.993C165.532 74.4651 164.916 74.3876 164.377 74.3876H152.68C152.372 74.3876 151.526 74.5426 151.295 74.3876C151.141 74.3101 151.064 73.3801 151.218 73.2251C151.372 72.9926 151.911 72.8376 152.141 72.7602C152.603 72.5277 153.065 72.2177 153.527 71.9852C153.911 71.7527 153.834 71.8302 153.834 71.5202C153.988 70.3578 153.834 69.0403 153.834 67.8779V61.7557V50.5963C153.834 50.2863 153.911 49.7438 153.834 49.4338C153.757 49.1239 153.373 49.1239 153.065 48.9689C152.526 48.7364 152.064 48.5814 151.526 48.3489C151.372 48.2714 150.756 48.1939 150.602 47.9614C150.525 47.8839 150.525 47.109 150.602 47.0315C150.679 46.954 150.833 47.0315 150.91 46.954C151.526 46.7215 152.218 46.7215 152.911 46.5665C153.911 46.4115 154.835 46.179 155.835 46.024C157.759 45.714 159.606 45.3266 161.53 45.0166C161.915 45.0941 162.223 45.0166 162.53 44.9391ZM163.608 37.7319C163.454 42.3817 157.22 44.3966 154.373 40.7543C153.065 39.0494 152.988 36.7245 154.142 34.9421C155.297 33.1597 157.528 32.3847 159.606 32.8497C161.915 33.3147 163.608 35.3296 163.608 37.7319ZM197.314 71.7527V53.0762V49.5113C197.314 49.4338 197.391 49.0464 197.314 48.9689C197.237 48.8139 196.776 48.7364 196.622 48.7364L195.237 48.2714C195.006 48.1939 194.39 48.1164 194.236 47.8839C194.082 47.7289 194.159 47.3415 194.159 47.109C194.159 46.644 194.313 46.7215 194.775 46.644L199.854 45.714L204.933 44.7841C205.241 44.7066 205.472 44.6291 205.779 44.6291C205.933 44.6291 206.703 44.6291 206.857 44.7066C206.934 44.7841 206.857 45.2491 206.857 45.4041V46.8765C206.857 47.109 206.703 47.8064 206.857 48.0389C207.011 48.3489 207.319 48.0389 207.549 47.8064C208.242 47.264 208.935 46.799 209.704 46.4115C212.475 44.8616 215.784 44.1641 218.939 44.6291C221.094 44.9391 222.864 46.1015 223.633 48.1939C224.172 49.6663 224.249 51.2163 224.249 52.7662V70.4353C224.249 70.7453 224.172 71.2877 224.249 71.5977C224.326 71.9077 224.557 71.9852 224.941 72.1402C225.326 72.3727 225.788 72.6052 226.173 72.8376C226.327 72.9151 226.865 73.0701 226.942 73.3026C227.019 73.4576 227.019 74.2326 226.942 74.3101C226.865 74.4651 227.019 74.3101 226.788 74.3876C226.481 74.5426 225.788 74.3876 225.403 74.3876H214.399C213.937 74.3876 212.167 74.6201 211.936 74.3101C211.859 74.2326 211.859 73.3801 211.936 73.2251C212.013 73.0701 212.475 72.9151 212.629 72.8376C213.09 72.6052 213.475 72.3727 213.937 72.1402C214.091 72.0627 214.552 71.9077 214.629 71.7527C214.706 71.5977 214.629 71.2877 214.629 71.1327V69.4278V64.0031V53.5411C214.629 52.3012 214.706 50.9063 213.937 49.8213C213.321 48.8914 212.244 48.6589 211.166 48.5814C210.32 48.5814 209.55 48.6589 208.781 48.8914C208.396 49.0464 207.242 49.3564 207.011 49.8213C206.934 49.9763 207.011 50.2863 207.011 50.4413V70.5128C207.011 70.7453 206.934 71.2877 207.011 71.5202C207.088 71.8302 207.549 71.9077 207.78 72.0627C208.165 72.2952 208.627 72.5277 209.012 72.7602C209.166 72.8376 209.473 72.9926 209.55 73.0701C209.627 73.1476 209.627 74.0776 209.55 74.1551C209.55 74.2326 209.473 74.1551 209.396 74.1551C209.089 74.3101 208.319 74.1551 208.011 74.1551H195.083C194.698 74.1551 194.621 74.2326 194.544 74.0001C194.467 73.8451 194.467 73.1476 194.544 72.9926C194.621 72.8376 195.083 72.6827 195.237 72.6052C196.006 72.5277 196.622 72.1402 197.314 71.7527ZM181 57.4934C181 55.4785 181.077 53.3861 180.923 51.2938C180.692 49.0464 180.076 46.5665 177.537 46.1015C176.767 45.9465 175.382 45.714 174.843 46.334C174.305 46.8765 173.92 47.6514 173.458 48.2714L169.533 53.6186C169.303 53.9286 169.072 54.5486 168.764 54.7036C168.687 54.7811 167.917 54.7811 167.917 54.7036C167.84 54.6261 167.917 54.0836 167.917 53.9286V47.6514C167.917 47.4189 167.84 47.0315 167.917 46.799C168.071 46.4115 169.764 46.179 170.149 46.024C172.304 45.4816 174.535 45.0941 176.767 44.9391C179.922 44.7066 183.462 44.7841 186.387 46.179C188.695 47.264 190.158 49.2014 190.542 51.6812C190.773 52.9212 190.696 54.3161 190.696 55.556V71.0552C190.696 71.2877 190.542 71.9077 190.696 72.0627C190.773 72.1402 191.158 72.2177 191.235 72.2177C191.851 72.3727 192.389 72.5277 193.005 72.6827C193.39 72.7602 193.467 72.7602 193.467 73.1476C193.467 73.5351 193.544 73.5351 193.082 73.6901C192.543 73.9226 192.004 74.1551 191.466 74.3101C188.618 75.1625 184.155 75.395 182.077 72.7602C181.923 72.5277 181.462 71.5202 181.231 71.4427C180.923 71.3652 179.999 72.6052 179.692 72.8376C178.46 73.9226 176.844 74.5426 175.228 74.775C172.227 75.1625 168.995 74.5426 167.148 71.9077C165.609 69.6603 165.301 66.173 166.455 63.6931C168.533 58.9659 174.689 58.5009 179.153 57.7259C179.692 57.7259 180.307 57.5709 181 57.4934ZM181 70.3578V58.8884C178.691 59.0434 176.305 59.1983 175.459 61.7557C174.843 63.4606 174.843 65.4755 175.074 67.2579C175.228 68.4979 175.536 70.0478 176.69 70.8228C177.922 71.6752 179.999 71.5202 181 70.3578ZM83.5739 57.4934C83.5739 55.4785 83.6508 53.3861 83.4969 51.2938C83.266 49.0464 82.6504 46.5665 80.1109 46.1015C79.3413 45.9465 77.9561 45.714 77.4174 46.334C76.8787 46.8765 76.4939 47.6514 76.0322 48.2714L72.1075 53.6186C71.8766 53.9286 71.6457 54.5486 71.3379 54.7036C71.261 54.7811 70.4914 54.7811 70.4914 54.7036C70.4145 54.6261 70.4914 54.0836 70.4914 53.9286V47.7289C70.4914 47.4964 70.4145 47.109 70.4914 46.8765C70.6453 46.489 72.2614 46.2565 72.7231 46.1015C74.8779 45.559 77.1096 45.1716 79.2644 45.0166C82.4195 44.7841 85.9595 44.8616 88.8838 46.2565C91.1925 47.3415 92.6546 49.2789 93.0394 51.7587C93.2703 52.9987 93.1933 54.3936 93.1933 55.6335V71.1327C93.1933 71.3652 93.0394 71.9852 93.1933 72.1402C93.2703 72.2177 93.6551 72.2952 93.732 72.2952C94.3477 72.4502 94.8864 72.6052 95.502 72.7602C95.8868 72.8376 95.9637 72.8376 95.9637 73.2251C95.9637 73.6126 96.0407 73.6126 95.579 73.7676C95.0403 74.0001 94.5016 74.2326 93.9629 74.3876C91.1155 75.24 86.6521 75.4725 84.5743 72.8376C84.4204 72.6052 83.9586 71.5977 83.7278 71.5202C83.42 71.4427 82.4965 72.6827 82.2656 72.9151C81.0343 74.0001 79.4183 74.6201 77.8022 74.8525C74.8009 75.24 71.5688 74.6201 69.7218 71.9852C68.1827 69.7378 67.8749 66.2505 69.0292 63.7706C71.107 59.0434 77.2635 58.5784 81.65 57.8034C82.2656 57.7259 82.8813 57.5709 83.5739 57.4934ZM83.5739 70.3578V58.8884C81.2652 59.0434 78.8796 59.1983 78.0331 61.7557C77.4174 63.4606 77.4174 65.4755 77.6483 67.2579C77.8022 68.4979 78.11 70.0478 79.2644 70.8228C80.4956 71.6752 82.5734 71.5202 83.5739 70.3578Z" fill="#817FED"/>
</g>
</svg>
