<svg width="100%" height="100%" viewBox="0 0 129 130" fill="none" xmlns="http://www.w3.org/2000/svg">
<path d="M64.4692 1.06653C62.9196 1.06653 59.896 1.22854 59.7727 1.23602C60.3587 1.3923 14.549 24.8944 14.549 24.6478C14.5349 24.7275 14.5133 24.7935 14.4715 24.8455C5.39026 35.9544 0 50.0667 0 65.5348C0 78.2832 3.71428 90.1573 10.1008 100.162C10.1439 100.139 26.3623 115.848 26.1637 117.386C36.876 125.31 50.121 130 64.467 130C69.4778 130 74.3455 129.408 79.03 128.329C78.9446 127.821 78.8671 127.313 78.7976 126.812L77.951 120.869C77.6961 119.243 76.3644 108.193 76.3644 108.193L76.36 108.16L77.7771 107.616C77.7771 107.616 79.6402 107.693 79.594 107.699C79.594 107.699 81.483 118.812 81.8114 120.74L82.1667 122.781C82.3041 123.603 82.4199 124.417 82.5893 125.262C82.7082 125.964 82.8139 126.637 82.9178 127.308C84.4458 126.848 85.9514 126.339 87.4284 125.774C87.2039 124.511 86.9596 123.209 86.9389 123.017L86.1777 118.496C85.1722 113.831 84.5312 110.372 84.0615 108.07C83.9946 107.739 83.8696 107.152 83.8696 107.152L85.3245 106.57L87.244 106.719C87.244 106.719 89.6926 117.435 90.3041 120.675L91.0023 124.281C92.3155 123.688 93.616 123.06 94.8786 122.38L94.4749 120.53C94.4317 120.351 94.3851 120.135 94.33 119.896C93.5077 116.276 91.3245 106.193 91.3245 106.193L93.0754 105.506L94.7857 105.747H94.794C94.794 105.747 96.9913 115.042 98.4172 120.332C100.866 118.812 103.212 117.143 105.424 115.319C105.424 115.319 125.839 84.7595 125.985 84.8604C127.899 78.76 128.935 72.2678 128.935 65.5344C128.934 29.9307 100.072 1.06653 64.4692 1.06653Z" fill="#B55482"/>
<path d="M80.6202 33.1607C80.6202 33.1607 72.5682 17.9769 69.2836 15.6978C66.003 13.4187 60.5955 11.9958 56.8469 12.4695C52.1007 13.0687 41.2454 18.8134 40.5238 19.0031C40.5291 19.0586 36.4794 24.0539 35.4219 29.1985C35.1868 30.3418 31.0195 48.569 31.0195 48.569L38.9438 71.4613L67.1832 84.9343L77.5381 73.6625C77.5381 73.6625 78.8592 62.51 81.6472 54.1455C84.4353 45.7809 83.5548 41.232 83.5548 41.232L80.6202 33.1607Z" fill="#FFF1E2"/>
<path d="M48.3587 91.5118C48.2729 91.5444 48.1945 91.5792 48.121 91.6122C48.1945 91.5792 48.2729 91.5444 48.3587 91.5118Z" fill="white"/>
<path d="M46.0338 47.9121C45.5856 48.1675 45.2541 48.2273 45.0472 48.3374C44.8398 48.4505 44.5127 48.6935 44.5938 49.1281C44.6792 49.5648 44.7989 49.7065 44.8407 50.0433C44.8803 50.3766 44.7201 50.9806 44.3327 51.6665C43.9514 52.3541 43.3413 52.8507 42.9948 53.0519C42.6541 53.2557 42.445 53.3107 42.2513 53.4129C42.2072 53.4331 42.1676 53.5383 42.128 53.7497C42.1262 53.7514 42.1262 53.7514 42.124 53.7536C42.1487 53.7343 42.176 53.7162 42.2138 53.7017C42.2882 53.67 42.4414 53.666 42.5792 53.6405C42.7126 53.6158 42.8108 53.5846 42.8597 53.578C42.9116 53.5718 43.2207 53.5282 43.2726 53.5168C43.3246 53.5066 44.2609 53.3107 44.8412 53.0435C45.4183 52.775 46.4317 52.2863 47.0124 51.5846C47.439 51.0708 47.9528 50.1353 48.003 49.2069C48.0148 49.0149 48.0126 48.8956 48.0126 48.8956C48.0126 48.8956 48.0148 48.8956 48.0148 48.8934C48.0214 48.8934 48.0272 48.8916 48.0333 48.8916C47.9374 48.8877 47.8537 48.856 47.7855 48.8001C47.6301 48.6786 47.5046 48.5888 47.0283 48.0798C46.7219 47.7514 46.743 47.5106 46.9085 47.2355C46.9046 47.2416 46.8975 47.2478 46.8931 47.254C46.7518 47.386 46.4762 47.6572 46.0338 47.9121Z" fill="white"/>
<path d="M69.7088 44.8775C69.7088 44.8775 69.4473 44.9 69.3575 44.9396C69.2862 44.9691 69.1515 45.0193 69.0595 45.1426C68.9679 45.268 68.9468 45.4873 69.1392 45.7228C69.3351 45.9574 69.6045 46.3959 69.582 46.7714C69.568 46.9365 69.5922 47.4762 69.417 47.865C69.2211 48.3057 68.9948 48.7402 68.8394 48.9361C68.7496 49.0514 68.3349 49.5101 68.2741 49.835C68.2578 49.9033 68.2741 49.979 68.3062 50.0503C68.3062 50.0503 68.3111 50.0464 68.3111 50.0521C68.3089 50.0543 68.3111 50.0582 68.3089 50.0622C68.3172 50.0367 68.3274 50.012 68.3476 49.9887C68.4511 49.8725 68.662 49.7549 69.0291 49.6418C69.516 49.4877 69.8616 49.3041 70.131 49.099C70.0984 49.1368 70.0901 49.1808 70.0694 49.2244C70.0976 49.1571 70.1288 49.0906 70.1891 49.0378C70.334 48.9132 72.2446 47.6308 72.2935 45.5603C72.312 44.7829 71.3034 44.6803 70.8834 44.6662C70.5713 44.653 69.9831 44.9392 69.7344 44.8788C69.7304 44.8771 69.7229 44.8705 69.7141 44.8687C69.7181 44.8687 69.7181 44.8705 69.7181 44.8705C69.7185 44.8753 69.7106 44.8753 69.7088 44.8775Z" fill="white"/>
<path d="M49.3629 59.1712C49.3629 59.1712 56.957 61.5194 60.5889 57.3002C64.2209 53.0814 70.4943 59.5383 70.8975 61.4459C71.3017 63.3534 61.4694 68.6363 58.4978 68.7463C55.5262 68.8564 43.7499 67.279 43.7499 66.0684C43.7499 64.8577 49.3629 59.1712 49.3629 59.1712Z" fill="white"/>
<path d="M80.5281 28.9968C79.3205 16.1895 73.4275 9.77038 69.192 6.65482C64.7407 3.72196 54.1517 1.13865 49.1612 1.37198C43.273 1.64712 29.675 8.06974 29.1489 8.54432C28.6475 9.00172 19.528 24.2507 20.6558 26.9748C21.7837 29.699 23.3818 42.565 23.9026 43.5982C24.0611 43.9077 26.6624 52.2898 28.3785 51.9812C30.1082 51.6699 31.7208 44.0252 31.6437 43.4331C31.4236 41.7457 28.3609 34.1415 28.5986 33.069C28.8394 31.9997 37.0195 19.1928 37.605 18.7428C38.0179 18.4285 52.0496 16.6834 52.131 16.819C52.1293 16.8151 52.1293 16.8106 52.1235 16.8067L52.1218 16.8045C53.1026 15.9495 55.3773 13.696 57.4099 13.777C59.4407 13.8606 65.247 14.5861 68.5277 16.8679C71.8123 19.147 72.8266 21.3781 73.1052 22.0024C73.103 22.0024 73.0991 22.0054 73.0969 22.0054C73.2069 22.0217 77.7762 32.4087 79.1154 32.4457C80.0086 32.4699 80.6751 30.5364 80.5281 28.9968Z" fill="white"/>
<path d="M74.8438 37.5124C74.3564 37.5692 73.0238 37.6907 72.8768 37.7092C72.6153 37.7431 72.6219 37.891 72.6382 38.0019C72.6518 38.1164 72.6932 38.5549 72.7091 38.7437C72.7254 38.9313 72.9213 39.0413 73.122 39.0251C73.3241 39.011 74.5986 38.8956 74.7887 38.8661C74.9745 38.8358 75.1581 38.6786 75.1559 38.5285C75.1519 38.3775 75.1541 37.9786 75.1519 37.8175C75.1475 37.655 75.0274 37.4917 74.8438 37.5124Z" fill="white"/>
<path d="M21.8221 98.7568C22.0752 98.8118 22.3451 98.8734 22.6057 98.9342C22.0233 98.799 21.3898 98.6608 21.0266 98.571C20.847 98.5256 20.5643 98.4997 20.2372 98.5063C19.6913 98.5182 19.0173 98.6251 18.4732 98.8985C17.7851 99.2406 13.4136 101.457 11.5813 102.383C13.6786 105.388 16.0189 108.206 18.5846 110.809C18.7448 110.148 21.6103 107.142 22.0136 105.379C22.5657 102.965 21.1917 99.7768 21.8221 98.7568Z" fill="white"/>
<path d="M94.7874 105.749L91.3329 106.194C91.3329 106.194 93.818 117.668 94.4832 120.53L94.8843 122.381C96.0861 121.734 97.2611 121.05 98.4159 120.332C96.9877 115.042 94.7905 105.749 94.7905 105.749H94.7874Z" fill="white"/>
<path d="M114.806 59.8411C113.061 61.1592 112.095 62.9395 112.1 64.7212C112.108 67.3621 114.245 69.9054 119.194 69.8891C120.422 69.8807 121.505 69.7566 122.49 69.5893C122.778 69.5426 123.059 69.4907 123.327 69.4357L123.902 66.9774C122.943 67.2979 121.731 67.5629 120.76 67.5673C118.124 67.5757 116.357 66.0128 116.353 63.9635C116.349 62.8713 116.798 61.912 117.61 61.2103C118.479 60.4584 119.761 60.0036 121.364 60.0036C122.633 60.0036 123.375 60.3545 123.881 60.8555C123.983 60.9536 124.077 61.0566 124.159 61.1645H124.572L125.379 58.2633C124.547 57.9886 123.313 57.7575 122.011 57.743C118.98 57.7025 116.517 58.5477 114.806 59.8411Z" fill="white"/>
<path d="M110.678 60.2444C111.034 60.2444 111.329 60.3738 111.527 60.5433C111.697 60.6872 111.799 60.8585 111.799 61.0064H112.205L112.993 57.8561H102.297L102.141 58.4724L102.104 58.6221C102.104 58.6221 103.275 58.7537 102.916 59.9239L100.246 69.6241L104.787 69.6329H105.583L105.785 68.7999C105.785 68.7999 104.787 68.5591 105.048 67.6368C105.06 67.5792 105.436 66.1999 105.661 65.3718C105.761 65.0143 105.833 64.7572 105.833 64.7572L108.277 64.7555C108.677 64.7555 108.983 64.829 109.22 64.9206C109.709 65.1081 109.897 65.3925 109.897 65.3925L110.607 62.5098H106.486L106.931 60.8633L107.098 60.2492L110.678 60.2444Z" fill="white"/>
<path d="M97.6824 67.8927C97.3659 67.5537 94.618 63.2733 94.618 63.2733L99.4777 59.3838L99.6389 59.2543C99.8563 59.0725 100.061 58.944 100.24 58.8506C100.757 58.5852 101.089 58.623 101.089 58.623L101.284 57.8478L95.0379 57.857L94.8825 58.4712L94.8456 58.623C95.2699 58.6525 95.8625 59.032 95.3782 59.4841C95.3148 59.5383 90.3578 63.3261 90.3578 63.3261L90.3965 63.1923L91.4271 59.4586C91.645 58.7128 92.4463 58.623 92.4463 58.623L92.6422 57.8548L86.6787 57.8566L86.5255 58.4707L86.4863 58.6226C86.7716 58.6961 87.5861 58.8542 87.3039 59.9244C85.3135 67.117 85.5411 66.4051 85.4064 66.7969C84.9609 68.502 84.2926 68.7366 83.8907 68.7802C83.8031 68.7885 83.7274 68.7885 83.6723 68.7916L83.5905 69.1139L83.4641 69.6237H88.9072H89.7014L89.9096 68.7793C89.9096 68.7793 88.92 68.5834 89.1084 67.8693C89.2044 67.5105 89.4544 66.6001 89.675 65.7967C89.8889 65.017 90.0787 64.3338 90.0787 64.3338C91.1603 66.0679 91.4091 66.2823 92.7148 68.0736C93.9162 69.7307 95.2004 69.6532 98.3005 69.632C98.5532 69.6303 98.8147 69.6281 99.0965 69.6281L99.3025 68.7996C98.5167 68.8044 97.9963 68.2308 97.6824 67.8927Z" fill="white"/>
<path d="M127.094 58.0595C126.939 57.9076 126.755 57.8319 126.535 57.8319C126.318 57.8319 126.135 57.9076 125.979 58.0595C125.828 58.2114 125.75 58.3981 125.75 58.6155C125.75 58.8348 125.828 59.0206 125.979 59.1755C126.131 59.3278 126.318 59.4071 126.535 59.4071C126.755 59.4071 126.939 59.3274 127.094 59.1755C127.247 59.0206 127.324 58.8348 127.324 58.6155C127.327 58.3981 127.247 58.2114 127.094 58.0595ZM127.017 59.098C126.886 59.2314 126.723 59.2992 126.535 59.2992C126.347 59.2992 126.188 59.2319 126.058 59.098C125.927 58.9664 125.86 58.8053 125.86 58.6155C125.86 58.4298 125.927 58.2686 126.058 58.137C126.19 58.0036 126.347 57.9362 126.535 57.9362C126.723 57.9362 126.882 58.0036 127.017 58.137C127.147 58.2686 127.213 58.4298 127.213 58.6155C127.213 58.8048 127.147 58.9664 127.017 59.098Z" fill="white"/>
<path d="M126.892 58.4294C126.892 58.3211 126.846 58.248 126.759 58.2101C126.702 58.1916 126.629 58.1815 126.523 58.1815H126.22V59.0457H126.37V58.7041H126.489C126.573 58.7041 126.628 58.7142 126.663 58.7327C126.714 58.7662 126.743 58.8317 126.741 58.9317V58.9982L126.747 59.0277C126.747 59.0316 126.747 59.0338 126.747 59.0378C126.747 59.0378 126.747 59.0417 126.752 59.0461H126.892L126.89 59.0338C126.882 59.0277 126.882 59.0136 126.878 58.9898V58.9273V58.8621C126.878 58.8181 126.862 58.7701 126.83 58.7261C126.801 58.6821 126.747 58.6526 126.683 58.6424C126.736 58.6341 126.776 58.6222 126.807 58.6006C126.861 58.5632 126.892 58.5073 126.892 58.4294ZM126.652 58.5808C126.622 58.5931 126.574 58.5971 126.511 58.5971H126.371V58.2859H126.5C126.585 58.2841 126.648 58.296 126.687 58.3176C126.724 58.3378 126.744 58.3818 126.744 58.4452C126.743 58.5095 126.713 58.5553 126.652 58.5808Z" fill="white"/>
<path d="M118.334 82.321C110.116 79.8262 93.24 80.4134 93.24 80.4134L107.034 112.917C107.034 112.917 108.312 112.277 108.471 112.626C115.954 105.63 121.765 96.8818 125.25 87.0284C124.975 86.8171 126.551 84.8158 118.334 82.321Z" fill="white"/>
<path d="M90.309 120.675C89.6931 117.436 87.2423 106.72 87.2423 106.72C87.2423 106.72 90.4961 105.865 91.259 104.002C92.0219 102.14 90.2953 99.2719 90.2134 98.1413C89.8608 94.7665 88.5348 80.9444 86.3614 78.0828C85.0957 76.4165 79.2753 73.1288 78.8223 73.1486C76.7312 73.2402 72.5489 82.3478 69.0543 83.1733C66.725 83.7236 65.0799 81.4577 65.4567 81.6289C65.4501 81.6241 65.4422 81.6201 65.4382 81.6162C65.4382 81.6162 65.4422 81.3555 65.0526 80.1312C64.663 78.9025 63.8468 77.6135 63.6957 77.3221C63.5492 77.0298 63.1063 76.3936 63.0909 76.3206C63.0785 76.2488 62.9174 75.8389 62.8034 75.0923C62.5864 73.6518 62.6858 72.6868 62.6942 72.5992C62.6986 72.5112 62.7387 72.2501 62.7506 72.1973C62.7598 72.1418 62.7382 72.0481 62.6718 72.0318C62.6022 72.0199 62.4164 71.9745 62.2223 72.1744C61.8173 72.5829 61.7988 72.6604 61.7913 72.7295C61.7772 72.7943 61.819 72.9175 61.8067 73.0602C61.7627 73.5132 61.6834 73.8596 61.4805 74.1902C61.2784 74.5248 61.1468 74.6397 60.8606 74.6124C60.5696 74.586 60.3275 74.3553 60.2923 73.7579C60.2544 73.161 60.1369 72.9563 60.0171 72.8154C59.8978 72.6683 59.6258 72.601 59.5329 72.6067C59.4413 72.6067 59.3647 72.6886 58.7352 72.8431C58.1109 73.002 57.1186 73.0553 56.9724 73.0615C56.8232 73.0703 56.2786 73.1253 56.2747 73.1266C56.3887 73.5528 53.9863 72.8977 53.5822 73.2217C52.7567 73.8821 52.3711 78.17 51.9678 80.3936C51.9674 80.3954 51.9674 80.3976 51.967 80.4002L38.4305 81.7702L33.698 92.7762C33.698 92.7762 35.1288 114.568 35.1288 114.898C35.1288 115.228 65.0649 108.405 65.0649 108.405L76.3592 108.16C76.3592 108.16 76.3618 108.169 76.364 108.19C76.4437 108.841 77.6957 119.242 77.9506 120.87L78.7972 126.809C78.8668 127.314 78.9442 127.824 79.0296 128.327C80.3398 128.025 81.6372 127.689 82.9165 127.305C82.8126 126.636 82.7056 125.96 82.5881 125.263C82.4204 124.416 82.3041 123.602 82.1677 122.78L81.8093 120.739C81.4827 118.813 79.5896 107.702 79.5896 107.702L81.5738 106.45L83.8701 107.151C83.9312 107.433 83.9924 107.739 84.062 108.07C84.533 110.375 85.1758 113.831 86.1782 118.491L86.9394 123.016C86.9601 123.208 87.2053 124.51 87.4311 125.775C88.6387 125.311 89.8282 124.811 91.0014 124.281L90.309 120.675Z" fill="white"/>
<path d="M67.8712 38.1132C65.3764 38.48 61.7444 40.5161 61.9095 42.0019C62.0112 42.9228 67.2143 43.0637 69.5586 43.231C71.9029 43.3983 72.2898 41.1447 72.1639 39.92C72.038 38.6952 70.4968 37.7276 67.8712 38.1132Z" fill="#F5D4B7"/>
<path d="M84.8962 78.1111C83.6578 77.9821 84.2332 79.9895 84.2187 80.1929V80.1969C84.8451 82.5596 85.365 84.9167 85.7674 87.0501C85.7723 87.2605 85.7881 87.445 85.8141 87.5946C85.9915 88.5244 86.3587 91.5295 87.0648 98.3175C87.2281 100.578 87.3708 102.936 87.465 104.92C87.5292 104.915 91.6992 105.157 91.6992 105.157C91.6992 105.157 91.5341 99.3239 90.2407 92.0049C88.9472 84.6864 87.008 78.3312 84.8962 78.1111Z" fill="#F5D4B7"/>
<path d="M73.6524 59.7311C73.84 58.6987 73.6252 58.1885 73.2871 57.5849C72.9547 56.9831 72.3119 56.4201 71.4812 55.8742C70.6778 55.3397 68.8618 53.7373 68.6857 53.5858C68.514 53.4379 67.6661 52.6362 67.4698 52.4769C67.2655 52.3197 66.8697 51.9904 66.0007 51.5497C63.895 50.4879 62.2019 51.2825 62.1363 51.3191C62.072 51.3552 61.7594 51.6078 61.4601 51.8922C61.1651 52.1718 61.3866 52.7124 61.4997 52.9096C61.4997 52.9096 72.6747 61.1011 72.6971 61.2922L72.7055 61.2983C72.7055 61.2983 73.497 60.5746 73.6524 59.7311Z" fill="#F5D4B7"/>
<path d="M69.0291 49.6422C68.6619 49.7553 68.451 49.8724 68.3476 49.9891C68.3273 50.0124 68.3194 50.0379 68.311 50.0626C68.3022 50.082 68.3022 50.1022 68.3022 50.1216C68.3022 50.1379 68.3022 50.152 68.3022 50.1665C68.3062 50.1859 68.3141 50.2022 68.3185 50.2198C68.3282 50.24 68.3388 50.2616 68.3511 50.2818C68.3595 50.295 68.3674 50.3096 68.3788 50.3237C68.3951 50.3492 68.418 50.3734 68.4405 50.3989C68.4502 50.4113 68.4612 50.4214 68.4731 50.4328C68.5012 50.461 68.5325 50.491 68.5673 50.5204C68.5756 50.5288 68.5836 50.5367 68.5937 50.5429C68.6329 50.5768 68.6738 50.6081 68.7139 50.642C68.7222 50.6459 68.7258 50.6503 68.7346 50.6565C68.7834 50.6921 68.8327 50.7247 68.8816 50.7582C68.8834 50.7604 68.8856 50.7604 68.8878 50.7621C68.9428 50.7978 68.9956 50.8317 69.0467 50.8652C69.1017 50.8977 69.1792 50.9149 69.2734 50.9171C69.3628 50.9211 69.4733 50.9087 69.5921 50.8876C69.9839 50.8101 70.4854 50.6125 70.9098 50.4091C70.9098 50.4113 70.9054 50.4091 70.9014 50.4113C70.8767 50.4196 70.0997 49.1372 70.1301 49.0994C69.8616 49.3045 69.5186 49.4881 69.0291 49.6422Z" fill="#F5D4B7"/>
<path d="M54.0241 57.3054C54.0549 57.3178 54.0822 57.3358 54.1139 57.3481C54.11 57.3442 54.1073 57.342 54.1051 57.338C53.9462 57.1729 53.9339 57.1359 53.8784 56.9114C53.8181 56.6777 53.6653 56.3911 53.6011 56.2291C53.5319 56.0657 53.2246 55.5119 53.1062 55.1531C52.9882 54.7939 52.935 54.5746 52.9112 54.2145C52.8196 53.9429 52.7501 53.4023 52.7919 52.9136C52.8276 52.4813 52.9235 51.9834 53.1978 50.5839C53.3836 49.6647 53.0926 48.6059 53.0825 47.6255C53.0736 46.8696 52.9988 45.0118 53.0195 43.1421V43.136C52.8901 43.18 36.2478 39.6097 36.3649 39.5921C36.3671 39.5921 36.3715 39.5899 36.375 39.5899C36.5066 38.2119 36.427 36.3581 36.3526 34.9524C36.7831 30.7301 37.4325 25.8426 38.9244 22.5844C40.0774 20.079 39.9233 20.9044 40.493 19.7237C40.5247 19.6603 40.5665 19.5859 40.5731 19.4983C40.5793 19.4393 40.5309 19.1078 40.5212 19.0026C40.5212 19.0009 40.5212 19.0009 40.5212 18.9987C40.4873 19.0088 36.4314 17.873 31.3849 29.4552C29.2727 34.3075 32.0836 46.4413 32.0836 46.4413L36.4767 47.8998L39.3383 46.3453L46.1069 44.9559L48.872 46.3044C48.872 46.3044 48.0206 48.8934 48.0136 48.8934C48.0136 48.8951 48.0114 48.8951 48.0114 48.8951C48.0114 48.8951 48.0136 49.0167 47.9995 49.2064C47.9519 50.1366 47.4377 51.0721 47.0089 51.5863C46.4309 52.2863 45.4179 52.775 44.8412 53.0448C44.2601 53.3103 43.3246 53.5079 43.2696 53.5172C43.2198 53.5291 42.9086 53.5713 42.8579 53.5793C42.8078 53.5832 42.7118 53.6149 42.5784 53.6413C42.4397 53.6651 42.2878 53.6691 42.2121 53.7008C42.1743 53.7149 42.1456 53.7334 42.1223 53.7549C42.0805 53.7888 42.058 53.8284 42.047 53.8725C42.0448 53.8764 42.0431 53.8848 42.0431 53.891C42.0343 53.9328 42.0343 53.9746 42.0409 54.0125C42.0686 54.1503 42.2178 54.3422 42.2355 54.3757C42.298 54.495 42.6568 54.8357 43.2445 54.7041C44.0175 54.5306 44.5172 54.3757 45.0332 54.2092C45.5535 54.0398 46.2434 53.7413 46.3486 53.6493C46.4556 53.5603 46.7417 53.342 46.7875 53.3169C46.7875 53.3147 46.7893 53.3147 46.7893 53.3147C46.8487 53.2605 46.905 53.2095 46.961 53.1615C46.9847 53.1412 47.0085 53.1157 47.0327 53.0972C47.0384 53.0924 47.0424 53.0884 47.0486 53.0836C47.1397 54.174 45.8317 57.4481 45.8317 57.4481C45.8317 57.4481 42.7844 58.5324 42.9777 58.3889C42.9777 58.3889 42.9742 58.3889 42.9742 58.3906C42.7263 58.5121 42.3618 58.6438 41.9929 58.355C41.9929 58.355 41.6341 57.9359 41.1947 57.3798C40.9315 57.0475 40.6409 56.668 40.3781 56.2977C40.1923 56.0367 40.0598 55.8236 39.9621 55.6479C39.7723 55.3248 39.6966 55.1175 39.6631 54.988C39.6592 54.9779 39.6548 54.9665 39.6548 54.9585C39.5729 54.7433 39.5047 54.3946 39.5047 54.3946C38.9548 54.3264 38.3763 54.2009 37.8423 54.0059C37.8463 54.0076 37.8463 54.0129 37.8507 54.0169C37.8952 54.0565 34.0765 54.8894 34.0765 54.8894L38.0277 70.9858C38.0277 70.9858 45.4016 82.5786 50.0241 80.3408C50.7131 80.0071 51.9127 77.6576 51.4184 76.8555C50.9103 76.0336 43.0904 63.0615 43.0904 63.0615C43.0904 63.0615 53.9189 57.2588 54.0241 57.3054Z" fill="#F5D4B7"/>
<path d="M69.0129 101.057C70.4573 102.015 70.9596 102.24 72.5388 102.9C73.0411 103.137 74.3666 102.868 74.9337 102.019C74.9235 102.023 74.9134 102.035 74.9055 102.042C74.9011 102.044 74.9011 102.044 74.8971 102.044C74.8601 102.066 67.034 95.9251 66.014 95.5619C65.6508 95.4334 63.6521 96.1668 63.9092 96.5362C64.1395 96.8686 65.1058 97.8754 65.1287 97.9141C66.493 98.9751 68.209 100.391 69.0129 101.057Z" fill="#F5D4B7"/>
<path d="M52.3715 89.7311L39.2837 82.2378C39.2837 82.2378 39.6654 85.9503 39.6632 86.0084C39.6654 86.0106 39.6654 86.0106 39.6671 86.0133C40.622 86.8673 42.1175 87.8904 42.3539 88.0511C42.4411 88.1088 43.0495 88.5103 43.1793 88.6556C43.34 88.8303 44.9548 89.9789 45.0781 90.0648C45.1961 90.1449 46.9399 91.1072 47.9964 91.6699C48.0343 91.6492 47.2612 92.2822 47.2731 92.262C46.9016 92.2866 46.6321 92.4575 46.2223 92.5882C44.3878 93.6188 45.4765 95.7628 45.6495 97.2565C46.0004 98.5151 46.4437 100.7 48.0757 100.904C49.318 101.054 52.1619 100.276 53.6654 99.9679C53.8784 99.5911 56.058 99.4559 56.0312 99.4863C56.416 99.3714 56.9319 99.19 57.0882 99.2191C57.182 99.2353 56.7475 99.6967 56.4956 100.168C56.2425 100.643 54.6779 105.262 53.2212 107.723C52.7325 108.73 52.9641 108.314 52.6665 109.047V109.049L55.6182 109.725L60.3873 97.6179L52.3715 89.7311Z" fill="#F5D4B7"/>
<path d="M37.5249 99.1424C38.033 100.085 39.4968 102.062 39.5685 102.174C39.6398 102.284 39.955 102.624 40.3266 103.039C40.699 103.453 41.0182 103.815 41.108 103.921C41.1978 104.023 41.8956 104.747 42.0757 104.913C42.2553 105.078 42.4635 105.415 42.6145 105.555C43.1309 106.019 45.0323 107.672 45.2159 107.808C45.3995 107.948 46.3063 108.556 46.4697 108.578C48.1029 108.785 48.9046 107.891 49.0701 107.626C49.2374 107.367 49.2691 107.255 49.1661 106.867C49.1639 106.895 42.861 102.159 38.6788 93.0513C38.5168 92.6987 37.0662 90.9421 35.7345 92.0057C34.6409 92.8792 35.4316 94.9721 35.4316 94.9721V94.9839C35.8467 95.8415 37.0904 98.3385 37.5249 99.1424Z" fill="#F5D4B7"/>
<path d="M25.1498 100.04C25.5716 98.4623 22.0739 98.8141 21.8216 98.7568C20.7312 100.522 19.5738 106.516 18.9843 109.323C18.8822 109.639 18.7448 110.148 18.5833 110.804C19.3862 111.621 20.2068 112.418 21.0503 113.19C21.6592 110.821 25.038 100.46 25.1498 100.04Z" fill="#F5D4B7"/>
<path d="M126.747 59.0272C126.747 59.0312 126.75 59.0356 126.75 59.0373C126.75 59.0373 126.75 59.0413 126.752 59.0457C126.75 59.0417 126.75 59.0373 126.75 59.0373C126.749 59.0356 126.747 59.0316 126.747 59.0272Z" fill="#A3080C"/>
<path d="M118.799 81.621C116.848 81.1892 112.229 80.262 106.003 79.6902C99.7797 79.1236 94.6857 78.6376 93.9857 78.5618C93.3448 78.498 93.1128 77.9107 92.5308 77.6184C90.4212 76.5605 86.4344 75.5788 83.936 74.6992C83.3179 74.4852 82.9116 73.938 82.0584 72.8978C81.5398 72.2634 81.1889 71.9772 80.7452 71.5753C80.4793 71.3323 79.9004 70.8427 79.7454 70.7243C79.5944 70.6019 79.4883 70.251 79.619 69.5696C79.7498 68.8854 80.1583 66.2176 80.1249 63.1113C80.1161 62.2775 80.4832 61.7435 80.8737 61.5484C81.0837 61.4423 82.4507 60.8344 82.3587 59.4908C82.2622 58.1309 81.8422 56.2339 82.9362 53.5639C83.995 50.977 85.317 46.3598 85.4768 43.3138C85.6463 40.0781 84.8337 37.9909 83.557 36.8608C83.0591 36.4241 82.4713 35.7642 82.9512 34.3554C83.4632 32.8397 84.393 28.7002 83.4795 25.9619C83.2748 25.3539 83.0428 25.3499 82.9032 25.2764C82.7632 25.2051 82.0998 24.6971 81.8506 23.5798C81.5156 22.1067 80.4388 16.8714 76.3785 11.5494C74.2275 8.72396 71.9303 7.04357 71.0129 6.36649C70.3842 5.95751 69.2805 5.18841 67.9603 4.48624C66.0712 3.48734 64.5718 2.72529 61.5557 1.74928C61.2704 1.65947 60.6246 1.46181 59.7714 1.2342C59.7692 1.2342 59.7617 1.2342 59.7617 1.2342C59.7617 1.2342 57.1921 0.546554 54.4133 0.222099C53.9387 0.178075 53.2894 0.118203 52.5524 0.0680161C49.6917 -0.099274 48.6475 0.0763806 47.1599 0.226061C47.001 0.241469 46.839 0.265682 46.6792 0.287254C46.3825 0.326875 46.0756 0.37266 45.7547 0.422847C41.3347 1.17961 36.8381 3.25269 34.651 4.29561C33.4162 4.88201 32.3239 5.49218 31.3193 6.06449C31.2916 6.08209 31.2559 6.10235 31.2374 6.11335C30.9786 6.2714 30.5731 6.49724 30.1778 6.71427C29.5597 7.06294 28.9689 7.3896 28.3966 7.66915C26.6264 8.53025 25.0693 8.97093 23.9308 9.36582C23.7239 9.44331 23.5509 9.5089 23.4166 9.55468C22.596 9.8743 22.073 10.2045 21.9771 10.749C21.8018 11.7264 22.9522 12.6333 22.5414 14.1921C21.5302 18.0257 17.2031 21.7052 16.5093 22.1296C14.4996 23.3561 14.6251 24.2097 14.5476 24.6465C14.5476 25.0523 14.6308 25.5032 14.8619 25.9901C15.5315 27.4089 16.7704 28.6249 17.3766 29.9073C17.9845 31.1906 18.331 33.4397 17.8762 36.0688C17.4422 38.6112 17.3061 39.1752 17.0803 39.6414C16.8558 40.1093 16.4028 41.0184 17.0275 42.0996C17.6548 43.184 18.9768 44.2898 19.8062 44.9264C20.2474 45.2672 20.4758 45.5762 20.1488 46.1903C19.6099 47.1954 19.7477 49.5652 20.2579 50.8912C21.0283 52.9141 21.933 54.8423 22.7726 56.0816C23.613 57.32 25.1124 59.4278 25.9942 60.1903C26.8725 60.9576 26.9931 62.2876 26.9759 63.113C26.9575 63.9341 26.8421 66.2621 29.2344 67.7188C30.4133 68.4434 30.519 68.2612 30.9513 68.6164C31.3836 68.9656 31.587 69.1469 31.8859 70.0895C32.1848 71.0285 33.5447 74.321 35.417 76.6389C35.9634 77.312 36.2667 77.7892 36.3319 77.8997C36.3979 78.0098 36.4996 78.1322 36.2627 78.6869C36.0272 79.242 35.082 82.402 34.3279 85.6686C34.1901 86.2677 33.9876 87.0553 33.2361 87.4251C32.4833 87.7879 30.802 88.7168 30.1901 89.0549C29.5742 89.3934 29.2705 89.5775 28.5621 90.4584C28.2469 90.8502 28.0175 91.08 27.8186 91.319C27.7041 91.4573 27.6535 91.5458 27.0548 91.8579C26.5362 92.1273 18.8399 94.8352 10.6788 99.8275C10.4767 99.9494 10.2879 100.058 10.1003 100.162C10.5811 100.913 11.0715 101.656 11.5817 102.382C13.414 101.456 17.7851 99.2402 18.4723 98.8977C19.0147 98.6243 19.6896 98.5182 20.235 98.505C20.5635 98.4989 20.8452 98.5257 21.0244 98.5702C21.3907 98.66 22.0211 98.7991 22.6066 98.9329C22.6607 98.9448 22.7149 98.958 22.7708 98.9699C22.8069 98.9783 22.8426 98.9862 22.88 98.9968C23.1217 99.0562 23.3453 99.1095 23.5258 99.1579C23.5359 99.1619 23.5443 99.1618 23.5544 99.1663C23.642 99.1914 23.7217 99.2129 23.7829 99.2314C24.3028 99.4027 24.5793 100.378 24.298 101.265C24.2482 101.433 24.0862 101.996 23.8489 102.828C23.731 103.246 23.5958 103.728 23.4479 104.262C23.2991 104.797 23.1366 105.385 22.9654 106.01C22.3636 108.196 21.657 110.821 21.049 113.19C22.6779 114.674 24.3869 116.072 26.1628 117.385C26.3618 115.848 26.5709 114.246 26.7329 113.081C27.1573 110.042 29.5852 98.7828 30.2707 96.2228C30.7695 94.3602 31.0288 93.5114 31.6843 93.2178C31.8811 93.1324 32.1047 93.0016 32.2341 92.9382C32.3636 92.8783 32.6471 92.8097 32.5595 93.3032C32.4591 93.8887 31.9537 96.2779 31.2101 104.03C30.6937 109.409 30.6814 114.172 30.8672 117.037C30.9473 118.257 30.968 119.982 32.8346 119.234C35.0156 118.363 42.4503 115.697 46.4221 114.473C52.8174 112.5 64.8042 109.865 76.3573 108.16L79.5878 107.701C79.5878 107.701 81.479 118.814 81.8048 120.74L82.1636 122.778L81.8083 120.74C81.4799 118.814 79.5909 107.701 79.5909 107.701C80.0434 107.639 80.4991 107.581 80.9477 107.524C81.9822 107.393 82.9534 107.271 83.8673 107.152L87.2418 106.72C88.8209 106.518 90.1755 106.344 91.3236 106.194C91.3236 106.194 93.5046 116.277 94.3247 119.898C94.382 120.137 94.4308 120.351 94.4718 120.531L94.8755 122.382C94.8777 122.382 94.8799 122.382 94.8816 122.382L94.4801 120.531C93.8145 117.666 91.3302 106.195 91.3302 106.195L94.7848 105.75C95.8066 105.619 97.1083 105.456 97.4962 105.437C98.308 105.404 98.6624 104.944 98.0425 104.758C97.5952 104.627 96.5616 104.524 96.0386 104.511C95.8391 104.509 95.4759 104.505 95.2589 104.501C94.4594 104.487 94.231 104.329 94.0553 103.151C93.5574 99.6941 91.6318 91.1262 90.249 86.6089C88.9107 82.251 88.5801 80.9964 88.2578 80.0366C87.9761 79.2103 88.522 79.1597 88.7843 79.1716C89.7595 79.2182 91.1101 79.7245 91.4975 80.5588C92.3547 82.4174 98.2182 97.7756 100.573 103.501C102.058 107.108 103.788 111.45 105.422 115.318C106.469 114.457 107.479 113.551 108.468 112.625C105.427 105.938 98.6549 90.7872 95.0846 83.1201C94.956 82.844 94.7826 82.3972 94.695 82.1348C94.6646 82.0472 94.6518 81.9693 94.6518 81.9002C94.6562 81.4111 95.3029 81.3428 95.623 81.3741C96.8834 81.5004 108.334 82.2554 111.46 82.5539C113.523 82.7489 115.581 83.0637 116.956 83.3089C117.274 83.3679 117.555 83.4212 117.792 83.4678C118.085 83.5264 118.306 83.5731 118.448 83.6122C119.468 83.8781 121.268 84.59 122.934 85.4833C123.622 85.8504 124.407 86.3853 125.247 87.0302C125.5 86.3113 125.752 85.5911 125.982 84.8634C125.382 84.4474 124.708 84.0225 124.047 83.6673C122.145 82.6534 120.539 82.0085 118.799 81.621ZM25.565 43.6502C25.2537 43.784 24.9724 43.8197 24.7572 43.3953C24.235 42.3629 23.8384 40.5245 23.6869 39.3301C23.5311 38.1366 23.2925 34.5742 23.3678 32.6279C23.451 30.6803 23.0706 29.5921 22.3746 28.6605C21.6768 27.7303 21.2282 27.0845 21.057 26.771C20.8417 26.3801 20.9856 26.1129 21.3973 25.8144C21.5971 25.6744 22.0052 25.7585 22.3209 25.6929C22.9451 25.5674 25.0297 24.8115 26.5828 23.5934C28.1324 22.3753 30.6022 20.0191 32.2782 19.1122C33.9489 18.2053 34.6907 17.792 36.6462 17.5573C36.9931 17.5168 37.5135 17.7022 36.9262 18.149C36.3393 18.5958 34.4573 19.2628 32.2628 22.5743C30.9152 24.6002 30.6955 25.7704 30.2689 26.6795C29.8401 27.5881 29.4303 27.8452 28.7519 28.5809C28.4217 28.9317 27.749 29.6691 27.5064 30.7385C27.2709 31.8087 26.2967 35.5789 26.869 41.2812C26.9363 41.9451 27.2097 42.8287 26.5872 43.1501C26.2029 43.3495 25.8732 43.5185 25.565 43.6502ZM28.2522 51.3336C27.9207 51.0981 26.5656 49.2636 25.9057 47.2249C25.8331 47.0096 25.7538 46.462 26.1109 46.3057C26.4036 46.1802 26.7924 45.9548 26.9944 45.8588C27.1991 45.7558 27.7094 45.622 27.7798 46.3576C27.8511 47.095 27.9154 47.964 28.7558 50.1393C28.9081 50.528 28.9394 50.6495 28.979 50.8053C29.0878 51.257 28.559 51.552 28.2522 51.3336ZM31.0125 44.4061C30.9227 44.4215 29.9929 44.5337 29.4915 44.6275C29.1802 44.6847 28.8597 44.8009 28.8241 44.5011C28.7822 44.1604 28.6823 43.7105 28.6528 43.589C28.626 43.4626 28.6867 43.3429 28.8373 43.3072C29.2066 43.2218 30.6339 42.9819 30.7717 42.9748C30.9095 42.9731 31.049 43.0197 31.1089 43.3055C31.163 43.5921 31.2317 43.8971 31.248 44.0213C31.2647 44.149 31.3004 44.362 31.0125 44.4061ZM31.5196 39.7492C31.4338 39.3147 31.3136 38.5707 31.3523 38.1076C31.3655 37.9231 31.4215 37.4618 31.6429 37.213C31.9559 36.8582 32.3719 36.5355 32.6418 36.3171C33.1327 35.9152 33.0305 34.8749 33.0662 34.278C33.1745 32.5439 33.0204 27.0678 36.574 21.8285C36.7109 21.6295 36.8505 21.4459 36.9878 21.2725C37.0296 21.2205 37.0715 21.1725 37.1133 21.1215C37.2154 21.0013 37.3171 20.8855 37.4223 20.7785C37.4664 20.7305 37.5099 20.6848 37.5562 20.6407C37.6816 20.517 37.8093 20.399 37.9365 20.2921C37.955 20.2775 37.9713 20.2612 37.9885 20.2463C38.1324 20.1301 38.2768 20.0248 38.4203 19.9249C38.4723 19.891 38.5242 19.8576 38.5762 19.8272C38.6752 19.762 38.7752 19.7035 38.8751 19.6467C38.9319 19.6159 38.9883 19.5842 39.0464 19.5547C39.1555 19.4988 39.2678 19.4464 39.3787 19.3966C39.421 19.379 39.4624 19.3588 39.5042 19.3394C39.6482 19.2791 39.7961 19.2254 39.9427 19.1752C40.0056 19.1536 40.0664 19.1356 40.1285 19.1162C40.2271 19.0854 40.3253 19.0559 40.4234 19.0286C40.4569 19.0202 40.4877 19.0083 40.5216 19C40.5216 19.0017 40.5216 19.0017 40.5216 19.0039C41.2449 18.8111 41.9867 18.7028 42.736 18.5756C44.8513 18.2163 47.3171 18.5522 48.5854 18.9559C49.5936 19.2751 50.1042 19.5199 50.4415 19.2016C50.78 18.8846 51.6631 17.8835 52.0378 17.5287C52.0893 17.4785 52.1298 17.4235 52.1575 17.3693C52.1689 17.3508 52.1751 17.3319 52.1835 17.3134C52.1971 17.2778 52.209 17.2399 52.2147 17.2025C52.2169 17.1822 52.2213 17.1607 52.2213 17.1382C52.2213 17.1025 52.2169 17.0669 52.2112 17.029C52.2073 17.0105 52.2073 16.9894 52.198 16.9709C52.1844 16.919 52.1615 16.8688 52.1302 16.8208C52.0479 16.6839 51.9171 16.5619 51.7551 16.4646C51.3439 16.223 47.2154 13.1932 41.6499 13.0576C36.2117 12.9216 31.7979 14.8459 30.6273 15.2487C30.3904 15.3284 30.2689 15.3702 30.1298 15.372C29.992 15.3759 29.5174 15.2139 29.6931 14.871C29.8859 14.5047 30.3684 13.9408 30.8698 13.4838C31.3959 13.0097 33.9691 10.5875 36.5106 9.46576C36.9808 9.25973 37.0952 9.17388 37.3964 9.05678C37.7811 8.91106 38.0087 8.04379 37.1586 8.04159C36.2874 8.03543 35.9405 8.13316 35.4804 8.20492C35.0195 8.28152 34.7664 8.07549 35.0574 7.68059C35.3449 7.28702 35.9132 6.85031 36.9389 6.29341C39.1661 5.07968 43.2401 3.80035 45.1661 3.37904C47.6777 2.82918 47.9845 2.79352 49.6512 2.69139C51.2101 2.60158 52.4569 2.71164 53.0468 2.73541C58.0404 2.92515 63.7912 4.5778 68.2433 7.50934C72.4766 10.624 78.5691 15.8131 79.7767 28.6227C79.9215 30.16 79.8198 31.0312 79.7604 31.416C79.7075 31.8007 79.2708 32.5082 78.8874 31.7048C77.6243 29.0576 75.6719 25.5934 73.4685 22.3097C73.3378 22.1146 73.2048 22.0209 73.0969 22.0068C73.0516 21.9975 73.0133 22.005 72.9746 22.0213C72.9649 22.0275 72.9583 22.0376 72.9481 22.0446C72.927 22.0609 72.9046 22.0812 72.8883 22.1089C72.8799 22.1283 72.8698 22.1485 72.8636 22.1692C72.8535 22.197 72.8473 22.2282 72.8434 22.259C72.839 22.2868 72.8346 22.3123 72.8346 22.3409C72.8346 22.4061 72.839 22.4778 72.8575 22.5562C72.9125 22.7886 73.6142 26.2621 73.6402 26.7459C73.6706 27.2284 73.4342 28.4127 75.2334 30.598C75.9682 31.4948 76.6206 32.2608 76.9556 33.5837C77.2858 34.9018 77.3981 35.4657 77.4003 35.6057C77.4051 35.7435 77.5636 36.1362 76.927 36.1402C76.2944 36.1419 73.8788 35.9667 72.8451 35.99C71.8106 36.0147 64.6704 36.7151 62.014 37.2795C59.3571 37.8448 57.9277 38.5139 56.5634 39.9473C56.235 40.292 55.7758 40.6134 55.6715 40.6429C55.5729 40.6706 55.2264 40.6632 54.5493 40.6174C53.8749 40.5733 52.7052 40.7389 52.091 41.0162C51.4729 41.2927 51.0323 41.5498 50.2878 41.2465C49.2238 40.8159 47.3985 38.8503 42.6594 39.0818C39.8067 39.2214 38.3451 39.2993 36.3653 39.5921C36.25 39.6105 36.1307 39.6277 36.0123 39.6462C35.937 39.6585 35.859 39.6704 35.782 39.6836C35.7402 39.6898 35.6966 39.696 35.6526 39.7039C34.8465 39.8355 33.9361 40.005 32.8122 40.2242C32.6563 40.2537 32.5031 40.2854 32.342 40.3158C31.904 40.4034 31.6011 40.2071 31.5196 39.7492ZM75.1581 38.5271C75.1581 38.6781 74.9745 38.8344 74.7866 38.8661C74.6008 38.8956 73.3259 39.0123 73.122 39.0272C72.9222 39.0413 72.7263 38.9313 72.7095 38.7428C72.6932 38.5571 72.6519 38.1164 72.6404 38.001C72.6197 37.8927 72.6153 37.7417 72.8751 37.7083C73.0261 37.6898 74.3556 37.5705 74.846 37.5124C75.0296 37.4908 75.1498 37.6563 75.1542 37.817C75.1542 37.9781 75.1542 38.3774 75.1581 38.5271ZM69.1947 39.9583C68.8002 39.681 68.1068 39.2443 67.6869 39.0911C67.3972 38.9872 67.4984 38.6249 67.9114 38.5667C69.3479 38.3576 70.2693 38.3576 70.9838 38.8036C71.5064 39.1272 71.8533 39.7554 71.6935 40.3092C71.5055 40.9449 71.2568 40.8071 70.9446 40.8018C70.6325 40.7961 69.5843 40.237 69.1947 39.9583ZM70.025 42.7609C69.7723 42.9313 68.9459 42.7794 68.6457 42.6618C68.0298 42.4201 67.5927 42.2528 66.736 41.7092C66.1764 41.3543 65.2039 41.1787 64.3529 41.4358C63.7921 41.6053 63.3413 41.747 62.8473 41.9376C62.3525 42.1274 62.2513 41.6766 62.3807 41.4838C62.5084 41.2914 63.2915 40.3744 64.3305 39.9843C64.5489 39.9007 64.9935 39.8549 65.2119 39.8505C65.8815 39.8311 66.7113 40.1578 67.34 40.6165C67.9739 41.0787 68.9803 41.8324 69.6415 42.1151C69.9514 42.2484 70.6246 42.3466 70.025 42.7609ZM49.3717 65.0602C46.8659 65.9376 46.1632 65.0563 45.94 64.7947C45.7177 64.5337 45.992 64.2788 46.2574 64.1551C46.8535 63.8777 47.6512 63.2737 48.0541 62.8806C48.4591 62.4879 49.2458 61.121 49.8137 60.6407C50.0831 60.4113 51.5385 59.9165 52.6334 60.4386C53.9352 61.0589 55.962 61.1232 57.2066 60.9612C58.4502 60.7939 58.9244 59.8848 59.1942 59.3481C59.4632 58.8066 60.1232 58.6085 60.4701 58.4659C61.4249 58.0754 62.6889 56.7653 62.8183 56.6319C62.9477 56.4941 63.3417 56.3004 63.9682 56.6675C65.1084 57.3376 65.6882 58.2242 66.747 59.4269C67.8057 60.6305 69.0586 60.8185 69.4258 60.8419C69.7934 60.8652 70.0219 61.2909 70.0386 61.408C70.0589 61.5251 69.7529 61.9323 69.5244 62.1036C69.2951 62.2748 69.1687 62.5782 67.1414 62.6261C56.9684 62.8771 52.3908 64.0036 49.3717 65.0602ZM63.1696 66.2845C62.566 66.5966 60.7707 67.2733 59.8771 67.4454C58.9803 67.6175 56.135 68.1943 55.6547 68.233C55.0569 68.2792 54.2191 68.1 53.4919 67.6026C53.3457 67.5018 53.1472 67.1108 53.6776 67.0325C54.662 66.8863 56.2513 66.1476 62.0325 65.8531C62.6536 65.8209 62.9455 65.8082 63.0943 65.8046C63.2431 65.8016 63.7776 65.9724 63.1696 66.2845ZM49.7758 79.1196C47.7569 79.4524 42.382 77.8755 38.8874 69.2513C37.9867 67.0329 38.9746 64.8256 39.8414 64.3792C40.3556 64.1181 40.6339 64.012 40.8091 63.968C40.9993 63.92 41.9141 63.8007 42.018 64.83C42.1003 65.6625 43.7164 72.4976 45.8894 74.7578C46.4252 75.3182 46.8487 75.2838 46.9869 74.7049C47.1058 74.1744 47.34 73.4767 47.4082 73.2108C47.4562 73.0188 47.9805 72.4395 48.2777 73.1782C48.9169 74.7459 49.6882 76.7982 50.1949 77.6202C50.6906 78.4223 50.5313 78.9946 49.7758 79.1196ZM50.1742 56.5698C50.364 56.8331 50.4815 57.3116 50.467 57.5229C50.4476 57.7668 49.6138 58.2092 48.747 57.2363C47.8797 56.2612 48.0492 54.9136 48.408 54.3413C48.9803 53.4283 50.1047 53.883 49.9959 54.2088C49.6204 55.3367 49.9814 56.3048 50.1742 56.5698ZM43.7314 43.9407C43.0829 43.9196 42.3851 43.8399 41.2013 44.2784C39.8762 44.7679 39.0244 45.4067 38.408 45.7849C37.7745 46.1798 37.104 46.3493 36.8795 46.3655C36.6563 46.3849 35.8428 46.2779 36.4032 45.6889C36.552 45.5278 36.909 45.4063 37.4509 45.0114C37.8384 44.7261 38.1254 44.5227 38.5661 44.1516C39.3514 43.4824 40.9522 42.5152 41.6499 42.4294C42.1619 42.3682 43.067 42.465 43.6055 42.9057C44.1659 43.3658 44.3812 43.9614 43.7314 43.9407ZM32.5815 45.0897C32.6497 44.6654 33.1137 43.5463 34.0915 43.2218C34.2231 43.1822 34.7105 43.0237 35.1177 42.9189C35.598 42.7979 36.1144 42.6913 36.3776 42.6438C37.0851 42.5205 37.2344 43.0589 36.7888 43.4098C36.497 43.6422 36.0307 43.9451 35.6187 44.2788C34.9922 44.7913 34.3904 45.3609 33.9251 45.7479C33.3585 46.2198 32.4406 45.961 32.5815 45.0897ZM35.9031 57.2759C35.9009 57.2742 35.8991 57.272 35.8991 57.272C35.8951 57.2658 35.8925 57.2619 35.889 57.2566C35.7138 57.0105 35.55 56.7516 35.3972 56.4884C35.3651 56.4302 35.333 56.3708 35.2995 56.3127C35.1472 56.0301 35.0045 55.7444 34.8923 55.4437C34.673 54.8612 35.0402 54.7754 35.285 54.9022C35.5293 55.0329 36.2443 55.4498 37.0081 55.611C37.4747 55.7069 37.7516 55.4833 37.8612 55.147C37.8775 55.0968 37.8987 55.0347 37.9216 54.9673C37.9348 54.9378 37.9449 54.9061 37.955 54.8736C37.9612 54.8542 37.9669 54.8339 37.9744 54.8124C37.9841 54.7758 37.9929 54.7402 38.0008 54.7023C38.0074 54.6829 38.0096 54.6627 38.0131 54.6433C38.0224 54.6046 38.0263 54.5667 38.0307 54.5271C38.0325 54.5077 38.0325 54.4892 38.0347 54.4677C38.0347 54.4289 38.0307 54.3911 38.0263 54.3514C38.0241 54.3343 38.0219 54.3158 38.0175 54.2995C38.0083 54.2577 37.992 54.2181 37.9735 54.1784C37.9656 54.1661 37.9621 54.1529 37.9559 54.1428C37.929 54.097 37.8929 54.0547 37.8498 54.0151C37.793 53.9654 37.7221 53.9191 37.6306 53.8835C36.9654 53.6162 35.0794 53.0206 33.6631 50.3867C33.458 50.0142 33.6521 49.6973 33.7899 49.5859C33.9282 49.4758 34.4212 49.1615 34.6572 49.0158C34.8958 48.8696 35.2189 48.8863 35.5557 49.1188C35.8793 49.3504 36.5824 49.8623 37.1463 49.8126C37.6702 49.7615 37.7226 49.5467 37.8159 49.4107C38.1853 48.8718 39.1859 46.9145 41.8084 46.8828C42.8905 46.8687 43.9039 46.9687 44.2667 46.9462C44.6255 46.9229 45.9053 46.8075 46.6589 46.2947C47.4012 45.7844 47.7177 46.1516 47.2889 46.7098C47.2251 46.7935 47.1674 46.867 47.1133 46.9405C47.0921 46.9669 47.0758 46.9902 47.0565 47.0149C46.9984 47.0924 46.9482 47.1659 46.9042 47.2363C46.7408 47.5128 46.7206 47.7523 47.0252 48.0807C47.5038 48.5896 47.6283 48.6808 47.7837 48.8009C47.8529 48.856 47.9356 48.8885 48.032 48.8907C48.0717 48.8907 48.1157 48.8824 48.1597 48.8705C48.1782 48.8643 48.1963 48.8643 48.2178 48.8564C48.2839 48.8269 48.3539 48.7868 48.4309 48.7217C48.7043 48.48 48.8879 48.336 49.1265 48.0279C49.3039 47.8003 49.454 48.0296 49.41 48.3858C49.3752 48.6631 49.4998 50.4435 47.5597 52.6323C47.4963 52.7058 47.3488 52.8273 47.1652 52.9832C47.1212 53.0188 47.0798 53.0545 47.0318 53.0963C47.0081 53.1166 46.9838 53.1404 46.9601 53.1606C46.8993 53.2134 46.839 53.2698 46.7765 53.3279C46.7267 53.3737 46.6761 53.4287 46.6255 53.4789C46.5735 53.5308 46.5233 53.5788 46.471 53.6347C46.4393 53.6686 46.4076 53.7083 46.375 53.7461C46.3098 53.8196 46.2434 53.894 46.1782 53.9755C46.158 54.0032 46.1386 54.0314 46.1201 54.0574C46.0466 54.1533 45.9753 54.2502 45.911 54.3519C45.8287 54.4835 45.7521 54.6213 45.6851 54.7648C45.1454 55.9165 45.2154 56.2964 45.1569 56.7164C45.104 57.1324 44.7809 57.298 44.4173 57.4661C44.198 57.5669 43.6169 57.9028 42.9728 58.3902L42.9764 58.3871C42.7835 58.5319 42.5872 58.6931 42.3926 58.8595C42.3552 58.8934 42.3191 58.9246 42.2843 58.9585C42.0897 59.1298 41.8978 59.3116 41.7204 59.5009C41.6028 59.6246 41.4818 59.7333 41.3603 59.8315C41.3184 59.8641 41.2797 59.8896 41.2383 59.9191C41.1529 59.9812 41.0644 60.0393 40.9772 60.0904C40.9315 60.1172 40.8822 60.1423 40.8368 60.163C40.7488 60.207 40.6612 60.2427 40.5709 60.274C40.5234 60.2902 40.4771 60.3101 40.4296 60.3219C40.4058 60.3281 40.3838 60.3382 40.3622 60.3453C40.3063 60.3576 40.25 60.3594 40.1941 60.3677C40.1245 60.3801 40.0554 60.3933 39.9845 60.3972C39.907 60.4012 39.8278 60.3972 39.7481 60.3933C39.6799 60.3858 39.6103 60.3858 39.5438 60.3778C39.4619 60.3655 39.3809 60.34 39.3008 60.3175C39.233 60.2999 39.1652 60.2858 39.0961 60.2616C39.0195 60.2321 38.9438 60.1899 38.8667 60.1525C38.7932 60.1168 38.7228 60.0882 38.6515 60.0442C38.6449 60.0389 38.6374 60.0371 38.6312 60.0331C38.5018 59.9513 38.3697 59.8557 38.2376 59.7474C37.8973 59.4547 37.5245 59.1139 37.1555 58.7424C37.1459 58.7314 37.1362 58.7212 37.1265 58.7129C37.1164 58.7027 37.1062 58.6904 37.097 58.679C36.9073 58.487 36.7175 58.2823 36.5331 58.0688C36.5172 58.049 36.0867 57.5308 35.9031 57.2759ZM59.2207 98.1792C59.1014 98.7991 58.5955 100.888 56.7386 105.187C56.6131 105.477 56.4912 105.756 56.3723 106.026C56.3437 106.089 56.3142 106.15 56.2865 106.214C56.2407 106.317 56.1927 106.422 56.1474 106.519C56.143 106.527 56.1408 106.535 56.1372 106.544C56.0699 106.693 56.0017 106.833 55.9321 106.973C55.9321 106.973 55.9281 106.977 55.9281 106.982C55.9193 106.998 55.9096 107.016 55.8986 107.034C55.874 107.083 55.8484 107.131 55.8242 107.177C55.7908 107.239 55.7591 107.305 55.7234 107.365C55.7234 107.371 55.7212 107.374 55.7195 107.377C55.7111 107.389 55.7032 107.401 55.6948 107.418C55.6631 107.473 55.6173 107.553 55.6151 107.556C55.6107 107.565 55.605 107.572 55.6006 107.581C55.6006 107.581 55.6006 107.581 55.6006 107.585C55.5768 107.62 55.5561 107.654 55.5354 107.687C55.5293 107.698 55.5236 107.712 55.5169 107.721C55.513 107.726 55.5099 107.731 55.5037 107.737C55.4756 107.784 55.4456 107.827 55.4166 107.876C55.41 107.883 55.4043 107.888 55.4003 107.894C55.3668 107.943 55.3329 107.991 55.2999 108.037C55.2982 108.037 55.2929 108.046 55.2871 108.049C55.259 108.088 55.2286 108.127 55.1995 108.163C55.1907 108.172 55.1855 108.18 55.1793 108.184C55.1458 108.229 55.1102 108.264 55.0789 108.303C55.0741 108.303 55.0697 108.309 55.0661 108.314C55.0477 108.333 55.0261 108.351 55.0076 108.372H55.0058C54.9962 108.384 54.9843 108.394 54.9719 108.404C54.9658 108.41 54.9561 108.416 54.9495 108.425C54.9138 108.457 54.8799 108.489 54.8443 108.512C54.8403 108.516 54.8381 108.519 54.8324 108.521C54.8007 108.548 54.7672 108.569 54.7338 108.59C54.7245 108.596 54.717 108.602 54.7082 108.606C54.7021 108.61 54.6959 108.612 54.6919 108.615C54.6849 108.621 54.6787 108.625 54.6726 108.625C54.6479 108.641 54.6224 108.655 54.5969 108.67C54.5969 108.67 54.5929 108.67 54.5885 108.672C54.5559 108.69 54.5203 108.702 54.4824 108.715C54.4736 108.719 54.4648 108.724 54.4547 108.727C54.415 108.739 54.3772 108.75 54.3354 108.759C53.9497 108.843 53.5372 108.902 53.296 108.943C53.2603 108.947 53.0133 108.988 52.9931 108.996C52.8923 109.01 52.7835 109.027 52.6669 109.047C52.6669 109.047 52.6669 109.047 52.6669 109.045C49.8797 109.514 42.2984 110.819 38.7818 111.53C36.449 111.996 36.6783 110.821 36.0928 108.7C35.8467 107.809 34.9803 99.9213 35.4307 94.9708C35.5817 93.327 35.6539 92.8453 35.9489 92.664C36.2434 92.4821 36.6946 92.1885 36.8302 92.1498C36.9623 92.115 37.3642 92.0089 37.5518 92.3474C37.7353 92.682 41.1401 99.5898 43.3655 102.092C45.34 104.321 46.7281 105.939 48.3926 107.025C48.5027 107.098 48.5973 107.144 48.6832 107.172C48.6915 107.176 48.7016 107.181 48.7113 107.184C48.7509 107.196 48.7866 107.202 48.8205 107.206C48.854 107.211 48.8848 107.209 48.9143 107.206C48.9231 107.205 48.9306 107.205 48.9394 107.202C48.9944 107.19 49.0384 107.163 49.0719 107.129C49.0758 107.124 49.0802 107.119 49.0864 107.113C49.1177 107.074 49.1406 107.025 49.152 106.972C49.1542 106.964 49.1542 106.954 49.1542 106.945C49.2 106.688 49.0776 106.298 48.8333 106.034C48.4661 105.638 46.9451 104.073 44.9416 101.223C42.3499 97.544 40.5938 92.115 40.1214 90.376C39.8124 89.2376 39.6389 87.4423 39.6675 86.0098C39.6658 86.0098 39.6636 86.0098 39.6636 86.0098C39.6658 85.9464 39.6675 85.8913 39.6711 85.8306C39.6728 85.7853 39.675 85.7412 39.6777 85.6937C39.6816 85.5973 39.686 85.5017 39.6913 85.4097C39.7014 85.2746 39.7116 85.1438 39.7274 85.0219C39.734 84.9686 39.7415 84.9215 39.7477 84.8704C39.7609 84.7855 39.7736 84.7031 39.786 84.6274C39.7943 84.5821 39.8031 84.5398 39.8137 84.4989C39.8361 84.3888 39.8617 84.2871 39.8934 84.1986C40.2966 83.0465 40.6334 83.1702 40.99 83.5563C41.3475 83.9459 44.5647 86.8656 49.8692 89.2424C50.9957 89.7465 51.6675 89.9785 51.8212 90.1445C51.973 90.3052 52.2156 90.6463 51.7336 90.7599C51.2572 90.8726 49.8423 90.9228 48.3609 91.5083C48.2751 91.5431 48.1958 91.5779 48.1232 91.61C47.605 91.8425 47.362 92.0758 47.2519 92.3263C47.2304 92.3747 47.2141 92.4267 47.2022 92.4777C47.193 92.5121 47.1846 92.553 47.1806 92.59C47.174 92.6468 47.1718 92.704 47.174 92.7612C47.174 92.7987 47.1718 92.8374 47.1758 92.8762C47.1802 92.9492 47.1881 93.0232 47.196 93.1007C47.2136 93.2314 47.2317 93.3661 47.2449 93.5141C47.3233 94.3179 47.4624 94.8916 47.5645 95.9666C47.6644 97.0456 47.6024 98.0208 48.1285 98.476C48.6528 98.925 49.3686 99.1918 51.2806 98.8207C53.0943 98.4672 53.6983 98.3126 53.9132 98.3065C54.124 98.2999 54.6334 98.2145 54.3222 98.8083C54.2927 98.8656 54.2539 98.9347 54.2081 99.0188C53.7899 99.7632 52.7769 101.441 52.4318 102.559C52.0492 103.791 51.9717 104.132 51.9383 104.342C51.9074 104.554 52.0536 104.962 52.43 104.505C52.8055 104.048 53.5491 102.345 55.417 100.176C55.6675 99.8865 55.8973 99.6316 56.113 99.3965C56.1148 99.3965 56.117 99.3921 56.1214 99.3877C56.2904 99.2063 56.4476 99.0412 56.5977 98.8898C56.6396 98.8466 56.6792 98.8079 56.7192 98.77C56.8469 98.6459 56.9662 98.5314 57.0776 98.4231C57.1071 98.398 57.1392 98.3681 57.1652 98.343C57.4439 98.0908 57.6834 97.8962 57.8925 97.7439C57.9136 97.732 57.9321 97.7188 57.9515 97.7051C58.032 97.6457 58.1117 97.5924 58.1852 97.548C58.2055 97.5361 58.2271 97.5215 58.2473 97.507C58.3208 97.4617 58.3904 97.4242 58.4547 97.3886C58.4648 97.3798 58.4806 97.3723 58.4921 97.3661C58.5009 97.3635 58.5066 97.3573 58.5123 97.3542C58.588 97.3195 58.651 97.2825 58.7153 97.2534C59.237 96.9963 59.3787 97.3529 59.2207 98.1792ZM62.3129 107.671C62.0135 107.74 60.7206 107.936 60.5207 107.939C60.3239 107.944 60.1566 107.76 60.2403 107.619C60.3235 107.48 61.2136 106.322 61.7027 104.306C61.785 103.977 61.9906 103.749 62.124 104.221C62.227 104.565 62.6263 106.279 62.7183 106.924C62.732 107.037 62.8011 107.556 62.3129 107.671ZM62.8553 91.2301C62.0056 91.5488 61.0609 90.594 60.2962 90.0837C58.5775 88.9087 56.9962 87.7764 55.6988 86.1912C53.7115 83.765 53.8973 82.0736 54.4745 78.9396C54.8755 76.7133 54.1483 74.62 53.9898 74.325C53.8326 74.0292 54.01 73.7289 54.4802 73.949C54.9499 74.17 55.3994 74.8555 55.8819 75.4432C56.3605 76.0309 56.4665 75.6131 56.5062 75.2138C56.5977 74.292 56.3899 73.5537 56.275 73.1254H56.2724C56.2662 73.1047 56.261 73.0787 56.2566 73.0562C56.1892 72.8009 55.9515 72.2317 55.4514 72.1282C54.7813 71.9873 54.1227 71.9279 53.7652 71.6708C53.5988 71.5511 53.4095 71.3063 53.5971 71.1267C53.9383 70.7961 54.434 70.3576 54.905 70.1965C55.5456 69.9763 56.1615 69.6413 56.9728 69.6457C62.4485 69.6805 63.925 68.4135 66.0184 67.5449C66.4287 67.3728 66.6748 67.2962 67.0261 67.4062C67.3791 67.5123 68.3362 67.872 68.5779 68.2973C68.8209 68.7243 68.8636 70.5033 69.3312 71.7866C69.7921 73.0739 70.5775 71.7399 70.7496 71.1892C70.9147 70.6358 70.9794 69.3204 70.9882 68.9876C70.9966 68.6547 71.0939 67.2513 71.5345 66.778C72.4097 65.8434 72.6158 64.7375 72.7219 64.3052C72.8156 63.9174 72.8892 62.8331 72.6972 61.2927C72.6765 61.1029 72.6483 60.9039 72.6149 60.7001C72.319 58.8423 71.9453 58.6851 71.4417 58.3475C70.9363 58.0107 70.4071 58.1569 69.1207 57.2755C67.9699 56.484 66.9253 55.1007 66.054 54.2568C65.1863 53.4142 63.8141 52.5667 62.3666 52.4175C62.275 52.4091 62.1949 52.4074 62.1214 52.4074C62.1152 52.4074 62.1117 52.4074 62.1051 52.4074C62.0408 52.4113 61.9801 52.4157 61.9281 52.4267C61.918 52.4285 61.9118 52.4329 61.9004 52.4351C61.8546 52.4435 61.8128 52.4553 61.7771 52.4699C61.7674 52.4769 61.7586 52.4831 61.7467 52.4875C61.719 52.5038 61.6917 52.5192 61.6693 52.5372C61.6591 52.5474 61.6508 52.5575 61.6398 52.5689C61.6235 52.5852 61.6072 52.6028 61.5957 52.6231C61.5856 52.6372 61.5795 52.6548 61.5707 52.6711C61.5645 52.6887 61.5552 52.7028 61.5513 52.719C61.5429 52.7446 61.539 52.7692 61.535 52.7965C61.535 52.8067 61.5332 52.815 61.5332 52.826C61.531 52.8617 61.531 52.8987 61.535 52.9361H61.5332C61.5627 53.294 61.8207 53.7307 61.8863 53.9103C61.9779 54.1542 62.2094 54.9 61.7987 55.3345C61.3849 55.769 58.9653 57.9337 56.6994 57.8795C55.6754 57.8562 54.8209 57.6457 54.1038 57.3398C54.1078 57.3437 54.1104 57.3468 54.1126 57.3508C54.0822 57.3376 54.0567 57.3213 54.025 57.3068C53.8537 57.2315 53.6913 57.1496 53.5363 57.0637C53.5117 57.0497 53.4822 57.0373 53.4544 57.0219C53.2805 56.922 53.1212 56.8168 52.9693 56.7089C52.9235 56.675 52.8795 56.6416 52.8355 56.609C52.7201 56.5214 52.6101 56.4316 52.507 56.3396C52.4767 56.3118 52.4415 56.2845 52.4111 56.2577C52.2878 56.1401 52.1734 56.0252 52.0664 55.9108C52.04 55.8791 52.0166 55.8496 51.9898 55.821C51.9079 55.7263 51.833 55.6321 51.7608 55.5405C51.7384 55.511 51.7168 55.4846 51.6966 55.4547C51.6151 55.3393 51.5399 55.2293 51.4756 55.1232C51.4668 55.11 51.4624 55.0998 51.454 55.0875C51.3981 54.9907 51.3501 54.8987 51.3078 54.815C51.2977 54.7926 51.2867 54.7723 51.2761 54.7485C51.2343 54.6587 51.1987 54.5711 51.1745 54.4976C50.8438 53.5031 51.6649 51.1527 51.6358 49.4697C51.6257 48.7323 51.4734 47.3173 51.3602 46.3356C51.2475 45.3534 51.7653 44.0314 52.0061 43.7109C52.0602 43.6405 52.1417 43.5731 52.2354 43.5071C52.2592 43.4895 52.2856 43.4754 52.3107 43.4591C52.3983 43.4019 52.4987 43.3477 52.6123 43.298C52.6286 43.2896 52.644 43.2817 52.6625 43.2724C52.7734 43.2267 52.8918 43.1787 53.0208 43.1368V43.143C53.2321 43.0704 53.4597 43.003 53.7089 42.9471C54.5159 42.7675 55.4593 43.1668 55.7019 43.8329C56.5453 46.1564 57.48 46.6473 57.793 46.7992C58.1108 46.9541 58.6101 46.4941 58.806 46.3246C59.0028 46.1604 59.4769 45.537 59.2664 45.2636C58.942 44.8485 58.7641 44.5936 58.6704 44.3343C58.5114 43.8958 59.0846 43.8866 59.2202 43.9478C60.9473 44.6794 61.7745 44.8331 63.4465 44.7772C65.1154 44.7252 67.7115 43.6255 68.0329 43.6193C68.2948 43.6132 68.8125 43.7743 69.0067 44.0437C69.0388 44.0895 69.0824 44.1547 69.1234 44.219C69.2906 44.4677 69.5152 44.8014 69.715 44.8709C69.7238 44.8727 69.7291 44.8771 69.7375 44.8793C69.9849 44.9405 70.5739 44.8956 70.8861 44.9088C71.3083 44.9233 72.0408 44.7772 72.0201 45.5524C71.9735 47.6224 70.3371 48.9136 70.1883 49.0391C70.1311 49.0911 70.0985 49.1575 70.069 49.2249C70.0606 49.2434 70.0448 49.2627 70.0413 49.283C70.0325 49.3209 70.025 49.3587 70.025 49.3944C70.025 49.4318 70.0294 49.4657 70.0373 49.4943C70.076 49.6176 70.253 50.0644 70.3287 50.1859C70.3556 50.2299 70.3882 50.2718 70.43 50.3114C70.4401 50.3215 70.4573 50.3299 70.4692 50.3409C70.5017 50.3655 70.5339 50.3889 70.5709 50.4052C70.5894 50.4153 70.614 50.4175 70.6356 50.4245C70.6699 50.4329 70.7091 50.4408 70.7483 50.4386C70.7729 50.4386 70.8033 50.4303 70.828 50.4245C70.8892 50.4113 70.9464 50.399 71.0115 50.3594C72.3983 49.53 72.9622 48.5496 73.5658 47.3173C74.1676 46.0908 74.4841 42.0402 74.5189 41.3759C74.5532 40.7067 74.7637 40.2956 75.0921 40.0266C75.4183 39.7563 77.0384 38.7186 77.2669 38.6658C77.4993 38.6116 77.7648 38.5892 78.0258 39.1932C78.2917 39.8012 78.8707 43.5357 78.9807 44.1098C79.1053 44.7199 79.4214 44.6473 79.5808 44.5302C79.9272 44.2771 80.1782 43.9658 80.4868 43.4358C80.8055 42.9053 80.5722 42.1736 80.2622 41.8329C79.9567 41.4904 79.4725 40.9431 79.6785 40.3999C80.1478 39.1655 81.1339 39.2275 81.3985 39.2716C81.6578 39.3156 82.6571 39.7655 82.8376 42.4554C83.0987 46.4399 81.4738 50.5601 81.0864 51.6048C80.2297 53.9275 80.05 55.5088 79.9175 56.2616C79.789 57.0114 79.2198 56.8758 79.0828 56.7543C78.9442 56.6332 78.7663 56.0525 78.6787 55.9667C78.5889 55.8808 78.3644 55.9249 78.2173 56.5645C78.0707 57.2029 77.5812 58.0895 77.2946 58.572C77.1027 58.885 77.1383 59.334 77.1845 59.6827C77.2704 60.3602 77.623 62.9524 77.5152 65.8993C77.3197 71.1425 75.5667 74.4452 74.2592 76.174C71.1828 80.2422 68.2975 81.9424 67.951 82.1837C67.5059 82.494 66.7615 82.4456 66.5123 82.3633C66.2592 82.292 66.0369 82.0305 65.5636 81.6928C65.5249 81.6624 65.4861 81.6461 65.4535 81.629C65.0776 81.4551 65.0212 81.9842 65.0247 82.1225C65.0292 82.2695 65.2568 82.8141 65.3853 83.3424C65.631 84.3382 65.0776 85.5418 64.5084 86.4918C63.6961 87.835 62.7897 89.3116 62.979 90.9338C62.9768 91.0782 62.9768 91.1834 62.8553 91.2301ZM88.9252 92.7811C89.3888 95.4463 89.9105 98.6939 90.4999 102.675C90.5303 102.885 90.5528 103.065 90.5691 103.232C90.5735 103.253 90.5779 103.275 90.5779 103.295C90.5942 103.452 90.6025 103.596 90.6025 103.713C90.6025 103.726 90.6008 103.736 90.6008 103.746C90.6008 103.799 90.6008 103.856 90.5964 103.901C90.5898 103.947 90.5823 103.985 90.5735 104.024C90.5735 104.04 90.5691 104.056 90.5691 104.07C90.5488 104.152 90.5211 104.221 90.4841 104.28C90.4797 104.289 90.4722 104.297 90.4634 104.309C90.4313 104.354 90.3899 104.395 90.3467 104.428C90.3327 104.438 90.3199 104.448 90.3036 104.46C90.2486 104.495 90.1869 104.525 90.1112 104.55C90.0932 104.558 90.0663 104.561 90.0421 104.57C89.9849 104.589 89.9224 104.605 89.8541 104.623C89.8114 104.632 89.7692 104.64 89.7256 104.652C89.6362 104.67 89.5402 104.689 89.4385 104.708C89.2506 104.747 88.975 104.786 88.7839 104.802C88.4533 104.835 88.0676 104.867 87.6477 104.904C83.5873 105.276 75.6411 106.082 69.2752 106.883C69.1555 106.895 69.0327 106.908 68.9019 106.929C68.4062 106.998 68.1187 106.919 68.0796 106.432C68.0492 105.986 67.3043 101.566 65.0542 97.802C64.8478 97.4551 64.6299 97.1125 64.3992 96.7806C64.1425 96.4108 64.5238 96.1295 64.887 96.2576C65.9065 96.616 68.7302 97.9081 72.758 100.791C73.7864 101.525 74.0536 101.754 74.2843 101.95C74.3146 101.977 74.3622 102.003 74.4044 102.023C74.4207 102.032 74.4392 102.035 74.4595 102.044C74.4872 102.054 74.5229 102.064 74.5576 102.072C74.5761 102.076 74.5942 102.081 74.6127 102.082C74.6514 102.086 74.6902 102.088 74.7249 102.086C74.7412 102.086 74.7553 102.086 74.7685 102.086C74.8148 102.08 74.8601 102.066 74.8971 102.043C74.9908 101.984 75.034 101.869 74.9605 101.672C74.71 100.965 73.3628 99.5783 69.9171 96.3809C69.4254 95.9261 69.417 95.7342 69.9268 95.6809C70.4348 95.6325 71.8163 95.695 72.5506 95.6646C73.2871 95.6325 74.9314 95.5867 74.6092 93.4348C74.3622 91.7681 74.1685 90.0441 74.1381 89.5281C74.1104 89.0139 74.0197 88.0525 72.8161 87.9164C71.6204 87.7791 69.6151 88.0569 67.8163 88.6873C67.3201 88.8594 67.1449 88.6305 67.5121 88.2955C67.8775 87.9631 71.0357 85.9081 73.7269 82.8176C76.6853 79.415 77.9866 76.9114 78.7254 74.6345C78.8588 74.2303 79.0291 74.3677 79.1947 74.4602C79.358 74.5566 80.4678 75.4542 80.8614 77.6611C81.247 79.8724 82.0122 82.9413 80.6637 91.0003C79.9228 95.415 79.0172 98.0225 78.8068 98.645C78.5951 99.2609 78.9578 99.6083 79.3659 99.0558C80.3168 97.7575 81.5741 94.159 82.6351 90.0217C83.6798 85.9393 84.0584 82.4394 84.2186 80.196V80.1938C84.2349 79.9878 84.249 79.7941 84.2592 79.6083L84.2658 79.533C84.2746 79.3516 84.2838 79.1773 84.2961 79.021C84.2961 78.925 84.308 78.8493 84.3243 78.7802C84.3287 78.7595 84.3362 78.7432 84.3428 78.7252C84.3525 78.6944 84.3613 78.66 84.3727 78.6354C84.3727 78.631 84.3776 78.631 84.3776 78.627C84.3978 78.5883 84.4225 78.5557 84.4441 78.5306C84.4511 78.5222 84.4564 78.5143 84.4625 78.5099C84.4828 78.4918 84.5013 78.4835 84.5198 78.4738C84.5339 78.4672 84.5479 78.4575 84.5611 78.4527C84.5726 78.4509 84.5814 78.4509 84.5933 78.4487C84.6162 78.4443 84.6386 78.4399 84.6584 78.4399C84.6668 78.4399 84.6747 78.4399 84.6849 78.4443C84.695 78.4443 84.7082 78.4443 84.7157 78.4443C84.7232 78.4443 84.7276 78.4509 84.7315 78.4509C84.8134 78.465 84.8883 78.4976 84.9459 78.5222C85.1564 78.6045 86.0866 78.8731 86.5713 81.1051C86.5915 81.1949 86.6122 81.2926 86.6364 81.3899C86.6404 81.4225 86.6479 81.459 86.6567 81.4916C86.6796 81.5814 86.6998 81.6712 86.7214 81.7694L86.7262 81.7857C87.1282 83.5405 87.8563 86.5768 88.9252 92.7811Z" fill="black"/>
<path d="M71.759 96.5834H72.2116V97.7382H72.485V96.5834H72.9362V96.3514H71.759V96.5834Z" fill="black"/>
<path d="M73.9175 97.3429L73.5684 96.3514H73.1748V97.7382H73.4279V96.6222L73.8136 97.7382H74.0359L74.4154 96.6222V97.7382H74.6681V96.3514H74.2745L73.9175 97.3429Z" fill="black"/>
</svg>
