<?xml version="1.0" encoding="utf-8"?>
<!-- Generator: Adobe Illustrator 24.2.0, SVG Export Plug-In . SVG Version: 6.00 Build 0)  -->
<svg version="1.1" id="Layer_1" xmlns="http://www.w3.org/2000/svg" xmlns:xlink="http://www.w3.org/1999/xlink" x="0px" y="0px"
	 viewBox="0 0 1125 1125" style="enable-background:new 0 0 1125 1125;" xml:space="preserve">
<style type="text/css">
	.st0{fill:#34304E;}
</style>
<path class="st0" d="M135.2,778.7c-36.5-1.4-66.4-11.3-89.8-29.7c-4.5-3.5-15.1-14-18.7-18.5c-9.5-11.8-15.9-23.3-20.2-36
	C-6.6,655.2,0.2,603.7,26,547.3c22.2-48.4,56.4-96.3,116-162.7c8.8-9.8,35-38.4,35.1-38.4c0.1,0-1.4,2.4-3.2,5.4
	c-15.5,25.7-28.8,56-36,82.3c-11.6,42.1-10.2,78.2,4.1,106.3c9.9,19.3,26.8,36,45.8,45.3c33.3,16.2,82.1,17.5,141.7,3.9
	c4.1-0.9,207.4-54.4,451.8-118.8c244.4-64.4,444.4-117,444.4-117c0.1,0.1-567.8,240.7-862.6,365.6c-46.7,19.8-59.2,24.8-81.1,32.4
	C226.1,771,175.9,780.3,135.2,778.7z"/>
</svg>
