<svg width="100%" height="100%" viewBox="0 0 130 130" fill="none" xmlns="http://www.w3.org/2000/svg">
<path d="M110.961 110.963C85.583 136.347 44.4199 136.344 19.0428 110.963C-6.3476 85.5751 -6.3476 44.4157 19.0428 19.0364C44.4256 -6.34586 85.583 -6.34586 110.957 19.0388C136.346 44.4151 136.346 85.5745 110.961 110.963" fill="white"/>
<path d="M115.601 32.1987C116.818 36.143 117.486 40.3295 117.486 44.6697C117.486 58.6741 110.601 70.9886 100.128 78.7043C81.9185 92.1163 55.3769 92.1341 18.73 103.682C29.7904 116.901 46.4113 125.316 64.9993 125.316C98.3127 125.316 125.317 98.3119 125.317 64.9998C125.317 52.9069 121.738 41.6488 115.601 32.1987Z" fill="#5E98F0"/>
<path d="M101.173 16.7393C91.0935 9.16389 78.5718 4.68188 65.0012 4.68188C31.689 4.68188 4.68579 31.6921 4.68579 64.9998C4.68579 78.4074 9.05981 90.7913 16.4576 100.804C57.0246 88.992 89.0563 57.1704 101.173 16.7393Z" fill="#C45858"/>
</svg>
