<svg width="100%" height="100%" viewBox="0 0 130 130" fill="none" xmlns="http://www.w3.org/2000/svg">
<path d="M0 65.0005C0 29.1036 29.0996 0 65.0005 0C100.898 0 129.999 29.1036 129.999 65.0005C129.999 100.9 100.898 130 65.0005 130C29.0996 130 0 100.898 0 65.0005Z" fill="#44AED0"/>
<path d="M1.91602 65.0005C1.91602 30.1619 30.1588 1.91919 64.9994 1.91919C99.8391 1.91919 128.083 30.1619 128.083 65.0005C128.083 99.8391 99.8392 128.084 64.9994 128.084C30.1588 128.083 1.91602 99.8393 1.91602 65.0005Z" fill="white"/>
<path d="M64.9999 3.97266C31.2938 3.97266 3.97266 31.2959 3.97266 64.9999C3.97266 98.705 31.2928 126.027 64.9999 126.027C98.7039 126.027 126.027 98.705 126.027 64.9999C126.027 31.2959 98.705 3.97266 64.9999 3.97266ZM65.5752 8.31973C67.4344 8.33786 69.2294 8.57535 70.8014 9.35087C71.8313 10.2737 72.1242 11.4879 72.0714 12.835C71.7803 13.7874 71.2519 14.7082 70.4053 15.3695C71.4361 16.1346 72.4672 16.9274 72.6249 18.3001C72.917 19.6474 72.5163 20.8614 71.7512 21.8657C70.1413 23.6871 67.5812 23.2157 65.255 23.293L59.1116 23.4558L59.0736 22.8968L58.4386 8.94927L58.4115 8.64535C60.6843 8.6306 63.1847 8.29641 65.5752 8.31973ZM77.379 9.74705L82.2417 11.3155C81.157 14.4454 79.7331 17.5335 78.9637 20.8345C78.8865 21.6558 79.3713 22.5024 80.3096 22.7394C80.9588 23.0967 81.8846 23.1637 82.3719 22.7394C84.4599 19.8088 85.4482 16.1619 86.757 12.873C88.4207 13.4552 89.7202 14.2898 91.332 14.8973C89.6124 18.5422 88.5545 22.8306 86.1763 25.8274C84.4596 27.3334 81.7396 26.965 79.6801 26.4624C77.3285 25.6189 74.7645 24.1122 74.0522 21.4695C73.4986 19.6602 76.0074 13.456 77.379 9.74705ZM49.2723 10.7076C50.7702 10.6692 52.1708 11.0989 53.3426 12.3086C54.2931 13.3649 54.4242 14.8417 54.4497 16.189C54.2146 17.059 53.9976 17.9342 53.4186 18.6474C54.6712 20.1901 57.0024 21.9407 58.6123 23.4721L58.4115 23.5372L53.6574 24.59C51.9662 23.2295 51.0097 22.2663 49.5382 21.2578C48.9044 21.3351 48.4675 21.7097 47.8721 21.9742L49.5057 25.7243L45.0446 28.1556C43.214 23.6905 40.9723 18.4724 39.3137 14.2841C42.2016 13.1221 45.9769 10.7921 49.2723 10.7076ZM96.3195 19.722C99.0827 19.7733 101.555 20.9463 103.212 22.9782C104.111 24.0864 104.716 25.4593 105.111 26.8586C104.002 27.4549 103.157 28.132 102.099 28.6061C101.838 26.9688 100.942 25.2996 99.3315 24.4815C98.5653 24.0317 97.4229 23.9571 96.5528 24.2481C95.2045 24.7488 94.048 25.9074 93.5462 27.2547C93.0965 28.5491 93.5969 29.817 94.3386 30.8203C95.3674 31.9833 96.7411 32.5919 98.2949 32.6438C97.5968 33.7926 97.2141 34.5174 96.5528 35.417C93.9621 35.0466 91.5352 33.6209 90.0566 31.2165C88.7887 29.1844 88.713 26.068 89.8233 23.9279C90.9844 21.5753 93.2807 20.0713 95.7605 19.7274C95.9471 19.7208 96.1353 19.7186 96.3195 19.722ZM30.8854 19.7708L31.3359 20.0476C35.7095 22.7188 40.2028 25.863 44.6322 28.3836L44.1763 28.6875L40.6867 30.9831C39.3852 30.2973 38.6252 29.834 37.6747 29.3984L33.816 32.6492C34.2129 33.6016 34.7179 34.7624 35.1402 35.8186L31.6941 39.6718L31.4173 39.064L25.3118 24.5629L30.8854 19.7708ZM64.8588 27.157C85.6141 27.157 102.441 43.9874 102.441 64.7448C102.441 85.4993 85.6141 102.322 64.8588 102.322C44.1035 102.322 27.2764 85.4993 27.2764 64.7448C27.2764 43.9874 44.1035 27.157 64.8588 27.157ZM108.281 28.5735L111.135 32.329C109.921 33.544 108.313 34.5752 107.016 35.7372C109.078 36.1849 111.398 36.1041 113.512 36.4482C114.464 37.8239 114.964 39.1432 115.889 40.8061L108.129 40.258C106.411 42.9515 104.85 45.6969 103.369 48.4962C102.446 47.1489 101.734 45.4045 100.835 43.8995C101.84 41.8643 103.144 39.7153 104.151 37.6801C102.421 38.7516 100.902 40.1375 99.1415 41.2457L96.4009 37.5607C100.099 34.391 104.082 31.5643 107.966 28.6875L108.281 28.5735ZM20.7585 29.4853L23.9388 31.3522C23.2367 32.8042 22.3155 33.7968 21.6703 35.1837L30.7009 41.1263C30.2247 42.4725 29.1969 43.7956 28.3239 45.088L19.0544 39.3028C18.2231 40.3988 17.6237 41.5224 16.7914 42.9226C15.5764 42.1177 14.7174 41.5855 13.7414 40.8875C16.041 37.0543 18.2237 33.4619 20.7585 29.4853ZM12.873 43.9755C13.6639 44.427 14.5893 45.1151 15.4075 45.799C13.7682 47.0699 12.6052 48.9182 12.949 51.0307C13.1352 51.3471 13.3181 51.8196 13.7414 51.899C15.0612 51.899 15.512 50.4764 16.1184 49.6034C16.8327 48.018 18.2058 46.3022 20.0802 46.1192C21.6909 46.0143 23.0681 46.436 24.1233 47.7039C25.7341 49.6342 25.4466 52.7457 24.6823 54.9924C23.9659 56.6561 22.8585 58.347 21.2741 59.4318L18.4195 57.6897C19.9785 56.6089 21.617 54.8343 21.8277 52.8542C21.8277 52.1409 21.6716 51.1914 20.7965 51.1121C18.9751 51.6412 18.7871 53.8314 17.5457 55.0738C16.5953 56.0517 15.4058 56.7878 13.8987 56.5771C12.4985 56.4967 11.3087 55.6249 10.4906 54.5148C8.93155 52.1387 9.70306 48.6507 10.6534 46.8301C11.2364 45.7984 11.9226 44.7702 12.873 43.9755ZM114.468 45.2074C116.303 45.1851 118.07 46.3129 118.901 47.8613C120.273 50.0786 120.805 53.0123 120.09 55.7088L117.159 55.5514C117.557 53.7809 117.847 51.5604 116.606 50.0809C116.236 49.6322 115.579 49.3642 115.103 49.6034C113.492 51.3994 115.233 53.9905 114.229 56.0236C113.752 56.9496 113.04 58.0574 112.009 58.4766C110.343 59.1115 108.284 58.7958 107.016 57.5269C104.535 54.9382 103.372 50.9215 104.959 47.5411H108.047C107.519 48.8649 107.15 50.7416 107.651 52.3006C107.914 52.9611 108.234 53.8056 109.002 54.0427C111.537 54.1342 109.817 50.5032 110.424 48.811C110.662 47.5431 111.351 46.2237 112.644 45.6416C113.238 45.3511 113.856 45.2149 114.468 45.2074ZM16.9108 70.8394L18.3381 75.0454C19.9377 75.0372 21.4777 75.095 23.1302 75.0563L19.4506 78.1334C19.8047 79.4277 20.109 80.9127 20.5577 82.6487L16.9108 80.1143C15.3773 80.8143 14.4563 81.6742 12.873 82.4913L14.143 78.1334C12.9391 77.1484 11.5902 76.2115 10.4526 75.2082C12.1112 75.1655 13.565 75.23 15.1687 75.1974C15.9095 73.8124 16.2371 72.2255 16.9108 70.8394ZM112.932 70.8611L114.354 75.0617C115.951 75.0556 117.38 75.1027 119.14 75.0834L115.466 78.1551C115.823 79.4465 116.127 80.9378 116.573 82.6758L112.932 80.136C111.396 80.8341 110.474 81.6949 108.889 82.513L110.153 78.1551C108.951 77.1722 107.605 76.2334 106.473 75.2299C108.128 75.1872 109.582 75.2571 111.184 75.2245C111.831 73.7815 112.296 72.3917 112.932 70.8611ZM29.7132 91.701C30.4596 91.6871 31.2178 91.7648 31.9708 91.9235C33.9996 92.4791 35.9062 94.0088 37.1211 95.8853C37.4396 96.6505 37.8962 97.2555 38.0926 98.4035C37.248 98.9347 36.1818 99.3707 35.2162 99.8471C34.9811 98.1029 33.4486 96.4111 31.7321 95.9613C30.3064 95.6072 28.7495 96.2845 27.6943 97.5514C26.8213 98.5792 26.5559 100.056 26.8206 101.35C27.5085 103.143 29.4085 104.498 31.3359 104.498L31.8894 104.52C31.3634 105.79 31.0221 106.422 30.4676 107.374C27.2693 107.265 24.0483 105.392 22.8588 102.3C21.829 99.7927 22.279 96.5461 23.89 94.458C25.356 92.5974 27.474 91.7429 29.7132 91.701ZM96.6342 92.3957C97.4013 92.8995 97.9554 93.5602 98.6911 94.2246L98.8919 94.42L94.1378 98.843L95.7225 100.759C97.0687 99.7026 98.5212 98.5764 99.961 97.2312C100.701 97.8519 101.298 98.5799 101.996 99.402C100.573 100.759 99.0893 101.683 97.8499 102.978C98.378 103.641 98.7862 104.388 99.592 105.182L104.721 100.954L106.908 103.217C104.002 105.976 100.835 108.817 97.8228 111.021L88.8681 99.4509C91.7225 97.0718 94.1239 94.905 96.6342 92.3957ZM41.1968 100.227C44.1112 100.242 46.7595 101.663 48.2954 103.966C49.9062 106.027 49.9293 109.224 48.925 111.575C47.8047 113.966 45.655 115.486 43.3025 116.014C40.4534 116.462 37.7554 115.542 35.6938 113.561C33.8724 111.553 32.8715 108.67 33.7943 105.871C34.6135 102.833 37.5712 100.613 40.6107 100.243C40.8071 100.232 41.0026 100.226 41.1968 100.227ZM87.1586 100.401C87.7551 101.096 88.1019 101.888 88.6239 102.729L88.7596 102.978L82.958 105.887L83.9403 108.167C85.7098 107.491 87.239 106.864 88.9984 105.974C89.5346 106.78 89.9026 107.641 90.3443 108.623C88.7486 109.473 87.0959 110.132 85.3568 110.897C85.6803 111.678 85.8419 112.248 86.4097 113.502L92.5205 110.886L93.9913 113.67C90.4276 115.501 86.5881 117.337 83.0774 118.608L77.7264 104.992C81.1332 103.51 84.0469 102.102 87.1586 100.401ZM52.8922 105.22C56.4058 105.979 60.0044 106.64 63.4315 107.152C63.2403 108.228 63.1743 109.523 62.9973 110.864C60.7871 110.494 58.6775 110.101 56.5608 109.784C56.4427 110.842 56.1447 111.478 56.0561 112.28C57.9559 112.846 59.7137 113.041 61.5483 113.377L61.0273 116.774C59.2028 116.538 57.2361 116.22 55.3669 115.819C54.9527 117.292 54.579 119.147 54.0427 120.752C52.4837 120.504 50.8295 120.151 49.3266 119.558L52.8107 105.507L52.8922 105.22ZM75.7943 105.551C75.9411 106.634 76.2682 107.889 76.5053 109.225C74.2829 109.546 72.1635 109.809 70.0471 110.153C70.2607 111.195 70.1643 111.894 70.3239 112.687C72.3061 112.649 74.0367 112.297 75.8866 112.058L76.4293 115.444C74.62 115.776 72.646 116.077 70.7472 116.264C70.8001 117.795 71.005 119.669 70.9805 121.36C69.4226 121.598 67.7407 121.77 66.1287 121.664L65.179 107.217L65.1627 106.913C68.7395 106.569 72.3754 106.106 75.7943 105.551Z" fill="#44AED0"/>
<path d="M66.6806 11.8039C67.0489 12.1978 66.9727 13.0189 66.7579 13.4687C66.0731 14.2623 64.8052 14.2328 63.7479 14.1007C63.8252 13.2042 63.4945 12.3312 63.5607 11.4082C64.4592 11.5393 66.0202 11.0895 66.6806 11.8039Z" fill="#44AED0"/>
<path d="M49.2464 15.4477C49.508 16.1082 49.5243 17.1837 48.9614 17.5755L46.3472 18.6847C45.6949 17.485 45.4173 16.6627 44.9685 15.6879C46.1826 15.2381 48.2676 13.4157 49.2464 15.4477Z" fill="#44AED0"/>
<path d="M67.5517 17.8259C67.7613 18.7519 67.341 19.7024 66.4414 19.8885C65.5969 20.0188 64.9639 19.9405 64.0653 19.9658C63.933 19.0134 63.8557 17.7465 63.933 16.9538C65.1471 17.1125 66.9727 16.452 67.5517 17.8259Z" fill="#44AED0"/>
<path d="M34.5852 27.4153C33.8728 28.0768 33.0792 28.7097 32.2091 29.3161C31.5742 27.8101 30.9657 26.4628 30.3063 24.7991C31.8236 25.6061 33.1567 26.5423 34.5852 27.4153Z" fill="#44AED0"/>
<path d="M64.5819 29.8054C58.9131 29.8523 53.2921 31.1701 48.7675 33.7563C37.5956 39.4364 30.8629 50.9777 29.9899 62.9159L30.3046 63.5508C34.5042 65.7967 37.2258 60.857 41.3216 61.4126C42.2446 61.836 41.1367 62.5472 41.1642 63.1546C40.8447 63.9462 39.7329 63.576 39.0205 63.7896C36.2191 65.0036 33.3414 67.3553 30.0658 66.0853C30.0658 66.0853 30.0893 66.3302 30.1147 66.6822H30.1093C30.1773 67.5827 30.3046 69.1787 30.3046 69.1787C33.9772 70.343 36.352 66.5082 39.8128 66.959C39.7314 67.7242 39.6806 68.5436 39.2593 69.0973C36.0895 69.2579 34.1053 72.2419 30.7768 72.0333L31.4118 74.5677C34.2894 74.8597 36.1418 71.8996 39.0205 72.1907L38.9445 74.0902C36.4078 74.3274 34.7708 76.7047 32.2095 76.8634C32.5513 82.7267 36.6146 75.9645 39.1779 77.1022C39.2826 77.735 39.6558 78.3437 39.4167 79.0071C37.3561 78.9786 36.0614 80.7777 34.2664 81.3841C34.5828 82.1229 34.7952 83.1784 35.6123 83.441C37.1458 82.8071 38.3876 81.4642 40.209 81.5415C39.9985 80.8536 39.8138 79.9283 39.8942 79.3219C42.191 79.9285 43.5141 78.1299 45.1259 77.1022C45.4943 73.8501 47.7634 71.3705 49.1637 68.5437C49.3132 67.9199 49.3639 67.3 49.3536 66.6822C49.2824 63.2459 47.2137 59.9232 48.8489 56.3383C49.3517 54.9382 50.2239 53.0935 51.7035 52.6967C48.9825 55.9469 49.4856 60.9105 50.9112 64.582C51.1993 65.3289 51.3022 66.0228 51.2748 66.6822C51.1527 69.5802 48.4565 71.7891 47.4216 74.4104C46.1304 77.0266 47.3134 80.0131 48.7675 82.1765C46.6814 83.7883 44.7535 85.8465 42.0325 85.8994C41.2682 85.5261 41.2408 84.4755 40.844 83.7612C39.2341 83.4427 37.9432 84.5541 36.6489 85.3459L38.1522 87.2454C39.2612 86.7162 40.5323 85.5853 41.7991 86.377C43.6754 88.5965 39.9722 87.4807 39.4981 88.8301C40.0241 89.5433 40.6611 90.0714 41.3216 90.6535C42.0867 90.4155 42.6956 89.8069 43.6226 89.9372C43.992 90.3859 44.4136 90.8353 44.5724 91.3645L43.1451 92.2383C44.1758 93.2945 45.4712 94.2998 46.7106 94.7781C47.4515 92.2912 49.4316 90.3663 50.3576 87.9617C50.5427 87.0368 50.5938 85.9252 50.8298 85.1071C53.4968 89.2537 47.8992 91.7115 47.8992 95.6464C48.4822 96.1735 49.1942 96.4625 49.88 96.7536C49.7741 93.6642 52.3638 91.6841 53.4456 89.0688C55.4278 84.9212 50.8566 82.3324 49.4025 79.0071C48.0288 75.9929 49.9581 73.1635 51.8609 70.9208C53.1858 69.4901 53.5301 68.0896 53.413 66.6822C53.1494 63.4941 50.5211 60.2929 51.6221 56.7344C52.2572 54.516 53.2057 51.8721 55.5025 50.9492C53.8377 52.8755 52.9663 55.1219 52.8106 57.6842C52.3477 61.1653 55.1375 63.5858 55.2962 66.6822C55.3258 67.3 55.2521 67.9433 55.0303 68.6251C53.736 71.4255 50.8053 73.5339 50.8298 76.8634C50.4859 81.245 56.2188 82.9135 55.5839 87.4082C55.532 91.3177 51.0425 93.4784 52.0183 97.7033L54.4768 98.5011C53.0765 93.747 58.0159 91.1005 58.0423 86.8492C58.2794 83.2552 54.4235 81.3821 53.4456 78.2907C52.4168 75.2257 54.6606 72.7713 56.3762 70.4432C57.2199 69.1296 57.4178 67.8911 57.2825 66.6822C56.9385 63.6865 54.5202 60.8818 54.6341 57.6082C54.5803 54.5972 55.8992 51.6375 58.5145 50.2382C57.725 51.3718 56.826 52.4545 56.3762 53.7224C54.7379 58.162 57.4874 61.9669 58.8347 65.7705C58.9384 66.085 59.0111 66.3872 59.0518 66.6822C59.5585 70.2071 55.9476 72.4574 55.2637 75.6749C54.3387 79.5844 58.5414 81.3794 59.4642 84.6295C61.4464 89.9362 55.0286 93.0286 56.5336 98.3383C56.5072 99.8973 58.33 99.2918 59.3068 99.6082C56.9299 95.2245 60.7626 91.605 61.9227 87.8043C63.2181 83.7341 59.3394 81.4349 57.7276 78.2907C56.0343 74.7518 59.8886 72.5584 60.7341 69.5749C61.4453 67.5397 63.2729 69.4178 64.4625 69.1787C66.0743 69.4729 67.4721 67.8836 68.8205 69.0213C69.4788 71.7159 72.594 73.3792 72.6194 76.3098C72.5137 80.8502 65.9401 83.2282 68.0281 88.1951C69.7448 91.657 72.6737 95.6174 70.7199 99.6082L73.173 99.0546C74.8112 94.9589 71.7768 91.813 70.3238 88.5099C69.0041 84.7347 72.3073 81.9092 74.2855 79.0071C76.1641 75.4924 73.153 72.6085 71.4363 69.8896C70.8441 68.7704 70.723 67.7079 70.8665 66.6822C71.1688 64.5078 72.6571 62.4865 73.3358 60.4574C74.7889 56.9987 73.969 52.6961 71.2735 50.0809L71.3549 49.9995C72.7022 50.7931 73.9168 52.1924 74.5243 53.565C76.8362 58.2143 73.5298 62.3321 72.7117 66.6822L72.6248 67.1978C72.5465 70.2647 75.0568 71.7172 76.2718 74.1716C78.3039 78.1331 74.714 80.9339 72.7062 83.9186C69.455 89.4919 77.2222 92.766 75.6368 98.3383L78.0139 97.5459C78.6203 94.5583 76.3735 92.1337 74.9205 89.7038C72.9148 85.6347 76.5069 82.4926 78.5675 79.4033C80.3899 75.5467 77.2215 72.2962 75.3981 69.3361C74.8151 68.4844 74.6308 67.5858 74.6817 66.6822H74.6871C74.7828 64.9524 75.7363 63.1988 76.4292 61.7273C77.8031 58.0276 76.8508 53.5413 74.4483 50.7918C76.0601 51.4533 77.2449 53.2517 77.7751 54.835C79.6771 58.7709 77.3518 62.7065 76.5866 66.4055L76.5812 66.6822C76.5518 70.2295 79.9126 72.19 80.8631 75.3547C81.7891 78.6314 79.1767 80.9025 77.6177 83.2836C72.942 88.1456 80.2326 91.7901 80.1522 96.5962C80.8401 96.3062 81.7362 96.1694 82.133 95.4836C81.7892 92.8177 79.519 90.9398 78.5675 88.5099C78.5155 87.3487 78.2503 85.9201 79.045 85.0257L79.2024 85.1831C78.9124 89.0642 82.2948 91.4168 83.3216 94.7727C84.5131 94.0555 85.7518 93.3759 86.7298 92.3197C86.3614 91.9484 85.8075 91.6595 85.3079 91.4459C85.0392 90.8648 85.8068 90.309 86.1762 89.7798L88.3904 90.5721C89.0509 89.9636 89.7696 89.4663 90.1379 88.6727C89.3443 88.1171 88.4726 87.7168 87.5221 87.5601C87.4917 86.9537 87.8352 86.4792 88.233 86.0568C89.5835 86.0051 90.64 86.6369 91.7226 87.164C92.3017 86.6379 92.9414 85.9526 93.15 85.1885L90.2953 83.7612C88.3406 82.5197 88.8688 85.2116 87.9183 85.818C85.2513 85.7123 83.3503 83.8358 81.3407 82.1711C81.5788 80.9582 82.5299 80.0358 82.8494 78.8443C84.0114 74.9634 80.9202 72.0343 79.2024 68.9399C78.7719 68.1829 78.6113 67.4321 78.6163 66.6822C78.6306 64.579 79.9185 62.4826 79.9948 60.3C80.6542 57.4741 79.332 54.7576 78.2473 52.4579C78.989 52.9077 79.7848 53.5108 80.2336 54.276C81.712 57.1821 82.1344 61.2274 80.7871 64.3432C80.4554 65.1777 80.3438 65.9547 80.3855 66.6822C80.6023 70.3313 84.703 72.8867 84.7489 76.782C86.3313 77.9725 87.7632 79.9568 89.8992 79.3219C90.0589 80.087 89.634 80.9011 89.6604 81.6175C91.5622 81.5116 92.8322 82.9414 94.4959 83.441C94.8917 82.7542 95.5789 82.0666 95.527 81.2973C93.6527 80.7437 92.3054 78.8983 90.2194 78.8443L90.6101 77.0208C92.8049 76.9678 94.4152 78.8201 96.4767 79.3219C97.1902 78.7906 97.4261 77.8159 97.6653 76.9448C95.1305 76.549 93.3077 74.4056 90.7729 74.0088C90.8238 73.3789 90.6403 72.6414 90.9303 72.1093C93.3339 72.1093 94.9188 74.0407 97.1117 74.5677C99.2242 75.5712 98.535 73.0617 99.0112 72.1093C95.6553 72.2437 93.6258 69.1281 90.3767 69.0213L89.9806 67.035C93.4923 66.457 95.8692 70.2889 99.4888 69.2601C99.8379 68.3442 99.754 67.5757 99.7276 66.6822L99.7221 66.0853C95.6283 67.6992 92.936 63.6048 89.0254 63.6322C88.5207 63.0512 88.3897 62.3392 88.1516 61.6514C92.5638 60.2278 95.4707 66.5865 99.8035 63.312C99.4627 57.9486 98.3216 52.9098 95.8418 48.4202C93.25 43.2946 88.4732 38.2465 83.4789 35.1836C78.3365 31.5431 71.4237 29.7487 64.5819 29.8054ZM64.8587 32.0142C65.7305 33.2026 66.0205 34.7595 66.7582 36.0519L71.0401 36.2907L70.9587 36.6869L67.7893 39.6989C68.3419 41.0472 68.8999 42.3977 69.4554 43.7421C71.859 42.3449 74.1589 40.5971 77.0642 40.4098C76.7997 41.9444 75.6376 43.5585 75.7942 45.088C77.5913 44.5863 79.2285 43.4754 81.1833 43.5793C79.9663 45.8261 78.1958 48.0749 78.0899 50.8732C75.4219 49.8719 72.6776 48.6557 69.6942 48.1814C63.3283 47.0967 57.1957 48.4926 51.9369 51.0306C51.4892 48.3626 50.1955 46.0417 48.6101 43.8235C49.5606 43.506 50.7235 44.028 51.7035 44.2956C52.5227 44.5308 53.2086 45.09 54.0806 45.2508C54.2362 43.6654 53.3127 42.1019 52.6533 40.6486C53.102 40.3048 53.8176 40.5682 54.3194 40.73C56.4044 41.5207 58.2786 42.7607 60.1806 43.8994C61.1575 42.7607 61.5258 41.1235 61.9227 39.6175L58.6773 36.6869V36.3721L62.9538 36.1333C63.6662 34.7871 64.1455 33.3615 64.8587 32.0142ZM37.197 46.3525C37.4426 46.3679 37.7156 46.5741 37.9134 46.6727C39.9496 48.2581 40.9261 50.4495 41.1642 52.8541C43.7254 51.8751 47.2086 50.1834 49.956 51.9803C49.373 52.7985 48.2437 53.25 47.4216 53.9612C46.0764 55.2819 44.4367 56.8942 43.4598 58.5579C40.1577 57.8964 37.5169 59.8259 34.744 60.935C33.6877 61.1446 32.2881 61.251 31.4172 60.5388C34.0324 56.2314 37.7239 52.2693 36.8008 46.5913C36.91 46.4027 37.0497 46.3432 37.197 46.3525ZM92.8352 46.4339C93.1771 46.4858 93.4143 46.8589 93.3073 47.2262C92.2796 52.6142 95.9747 56.4186 98.4576 60.5388C95.6064 62.4417 92.9064 59.5091 90.2139 58.7967C89.0254 58.6125 87.6297 58.4542 86.491 58.6393C84.8568 56.1055 82.6628 53.7262 79.9948 52.3005C80.1514 51.4305 81.3668 51.3752 82.2144 51.2694C84.565 51.0343 86.624 52.0072 88.5532 53.0115C88.9226 52.1414 89.0776 51.1613 89.3402 50.2382C89.9772 48.6793 91.2243 47.0922 92.8352 46.4339ZM64.5711 49.2831C64.7154 49.2802 64.8603 49.2817 65.0052 49.2831C65.7785 49.2904 66.5595 49.3538 67.3117 49.4459C68.8454 49.8417 70.5358 50.505 71.2735 52.1431C71.3549 52.5919 71.8034 52.9873 71.5123 53.4891C69.9533 53.0118 68.1839 53.2778 66.6768 53.8852C65.3284 54.8885 65.5404 56.9494 65.8844 58.4005L66.286 58.7207C66.9454 58.561 66.9715 57.714 67.5505 57.5268C68.5295 57.7659 69.8774 58.1108 70.8013 57.5268C71.6195 57.5542 71.5922 58.6911 71.6697 59.2743C71.0896 62.3383 69.799 65.6644 66.6822 67.1164C65.3868 67.7513 63.7176 67.3253 62.4762 66.8776C59.4133 65.0552 57.6985 61.4418 58.0423 58.1672C58.2804 57.6655 58.6489 57.2642 59.2309 57.6082C60.4693 58.4527 61.8163 56.9511 62.9538 58.0044C64.3265 57.3969 63.5074 55.7078 63.5074 54.4388C62.3982 53.0111 60.4984 53.2194 58.8347 53.3262C58.0938 52.8754 58.8915 52.1683 59.0735 51.6656C60.3371 49.8833 62.4059 49.3272 64.5711 49.2831ZM59.5456 54.6613C60.5745 54.6236 61.5873 55.0116 62.0801 55.7847V56.1049C61.1826 56.0245 59.7309 55.1267 58.9107 56.2623C58.3836 56.4983 58.3043 55.8877 58.3571 55.5459C58.2513 55.1501 58.4908 54.8354 58.8347 54.759C59.0671 54.7044 59.3082 54.67 59.5456 54.6613ZM69.6834 54.7481C70.42 54.733 71.19 54.7892 71.5123 55.3885C71.4878 55.7081 71.568 56.0772 71.1975 56.2623C70.1932 55.8665 68.7936 55.31 67.7893 56.1049C67.2072 54.8625 68.8204 55.1273 69.374 54.759C69.4766 54.7553 69.5781 54.7503 69.6834 54.7481ZM65.0052 59.9255C64.4407 59.9253 63.8547 60.0904 63.4314 60.3814C63.4833 60.5931 63.3008 60.9096 63.5888 61.0164C64.4344 60.8332 65.9647 61.4661 66.438 60.4628C66.1083 60.0935 65.5697 59.9258 65.0052 59.9255ZM62.0041 62.5197L62.0801 62.9973C63.1118 63.6841 63.43 64.8497 64.8587 64.7448C66.1256 64.8201 67.077 63.633 67.7079 62.6825C65.9933 62.4453 63.9069 62.8118 62.0041 62.5197Z" fill="#34304E"/>
<path d="M44.9676 105.871C45.862 107.957 44.8334 110.017 43.3801 111.496C42.4573 112.235 41.2473 112.7 40.0334 112.252C39.2693 111.881 38.3238 111.206 38.1121 110.385C37.53 108.273 38.4958 106.293 39.9733 104.84C40.8719 104.099 42.1662 103.678 43.2997 104.206C43.9876 104.415 44.7538 105.183 44.9676 105.871Z" fill="#44AED0"/>
<path d="M107.88 119.624C109.945 119.624 111.715 121.229 111.715 123.408C111.715 125.607 109.947 127.211 107.88 127.211C105.794 127.211 104.024 125.607 104.024 123.408C104.024 121.23 105.794 119.624 107.88 119.624ZM107.88 120.238C106.121 120.238 104.761 121.598 104.761 123.408C104.761 125.258 106.122 126.598 107.88 126.598C109.619 126.598 110.979 125.26 110.979 123.408C110.977 121.598 109.619 120.238 107.88 120.238ZM107.071 125.607H106.397V121.23H108.073C109.116 121.23 109.628 121.618 109.628 122.476C109.628 123.265 109.137 123.602 108.482 123.683L109.73 125.606H108.994L107.828 123.704H107.07V125.607H107.071ZM107.071 123.153H107.87C108.688 123.153 108.954 122.917 108.954 122.435C108.954 122.017 108.749 121.781 107.982 121.781H107.071V123.153Z" fill="#010101"/>
</svg>
